<svg width="109" height="245" viewBox="0 0 109 245" fill="none" xmlns="http://www.w3.org/2000/svg">
<g opacity="0.5">
<path fill-rule="evenodd" clip-rule="evenodd" d="M102.373 85.6796C99.1949 82.3532 94.1233 80.6856 86.6333 80.5577C89.6043 92.1709 91.3179 104.98 91.6698 119.218C98.8715 120.454 103.335 126.171 106.804 132.887C109.167 109.644 109.242 92.8735 102.373 85.6796ZM43.1994 95.3542L52.1212 91.4759L67.3249 126.243C71.9328 124.284 76.9374 122.241 81.9882 120.399C80.7647 60.2273 54.5967 28.0805 12.1178 0L3.20364 3.87069C-5.08121 54.0028 0.744608 94.998 44.1269 136.843C48.9156 134.408 53.8085 132.155 58.4163 130.12L43.1994 95.3542ZM38.4392 72.306C30.6926 75.6685 21.6809 72.1508 18.301 64.4291C14.9298 56.7216 18.4753 47.7323 26.2153 44.3675C33.9542 40.9995 42.9736 44.5326 46.3447 52.2379C49.7225 59.9585 46.1869 68.9446 38.4392 72.306ZM11.6826 113.129C6.68665 118.673 4.45346 123.516 4.73083 128.11C5.35134 138.018 17.7276 149.367 36.4286 163.463C33.8577 156.368 32.6825 149.211 36.6621 143.112C26.4554 133.166 18.2056 123.192 11.6826 113.129ZM84.8155 155.339C84.4625 152.715 84.0119 151.461 83.7006 150.014C83.0505 147.313 82.6788 145.775 82.6788 145.775C82.4771 144.983 82.18 144.125 81.8062 143.361C78.9393 137.515 71.8637 135.092 66.0028 137.946C60.1364 140.8 57.7048 147.854 60.5727 153.7C60.5727 153.7 61.2623 155.126 62.4847 157.615C63.0252 158.79 64.0338 160.592 64.3517 161.766C64.8089 163.14 65.4776 164.569 66.0532 166.425C66.4928 168.406 67.144 170.549 67.565 172.905C67.7251 174.099 67.8895 175.326 68.0638 176.58C68.2634 177.839 68.4223 179.142 68.43 180.488C68.5682 183.167 68.7118 185.977 68.5046 188.864C68.4826 191.756 68.0825 194.692 67.7503 197.667C67.3359 200.627 66.7844 203.595 66.1552 206.509C65.4491 209.404 64.7793 212.294 63.8825 215.019C63.0997 217.791 62.0834 220.377 61.1867 222.877C60.1978 225.326 59.2506 227.665 58.2496 229.755C56.273 233.96 54.3237 237.329 52.7911 239.553C52.0807 240.728 51.3659 241.477 50.9262 242.061C50.4757 242.631 50.2334 242.933 50.2334 242.933C49.9703 243.257 49.9648 243.624 50.1775 243.886C50.4143 244.186 50.8616 244.234 51.1663 243.99C51.1663 243.99 51.4843 243.736 52.0708 243.257C52.6518 242.764 53.6122 242.106 54.5868 241.091C56.6731 239.146 59.4172 236.151 62.3959 232.29C63.9011 230.369 65.3932 228.2 66.984 225.886C68.4772 223.526 70.1348 221.053 71.5863 218.35C73.1628 215.696 74.5442 212.832 75.9738 209.901C77.3354 206.946 78.6411 203.881 79.8163 200.744C80.9083 197.576 82.077 194.399 82.8378 191.13C83.7894 187.911 84.3704 184.628 84.9164 181.411C85.2409 179.817 85.413 178.214 85.5249 176.631C85.6488 175.043 85.7869 173.487 85.913 171.974C86.0511 168.93 85.8779 165.995 85.8494 163.278C85.6509 160.481 85.1521 157.716 84.8155 155.339Z" fill="white"/>
</g>
</svg>
