<svg width="170" height="50" viewBox="0 0 170 50" fill="none" xmlns="http://www.w3.org/2000/svg">
  <path d="M163.952 50H5.95504C2.67215 50 0 47.34 0 44.0837V5.9075C0 2.65 2.67215 0 5.95504 0H163.952C167.233 0 170 2.65 170 5.9075V44.0837C170 47.34 167.233 50 163.952 50Z" fill="#A6A6A6"/>
  <path d="M168.781 44.0848C168.781 46.7298 166.623 48.8723 163.953 48.8723H5.9549C3.28653 48.8723 1.12061 46.7298 1.12061 44.0848V5.90605C1.12061 3.2623 3.28653 1.1123 5.9549 1.1123H163.952C166.623 1.1123 168.78 3.2623 168.78 5.90605L168.781 44.0848Z" fill="black"/>
  <path d="M37.939 24.73C37.9025 20.7013 41.2622 18.7413 41.4159 18.65C39.5131 15.8963 36.5639 15.52 35.5276 15.49C33.0506 15.2313 30.6479 16.9613 29.3861 16.9613C28.0992 16.9613 26.1561 15.515 24.062 15.5575C21.3672 15.5988 18.8461 17.1475 17.4635 19.5525C14.61 24.4563 16.7381 31.6625 19.472 35.6262C20.8396 37.5675 22.4376 39.735 24.5292 39.6587C26.5755 39.575 27.3399 38.3637 29.8093 38.3637C32.256 38.3637 32.9738 39.6587 35.107 39.61C37.3031 39.575 38.6858 37.66 40.0055 35.7012C41.5859 33.4762 42.2205 31.285 42.2457 31.1725C42.1941 31.155 37.9806 29.5588 37.939 24.73Z" fill="white"/>
  <path d="M33.9095 12.8824C35.0101 11.5161 35.7632 9.65737 35.5541 7.77112C33.9612 7.84112 31.969 8.86487 30.8218 10.2011C29.8069 11.3786 28.9002 13.3086 29.1344 15.1236C30.9238 15.2561 32.7611 14.2274 33.9095 12.8824Z" fill="white"/>
  <path d="M67.553 39.38H64.6933L63.1268 34.4937H57.6817L56.1895 39.38H53.4053L58.7999 22.745H62.1319L67.553 39.38ZM62.6545 32.4437L61.2379 28.1C61.088 27.6562 60.8072 26.6112 60.3929 24.9662H60.3425C60.1776 25.6737 59.9119 26.7187 59.5467 28.1L58.1552 32.4437H62.6545Z" fill="white"/>
  <path d="M81.4264 33.2349C81.4264 35.2749 80.871 36.8874 79.7604 38.0712C78.7656 39.1249 77.5302 39.6512 76.0556 39.6512C74.4639 39.6512 73.3205 39.0837 72.6241 37.9487H72.5738V44.2674H69.889V31.3337C69.889 30.0512 69.855 28.7349 69.7896 27.3849H72.1507L72.3005 29.2862H72.3509C73.2462 27.8537 74.605 27.1387 76.4284 27.1387C77.8538 27.1387 79.0438 27.6974 79.9958 28.8162C80.9504 29.9362 81.4264 31.4087 81.4264 33.2349ZM78.6913 33.3324C78.6913 32.1649 78.4268 31.2024 77.8954 30.4449C77.3149 29.6549 76.5354 29.2599 75.5582 29.2599C74.8958 29.2599 74.2939 29.4799 73.7562 29.9137C73.2173 30.3512 72.8647 30.9224 72.6997 31.6299C72.6166 31.9599 72.575 32.2299 72.575 32.4424V34.4424C72.575 35.3149 72.8445 36.0512 73.3835 36.6524C73.9224 37.2537 74.6226 37.5537 75.4839 37.5537C76.4951 37.5537 77.2821 37.1662 77.845 36.3937C78.4092 35.6199 78.6913 34.5999 78.6913 33.3324Z" fill="white"/>
  <path d="M95.3245 33.2349C95.3245 35.2749 94.7692 36.8874 93.6573 38.0712C92.6637 39.1249 91.4284 39.6512 89.9538 39.6512C88.3621 39.6512 87.2187 39.0837 86.5236 37.9487H86.4732V44.2674H83.7884V31.3337C83.7884 30.0512 83.7544 28.7349 83.689 27.3849H86.0501L86.1999 29.2862H86.2503C87.1444 27.8537 88.5031 27.1387 90.3278 27.1387C91.752 27.1387 92.942 27.6974 93.8965 28.8162C94.8473 29.9362 95.3245 31.4087 95.3245 33.2349ZM92.5894 33.3324C92.5894 32.1649 92.3237 31.2024 91.7923 30.4449C91.2118 29.6549 90.4348 29.2599 89.4564 29.2599C88.7927 29.2599 88.1921 29.4799 87.6531 29.9137C87.1142 30.3512 86.7628 30.9224 86.5979 31.6299C86.516 31.9599 86.4732 32.2299 86.4732 32.4424V34.4424C86.4732 35.3149 86.7427 36.0512 87.2791 36.6524C87.8181 37.2524 88.5182 37.5537 89.3821 37.5537C90.3933 37.5537 91.1803 37.1662 91.7432 36.3937C92.3073 35.6199 92.5894 34.5999 92.5894 33.3324Z" fill="white"/>
  <path d="M110.864 34.715C110.864 36.13 110.369 37.2812 109.376 38.17C108.284 39.1412 106.764 39.6262 104.811 39.6262C103.008 39.6262 101.562 39.2812 100.468 38.59L101.09 36.3687C102.269 37.0762 103.562 37.4312 104.971 37.4312C105.982 37.4312 106.769 37.2037 107.335 36.7512C107.897 36.2987 108.178 35.6912 108.178 34.9337C108.178 34.2587 107.947 33.69 107.482 33.2287C107.02 32.7675 106.248 32.3387 105.17 31.9425C102.236 30.8562 100.77 29.265 100.77 27.1725C100.77 25.805 101.284 24.6837 102.313 23.8112C103.338 22.9375 104.705 22.5012 106.415 22.5012C107.94 22.5012 109.207 22.765 110.218 23.2912L109.547 25.4637C108.603 24.9537 107.535 24.6987 106.34 24.6987C105.395 24.6987 104.657 24.93 104.128 25.39C103.681 25.8012 103.457 26.3025 103.457 26.8962C103.457 27.5537 103.713 28.0975 104.227 28.525C104.674 28.92 105.486 29.3475 106.665 29.8087C108.106 30.385 109.165 31.0587 109.847 31.8312C110.525 32.6012 110.864 33.565 110.864 34.715Z" fill="white"/>
  <path d="M119.74 29.3849H116.781V35.2086C116.781 36.6899 117.303 37.4299 118.348 37.4299C118.827 37.4299 119.225 37.3886 119.54 37.3061L119.615 39.3299C119.086 39.5261 118.389 39.6249 117.527 39.6249C116.466 39.6249 115.638 39.3036 115.04 38.6624C114.444 38.0199 114.144 36.9424 114.144 35.4286V29.3824H112.381V27.3824H114.144V25.1861L116.781 24.3961V27.3824H119.74V29.3849Z" fill="white"/>
  <path d="M133.093 33.2836C133.093 35.1274 132.561 36.6411 131.501 37.8249C130.389 39.0436 128.913 39.6511 127.073 39.6511C125.3 39.6511 123.889 39.0674 122.836 37.8999C121.783 36.7324 121.257 35.2586 121.257 33.4824C121.257 31.6236 121.798 30.1011 122.885 28.9174C123.969 27.7324 125.433 27.1399 127.272 27.1399C129.045 27.1399 130.472 27.7236 131.549 28.8924C132.579 30.0261 133.093 31.4899 133.093 33.2836ZM130.307 33.3699C130.307 32.2636 130.069 31.3149 129.587 30.5236C129.024 29.5661 128.219 29.0886 127.177 29.0886C126.097 29.0886 125.278 29.5674 124.715 30.5236C124.232 31.3161 123.994 32.2799 123.994 33.4199C123.994 34.5261 124.232 35.4749 124.715 36.2649C125.295 37.2224 126.106 37.6999 127.153 37.6999C128.178 37.6999 128.982 37.2124 129.563 36.2399C130.058 35.4336 130.307 34.4749 130.307 33.3699Z" fill="white"/>
  <path d="M141.819 29.7287C141.553 29.6799 141.27 29.6549 140.973 29.6549C140.028 29.6549 139.298 30.0087 138.784 30.7174C138.337 31.3424 138.113 32.1324 138.113 33.0862V39.3799H135.43L135.455 31.1624C135.455 29.7799 135.421 28.5212 135.354 27.3862H137.692L137.791 29.6812H137.865C138.148 28.8924 138.595 28.2574 139.207 27.7812C139.805 27.3524 140.451 27.1387 141.148 27.1387C141.396 27.1387 141.62 27.1562 141.819 27.1874V29.7287Z" fill="white"/>
  <path d="M153.826 32.8151C153.826 33.2926 153.795 33.6951 153.728 34.0238H145.674C145.705 35.2088 146.095 36.1151 146.843 36.7401C147.521 37.2988 148.399 37.5788 149.477 37.5788C150.669 37.5788 151.757 37.3901 152.736 37.0113L153.156 38.8613C152.013 39.3563 150.663 39.6026 149.105 39.6026C147.232 39.6026 145.761 39.0551 144.69 37.9613C143.623 36.8676 143.087 35.3988 143.087 33.5563C143.087 31.7476 143.585 30.2413 144.581 29.0401C145.624 27.7576 147.033 27.1163 148.806 27.1163C150.547 27.1163 151.866 27.7576 152.761 29.0401C153.47 30.0588 153.826 31.3188 153.826 32.8151ZM151.266 32.1238C151.284 31.3338 151.109 30.6513 150.745 30.0751C150.28 29.3338 149.566 28.9638 148.605 28.9638C147.728 28.9638 147.014 29.3251 146.469 30.0501C146.021 30.6263 145.756 31.3176 145.674 32.1226H151.266V32.1238Z" fill="white"/>
  <path d="M61.7668 12.5111C61.7668 13.9824 61.3223 15.0899 60.4345 15.8336C59.6122 16.5199 58.4436 16.8636 56.93 16.8636C56.1794 16.8636 55.5372 16.8311 54.9995 16.7661V8.72737C55.7009 8.61487 56.4565 8.55737 57.2725 8.55737C58.7143 8.55737 59.8011 8.86862 60.534 9.49112C61.355 10.1949 61.7668 11.2011 61.7668 12.5111ZM60.3753 12.5474C60.3753 11.5936 60.1209 10.8624 59.6122 10.3524C59.1034 9.84362 58.3605 9.58862 57.382 9.58862C56.9665 9.58862 56.6126 9.61612 56.3192 9.67362V15.7849C56.4817 15.8099 56.7788 15.8211 57.2108 15.8211C58.2207 15.8211 59.0002 15.5424 59.5492 14.9849C60.0983 14.4274 60.3753 13.6149 60.3753 12.5474Z" fill="white"/>
  <path d="M69.1446 13.7963C69.1446 14.7026 68.8839 15.4451 68.3626 16.0276C67.816 16.6263 67.092 16.9251 66.1878 16.9251C65.3164 16.9251 64.6226 16.6388 64.105 16.0638C63.5887 15.4901 63.3306 14.7663 63.3306 13.8938C63.3306 12.9813 63.5963 12.2326 64.1302 11.6513C64.6641 11.0701 65.3819 10.7788 66.286 10.7788C67.1575 10.7788 67.8576 11.0651 68.3878 11.6388C68.8915 12.1963 69.1446 12.9163 69.1446 13.7963ZM67.7758 13.8388C67.7758 13.2951 67.6574 12.8288 67.4219 12.4401C67.1449 11.9701 66.7507 11.7351 66.2382 11.7351C65.7081 11.7351 65.3051 11.9701 65.028 12.4401C64.7913 12.8288 64.6742 13.3026 64.6742 13.8626C64.6742 14.4063 64.7926 14.8726 65.028 15.2613C65.3139 15.7313 65.7118 15.9663 66.2256 15.9663C66.7293 15.9663 67.1247 15.7276 67.4093 15.2488C67.6536 14.8526 67.7758 14.3826 67.7758 13.8388Z" fill="white"/>
  <path d="M79.0378 10.8986L77.1803 16.7911H75.9715L75.202 14.2323C75.0069 13.5936 74.8482 12.9586 74.7248 12.3286H74.7009C74.5863 12.9761 74.4276 13.6098 74.2236 14.2323L73.4063 16.7911H72.1836L70.437 10.8986H71.7932L72.4644 13.6998C72.6269 14.3623 72.7603 14.9936 72.8674 15.5911H72.8913C72.9895 15.0986 73.152 14.4711 73.3812 13.7123L74.2236 10.8998H75.299L76.1062 13.6523C76.3014 14.3236 76.46 14.9698 76.5822 15.5923H76.6187C76.7081 14.9861 76.8429 14.3398 77.0217 13.6523L77.742 10.8998H79.0378V10.8986Z" fill="white"/>
  <path d="M85.879 16.7913H84.5593V13.4163C84.5593 12.3763 84.1614 11.8563 83.363 11.8563C82.9714 11.8563 82.6553 11.9988 82.4098 12.285C82.1667 12.5713 82.0433 12.9088 82.0433 13.295V16.79H80.7236V12.5825C80.7236 12.065 80.7073 11.5038 80.6758 10.8963H81.8356L81.8973 11.8175H81.9338C82.0874 11.5313 82.3166 11.295 82.6176 11.1063C82.9752 10.8863 83.3756 10.775 83.8138 10.775C84.3679 10.775 84.8288 10.9525 85.1953 11.3088C85.6511 11.745 85.879 12.3963 85.879 13.2613V16.7913Z" fill="white"/>
  <path d="M89.5181 16.7911H88.1997V8.19482H89.5181V16.7911Z" fill="white"/>
  <path d="M97.2881 13.7963C97.2881 14.7026 97.0275 15.4451 96.5061 16.0276C95.9596 16.6263 95.2343 16.9251 94.3314 16.9251C93.4587 16.9251 92.7649 16.6388 92.2486 16.0638C91.7323 15.4901 91.4741 14.7663 91.4741 13.8938C91.4741 12.9813 91.7398 12.2326 92.2738 11.6513C92.8077 11.0701 93.5255 10.7788 94.4283 10.7788C95.301 10.7788 95.9999 11.0651 96.5313 11.6388C97.035 12.1963 97.2881 12.9163 97.2881 13.7963ZM95.9181 13.8388C95.9181 13.2951 95.7997 12.8288 95.5642 12.4401C95.2884 11.9701 94.893 11.7351 94.3818 11.7351C93.8503 11.7351 93.4474 11.9701 93.1716 12.4401C92.9349 12.8288 92.8178 13.3026 92.8178 13.8626C92.8178 14.4063 92.9361 14.8726 93.1716 15.2613C93.4575 15.7313 93.8554 15.9663 94.3692 15.9663C94.8729 15.9663 95.267 15.7276 95.5516 15.2488C95.7972 14.8526 95.9181 14.3826 95.9181 13.8388Z" fill="white"/>
  <path d="M103.675 16.7913H102.49L102.392 16.1126H102.355C101.95 16.6538 101.372 16.9251 100.621 16.9251C100.061 16.9251 99.6077 16.7463 99.2664 16.3913C98.9567 16.0688 98.8018 15.6676 98.8018 15.1913C98.8018 14.4713 99.104 13.9226 99.7122 13.5426C100.319 13.1626 101.173 12.9763 102.272 12.9851V12.8751C102.272 12.0988 101.862 11.7113 101.039 11.7113C100.454 11.7113 99.9376 11.8576 99.4918 12.1476L99.2236 11.2876C99.7752 10.9488 100.456 10.7788 101.26 10.7788C102.811 10.7788 103.589 11.5913 103.589 13.2163V15.3863C103.589 15.9751 103.618 16.4438 103.675 16.7913ZM102.305 14.7663V13.8576C100.849 13.8326 100.121 14.2288 100.121 15.0451C100.121 15.3526 100.205 15.5826 100.375 15.7363C100.545 15.8901 100.761 15.9663 101.019 15.9663C101.309 15.9663 101.58 15.8751 101.826 15.6938C102.075 15.5113 102.227 15.2801 102.284 14.9963C102.297 14.9326 102.305 14.8551 102.305 14.7663Z" fill="white"/>
  <path d="M111.174 16.7911H110.003L109.941 15.8448H109.905C109.531 16.5648 108.893 16.9248 107.998 16.9248C107.283 16.9248 106.687 16.6461 106.215 16.0886C105.743 15.5311 105.507 14.8073 105.507 13.9186C105.507 12.9648 105.763 12.1923 106.277 11.6023C106.774 11.0523 107.384 10.7773 108.109 10.7773C108.906 10.7773 109.464 11.0436 109.781 11.5773H109.806V8.19482H111.127V15.2036C111.127 15.7773 111.143 16.3061 111.174 16.7911ZM109.806 14.3061V13.3236C109.806 13.1536 109.794 13.0161 109.77 12.9111C109.696 12.5961 109.536 12.3311 109.293 12.1173C109.047 11.9036 108.751 11.7961 108.41 11.7961C107.918 11.7961 107.532 11.9898 107.249 12.3786C106.968 12.7673 106.826 13.2636 106.826 13.8698C106.826 14.4523 106.961 14.9248 107.231 15.2886C107.517 15.6761 107.902 15.8698 108.385 15.8698C108.818 15.8698 109.164 15.7086 109.427 15.3848C109.682 15.0861 109.806 14.7261 109.806 14.3061Z" fill="white"/>
  <path d="M122.46 13.7963C122.46 14.7026 122.2 15.4451 121.678 16.0276C121.132 16.6263 120.409 16.9251 119.504 16.9251C118.634 16.9251 117.94 16.6388 117.421 16.0638C116.905 15.4901 116.646 14.7663 116.646 13.8938C116.646 12.9813 116.912 12.2326 117.446 11.6513C117.98 11.0701 118.698 10.7788 119.603 10.7788C120.473 10.7788 121.175 11.0651 121.704 11.6388C122.207 12.1963 122.46 12.9163 122.46 13.7963ZM121.093 13.8388C121.093 13.2951 120.975 12.8288 120.739 12.4401C120.461 11.9701 120.068 11.7351 119.554 11.7351C119.025 11.7351 118.622 11.9701 118.344 12.4401C118.107 12.8288 117.99 13.3026 117.99 13.8626C117.99 14.4063 118.108 14.8726 118.344 15.2613C118.63 15.7313 119.028 15.9663 119.542 15.9663C120.045 15.9663 120.442 15.7276 120.726 15.2488C120.97 14.8526 121.093 14.3826 121.093 13.8388Z" fill="white"/>
  <path d="M129.557 16.7913H128.238V13.4163C128.238 12.3763 127.84 11.8563 127.041 11.8563C126.649 11.8563 126.333 11.9988 126.088 12.285C125.844 12.5713 125.722 12.9088 125.722 13.295V16.79H124.401V12.5825C124.401 12.065 124.386 11.5038 124.354 10.8963H125.513L125.575 11.8175H125.611C125.766 11.5313 125.995 11.295 126.295 11.1063C126.654 10.8863 127.053 10.775 127.493 10.775C128.045 10.775 128.506 10.9525 128.873 11.3088C129.33 11.745 129.557 12.3963 129.557 13.2613V16.7913Z" fill="white"/>
  <path d="M138.438 11.8799H136.985V14.7424C136.985 15.4699 137.243 15.8337 137.754 15.8337C137.991 15.8337 138.187 15.8137 138.342 15.7724L138.376 16.7662C138.116 16.8637 137.773 16.9124 137.351 16.9124C136.83 16.9124 136.425 16.7549 136.131 16.4399C135.836 16.1249 135.69 15.5949 135.69 14.8512V11.8799H134.823V10.8987H135.69V9.81865L136.984 9.43115V10.8974H138.437V11.8799H138.438Z" fill="white"/>
  <path d="M145.424 16.7911H144.103V13.4411C144.103 12.3848 143.706 11.8561 142.908 11.8561C142.296 11.8561 141.878 12.1623 141.649 12.7748C141.61 12.9036 141.587 13.0611 141.587 13.2461V16.7898H140.269V8.19482H141.587V11.7461H141.613C142.028 11.0998 142.624 10.7773 143.396 10.7773C143.942 10.7773 144.394 10.9548 144.753 11.3111C145.2 11.7548 145.424 12.4148 145.424 13.2873V16.7911Z" fill="white"/>
  <path d="M152.631 13.566C152.631 13.801 152.613 13.9985 152.582 14.1597H148.624C148.642 14.7422 148.831 15.186 149.197 15.4935C149.532 15.7685 149.964 15.906 150.493 15.906C151.078 15.906 151.612 15.8135 152.093 15.6272L152.3 16.5372C151.737 16.7797 151.075 16.901 150.308 16.901C149.388 16.901 148.664 16.6322 148.141 16.0947C147.614 15.5572 147.354 14.836 147.354 13.931C147.354 13.0422 147.597 12.3022 148.086 11.7122C148.598 11.0822 149.289 10.7672 150.162 10.7672C151.015 10.7672 151.664 11.0822 152.102 11.7122C152.456 12.2122 152.631 12.831 152.631 13.566ZM151.372 13.2272C151.382 12.8385 151.295 12.5035 151.116 12.221C150.887 11.8572 150.538 11.6747 150.066 11.6747C149.635 11.6747 149.284 11.8522 149.016 12.2085C148.797 12.4922 148.667 12.831 148.624 13.2272H151.372Z" fill="white"/>
</svg>