<svg width="160" height="50" viewBox="0 0 160 50" fill="none" xmlns="http://www.w3.org/2000/svg">
  <g clip-path="url(#clip0)">
    <path d="M154.81 50H4.99387C2.24724 50 0 47.75 0 45V5C0 2.25 2.24724 0 4.99387 0H154.81C157.557 0 159.804 2.25 159.804 5V45C159.804 47.75 157.557 50 154.81 50Z" fill="black"/>
    <path fill-rule="evenodd" clip-rule="evenodd" d="M12.2349 24.5V11.375C12.2349 10.625 12.8591 10 13.4833 10C14.1076 10 14.3573 10.125 14.7318 10.375L38.8272 23.625C39.3266 23.875 39.5763 24.25 39.5763 24.625C39.5763 25 39.3266 25.375 38.8272 25.625L14.7318 38.875C14.4821 39 14.1076 39.25 13.4833 39.25C12.8591 39.25 12.2349 38.625 12.2349 37.875V24.5Z" fill="url(#paint0_linear)"/>
    <path fill-rule="evenodd" clip-rule="evenodd" d="M27.841 24.625L13.2339 10C13.3587 10 13.3587 10 13.4836 10C14.1078 10 14.3575 10.125 14.732 10.375L32.4603 20.125L27.841 24.625Z" fill="url(#paint1_linear)"/>
    <path fill-rule="evenodd" clip-rule="evenodd" d="M32.3353 29.0001L27.8408 24.5001L32.4601 19.8751L38.8273 23.3751C39.3267 23.6251 39.5764 24.0001 39.5764 24.3751C39.5764 24.7501 39.3267 25.1251 38.8273 25.3751L32.3353 29.0001Z" fill="url(#paint2_linear)"/>
    <path fill-rule="evenodd" clip-rule="evenodd" d="M13.3584 38.9999L27.8406 24.4999L32.3351 28.9999L14.7317 38.6249C14.3572 38.8749 14.1075 38.9999 13.3584 38.9999C13.4832 38.9999 13.4832 38.9999 13.3584 38.9999Z" fill="url(#paint3_linear)"/>
    <path fill-rule="evenodd" clip-rule="evenodd" d="M88.7659 42.375C88.1417 41.875 87.6423 41 87.3926 40.5L89.3901 39.625C89.515 39.875 89.7647 40.25 90.0144 40.625C90.5138 41.125 91.2628 41.625 92.0119 41.625C92.761 41.625 93.6349 41.25 94.1343 40.625C94.5088 40 94.7585 39.375 94.7585 38.5V37.75C93.2604 39.625 90.1392 39.375 88.3913 37.375C86.5186 35.375 86.5186 32 88.3913 30C90.264 28.125 93.0107 27.875 94.6337 29.625V28.75H96.7561V38.125C96.7561 40.5 95.8822 41.875 94.7585 42.75C94.0095 43.375 92.8858 43.625 91.8871 43.625C90.7635 43.5 89.6398 43.125 88.7659 42.375ZM141.077 42.875L143.199 37.875L139.454 29.25H141.576L144.198 35.375L146.82 29.25H148.942L143.199 42.875H141.077ZM130.964 38.125C130.34 37.5 130.09 36.625 130.09 35.75C130.09 35 130.34 34.25 130.839 33.75C131.713 32.875 132.962 32.5 134.335 32.5C135.209 32.5 135.958 32.625 136.582 33C136.582 31.5 135.334 30.875 134.335 30.875C133.461 30.875 132.587 31.375 132.213 32.25L130.34 31.5C130.714 30.625 131.713 29 134.21 29C135.459 29 136.707 29.375 137.456 30.25C138.205 31.125 138.455 32.125 138.455 33.5V38.75H136.333V37.875C136.083 38.25 135.583 38.5 135.209 38.75C134.709 39 134.085 39.125 133.461 39.125C132.712 39 131.588 38.75 130.964 38.125ZM64.4208 33.625C64.4208 31.125 66.2935 28.375 69.6643 28.375C72.9104 28.375 74.9079 31.125 74.9079 33.625C74.9079 36.125 73.0352 38.875 69.6643 38.875C66.2935 38.875 64.4208 36.125 64.4208 33.625ZM75.657 33.625C75.657 31.125 77.5297 28.375 80.9006 28.375C84.1466 28.375 86.1441 31.125 86.1441 33.625C86.1441 36.125 84.2714 38.875 80.9006 38.875C77.6545 38.875 75.657 36.125 75.657 33.625ZM50.3131 36.375C47.1919 33.25 47.3168 28.125 50.4379 24.875C52.0609 23.25 54.0585 22.5 56.1809 22.5C58.1784 22.5 60.176 23.25 61.6741 24.75L60.176 26.375C57.9287 24.125 54.3082 24.25 52.1858 26.5C49.9385 28.875 49.9385 32.5 52.1858 34.875C54.433 37.25 58.1784 37.375 60.4257 35C61.1747 34.25 61.4245 33.25 61.5493 32.25H56.3057V30H63.6717C63.7965 30.5 63.7965 31.125 63.7965 31.75C63.7965 33.625 63.0475 35.5 61.799 36.75C60.4257 38.125 58.4281 38.875 56.4306 38.875C54.1833 38.75 51.9361 38 50.3131 36.375ZM103.123 37.25C101.251 35.25 101.251 31.875 103.123 29.75C104.996 27.75 108.117 27.75 109.865 29.75C110.489 30.375 110.864 31.25 111.238 32.125L104.372 35C104.746 35.875 105.62 36.625 106.869 36.625C107.992 36.625 108.741 36.25 109.49 35.125L111.363 36.375C111.113 36.625 110.864 36.875 110.739 37.125C108.617 39.25 104.996 39.25 103.123 37.25ZM116.107 38.75V24.875H120.602C123.224 24.875 125.346 26.75 125.346 29C125.346 31.25 123.473 33.125 121.101 33.125H118.355V38.625H116.107V38.75ZM126.594 38.75V24.875H128.717V38.75H126.594ZM98.3791 38.5V23H100.626V38.5H98.3791ZM136.457 34.625C135.958 34.25 135.209 34.125 134.46 34.125C132.962 34.125 132.088 34.875 132.088 35.75C132.088 36.625 132.962 37.125 133.836 37.125C135.084 37.125 136.457 36.125 136.457 34.625ZM72.5358 33.625C72.5358 32.125 71.537 30.5 69.6643 30.5C67.7916 30.5 66.7929 32.125 66.7929 33.625C66.7929 35.125 67.7916 36.75 69.6643 36.75C71.4122 36.75 72.5358 35.125 72.5358 33.625ZM83.772 33.625C83.772 32.125 82.7733 30.5 80.9006 30.5C79.0278 30.5 78.0291 32.125 78.0291 33.625C78.0291 35.125 79.0278 36.75 80.9006 36.75C82.7733 36.75 83.772 35.125 83.772 33.625ZM94.8834 34.5C94.8834 34.375 94.8834 34.25 95.0082 34.125C95.0082 34 95.0082 33.75 95.0082 33.625C95.0082 33.5 95.0082 33.25 95.0082 33.125V33C95.0082 32.875 94.8834 32.625 94.8834 32.5C94.5089 31.25 93.3852 30.375 92.2616 30.375C90.7634 30.375 89.515 31.875 89.515 33.5C89.515 35.25 90.7634 36.625 92.3865 36.625C93.3852 36.75 94.384 35.875 94.8834 34.5ZM103.997 33.375L108.617 31.375C108.117 30.5 107.368 30.25 106.744 30.25C104.871 30.375 103.747 32.375 103.997 33.375ZM123.099 29.125C123.099 27.875 122.1 27 120.727 27H118.23V31.375H120.852C122.1 31.375 123.099 30.375 123.099 29.125Z" fill="white"/>
    <path fill-rule="evenodd" clip-rule="evenodd" d="M142.7 40.375H142.575V40.25H142.7H142.575V40.375H142.7Z" fill="white"/>
    <path fill-rule="evenodd" clip-rule="evenodd" d="M142.95 40.375C142.95 40.25 142.95 40.25 142.95 40.375C142.825 40.25 142.825 40.25 142.95 40.375C142.825 40.375 142.825 40.375 142.95 40.375ZM142.95 40.25C142.95 40.375 142.95 40.375 142.95 40.25C142.95 40.375 142.825 40.375 142.95 40.25C142.825 40.25 142.95 40.25 142.95 40.25Z" fill="white"/>
    <path fill-rule="evenodd" clip-rule="evenodd" d="M143.075 40.25H142.95H143.075V40.375V40.25Z" fill="white"/>
    <path d="M48.5654 12.625C48.5654 10.375 50.1884 9 52.186 9C53.5593 9 54.4332 9.625 55.0575 10.5L54.0587 11.125C53.6842 10.625 53.0599 10.25 52.186 10.25C50.8127 10.25 49.8139 11.25 49.8139 12.75C49.8139 14.25 50.8127 15.25 52.186 15.25C52.9351 15.25 53.5593 14.875 53.809 14.625V13.5H51.8115V12.375H55.1823V15C54.5581 15.75 53.5593 16.25 52.3108 16.25C50.1884 16.25 48.5654 14.75 48.5654 12.625Z" fill="white"/>
    <path d="M56.6807 16.125V9.125H61.4248V10.25H57.8043V12H61.3V13.125H57.8043V15.125H61.4248V16.25L56.6807 16.125Z" fill="white"/>
    <path d="M64.9202 16.125V10.25H62.7979V9.125H68.2911V10.25H66.1687V16.125H64.9202Z" fill="white"/>
    <path d="M72.5361 16.125V9.125H73.7846V16.125H72.5361Z" fill="white"/>
    <path d="M77.1551 16.125V10.25H75.0327V9.125H80.526V10.25H78.4036V16.125H77.1551Z" fill="white"/>
    <path d="M84.5215 12.625C84.5215 10.5 86.0197 9 88.1421 9C90.2644 9 91.7626 10.5 91.7626 12.625C91.7626 14.75 90.2644 16.25 88.1421 16.25C86.0197 16.25 84.5215 14.625 84.5215 12.625ZM90.3893 12.625C90.3893 11.125 89.5154 10.125 88.0172 10.125C86.6439 10.125 85.6451 11.25 85.6451 12.625C85.6451 14.125 86.519 15.125 88.0172 15.125C89.5154 15.125 90.3893 14 90.3893 12.625Z" fill="white"/>
    <path d="M98.0048 16.125L94.3842 11.125V16.125H93.1357V9.125H94.3842L98.0048 14V9.125H99.2532V16.125H98.0048Z" fill="white"/>
  </g>
  <defs>
    <linearGradient id="paint0_linear" x1="20.3092" y1="8.217" x2="27.3146" y2="36.9517" gradientUnits="userSpaceOnUse">
      <stop stop-color="#006884"/>
      <stop offset="1" stop-color="#8AD1D0"/>
    </linearGradient>
    <linearGradient id="paint1_linear" x1="11.7865" y1="12.3048" x2="30.8437" y2="22.5946" gradientUnits="userSpaceOnUse">
      <stop stop-color="#24BBB6"/>
      <stop offset="1" stop-color="#DBE692"/>
    </linearGradient>
    <linearGradient id="paint2_linear" x1="33.7016" y1="29.5252" x2="33.7016" y2="19.5897" gradientUnits="userSpaceOnUse">
      <stop stop-color="#FCC072"/>
      <stop offset="1" stop-color="#F58A5B"/>
    </linearGradient>
    <linearGradient id="paint3_linear" x1="15.4742" y1="41.5863" x2="30.5391" y2="26.2732" gradientUnits="userSpaceOnUse">
      <stop stop-color="#712B8F"/>
      <stop offset="1" stop-color="#EA1D27"/>
    </linearGradient>
    <clipPath id="clip0">
      <rect width="159.804" height="50" fill="white"/>
    </clipPath>
  </defs>
</svg>
