<svg width="867" height="737" viewBox="0 0 867 737" fill="none" xmlns="http://www.w3.org/2000/svg">
<path d="M617.883 737H249.117C111.527 737 0 625.39 0 487.696C0 350.001 111.527 238.391 249.117 238.391H617.883C755.473 238.391 867 350.001 867 487.696C867 625.39 755.396 737 617.883 737Z" fill="#FBF2D9"/>
<path d="M149.269 677.557C149.269 660.993 273.635 647.603 427.003 647.603C580.372 647.603 704.737 660.993 704.737 677.557C704.737 694.121 580.372 707.511 427.003 707.511C273.635 707.511 149.269 694.121 149.269 677.557Z" fill="#E5DBC3"/>
<path d="M436.439 164.474C436.439 164.474 453.995 155.496 442.394 128.406C442.394 128.406 451.443 98.762 415.789 98.5298C415.789 98.5298 402.099 81.8115 377.118 96.7496C377.118 96.7496 354.766 91.3316 351.131 116.254C351.131 116.254 332.878 130.883 348.269 153.716L436.439 164.474Z" fill="#E3E3E2"/>
<path d="M190.26 548.222C190.26 486.767 240.223 436.767 301.632 436.767C363.042 436.767 413.004 486.767 413.004 548.222C413.004 609.678 363.042 659.678 301.632 659.678C240.223 659.678 190.26 609.678 190.26 548.222Z" fill="#242531"/>
<path d="M301.632 653.021C359.468 653.021 406.353 606.101 406.353 548.222C406.353 490.343 359.468 443.423 301.632 443.423C243.797 443.423 196.912 490.343 196.912 548.222C196.912 606.101 243.797 653.021 301.632 653.021Z" fill="#242531"/>
<path d="M169.224 547.216H434.042V549.306H169.224" fill="#242531"/>
<path d="M302.638 415.791H300.627V680.73H302.638V415.791Z" fill="#242531"/>
<path d="M208.746 453.863L207.324 455.286L394.522 642.625L395.944 641.202L208.746 453.863Z" fill="#242531"/>
<path d="M394.51 453.862L207.312 641.227L208.734 642.65L395.932 455.285L394.51 453.862Z" fill="#242531"/>
<path d="M170.152 552.324H281.678C283.38 552.324 284.772 553.408 285.391 554.956C285.391 554.956 285.391 554.956 285.391 555.033C286.009 556.581 285.777 558.362 284.617 559.523L205.729 638.393C204.182 639.941 204.182 642.495 205.729 644.043L205.883 644.198C207.43 645.746 209.983 645.746 211.529 644.198L290.341 565.328C291.501 564.167 293.28 563.857 294.826 564.554C294.826 564.554 294.826 564.554 294.904 564.554C296.451 565.173 297.533 566.643 297.533 568.269V679.879C297.533 682.046 299.312 683.826 301.478 683.826H301.71C303.875 683.826 305.654 682.046 305.654 679.879V568.269C305.654 566.566 306.737 565.173 308.284 564.554C308.284 564.554 308.284 564.554 308.361 564.554C309.908 563.934 311.687 564.167 312.847 565.328L391.658 644.198C393.205 645.746 395.757 645.746 397.304 644.198L397.459 644.043C399.006 642.495 399.006 639.941 397.459 638.393L318.648 559.523C317.487 558.362 317.178 556.581 317.874 555.033C317.874 555.033 317.874 555.033 317.874 554.956C318.493 553.408 319.962 552.324 321.587 552.324H433.113C435.279 552.324 437.058 550.544 437.058 548.377V548.145C437.058 545.978 435.279 544.197 433.113 544.197H321.587C319.885 544.197 318.493 543.114 317.874 541.566C317.874 541.566 317.874 541.566 317.874 541.488C317.255 539.94 317.487 538.16 318.648 536.999L397.459 458.129C399.006 456.581 399.006 454.027 397.459 452.479L397.304 452.324C395.757 450.776 393.205 450.776 391.658 452.324L312.847 531.194C311.687 532.355 309.908 532.665 308.361 531.968C308.361 531.968 308.361 531.968 308.284 531.968C306.737 531.349 305.654 529.878 305.654 528.253V416.643C305.654 414.475 303.875 412.695 301.71 412.695H301.478C299.312 412.695 297.533 414.475 297.533 416.643V528.253C297.533 529.956 296.451 531.349 294.904 531.968C294.904 531.968 294.904 531.968 294.826 531.968C293.28 532.587 291.501 532.355 290.341 531.194L211.529 452.324C209.983 450.776 207.43 450.776 205.883 452.324L205.729 452.479C204.182 454.027 204.182 456.581 205.729 458.129L284.617 536.999C285.777 538.16 286.087 539.94 285.391 541.488C285.391 541.488 285.391 541.488 285.391 541.566C284.772 543.114 283.302 544.197 281.678 544.197H170.152" fill="#242531"/>
<path d="M165.125 548.222C165.125 623.532 226.379 684.833 301.633 684.833C376.886 684.833 438.141 623.532 438.141 548.222C438.141 472.912 376.886 411.612 301.633 411.612C226.379 411.689 165.125 472.912 165.125 548.222Z" fill="#161F33"/>
<path d="M179.433 548.222C179.433 480.807 234.268 425.931 301.632 425.931C368.997 425.931 423.832 480.807 423.832 548.222C423.832 615.637 368.997 670.514 301.632 670.514C234.268 670.514 179.433 615.637 179.433 548.222Z" fill="#161F33"/>
<path d="M449.046 254.181L514.09 235.373L512.775 203.329L543.557 202.71L545.723 234.908C548.816 241.565 547.038 249.382 541.469 254.103C539.149 256.038 536.364 257.277 533.348 257.664L452.526 268.964L449.046 254.181Z" fill="#EC8677"/>
<path d="M539.149 642.959L537.989 622.99H570.008L568.461 652.015H541.546L539.149 642.959Z" fill="#EC8677"/>
<path d="M636.831 644.662L637.45 622.99H605.43L606.977 652.015H633.892L636.831 644.662Z" fill="#EC8677"/>
<path d="M475.883 673.455C480.292 666.953 487.33 662.387 495.451 661.148C495.451 661.148 502.798 663.083 506.278 673.455H578.361V683.594H471.629C472.48 679.879 473.795 676.473 475.883 673.455Z" fill="white"/>
<path d="M508.289 654.724C514.245 656.891 518.035 659.6 518.112 659.6L519.736 657.433C519.581 657.278 516.488 655.111 511.538 653.021L516.41 650.545C522.288 653.176 525.846 656.195 525.923 656.272L527.702 654.26C527.548 654.105 524.531 651.551 519.504 649.074L536.287 640.637C536.287 640.637 546.264 649.461 555.855 649.461C565.445 649.461 571.632 646.133 571.632 646.133L578.438 673.455H506.356C502.876 663.083 495.528 661.148 495.528 661.148L508.289 654.724Z" fill="#D4D3CB"/>
<path d="M518.112 659.6C518.035 659.6 514.322 656.814 508.29 654.724L511.538 653.099C516.488 655.111 519.504 657.356 519.736 657.511L518.112 659.6Z" fill="#FEFFFD"/>
<path d="M525.923 656.272C525.846 656.195 522.288 653.176 516.41 650.545L519.427 648.997C524.454 651.473 527.47 654.028 527.625 654.182L525.923 656.272Z" fill="#FEFFFD"/>
<path d="M627.318 661.226C645.958 661.226 655.857 673.532 655.857 673.532V683.672H604.502V672.449C604.502 672.371 613.319 661.226 627.318 661.226Z" fill="white"/>
<path d="M606.591 644.662C606.591 644.662 614.944 640.637 621.672 640.637C628.401 640.637 636.831 644.662 636.831 644.662L640.157 656.659C651.99 664.864 655.857 673.455 655.857 673.455C655.857 673.455 645.958 661.148 627.318 661.148C613.319 661.148 604.502 672.371 604.502 672.371C605.353 665.096 606.9 658.517 606.9 658.517L606.591 644.662Z" fill="#D4D3CB"/>
<path d="M631.108 251.084C655.084 290.558 666.067 336.534 662.431 382.587L640.157 631.504H601.95L588.261 315.326V251.084H631.108Z" fill="#4AAFC7"/>
<path d="M545.491 251.084C521.515 290.558 510.532 336.534 514.167 382.587L535.282 631.504H573.489L588.261 315.326V251.084H545.491Z" fill="#4AAFC7"/>
<path d="M580.14 312.695L576.66 338.856L594.68 345.048L602.956 308.979L580.14 312.695Z" fill="#4AAFC7"/>
<path d="M571.582 335.744L570.727 338.233L599.907 348.282L600.763 345.793L571.582 335.744Z" fill="#69C6DE"/>
<path d="M530.564 302.633L529.249 300.388C546.187 290.636 547.811 274.227 547.811 274.072L550.441 274.304C550.363 275.001 548.739 292.261 530.564 302.633Z" fill="#69C6DE"/>
<path d="M622.91 136.765L586.559 124.381L551.523 137.23L585.09 159.443L622.91 136.765Z" fill="#EC8677"/>
<path d="M624.07 134.908L612.623 141.254C597.542 149.691 579.134 149.691 564.053 141.254L552.606 134.908C538.917 142.338 522.288 157.895 524.918 174.227L538.375 225.93L536.21 259.753L588.338 266.178L639.229 259.753L638.378 227.4L643.405 174.304C645.958 157.895 637.759 142.338 624.07 134.908Z" fill="#69C6DE"/>
<path d="M605.508 88.9323H569.622V136.843H605.508V88.9323Z" fill="#EC8677"/>
<path d="M605.508 121.131V102.245L576.892 113.468L605.508 121.131Z" fill="#CD6358"/>
<path d="M547.424 80.4957C544.795 80.8827 540.85 79.1799 538.221 75.6195C532.575 67.8022 530.719 54.412 543.403 52.5544C556.009 50.7742 558.252 63.9322 555.159 72.9879C553.689 77.2449 550.209 80.1087 547.424 80.4957Z" fill="#CD6358"/>
<path d="M584.084 116.254C598.006 116.254 612.469 109.443 620.203 93.4214C636.909 58.7464 635.362 7.27557 584.084 7.27557C533.193 7.27557 531.724 60.604 549.281 94.7372C557.556 110.759 573.024 116.254 584.084 116.254Z" fill="#EC8677"/>
<path d="M624.611 80.4957C627.241 80.8827 631.185 79.1799 633.815 75.6195C639.461 67.8022 641.317 54.412 628.633 52.5544C616.027 50.7742 613.784 63.9322 616.877 72.9879C618.347 77.2449 621.827 80.1087 624.611 80.4957Z" fill="#EC8677"/>
<path d="M579.212 78.4833C576.195 78.4059 571.168 77.2449 571.168 73.1427C571.168 69.118 574.958 67.6474 576.892 67.4152L577.201 69.892L577.046 68.6536L577.201 69.892C577.046 69.892 573.643 70.3564 573.643 73.1427C573.643 75.6969 579.212 76.0065 579.289 76.0065L579.212 78.4833Z" fill="#CD6358"/>
<path d="M603.574 49.0714C599.321 47.3686 595.299 47.059 593.211 46.9816C592.437 46.9816 591.819 46.3624 591.741 45.5884C591.664 44.737 592.36 43.963 593.288 43.963C595.608 43.963 600.094 44.35 604.812 46.285C605.585 46.5946 605.972 47.5234 605.585 48.2974C605.199 49.0714 604.348 49.381 603.574 49.0714Z" fill="#242531"/>
<path d="M552.529 48.0652C552.142 47.2912 552.529 46.3624 553.38 46.0528C558.097 44.2726 562.661 44.0404 564.981 44.1178C565.832 44.1178 566.528 44.8918 566.45 45.8206C566.373 46.5946 565.677 47.2138 564.904 47.1364C562.815 47.1364 558.716 47.2912 554.462 48.8392C553.689 49.1488 552.838 48.8392 552.529 48.0652Z" fill="#242531"/>
<path d="M568.074 89.7837H589.962C589.962 89.7837 587.487 97.7559 579.057 97.7559C570.472 97.7559 568.074 89.7837 568.074 89.7837Z" fill="#242531"/>
<path d="M626.854 67.8795C626.854 67.8795 621.904 41.641 593.984 25.9289C593.984 25.9289 566.682 27.0125 560.572 36.9197C554.385 46.8268 557.324 67.8795 540.309 67.8795C540.309 67.8795 521.283 0 584.007 0C642.168 0 631.263 60.5266 626.854 67.8795Z" fill="#503717"/>
<path d="M594.061 25.9289C594.061 25.9289 574.571 31.3469 565.213 42.7246C565.213 42.7246 564.749 31.7339 575.577 23.5295C586.404 15.4025 594.061 25.9289 594.061 25.9289Z" fill="#503717"/>
<path d="M513.471 179.413C511.074 189.707 507.98 221.208 507.98 221.208H537.524L544.176 199.846L552.606 134.908L540.85 141.332C540.231 141.719 539.535 142.028 538.917 142.415C526.697 149.381 518.266 158.902 513.471 179.413Z" fill="#69C6DE"/>
<path d="M644.875 303.097C627.318 291.719 626.545 274.459 626.545 273.685L629.175 273.608C629.175 273.763 629.948 290.249 646.344 300.93L644.875 303.097Z" fill="#69C6DE"/>
<path d="M559.876 260.605L636.831 235.373L635.516 203.329L666.298 202.71C666.298 202.71 669.856 249.382 664.21 254.103C661.89 256.038 659.106 257.277 656.089 257.664L563.357 275.388L559.876 260.605Z" fill="#EC8677"/>
<path d="M667.923 207.663C667.923 207.663 666.762 174.149 663.05 163.778C658.719 151.626 645.88 144.428 634.047 139.242L624.147 134.83L632.268 200.233L635.98 213.855L667.923 207.663Z" fill="#69C6DE"/>
<path d="M453.918 254.645L448.118 242.339C447.344 240.636 445.565 239.243 443.322 238.391C443.322 238.391 441.853 237.849 441.311 238.546C440.229 240.017 442.008 245.28 442.008 245.28L453.918 254.645Z" fill="#F4A69C"/>
<path d="M453.918 254.645V268.654L435.666 273.298C432.417 274.15 429.014 273.995 425.843 272.834L419.037 270.435C414.783 268.887 411.922 264.862 411.922 260.295V246.596C411.922 244.196 413.159 241.952 415.093 240.636C415.093 240.636 417.181 238.778 418.032 238.623C419.965 238.469 425.07 241.642 425.07 241.642C429.633 243.422 434.66 243.654 439.378 242.416L446.029 240.636L453.918 254.645Z" fill="#F4A69C"/>
<path d="M433.191 245.357C434.351 245.357 435.511 245.28 436.671 245.048L443.864 243.654L443.4 241.41L436.207 242.803C433.5 243.345 430.638 243.113 428.009 242.261L420.352 239.63L419.578 241.797L427.235 244.428C429.169 244.97 431.18 245.357 433.191 245.357Z" fill="#F1897D"/>
<path d="M540.386 67.8796C540.386 67.8796 544.176 116.641 576.892 117.648C609.607 118.654 619.739 97.5237 626.854 80.341C626.854 80.341 624.843 73.8394 626.854 67.8796C626.854 67.8796 576.195 74.3812 540.386 67.8796Z" fill="#FCEFA9"/>
<path d="M459.719 491.179H340.458C332.492 491.179 326.846 483.439 329.243 475.931L393.824 271.673C395.371 266.797 399.856 263.469 405.038 263.469H524.299C532.265 263.469 540.231 263.624 537.911 271.209L470.933 482.974C469.387 487.85 464.823 491.179 459.719 491.179Z" fill="#CFBDA2"/>
<path d="M235.119 496.287H472.944C474.878 496.287 476.502 494.739 476.502 492.726V481.117C476.502 479.182 474.955 477.556 472.944 477.556H235.119C233.185 477.556 231.561 479.104 231.561 481.117V492.726C231.638 494.661 233.185 496.287 235.119 496.287Z" fill="#CFBDA2"/>
<path d="M240.068 486.612C238.599 488.315 236.047 488.47 234.423 486.922C232.876 485.451 232.721 483.052 234.113 481.426L246.333 467.34L246.178 466.72L232.953 478.098C231.484 479.337 229.318 479.259 228.003 477.866C226.611 476.395 226.688 474.151 228.158 472.758L244.4 457.432L250.278 448.996L246.178 450.234C243.936 450.931 241.538 450.466 239.759 448.996C238.908 448.299 238.986 447.061 239.914 446.442L248.035 441.333C251.051 439.398 254.531 438.16 258.089 437.695L266.597 436.844L273.248 436.147L312.847 364.708C316.637 357.819 325.608 355.884 331.873 360.528C337.596 364.707 338.834 372.757 334.657 378.485L293.589 435.219L269.458 474.692L262.807 486.689C262.111 487.928 260.564 488.547 259.172 487.928C257.702 487.309 257.006 485.683 257.548 484.213L261.801 473.222L261.492 473.145L251.438 489.011C250.432 490.637 248.344 491.179 246.642 490.327C244.786 489.321 244.09 486.922 245.25 485.141L253.681 471.674L253.062 471.519L240.068 486.612Z" fill="#F4A69C"/>
<path d="M345.485 268.809C343.474 292.571 339.066 347.68 337.132 371.906C336.591 378.562 331.022 383.748 324.294 383.748C317.178 383.748 311.455 377.943 311.455 370.822L311.919 266.255C312.538 256.58 321.2 249.382 330.868 250.62C339.762 251.781 346.259 259.831 345.485 268.809Z" fill="#F4A69C"/>
<path d="M301.555 264.397C303.953 250.466 316.482 241.1 329.475 243.422C340.999 245.512 349.043 256.116 349.043 268.19L346.723 313.237L306.505 311.843L301.323 272.137C301.014 269.661 301.091 267.029 301.555 264.397Z" fill="#503717"/>
<path d="M457.244 431.736L451.056 388.314H337.674L328.083 420.435L393.901 440.482L457.244 431.736Z" fill="#E84845"/>
<path d="M300.318 646.907C300.472 645.823 298.848 602.789 298.848 602.789H261.802L265.127 645.281L300.318 646.907Z" fill="#FCEFA9"/>
<path d="M396.531 646.907C396.685 645.823 395.061 602.789 395.061 602.789H358.015L361.34 645.281L396.531 646.907Z" fill="#FCEFA9"/>
<path d="M190.183 673.145C195.442 665.483 203.718 660.065 213.231 658.671C213.231 658.671 221.893 660.916 225.992 673.145H311.068V685.065H185.233" fill="#010202"/>
<path d="M228.467 650.931C235.505 653.408 239.991 656.659 240.069 656.736L241.925 654.182C241.693 654.027 238.135 651.396 232.257 648.996L237.98 646.133C244.864 649.229 249.118 652.789 249.195 652.866L251.283 650.467C251.051 650.312 247.493 647.294 241.615 644.275L261.338 634.291C261.338 634.291 273.093 644.739 284.463 644.739C295.832 644.739 303.102 640.792 303.102 640.792L311.146 672.99H226.07C221.893 660.761 213.308 658.517 213.308 658.517L228.467 650.931Z" fill="#010202"/>
<path d="M240.069 656.736C239.991 656.659 235.583 653.486 228.467 650.931L232.257 648.996C238.058 651.396 241.693 654.027 241.925 654.182L240.069 656.736Z" fill="#010202"/>
<path d="M249.272 652.866C249.195 652.789 244.941 649.229 238.058 646.133L241.615 644.352C247.571 647.294 251.128 650.312 251.283 650.544L249.272 652.866Z" fill="#010202"/>
<path d="M286.087 673.145C291.346 665.483 299.622 660.065 309.135 658.671C309.135 658.671 317.797 660.916 321.896 673.145H406.972V685.065H281.137C282.065 680.653 283.612 676.628 286.087 673.145Z" fill="#010202"/>
<path d="M324.371 650.931C331.409 653.408 335.895 656.659 335.972 656.736L337.828 654.182C337.596 654.027 334.039 651.396 328.161 648.996L333.884 646.133C340.767 649.229 345.021 652.789 345.098 652.866L347.187 650.467C346.955 650.312 343.397 647.294 337.519 644.275L357.241 634.291C357.241 634.291 368.997 644.739 380.366 644.739C391.735 644.739 399.006 640.792 399.006 640.792L407.049 672.99H321.973C317.797 660.761 309.212 658.517 309.212 658.517L324.371 650.931Z" fill="#010202"/>
<path d="M335.895 656.736C335.817 656.659 331.409 653.486 324.294 650.931L328.083 648.996C333.884 651.396 337.519 654.027 337.751 654.182L335.895 656.736Z" fill="#010202"/>
<path d="M345.098 652.866C345.021 652.789 340.767 649.229 333.884 646.133L337.442 644.352C343.397 647.294 346.955 650.312 347.109 650.544L345.098 652.866Z" fill="#010202"/>
<path d="M379.516 420.435L362.732 434.522C367.605 464.553 383.769 491.798 353.374 491.798H299.544L308.825 622.68L248.421 623.454L235.737 464.708C235.273 440.559 254.686 420.745 278.817 420.667L379.516 420.435Z" fill="#E84845"/>
<path d="M455.542 420.435L457.863 434.522C462.735 464.553 439.61 491.798 409.215 491.798H394.675L403.956 622.68L343.552 623.454L330.868 464.708C330.404 440.559 349.816 420.745 373.947 420.667L455.542 420.435Z" fill="#E56565"/>
<path d="M432.185 226.936L420.12 231.89C401.403 239.552 380.83 239.32 362.346 231.27C358.711 229.722 354.921 228.097 351.131 226.394L342.16 229.877C334.193 232.896 327.697 238.856 323.984 246.518L322.36 249.769L333.884 397.293H455.156L457.321 256.658L432.185 226.936Z" fill="#503717"/>
<path d="M420.197 231.89L432.263 226.936L422.363 223.143L412.308 226.859C398.774 231.89 383.847 231.735 370.389 226.472C367.296 225.233 364.047 223.995 360.799 222.679L351.131 226.394C354.921 228.02 358.711 229.722 362.346 231.27C380.908 239.32 401.481 239.552 420.197 231.89Z" fill="#372413"/>
<path d="M412.308 226.936L422.363 223.221L391.04 211.146L360.799 222.756C364.047 224.072 367.296 225.311 370.389 226.549C383.847 231.812 398.774 231.967 412.308 226.936Z" fill="#F4A69C"/>
<path d="M407.204 184.521H375.03V223.53H407.204V184.521Z" fill="#F4A69C"/>
<path d="M375.03 216.023V197.137L395.139 208.824L375.03 216.023Z" fill="#F1897D"/>
<path d="M358.092 174.614C355.462 175.001 351.672 173.298 349.12 169.815C343.629 162.152 341.773 149.072 354.147 147.292C366.445 145.511 368.688 158.36 365.594 167.261C364.125 171.44 360.721 174.227 358.092 174.614Z" fill="#F1897D"/>
<path d="M389.415 209.211C430.02 209.211 460.26 102.942 389.415 102.942C318.57 102.942 356.777 209.211 389.415 209.211Z" fill="#F4A69C"/>
<path d="M427.854 174.614C430.484 175.001 434.273 173.298 436.826 169.815C442.317 162.152 444.173 149.072 431.798 147.292C419.501 145.511 417.258 158.36 420.352 167.261C421.744 171.44 425.147 174.227 427.854 174.614Z" fill="#F4A69C"/>
<path d="M402.099 164.474C404.107 164.474 405.734 162.014 405.734 158.979C405.734 155.944 404.107 153.484 402.099 153.484C400.092 153.484 398.464 155.944 398.464 158.979C398.464 162.014 400.092 164.474 402.099 164.474Z" fill="#242531"/>
<path d="M369.848 164.474C371.855 164.474 373.483 162.014 373.483 158.979C373.483 155.944 371.855 153.484 369.848 153.484C367.84 153.484 366.213 155.944 366.213 158.979C366.213 162.014 367.84 164.474 369.848 164.474Z" fill="#242531"/>
<path d="M410.22 144.583C410.529 143.886 410.22 143.035 409.524 142.725C405.27 140.945 401.094 140.635 399.005 140.635C398.232 140.635 397.536 141.332 397.613 142.106C397.691 142.802 398.232 143.344 399.005 143.344C400.862 143.344 404.651 143.654 408.518 145.202C409.137 145.589 409.911 145.279 410.22 144.583Z" fill="#242531"/>
<path d="M363.583 145.124C367.45 143.654 371.24 143.499 373.096 143.576C373.792 143.576 374.411 143.035 374.488 142.338C374.566 141.564 373.947 140.79 373.173 140.79C371.008 140.713 366.909 140.945 362.578 142.57C361.804 142.88 361.495 143.731 361.804 144.428C362.114 145.124 362.887 145.434 363.583 145.124Z" fill="#242531"/>
<path d="M422.208 157.199C422.208 157.199 426.075 150.388 432.959 147.446C432.959 147.446 435.434 131.657 428.782 118.344L426.849 122.292C422.363 131.58 420.584 141.874 421.667 152.09L422.208 157.199Z" fill="#E3E3E2"/>
<path d="M301.632 264.165C301.632 264.165 305.113 237.462 351.131 226.394L353.606 254.722L301.632 264.165Z" fill="#503717"/>
<path d="M369.074 171.285C362.268 171.285 356.777 165.79 356.777 158.979C356.777 152.168 362.268 146.672 369.074 146.672C375.881 146.672 381.372 152.168 381.372 158.979C381.449 165.79 375.881 171.285 369.074 171.285ZM369.074 148.762C363.429 148.762 358.788 153.406 358.788 159.056C358.788 164.706 363.429 169.35 369.074 169.35C374.72 169.35 379.361 164.706 379.361 159.056C379.361 153.329 374.798 148.762 369.074 148.762Z" fill="#242531"/>
<path d="M402.099 171.285C395.293 171.285 389.802 165.79 389.802 158.979C389.802 152.168 395.293 146.672 402.099 146.672C408.905 146.672 414.397 152.168 414.397 158.979C414.397 165.79 408.905 171.285 402.099 171.285ZM402.099 148.762C396.453 148.762 391.813 153.406 391.813 159.056C391.813 164.706 396.453 169.35 402.099 169.35C407.745 169.35 412.386 164.706 412.386 159.056C412.386 153.329 407.745 148.762 402.099 148.762Z" fill="#242531"/>
<path d="M391.735 157.431H379.593V159.443H391.735V157.431Z" fill="#242531"/>
<path d="M363.042 387.927L369.538 401.008L339.066 421.132L320.272 406.271L324.216 393.036L346.413 381.271L363.042 387.927Z" fill="#F4A69C"/>
<path d="M354.689 384.599L346.336 381.271C342.778 379.955 338.989 379.413 335.276 379.8L325.299 380.652C324.216 380.729 323.52 381.89 323.907 382.896C324.835 385.141 326.846 386.689 329.243 387.153L346.027 390.327L354.689 384.599Z" fill="#F4A69C"/>
<path d="M324.216 393.036L301.787 399.46C299.776 400.002 298.616 402.091 299.235 404.104C299.776 406.039 301.787 407.2 303.721 406.735L327.387 401.24L328.625 396.364L324.216 393.036Z" fill="#F4A69C"/>
<path d="M300.782 415.559C301.555 417.726 304.03 418.81 306.118 417.958L329.166 408.748L330.094 404.181L324.758 401.859L303.179 410.373C301.091 411.147 300.086 413.469 300.782 415.559Z" fill="#F4A69C"/>
<path d="M310.449 424.615C311.609 426.24 313.775 426.782 315.554 425.776L333.961 415.017L333.42 409.909L329.243 408.67L311.687 419.119C309.676 420.28 309.135 422.835 310.449 424.615Z" fill="#F4A69C"/>
<path d="M323.211 428.407C324.216 429.568 325.918 429.801 327.155 428.949L339.066 421.054L338.834 416.488L333.884 414.94L323.52 424.15C322.283 425.311 322.128 427.169 323.211 428.407Z" fill="#F4A69C"/>
<path d="M354.766 390.636L432.959 340.481C439.842 336.07 449.046 338.624 452.526 346.054C455.697 352.71 452.835 360.683 446.184 363.933L362.114 404.568L354.766 390.636Z" fill="#F4A69C"/>
<path d="M461.188 259.753C459.409 284.599 455.233 327.091 453.531 352.478C453.067 359.444 447.344 364.94 440.306 365.017C432.881 365.094 426.771 359.135 426.694 351.704L425.998 257.586C426.539 247.447 435.433 239.862 445.565 241.023C455.001 242.106 461.884 250.311 461.188 259.753Z" fill="#F4A69C"/>
<path d="M416.872 258.205C420.352 243.887 433.964 234.908 447.344 238.236C459.255 241.178 466.912 252.71 466.061 265.326L460.647 312.076L418.883 307.973L416.098 266.255C415.944 263.546 416.253 260.914 416.872 258.205Z" fill="#503717"/>
<path d="M432.185 226.936C443.09 231.193 460.956 242.88 463.354 251.394C465.752 259.908 445.411 257.586 445.411 257.586L428.009 232.664L432.185 226.936Z" fill="#503717"/>
<path d="M576.041 547.216H311.3V549.228H576.041V547.216Z" fill="#242531"/>
<path d="M444.637 415.791H442.626V680.73H444.637V415.791Z" fill="#242531"/>
<path d="M350.76 453.902L349.338 455.325L536.536 642.664L537.958 641.241L350.76 453.902Z" fill="#242531"/>
<path d="M536.536 453.848L349.338 641.186L350.76 642.609L537.958 455.27L536.536 453.848Z" fill="#242531"/>
<path d="M579.134 548.377V548.145C579.134 545.977 577.355 544.197 575.19 544.197H463.663C461.962 544.197 460.57 543.114 459.951 541.566C459.951 541.566 459.951 541.566 459.951 541.488C459.332 539.94 459.564 538.16 460.724 536.999L539.535 458.129C541.082 456.581 541.082 454.027 539.535 452.479L539.381 452.324C537.834 450.776 535.282 450.776 533.735 452.324L454.924 531.194C453.763 532.355 451.985 532.665 450.438 531.968C450.438 531.968 450.438 531.968 450.36 531.968C448.814 531.349 447.731 529.878 447.731 528.253V416.643C447.731 414.475 445.952 412.695 443.786 412.695H443.554C441.389 412.695 439.61 414.475 439.61 416.643V528.253C439.61 529.956 438.527 531.349 436.98 531.968C436.98 531.968 436.98 531.968 436.903 531.968C435.356 532.587 433.577 532.355 432.417 531.194L353.606 452.324C352.059 450.776 349.507 450.776 347.96 452.324L347.805 452.479C346.259 454.027 346.259 456.581 347.805 458.129L426.617 536.999C427.777 538.16 428.086 539.94 427.39 541.488C427.39 541.488 427.39 541.488 427.39 541.566C426.771 543.114 425.302 544.197 423.678 544.197H312.228C310.063 544.197 308.284 545.977 308.284 548.145V548.377C308.284 550.544 310.063 552.324 312.228 552.324H423.755C425.456 552.324 426.849 553.408 427.467 554.956C427.467 554.956 427.467 554.956 427.467 555.033C428.086 556.581 427.854 558.361 426.694 559.522L347.805 638.393C346.259 639.941 346.259 642.495 347.805 644.043L347.96 644.198C349.507 645.746 352.059 645.746 353.606 644.198L432.417 565.327C433.577 564.166 435.356 563.857 436.903 564.553C436.903 564.553 436.903 564.553 436.98 564.553C438.527 565.173 439.61 566.643 439.61 568.269V679.879C439.61 682.046 441.389 683.826 443.554 683.826H443.786C445.952 683.826 447.731 682.046 447.731 679.879V568.269C447.731 566.566 448.814 565.173 450.36 564.553C450.36 564.553 450.36 564.553 450.438 564.553C451.985 563.934 453.763 564.166 454.924 565.327L533.735 644.198C535.282 645.746 537.834 645.746 539.381 644.198L539.535 644.043C541.082 642.495 541.082 639.941 539.535 638.393L460.724 559.522C459.564 558.361 459.255 556.581 459.951 555.033C459.951 555.033 459.951 555.033 459.951 554.956C460.57 553.408 462.039 552.324 463.663 552.324H575.19C577.355 552.324 579.134 550.544 579.134 548.377Z" fill="#161F33"/>
<path d="M443.709 411.689C368.456 411.689 307.201 472.99 307.201 548.299C307.201 623.609 368.456 684.91 443.709 684.91C518.962 684.91 580.217 623.609 580.217 548.299C580.14 472.912 518.962 411.689 443.709 411.689ZM443.709 670.514C376.344 670.514 321.509 615.637 321.509 548.222C321.509 480.807 376.344 425.93 443.709 425.93C511.074 425.93 565.909 480.807 565.909 548.222C565.832 615.637 511.074 670.514 443.709 670.514Z" fill="#161F33"/>
<path d="M423.678 186.456C423.678 186.456 415.789 182.508 411.767 170.125C411.767 170.125 399.47 175.852 385.393 175.852C371.317 175.852 358.556 170.125 358.556 170.125C358.556 170.125 357.009 173.685 354.844 175.542C354.844 175.542 360.489 209.831 388.1 209.831C415.634 209.831 423.678 186.456 423.678 186.456Z" fill="#69C6DE"/>
<path d="M427.57 159.855L409.343 171.412L410.419 173.112L428.647 161.555L427.57 159.855Z" fill="#69C6DE"/>
<path d="M426.207 176.682L421.142 187.128L422.951 188.006L428.016 177.561L426.207 176.682Z" fill="white"/>
<path d="M351.518 123.762C351.518 123.762 356.468 141.564 350.59 157.431C350.59 157.431 346.491 145.666 346.104 136.765C345.795 127.942 351.518 123.762 351.518 123.762Z" fill="#E3E3E2"/>
<path d="M351.363 128.561C351.363 128.561 360.567 106.579 387.095 106.579C413.623 106.579 427.39 125.697 427.39 125.697L431.18 120.279C431.18 120.279 413.546 100.233 387.095 100.233C360.644 100.233 349.816 125.465 349.816 125.465L351.363 128.561Z" fill="#E3E3E2"/>
<path d="M563.434 275.311C563.434 275.311 555.932 280.496 547.579 274.846L554.54 260.373L564.362 260.837L563.434 275.311Z" fill="#EC8677"/>
<path d="M557.169 275.311L529.172 272.447L528.166 263.469L557.169 266.333C559.644 266.333 561.655 268.345 561.655 270.822" fill="#242531"/>
<path d="M559.876 260.605C559.876 260.605 548.662 255.574 539.845 257.354C531.105 259.134 526.233 275.311 529.249 278.794C532.265 282.277 545.491 282.664 549.435 281.58C553.302 280.496 556.164 272.447 556.164 272.447L559.954 260.992" fill="#EC8677"/>
<path d="M376.731 164.01C376.731 165.094 373.638 165.945 369.771 165.945C365.981 165.945 362.81 165.094 362.81 164.01C362.81 162.926 365.903 162.075 369.771 162.075C373.638 162.075 376.731 162.926 376.731 164.01Z" fill="#F4A69C"/>
<path d="M409.06 164.01C409.06 165.094 405.967 165.945 402.099 165.945C398.31 165.945 395.139 165.094 395.139 164.01C395.139 162.926 398.232 162.075 402.099 162.075C405.889 162.075 409.06 162.926 409.06 164.01Z" fill="#F4A69C"/>
<path d="M570.395 66.4089C570.395 67.4925 567.301 68.3439 563.434 68.3439C559.644 68.3439 556.473 67.4925 556.473 66.4089C556.473 65.3253 559.567 64.4739 563.434 64.4739C567.301 64.4739 570.395 65.3253 570.395 66.4089Z" fill="#EC8677"/>
<path d="M602.646 66.4089C602.646 67.4925 599.552 68.3439 595.685 68.3439C591.896 68.3439 588.725 67.4925 588.725 66.4089C588.725 65.3253 591.818 64.4739 595.685 64.4739C599.552 64.4739 602.646 65.3253 602.646 66.4089Z" fill="#EC8677"/>
<path d="M562.738 65.5575C564.746 65.5575 566.373 63.3398 566.373 60.604C566.373 57.8682 564.746 55.6504 562.738 55.6504C560.73 55.6504 559.103 57.8682 559.103 60.604C559.103 63.3398 560.73 65.5575 562.738 65.5575Z" fill="#242531"/>
<path d="M595.763 65.5575C597.77 65.5575 599.398 63.3398 599.398 60.604C599.398 57.8682 597.77 55.6504 595.763 55.6504C593.755 55.6504 592.128 57.8682 592.128 60.604C592.128 63.3398 593.755 65.5575 595.763 65.5575Z" fill="#242531"/>
</svg>
