<svg width="523" height="392" viewBox="0 0 523 392" fill="none" xmlns="http://www.w3.org/2000/svg">
<path d="M512.784 269.616C507.151 275.086 500.084 278.176 492.84 278.915C494.289 282.744 495.013 286.78 495.013 290.831C495.013 299.569 491.613 308.306 484.856 314.885C484.073 315.654 483.245 316.379 482.402 317.059C469.081 327.704 449.566 326.698 437.428 314.205L436.747 313.511L436.319 313.067L433.643 310.302L433.421 310.095L432.386 309.016L430.287 306.858L427.581 304.063L422.037 298.356C422.052 298.756 422.067 299.17 422.067 299.569C422.067 300.515 422.022 301.476 421.948 302.422C421.815 304.063 421.549 305.704 421.165 307.316C421.032 307.878 420.884 308.439 420.721 309.001C420.573 309.519 420.411 310.007 420.233 310.509V310.524C420.115 310.879 419.982 311.234 419.849 311.589C419.198 313.274 418.43 314.9 417.498 316.467V316.482C416.685 317.887 415.754 319.232 414.719 320.518C413.846 321.598 412.915 322.633 411.895 323.623C407.4 327.999 401.989 330.853 396.297 332.198C390.916 333.484 385.283 333.41 379.931 331.991C377.698 331.414 375.525 330.587 373.426 329.537C371.725 328.679 370.114 327.689 368.547 326.521H368.532C367.098 325.456 365.723 324.274 364.452 322.943L359.41 317.768L352.402 310.554L349.992 308.085L346.134 304.122L344.714 302.644L336.509 294.202L334.395 292.029L331.142 288.673L328.422 285.864L327.771 285.198C327.771 285.376 327.786 285.553 327.786 285.716C327.786 285.893 327.786 286.071 327.771 286.248C327.757 287.046 327.712 287.845 327.653 288.658C327.594 289.368 327.505 290.077 327.402 290.787C327.121 292.65 326.677 294.498 326.086 296.301C325.642 297.617 325.125 298.918 324.519 300.19C323.203 302.94 321.488 305.556 319.389 307.937C319.374 307.937 319.374 307.937 319.374 307.952C318.812 308.573 318.235 309.179 317.614 309.785C316.786 310.583 315.929 311.337 315.057 312.032C314.436 312.535 313.8 312.993 313.149 313.437C310.473 315.285 307.576 316.689 304.56 317.65C297.951 319.794 290.81 319.809 284.187 317.739L300.893 334.918C307.236 341.438 310.385 349.866 310.385 358.293C310.385 367.03 306.984 375.783 300.213 382.362C286.937 395.269 265.691 394.973 252.785 381.682L162.91 289.19C164.019 292.576 164.566 296.094 164.566 299.613C164.566 306.547 162.422 313.466 158.179 319.306C157.07 320.844 155.813 322.307 154.394 323.667C146.144 331.681 134.849 334.608 124.367 332.494C122.948 332.213 121.528 331.828 120.138 331.355C116.073 329.966 112.229 327.778 108.843 324.791C108.193 324.214 107.557 323.623 106.951 322.987L14.2374 227.569C7.90968 221.049 4.76059 212.621 4.76059 204.194C4.76059 195.457 8.16102 186.704 14.9175 180.125C21.5853 173.65 30.2638 170.501 38.8683 170.648C42.5201 170.708 46.1423 171.373 49.6314 172.615L45.3587 168.224L9.49162 131.263C3.14909 124.743 0 116.316 0 107.888C0 99.1508 3.40042 90.4131 10.1717 83.8341C19.3085 74.9486 32.2153 72.317 43.5846 75.88L26.9077 58.7153C20.5652 52.1954 17.4161 43.7682 17.4161 35.3559C17.4161 26.6035 20.8165 17.8658 27.5878 11.2868C40.8642 -1.62006 62.1095 -1.32437 75.0163 11.9669L87.3761 24.6815L100.933 38.638L111.682 49.6968C111.682 49.5194 111.667 49.3419 111.667 49.1793C111.667 47.6122 111.77 46.0598 111.992 44.5074C112.332 42.0089 112.968 39.5399 113.885 37.1596C115.57 32.7538 118.216 28.6289 121.824 25.125C130.99 16.21 143.941 13.5931 155.34 17.2005C159.229 18.4277 162.939 20.394 166.251 23.07C167.286 23.9127 168.291 24.8293 169.252 25.8199L178.167 34.9862C178.153 34.661 178.153 34.3209 178.153 33.9957C178.153 25.2581 181.553 16.5057 188.324 9.9266C201.601 -2.98023 222.846 -2.68454 235.753 10.6067L244.875 19.98L249.443 24.6815L249.458 24.6963L249.724 24.9624L249.739 24.9772L255.416 30.8022L255.431 30.817L258.417 33.8922L262.986 38.6084L263.281 38.9189L263.341 38.9781L263.355 38.9928L265.13 40.8261L282.886 59.0849L282.9 59.0997L288.016 64.3629L293.072 69.5523L293.412 69.9071C293.989 66.5215 295.083 63.2098 296.694 60.0902C297.877 57.8282 299.326 55.6697 301.041 53.6738C301.396 53.2598 301.765 52.8607 302.15 52.4467C302.46 52.1214 302.771 51.811 303.096 51.5005C306.585 48.1148 310.607 45.631 314.909 44.0639C318.649 42.6889 322.582 42.0089 326.515 42.0236C327.224 42.0236 327.919 42.0532 328.629 42.0976C329.146 42.1271 329.649 42.1715 330.166 42.2306C330.314 42.2454 330.477 42.2602 330.625 42.2898C332.281 42.482 333.907 42.822 335.518 43.2655H335.533C339.17 44.2709 342.674 45.912 345.853 48.174C346.755 48.8097 347.642 49.5046 348.484 50.2438C349.194 50.85 349.874 51.5153 350.539 52.1953L352.875 54.62V54.6348L353.008 54.7678L353.023 54.7826L353.141 54.9157L353.156 54.9305L353.836 55.6401L393.059 96.5635L400.54 104.384L404.621 108.642L404.636 108.657L408.391 112.575L423.752 128.601L426.635 131.617L430.05 135.195L430.065 135.21L436.614 142.055V142.085L482.446 189.868L513.523 222.305C519.851 228.825 523 237.252 523 245.665C522.941 254.299 519.555 263.051 512.784 269.616Z" fill="#FAEFD2"/>
<path d="M255.047 224.878C254.159 223.104 252.992 222.956 252.415 222.276C251.838 221.596 251.38 220.117 251.173 218.772C251.217 218.757 251.247 218.757 251.291 218.742C251.72 218.55 251.498 217.293 251.277 216.968C251.055 216.643 248.674 216.643 248.275 216.865C247.876 217.086 247.95 218.388 247.95 218.388C247.95 218.506 248.054 218.609 248.231 218.683C248.024 220.043 247.566 221.581 246.974 222.276C246.412 222.956 245.23 223.089 244.343 224.878C243.633 226.297 243.766 228.944 243.855 230.481L254.81 234.813C255.032 232.773 255.505 232.181 255.505 231.398C255.49 230.378 255.934 226.652 255.047 224.878Z" fill="#D8D8DB"/>
<path d="M255.283 242.545C255.268 242.486 255.194 242.294 255.106 241.939L244.683 237.814C244.624 241.067 244.165 242.368 244.106 242.531C244.106 242.545 244.091 242.56 244.091 242.575C244.032 242.826 243.648 244.807 244.091 247.291C244.564 249.952 246.25 251.357 246.9 251.283C247.551 251.209 247.64 250.529 248.29 251.047C248.704 251.372 249.148 251.461 249.429 251.49C249.547 251.505 249.65 251.416 249.68 251.283C249.709 251.401 249.813 251.49 249.931 251.49C250.212 251.461 250.67 251.372 251.07 251.047C251.72 250.529 251.809 251.224 252.459 251.283C253.11 251.357 254.795 249.952 255.268 247.291C255.712 244.807 255.328 242.812 255.268 242.575C255.283 242.575 255.283 242.56 255.283 242.545Z" fill="#D8D8DB"/>
<path d="M249.739 24.9772V50.3474L248.941 51.0127L227.355 69.0497L227.089 63.3873L225.892 38.9781L244.89 19.9801L249.458 24.6816L249.473 24.6963L249.724 24.9625L249.739 24.9772Z" fill="#FAE1DF"/>
<path d="M265.115 40.7966L265.085 46.1337C265.085 46.1337 249.532 53.6443 249.059 54.0878C248.985 54.1617 248.941 53.2746 248.941 51.7223V51.0126C248.941 48.9576 248.985 46.0155 249.044 42.7038C249.148 36.9822 249.325 30.137 249.473 24.6963L249.739 24.9624L249.754 24.9772L255.431 30.8023L255.446 30.8171L258.432 33.8922L263.001 38.6085L263.296 38.9189L263.355 38.9781L263.37 38.9929L265.115 40.7966Z" fill="#C6CFD6"/>
<path d="M263.341 38.9485L261.389 40.5748L256.096 44.9953V44.8475L255.682 36.4351L255.416 30.8022L258.403 33.8774L262.971 38.5936L263.281 38.9041L263.341 38.9485Z" fill="#F1898C"/>
<path d="M352.979 54.7088L352.846 54.7827L348.336 57.0743L328.215 67.3347L327.313 67.793L315.352 73.899H224.162L248.941 51.3527L256.096 44.8476L262.971 38.5938L263.267 38.9042L263.326 38.9634L263.341 38.9781L265.115 40.8114L282.871 59.0702L282.886 59.085L288.001 64.3483L293.057 69.5376L293.397 69.8924C293.974 66.5068 295.068 63.1951 296.68 60.0756C297.862 57.8135 299.311 55.655 301.026 53.6591C301.381 53.2451 301.751 52.846 302.135 52.432C302.446 52.1067 302.756 51.7963 303.081 51.4858C306.57 48.1002 310.592 45.6164 314.894 44.0492C318.634 42.6743 322.567 41.9942 326.5 42.009C327.209 42.009 327.904 42.0385 328.614 42.0829C329.131 42.1125 329.634 42.1568 330.152 42.2159C330.137 42.0533 330.122 41.8907 330.122 41.7133C330.285 41.9055 330.447 42.0977 330.61 42.2603C332.266 42.4525 333.892 42.7925 335.504 43.2361H335.518C339.155 44.2414 342.659 45.8825 345.838 48.1445C346.74 48.7802 347.627 49.4751 348.47 50.2143C349.179 50.8205 349.859 51.4858 350.525 52.1659L352.861 54.5905V54.6053L352.979 54.7088Z" fill="#909091"/>
<path d="M375.909 40.9C375.894 40.9443 375.894 40.9886 375.894 41.0329C375.806 41.0476 375.732 41.0476 375.643 41.0624L375.909 40.9Z" fill="#C47C1B"/>
<path d="M352.846 54.5607C352.831 54.6347 352.831 54.7086 352.831 54.7825C352.831 54.8564 352.816 54.9304 352.816 55.0191C352.801 55.3887 352.787 55.7583 352.787 56.1279C352.506 65.9891 351.811 74.8154 350.051 75.6434C346.991 77.0775 339.717 77.2697 339.717 77.2697C339.717 77.2697 332.443 77.0922 329.383 75.6434C328.762 75.3477 328.274 74.0614 327.89 72.0803C327.786 71.5776 327.697 71.0454 327.609 70.454C327.49 69.6409 327.387 68.7538 327.298 67.8076C327.15 66.3883 327.032 64.8359 326.943 63.1801C326.884 62.2191 326.84 61.2137 326.796 60.1788C326.529 54.339 326.485 47.7155 326.47 41.9644C327.18 41.9644 327.875 41.994 328.584 42.0383C329.102 42.0679 329.605 42.1122 330.122 42.1714C330.107 42.0087 330.092 41.8461 330.092 41.6687C330.255 41.8609 330.418 42.0531 330.58 42.2157C332.236 42.4079 333.862 42.748 335.474 43.1915H335.489C339.126 44.1968 342.63 45.8379 345.808 48.0999C346.71 48.7357 347.597 49.4305 348.44 50.1698C349.15 50.7759 349.83 51.4412 350.495 52.1213L352.846 54.5607Z" fill="#D14332"/>
<path d="M352.462 333.056H352.417V333.041C352.432 333.056 352.447 333.056 352.462 333.056Z" fill="#BAC2CB"/>
<path d="M436.319 254.284V313.082L433.643 310.317L433.421 310.095L432.386 309.016L430.287 306.858L427.581 304.063L422.037 298.357C422.052 298.756 422.066 299.17 422.066 299.569C422.066 300.515 422.022 301.476 421.948 302.422C421.815 304.063 421.549 305.704 421.165 307.316C421.032 307.878 420.884 308.439 420.721 309.001C420.573 309.519 420.411 310.007 420.233 310.509V310.524C420.115 310.879 419.982 311.234 419.849 311.589C419.198 313.274 418.43 314.9 417.498 316.467V316.482C416.685 317.887 415.754 319.232 414.719 320.518C413.846 321.598 412.915 322.633 411.895 323.623C407.4 327.999 401.989 330.853 396.297 332.198C390.916 333.484 385.283 333.41 379.931 331.991C377.698 331.415 375.525 330.587 373.426 329.537C371.725 328.679 370.114 327.689 368.547 326.521H368.532C367.098 325.456 365.723 324.274 364.451 322.943L359.41 317.768L352.402 310.554L349.992 308.085L346.134 304.122L344.714 302.644L336.509 294.202L334.395 292.029L331.142 288.673L328.422 285.864L327.771 285.198C327.771 285.376 327.786 285.553 327.786 285.716C327.786 285.893 327.786 286.071 327.771 286.248C327.756 287.046 327.712 287.845 327.653 288.658C327.594 289.368 327.505 290.077 327.402 290.787C327.121 292.65 326.677 294.498 326.086 296.301C325.642 297.617 325.125 298.918 324.519 300.19C323.203 302.94 321.488 305.557 319.388 307.937C319.477 307.966 319.551 307.981 319.64 307.981C319.551 307.966 319.477 307.952 319.388 307.937C318.827 308.558 318.25 309.164 317.629 309.77C316.801 310.568 315.944 311.322 315.071 312.017C314.45 312.52 313.815 312.978 313.164 313.422L284.808 284.178L279.559 278.767L252.858 251.224L244.18 242.279L224.458 221.936H341.491L436.319 254.284Z" fill="#BAC2CB"/>
<path d="M221.412 174.566L372.332 184.132H436.895L436.363 215.637L221.412 174.566Z" fill="#BAC2CB"/>
<path d="M250.049 99.1657C250.049 90.3542 247.906 89.0235 246.353 87.9443C244.801 86.865 244.017 76.7081 244.017 76.7081L241.194 76.4716L238.37 76.7081C238.37 76.7081 237.586 86.865 236.034 87.9443C234.481 89.0235 232.338 90.3542 232.338 99.1657C232.338 107.977 232.234 125.26 234.289 126.221C236.329 127.182 241.208 127.301 241.208 127.301C241.208 127.301 246.087 127.182 248.127 126.221C250.153 125.26 250.049 107.977 250.049 99.1657Z" fill="#355641"/>
<path d="M244.86 73.8989L237.557 74.4607C237.157 74.4903 236.876 74.9338 236.936 75.4217L237.113 76.7227C237.172 77.1219 237.438 77.4176 237.763 77.4176H244.904C245.274 77.4176 245.57 77.048 245.57 76.5896V74.7268C245.555 74.2537 245.23 73.8841 244.86 73.8989Z" fill="#2E2C39"/>
<path d="M248.142 114.793L247.817 96.5192C247.787 94.5676 246.265 93.0005 244.417 93.0005C242.243 93.0153 239.907 93.0448 237.542 93.0892C235.694 93.1188 234.23 94.7155 234.23 96.667V114.778C234.23 116.73 235.708 118.326 237.542 118.356C240.026 118.4 242.465 118.43 244.742 118.445C246.649 118.459 248.172 116.803 248.142 114.793Z" fill="#D48D22"/>
<path d="M269.047 86.6136C269.047 76.8115 266.667 75.333 264.923 74.1207C263.193 72.9084 262.321 61.613 262.321 61.613L259.171 61.3469L256.022 61.613C256.022 61.613 255.15 72.9084 253.42 74.1207C251.69 75.333 249.295 76.8115 249.295 86.6136C249.295 96.4156 249.192 115.635 251.469 116.715C253.746 117.794 259.157 117.927 259.157 117.927C259.157 117.927 264.583 117.794 266.845 116.715C269.151 115.635 269.047 96.4156 269.047 86.6136Z" fill="#355641"/>
<path d="M263.267 58.5232L255.135 59.159C254.692 59.1885 254.366 59.6912 254.44 60.2234L254.633 61.6723C254.692 62.1158 255.002 62.4411 255.357 62.4411H263.296C263.71 62.4411 264.036 62.0271 264.036 61.5245V59.4398C264.05 58.9076 263.695 58.4937 263.267 58.5232Z" fill="#2E2C39"/>
<path d="M266.918 104L266.564 83.6715C266.519 81.4982 264.849 79.7536 262.794 79.7684C260.369 79.7832 257.782 79.8128 255.15 79.8571C253.095 79.9015 251.454 81.6608 251.454 83.8341V103.971C251.454 106.144 253.095 107.918 255.15 107.948C257.915 108.007 260.635 108.036 263.148 108.051C265.263 108.066 266.963 106.233 266.918 104Z" fill="#D48D22"/>
<path d="M248.541 85.6378L260.591 79.5022L273.291 67.2459L285.251 64.1855V71.0751L276.883 82.1634C276.883 82.1634 283.61 83.5236 283.802 84.4846C283.994 85.4456 273.542 91.9508 268.914 92.5274C264.272 93.1039 260.088 92.5274 260.088 92.5274C260.088 92.5274 252.208 94.8189 251.631 95.0111C251.055 95.2181 248.541 85.6378 248.541 85.6378Z" fill="#FAD2B1"/>
<path d="M303.288 64.9098C303.288 66.7431 303.288 68.9164 303.273 71.2228C303.273 72.095 303.259 72.9969 303.259 73.8987C303.259 74.2979 303.259 74.6971 303.244 75.1111C303.244 75.4511 303.229 75.8059 303.229 76.146V76.1755C303.214 76.6191 303.214 77.0626 303.2 77.5061C303.155 80.2561 303.081 83.0208 302.963 85.5489C302.667 91.4331 302.091 96.105 300.982 96.6224C298.587 97.7608 292.88 97.8939 292.88 97.8939C292.88 97.8939 287.262 97.7608 284.837 96.652C284.822 96.6372 284.793 96.6372 284.778 96.6224C283.95 96.2381 283.403 93.5029 283.078 89.6738C283.019 89.1415 282.974 88.5649 282.945 87.9883C282.915 87.5596 282.886 87.116 282.856 86.6725C282.827 86.3177 282.812 85.9629 282.797 85.608V85.5932C282.767 85.0019 282.738 84.3957 282.708 83.7748C282.708 83.7748 282.708 83.7748 282.708 83.76C282.679 83.1834 282.664 82.5772 282.649 81.9858C282.634 81.424 282.62 80.8327 282.605 80.2561C282.59 80.0639 282.59 79.8569 282.59 79.6499C282.575 79.2655 282.575 78.8959 282.56 78.5115C282.546 78.2158 282.546 77.9201 282.546 77.6244C282.531 76.8409 282.516 76.0573 282.516 75.2885C282.501 75.0963 282.501 74.8893 282.501 74.6971C282.501 74.6823 282.501 74.6823 282.501 74.6823C282.487 74.4162 282.487 74.1649 282.487 73.9135C282.457 70.7792 282.472 67.7928 282.472 65.3238V64.895C282.472 62.5295 282.605 60.6223 282.841 59.0699L287.957 64.3332L293.013 69.5225L293.353 69.8774C293.93 66.4917 295.024 63.18 296.635 60.0605C297.818 57.7985 299.267 55.6399 300.982 53.644C301.396 54.1911 301.795 54.9155 302.12 55.8617C302.845 57.7098 303.288 60.5336 303.288 64.9098Z" fill="#D14332"/>
<path d="M293.398 83.7748C293.427 85.0019 292.481 86.0368 291.254 86.1255C290.529 86.1699 289.657 86.229 288.696 86.2882C287.632 86.3621 286.478 86.436 285.281 86.5099C284.483 86.5691 283.669 86.6134 282.871 86.6725C282.841 86.3177 282.827 85.9629 282.812 85.6081V85.5933C282.782 85.0019 282.753 84.3957 282.723 83.7748C282.723 83.7748 282.723 83.7748 282.723 83.76C282.694 83.1834 282.679 82.5773 282.664 81.9859C282.649 81.4241 282.634 80.8327 282.62 80.2561C282.605 80.0639 282.605 79.8569 282.605 79.6499C282.59 79.2655 282.59 78.8959 282.575 78.5115C282.561 78.2158 282.561 77.9202 282.561 77.6245C282.546 76.8409 282.531 76.0573 282.531 75.2885C282.516 75.0963 282.516 74.8893 282.516 74.6971C282.516 74.6824 282.516 74.6824 282.516 74.6824C282.501 74.4162 282.501 74.1649 282.501 73.9136C282.472 70.7793 282.487 67.7928 282.487 65.3238C283.374 65.1612 284.305 64.9985 285.222 64.8359C286.168 64.6585 287.099 64.4959 287.972 64.3333L293.028 69.5226L293.131 73.8988L293.309 81.3945L293.353 83.4495L293.398 83.7748Z" fill="#D48D22"/>
<path d="M328.496 59.1143C328.466 60.1788 328.451 61.2433 328.422 62.293C328.363 64.0227 328.303 65.7229 328.229 67.3492C328.185 68.325 328.126 69.286 328.067 70.2026C328.022 70.8531 327.978 71.4889 327.919 72.0951C327.49 77.2253 326.81 80.9214 325.701 81.4388C322.641 82.8729 315.367 83.0651 315.367 83.0651C315.367 83.0651 311.493 82.9616 308.197 82.3555C306.984 82.1337 305.846 81.838 305.018 81.4388C304.353 81.1284 303.835 79.6499 303.436 77.3879C303.362 77.0183 303.303 76.6043 303.244 76.1903V76.1608C303.199 75.8503 303.155 75.525 303.111 75.1998C303.052 74.7858 303.007 74.3423 302.963 73.8987C302.874 73.0708 302.8 72.1838 302.726 71.2671C302.682 70.7644 302.652 70.2618 302.623 69.7295C302.608 69.493 302.593 69.2712 302.578 69.0347C302.549 68.6207 302.534 68.2067 302.505 67.7928C302.46 66.8614 302.416 65.9004 302.371 64.9394C302.357 64.4515 302.327 63.9784 302.312 63.4905C302.298 62.9139 302.283 62.3077 302.253 61.7164C302.238 61.4355 302.238 61.1545 302.224 60.8589C302.179 59.203 302.15 57.5028 302.135 55.8469C302.12 54.6937 302.105 53.5406 302.091 52.4022C302.401 52.0769 302.711 51.7664 303.037 51.4559C306.526 48.0703 310.547 45.5865 314.85 44.0194C318.59 42.6444 322.523 41.9643 326.455 41.9791C327.165 41.9791 327.86 42.0087 328.57 42.053C328.614 46.8284 328.614 53.0379 328.496 59.1143Z" fill="#D14332"/>
<path d="M316.55 46.784L315.574 67.3048L315.559 67.6153C315.485 69.0641 314.362 70.2321 312.928 70.3652L310.399 70.6017L303.288 71.2375L302.756 71.2818C302.712 70.7791 302.682 70.2765 302.652 69.7442C302.638 69.5077 302.623 69.2859 302.608 69.0493C302.578 68.6354 302.564 68.2214 302.534 67.8075C302.49 66.876 302.445 65.9151 302.401 64.9541C302.386 64.4662 302.357 63.9931 302.342 63.5052C302.327 62.9286 302.312 62.3224 302.283 61.7311C302.268 61.4501 302.268 61.1692 302.253 60.8735C302.209 59.2177 302.179 57.5175 302.164 55.8616C302.15 54.7084 302.135 53.5552 302.12 52.4168C302.431 52.0916 302.741 51.7811 303.066 51.4706C306.555 48.085 310.577 45.6012 314.879 44.0341C315.899 44.4924 316.609 45.5569 316.55 46.784Z" fill="#C47C1B"/>
<path d="M353.792 55.5661C353.688 55.6992 353.555 55.8027 353.437 55.8618C353.245 55.9505 353.023 56.0392 352.787 56.1279C351.929 56.4384 350.894 56.6749 349.815 56.8523C349.327 56.9411 348.824 57.0002 348.322 57.0741C345.586 57.4289 343.029 57.4881 343.029 57.4881C343.029 57.4881 340.087 57.4142 337.145 56.9854C335.725 56.7932 334.291 56.4975 333.197 56.0836C333.005 56.0096 332.813 55.9357 332.635 55.847C331.231 55.1817 330.506 49.4601 330.122 42.1566C330.107 41.994 330.092 41.8313 330.092 41.6539C330.255 41.8461 330.418 42.0383 330.58 42.201C332.236 42.3932 333.862 42.7332 335.474 43.1767H335.489C339.126 44.1821 342.63 45.8231 345.808 48.0852C346.71 48.7209 347.597 49.4158 348.44 50.155C349.15 50.7612 349.83 51.4265 350.495 52.1065L352.831 54.5312V54.546L352.964 54.679L352.979 54.6938L353.097 54.8269L353.112 54.8417L353.792 55.5661Z" fill="#D48D22"/>
<path d="M355.137 53.6146L354.531 53.9842C354.546 53.9547 354.546 53.9399 354.561 53.9103L355.137 53.6146Z" fill="#909091"/>
<path d="M400.496 104.311L387.648 108.362L381.35 110.343L378.645 111.2L362.101 116.404L339.229 123.619L332.088 125.866L248.674 125.393L237.956 125.334L233.653 125.305L224.162 125.245L232.781 120.041L236.167 118.001L248.054 110.816L249.828 109.736L249.99 109.633L253.509 107.504L266.83 99.4613L268.988 98.1603L283.093 89.6444L288.696 86.2588L293.383 83.435L303.229 77.4768L303.451 77.3585L309.202 73.8842L326.958 63.1507L328.407 62.2636L337.159 56.9708L348.44 50.1552C349.15 50.7613 349.83 51.4266 350.495 52.1067L352.831 54.5313V54.5461L352.964 54.6792L352.979 54.694L353.097 54.827L353.112 54.8418L353.792 55.5515L393.015 96.4748L400.496 104.311Z" fill="#909091"/>
<path d="M166.266 23.0552C164.64 36.5386 158.563 42.2158 152.117 45.6902C151.082 46.2372 150.047 46.7547 149.012 47.213C148.968 47.2426 148.924 47.2573 148.879 47.2721C141.886 50.3916 135.233 52.0031 134.021 59.1293C133.607 61.5096 133.799 64.5108 134.805 68.3991C135.44 70.8829 131.315 71.4151 126.318 70.9716C121.706 70.5724 116.368 69.3601 113.308 68.133C112.569 67.8373 100.933 62.5001 92.3141 54.5461C88.3223 50.8647 84.9662 46.6216 83.6504 42.068C81.551 34.8384 83.8574 29.9595 87.3761 24.6815L100.933 38.638L111.682 49.6968C111.682 49.5194 111.667 49.342 111.667 49.1793C111.667 47.6122 111.77 46.0598 111.992 44.5074C112.332 42.0089 112.968 39.5399 113.885 37.1596C115.57 32.7538 118.216 28.6289 121.824 25.125C130.99 16.21 143.941 13.5931 155.34 17.2005C159.243 18.4277 162.954 20.3792 166.266 23.0552Z" fill="#344676"/>
<path d="M163.457 73.1153C163.457 73.1153 148.525 82.4739 137.776 80.8772C134.612 80.4041 130.443 76.4418 126.303 70.9716C120.538 63.328 114.816 52.7276 112.007 44.5074C112.347 42.0089 112.983 39.5399 113.899 37.1596C115.585 32.7538 118.231 28.6289 121.839 25.125C131.005 16.21 143.956 13.5931 155.355 17.2005C154.69 20.1722 153.921 23.4396 152.916 24.4449C149.131 28.2298 140.63 24.7406 140.63 24.7406C140.63 24.7406 138.796 27.5201 137.791 31.5119C136.8 35.4889 146.115 42.3637 146.115 42.3637C146.115 42.3637 146.115 42.3637 146.129 42.3785C146.129 42.3933 146.144 42.3933 146.144 42.408L148.894 47.2869L150.373 49.889L163.457 73.1153Z" fill="#FAD2B1"/>
<path d="M249.354 223.798V244.082C249.354 245.221 249.709 246.241 250.212 246.492C260.768 251.948 267.687 248.814 269.905 247.453C270.363 247.172 270.688 246.271 270.718 245.221L271.309 223.798H249.354Z" fill="#E74A5F"/>
<path d="M250.212 246.507C253.568 248.237 256.555 249.109 259.142 249.434C261.966 249.05 263.917 248.074 264.923 247.468C265.381 247.187 265.706 246.285 265.736 245.236L266.327 223.813H249.354V244.097C249.354 245.236 249.709 246.241 250.212 246.507Z" fill="#F0807D"/>
<path d="M271.309 223.798C271.309 226.193 266.401 228.145 260.325 228.145C254.263 228.145 249.34 226.208 249.34 223.798C249.34 221.403 254.248 219.452 260.325 219.452C266.401 219.467 271.309 221.403 271.309 223.798Z" fill="#D4D2D1"/>
<path d="M260.325 226.903C264.652 226.903 268.16 225.513 268.16 223.798C268.16 222.084 264.652 220.693 260.325 220.693C255.997 220.693 252.489 222.084 252.489 223.798C252.489 225.513 255.997 226.903 260.325 226.903Z" fill="#909091"/>
<path d="M265.603 223.798C265.603 224.952 263.252 225.883 260.339 225.883C257.427 225.883 255.076 224.952 255.076 223.798C255.076 222.645 257.427 221.714 260.339 221.714C263.252 221.714 265.603 222.66 265.603 223.798Z" fill="#D4D2D1"/>
<path d="M249.354 232.758C249.354 232.758 260.517 229.564 261.3 235.02C262.084 240.475 258.196 244.984 254.973 243.787C251.75 242.589 249.369 242.057 249.369 242.057V232.758H249.354Z" fill="#95BFCD"/>
<path d="M249.354 201.045V221.33C249.354 222.468 249.709 223.488 250.212 223.739C260.768 229.195 267.687 226.061 269.905 224.7C270.363 224.42 270.688 223.518 270.718 222.468L271.309 201.045H249.354Z" fill="#E74A5F"/>
<path d="M250.212 223.739C253.568 225.469 256.555 226.341 259.142 226.667C261.966 226.282 263.917 225.307 264.923 224.7C265.381 224.42 265.706 223.518 265.736 222.468L266.327 201.045H249.354V221.33C249.354 222.468 249.709 223.473 250.212 223.739Z" fill="#F0807D"/>
<path d="M260.325 205.392C266.391 205.392 271.309 203.446 271.309 201.045C271.309 198.645 266.391 196.698 260.325 196.698C254.258 196.698 249.34 198.645 249.34 201.045C249.34 203.446 254.258 205.392 260.325 205.392Z" fill="#D4D2D1"/>
<path d="M260.325 204.15C264.652 204.15 268.16 202.76 268.16 201.045C268.16 199.33 264.652 197.94 260.325 197.94C255.997 197.94 252.489 199.33 252.489 201.045C252.489 202.76 255.997 204.15 260.325 204.15Z" fill="#909091"/>
<path d="M260.325 203.13C263.231 203.13 265.588 202.197 265.588 201.045C265.588 199.894 263.231 198.961 260.325 198.961C257.418 198.961 255.061 199.894 255.061 201.045C255.061 202.197 257.418 203.13 260.325 203.13Z" fill="#D4D2D1"/>
<path d="M249.354 209.99C249.354 209.99 260.517 206.796 261.3 212.252C262.084 217.707 258.196 222.216 254.973 221.019C251.75 219.821 249.369 219.289 249.369 219.289V209.99H249.354Z" fill="#95BFCD"/>
<path d="M264.657 237.031V260.641C264.657 261.972 265.07 263.14 265.647 263.45C277.918 269.808 285.99 266.141 288.563 264.559C289.095 264.234 289.48 263.184 289.509 261.957L290.189 237.031H264.657Z" fill="#E74A5F"/>
<path d="M265.662 263.436C269.565 265.461 273.039 266.466 276.055 266.851C279.337 266.407 281.614 265.269 282.782 264.559C283.314 264.234 283.699 263.184 283.728 261.957L284.409 237.031H264.657V260.641C264.657 261.957 265.07 263.14 265.662 263.436Z" fill="#F0807D"/>
<path d="M290.204 237.03C290.204 239.825 284.482 242.087 277.43 242.087C270.378 242.087 264.656 239.825 264.656 237.03C264.656 234.236 270.378 231.974 277.43 231.974C284.482 231.974 290.204 234.236 290.204 237.03Z" fill="#D4D2D1"/>
<path d="M277.43 240.638C282.468 240.638 286.552 239.023 286.552 237.03C286.552 235.038 282.468 233.423 277.43 233.423C272.392 233.423 268.308 235.038 268.308 237.03C268.308 239.023 272.392 240.638 277.43 240.638Z" fill="#909091"/>
<path d="M277.43 239.455C280.811 239.455 283.551 238.37 283.551 237.03C283.551 235.691 280.811 234.606 277.43 234.606C274.05 234.606 271.309 235.691 271.309 237.03C271.309 238.37 274.05 239.455 277.43 239.455Z" fill="#D4D2D1"/>
<path d="M264.657 247.439C264.657 247.439 277.652 243.728 278.554 250.07C279.456 256.413 274.932 261.676 271.191 260.272C267.436 258.882 264.671 258.261 264.671 258.261V247.439H264.657Z" fill="#95BFCD"/>
<path d="M264.657 210.537V234.148C264.657 235.478 265.07 236.646 265.647 236.957C277.918 243.314 285.99 239.648 288.563 238.066C289.095 237.741 289.48 236.691 289.509 235.464L290.189 210.537H264.657Z" fill="#E74A5F"/>
<path d="M265.662 236.942C269.565 238.968 273.039 239.973 276.055 240.357C279.337 239.914 281.614 238.775 282.782 238.066C283.314 237.741 283.699 236.691 283.728 235.464L284.409 210.537H264.657V234.148C264.657 235.464 265.07 236.646 265.662 236.942Z" fill="#F0807D"/>
<path d="M290.204 210.537C290.204 213.331 284.482 215.593 277.43 215.593C270.378 215.593 264.656 213.331 264.656 210.537C264.656 207.743 270.378 205.481 277.43 205.481C284.482 205.481 290.204 207.743 290.204 210.537Z" fill="#D4D2D1"/>
<path d="M286.567 210.537C286.567 212.533 282.486 214.145 277.445 214.145C272.403 214.145 268.323 212.533 268.323 210.537C268.323 208.541 272.403 206.93 277.445 206.93C282.486 206.93 286.567 208.541 286.567 210.537Z" fill="#909091"/>
<path d="M283.566 210.537C283.566 211.882 280.816 212.962 277.445 212.962C274.059 212.962 271.324 211.882 271.324 210.537C271.324 209.192 274.074 208.112 277.445 208.112C280.816 208.112 283.566 209.192 283.566 210.537Z" fill="#D4D2D1"/>
<path d="M264.657 220.945C264.657 220.945 277.652 217.234 278.554 223.577C279.456 229.919 274.932 235.183 271.191 233.778C267.436 232.388 264.671 231.767 264.671 231.767V220.945H264.657Z" fill="#95BFCD"/>
<path d="M279.559 252.451V279.994C279.559 281.547 280.387 282.922 281.555 283.262C306.186 290.669 322.36 286.411 327.535 284.563C328.614 284.178 329.368 282.966 329.442 281.532L330.817 252.451H279.559Z" fill="#E74A5F"/>
<path d="M281.555 283.262C289.391 285.613 296.369 286.795 302.416 287.239C308.995 286.721 313.578 285.391 315.914 284.563C316.993 284.178 317.747 282.966 317.821 281.532L319.196 252.451H279.559V279.994C279.559 281.547 280.387 282.907 281.555 283.262Z" fill="#F0807D"/>
<path d="M305.195 258.35C319.354 258.35 330.832 255.709 330.832 252.451C330.832 249.193 319.354 246.552 305.195 246.552C291.037 246.552 279.559 249.193 279.559 252.451C279.559 255.709 291.037 258.35 305.195 258.35Z" fill="#D4D2D1"/>
<path d="M305.195 256.665C315.304 256.665 323.499 254.778 323.499 252.451C323.499 250.124 315.304 248.237 305.195 248.237C295.087 248.237 286.892 250.124 286.892 252.451C286.892 254.778 295.087 256.665 305.195 256.665Z" fill="#909091"/>
<path d="M305.195 255.275C311.981 255.275 317.481 254.011 317.481 252.451C317.481 250.891 311.981 249.627 305.195 249.627C298.41 249.627 292.909 250.891 292.909 252.451C292.909 254.011 298.41 255.275 305.195 255.275Z" fill="#D4D2D1"/>
<path d="M279.559 264.604C279.559 264.604 305.624 260.272 307.443 267.664C309.261 275.056 300.183 281.192 292.658 279.58C285.133 277.954 279.574 277.23 279.574 277.23L279.559 264.604Z" fill="#95BFCD"/>
<path d="M279.559 221.536V249.08C279.559 250.632 280.387 252.007 281.555 252.347C306.186 259.754 322.36 255.496 327.535 253.648C328.614 253.264 329.368 252.051 329.442 250.617L330.817 221.536H279.559Z" fill="#E74A5F"/>
<path d="M281.555 252.362C289.391 254.713 296.369 255.896 302.416 256.339C308.995 255.822 313.578 254.491 315.914 253.663C316.993 253.279 317.747 252.066 317.821 250.632L319.196 221.551H279.559V249.095C279.559 250.632 280.387 252.007 281.555 252.362Z" fill="#F0807D"/>
<path d="M330.832 221.536C330.832 224.789 319.359 227.435 305.195 227.435C291.032 227.435 279.559 224.789 279.559 221.536C279.559 218.284 291.032 215.637 305.195 215.637C319.359 215.652 330.832 218.284 330.832 221.536Z" fill="#D4D2D1"/>
<path d="M323.499 221.536C323.499 223.857 315.308 225.75 305.195 225.75C295.083 225.75 286.892 223.872 286.892 221.536C286.892 219.215 295.083 217.323 305.195 217.323C315.308 217.338 323.499 219.215 323.499 221.536Z" fill="#909091"/>
<path d="M317.496 221.536C317.496 223.104 311.996 224.36 305.21 224.36C298.424 224.36 292.924 223.089 292.924 221.536C292.924 219.969 298.424 218.713 305.21 218.713C311.981 218.713 317.496 219.984 317.496 221.536Z" fill="#D4D2D1"/>
<path d="M279.559 233.689C279.559 233.689 305.624 229.357 307.443 236.75C309.261 244.142 300.183 250.277 292.658 248.666C285.133 247.04 279.574 246.315 279.574 246.315L279.559 233.689Z" fill="#95BFCD"/>
<path d="M361.273 269.527C361.273 269.586 361.273 269.645 361.258 269.704L360.992 275.411L360.726 280.822L360.711 281.118L360.607 283.291L360.519 285.065L360.356 288.688L360.194 292.295V292.31L360.179 292.487L360.164 292.502L360.09 294.084L359.987 296.242L359.913 297.75L359.676 302.644C359.661 303.029 359.587 303.398 359.499 303.753C359.38 304.197 359.188 304.581 358.952 304.921C358.582 305.468 358.079 305.882 357.518 306.089C357.222 306.192 356.882 306.311 356.527 306.429H356.512C355.551 306.739 354.368 307.094 352.979 307.434C352.077 307.656 351.072 307.878 349.977 308.085L346.119 304.123L344.699 302.644L336.494 294.202L334.38 292.029L331.127 288.673L328.407 285.864L327.756 285.198C327.756 285.376 327.771 285.553 327.771 285.716C327.771 285.893 327.771 286.071 327.756 286.248C327.742 287.047 327.697 287.845 327.638 288.658C327.579 289.368 327.49 290.077 327.387 290.787C327.106 292.65 326.662 294.498 326.071 296.302C325.627 297.617 325.11 298.918 324.504 300.19C323.188 302.94 321.473 305.557 319.374 307.937C318.886 307.863 318.413 307.774 317.925 307.686C316.535 307.434 315.116 307.139 313.652 306.813C312.366 306.532 311.05 306.222 309.719 305.867C309.335 305.764 308.936 305.66 308.537 305.557C307.428 305.261 306.319 304.951 305.181 304.596C303.85 304.197 302.904 302.644 302.904 300.87V269.527H305.535C305.55 269.527 305.55 269.527 305.55 269.527H361.273Z" fill="#E74A5F"/>
<path d="M348.026 269.527L347.878 272.646L347.849 273.267L347.76 275.189L347.464 281.591L347.42 282.434L347.346 284.001L347.242 286.263L347.124 288.688L347.035 290.595L347.006 291.053L346.902 293.33L346.799 295.71L346.474 302.644V302.688C346.444 303.206 346.341 303.694 346.163 304.152L344.744 302.674L336.538 294.232L334.424 292.058L331.172 288.702L328.451 285.893L327.801 285.228C327.801 285.405 327.816 285.583 327.816 285.746C327.816 285.923 327.816 286.1 327.801 286.278C327.786 287.076 327.742 287.874 327.683 288.688C327.623 289.397 327.535 290.107 327.431 290.817C327.15 292.679 326.707 294.527 326.115 296.331C325.672 297.647 325.154 298.948 324.548 300.219C323.232 302.969 321.517 305.586 319.418 307.967C319.507 307.996 319.581 308.011 319.669 308.011C319.581 307.996 319.507 307.981 319.418 307.967C318.945 307.878 318.457 307.804 317.969 307.7C316.579 307.449 315.16 307.153 313.696 306.828C312.41 306.547 311.094 306.237 309.764 305.882C309.379 305.778 308.98 305.675 308.581 305.571C307.472 305.276 306.363 304.965 305.225 304.61C303.894 304.211 302.948 302.659 302.948 300.885V269.542H305.58C305.595 269.542 305.595 269.542 305.595 269.542H348.026V269.527Z" fill="#F0807D"/>
<path d="M361.274 269.527C361.274 273.238 348.204 276.239 332.104 276.239C315.989 276.239 302.934 273.238 302.934 269.527C302.934 265.816 316.004 262.815 332.104 262.815C348.219 262.815 361.274 265.816 361.274 269.527Z" fill="#D4D2D1"/>
<path d="M332.103 274.317C343.616 274.317 352.949 272.173 352.949 269.527C352.949 266.881 343.616 264.737 332.103 264.737C320.59 264.737 311.257 266.881 311.257 269.527C311.257 272.173 320.59 274.317 332.103 274.317Z" fill="#909091"/>
<path d="M346.089 269.527C346.089 271.301 339.821 272.75 332.103 272.75C324.371 272.75 318.117 271.316 318.117 269.527C318.117 267.753 324.386 266.304 332.103 266.304C339.821 266.304 346.089 267.753 346.089 269.527Z" fill="#D4D2D1"/>
<path d="M334.912 288.673C334.956 289.841 334.779 290.95 334.395 292.029L331.142 288.673L328.422 285.864L327.771 285.199C327.771 285.376 327.786 285.553 327.786 285.716C327.786 285.893 327.786 286.071 327.771 286.248C327.756 287.047 327.712 287.845 327.653 288.658C327.594 289.368 327.505 290.077 327.402 290.787C327.121 292.65 326.677 294.498 326.086 296.302C325.642 297.618 325.125 298.919 324.519 300.19C322.331 300.752 320.009 300.87 317.807 300.382C309.232 298.534 302.904 297.721 302.904 297.721V283.351C302.904 283.351 310.163 282.138 317.747 281.946C321.813 281.843 325.968 282.02 329.161 282.833C330.285 283.129 331.29 283.484 332.118 283.942C332.266 284.016 332.399 284.09 332.517 284.178C333.611 284.873 334.365 285.746 334.631 286.854C334.69 287.076 334.735 287.298 334.764 287.52C334.868 287.904 334.897 288.289 334.912 288.673Z" fill="#95BFCD"/>
<path d="M302.919 234.34V265.683C302.919 267.457 303.865 269.01 305.195 269.409C333.227 277.851 351.648 272.987 357.532 270.887C358.759 270.459 359.617 269.069 359.691 267.428L361.258 234.325H302.919V234.34Z" fill="#E74A5F"/>
<path d="M305.195 269.424C314.11 272.114 322.064 273.445 328.939 273.948C336.435 273.356 341.639 271.848 344.3 270.902C345.527 270.473 346.385 269.084 346.459 267.443L348.026 234.34H302.919V265.683C302.919 267.457 303.865 269.025 305.195 269.424Z" fill="#F0807D"/>
<path d="M332.102 241.052C348.212 241.052 361.272 238.047 361.272 234.34C361.272 230.633 348.212 227.628 332.102 227.628C315.992 227.628 302.933 230.633 302.933 234.34C302.933 238.047 315.992 241.052 332.102 241.052Z" fill="#D4D2D1"/>
<path d="M332.103 239.13C343.616 239.13 352.949 236.986 352.949 234.34C352.949 231.695 343.616 229.55 332.103 229.55C320.59 229.55 311.257 231.695 311.257 234.34C311.257 236.986 320.59 239.13 332.103 239.13Z" fill="#909091"/>
<path d="M346.089 234.34C346.089 236.114 339.821 237.563 332.103 237.563C324.371 237.563 318.117 236.129 318.117 234.34C318.117 232.566 324.386 231.117 332.103 231.117C339.821 231.132 346.089 232.566 346.089 234.34Z" fill="#D4D2D1"/>
<path d="M302.919 248.178C302.919 248.178 332.591 243.255 334.646 251.667C336.716 260.095 326.396 267.073 317.821 265.225C309.246 263.377 302.919 262.549 302.919 262.549V248.178Z" fill="#95BFCD"/>
<path d="M352.462 333.056H352.417V333.041C352.432 333.056 352.447 333.056 352.462 333.056Z" fill="#EF7E64"/>
<path d="M327.668 288.673C327.609 289.382 327.52 290.092 327.416 290.802C327.135 292.665 326.692 294.513 326.101 296.316V288.673H327.668Z" fill="#EF7E64"/>
<path d="M391.876 288.673C391.876 288.747 391.862 288.806 391.862 288.865L391.817 289.752L391.551 295.281V295.296L391.344 299.672L391.211 302.348L391.108 304.551L390.886 309.016L390.738 312.254L390.723 312.579L390.679 313.466L390.575 315.669L390.442 318.33L390.088 325.989C390.058 326.624 389.925 327.216 389.703 327.748C389.274 328.768 388.55 329.552 387.648 329.892C385.963 330.498 383.361 331.296 379.901 332.006C377.669 331.429 375.495 330.601 373.396 329.552C371.696 328.694 370.084 327.704 368.517 326.536H368.502C367.068 325.471 365.693 324.288 364.422 322.958L359.38 317.783L352.372 310.568L349.963 308.099L346.104 304.137L344.685 302.659L336.479 294.217L334.365 292.044L331.112 288.688H338.874C338.889 288.688 338.889 288.688 338.889 288.688H391.876V288.673Z" fill="#EF7E64"/>
<path d="M327.668 288.673C327.609 289.382 327.52 290.092 327.416 290.802C327.135 292.665 326.692 294.513 326.101 296.316V288.673H327.668Z" fill="#F49F81"/>
<path d="M376.944 288.673L376.885 289.752L376.767 292.206L376.752 292.546L376.634 295.045L376.368 300.471L376.353 300.663L376.22 303.546L376.072 306.784L375.968 308.987L375.88 310.879L375.865 311.116L375.717 314.353L375.569 317.429L375.17 325.959C375.155 326.063 375.155 326.151 375.14 326.255C375.007 327.645 374.357 328.857 373.396 329.507C371.696 328.65 370.084 327.659 368.517 326.491H368.502C367.068 325.427 365.693 324.244 364.422 322.914L359.38 317.739L352.372 310.524L349.963 308.055L346.104 304.093L344.685 302.614L336.479 294.173L334.365 291.999L331.112 288.643H338.874C338.889 288.643 338.889 288.643 338.889 288.643H376.944V288.673Z" fill="#F49F81"/>
<path d="M327.786 286.278C327.771 287.076 327.727 287.874 327.668 288.688C327.609 289.397 327.52 290.107 327.416 290.817C326.559 290.136 326.101 289.427 326.101 288.688C326.086 287.83 326.692 287.032 327.786 286.278Z" fill="#D4D2D1"/>
<path d="M391.876 288.673C391.876 288.747 391.862 288.806 391.862 288.865C391.817 289.205 391.684 289.53 391.463 289.856C389.955 292.044 384.41 293.906 376.649 295.045C371.814 295.755 366.122 296.183 360.001 296.228C359.661 296.242 359.321 296.242 358.981 296.242C356.734 296.242 354.531 296.183 352.402 296.095C350.465 296.006 348.588 295.873 346.784 295.71C342.955 295.37 339.48 294.853 336.509 294.217L334.395 292.044L331.142 288.688L328.422 285.879C329.397 285.317 330.669 284.784 332.177 284.297C332.295 284.252 332.413 284.223 332.532 284.178C335.696 283.203 339.85 282.404 344.67 281.872C345.586 281.768 346.503 281.68 347.464 281.591C349.061 281.458 350.717 281.34 352.417 281.266C354.546 281.162 356.734 281.118 358.996 281.118C359.395 281.118 359.779 281.118 360.164 281.133C360.164 281.133 360.179 281.147 360.179 281.133H360.74C368.65 281.236 375.835 281.961 381.306 283.129C387.796 284.489 391.876 286.485 391.876 288.673Z" fill="#D4D2D1"/>
<path d="M358.981 294.069C371.956 294.069 382.474 291.653 382.474 288.673C382.474 285.692 371.956 283.276 358.981 283.276C346.007 283.276 335.489 285.692 335.489 288.673C335.489 291.653 346.007 294.069 358.981 294.069Z" fill="#909091"/>
<path d="M358.981 292.295C367.693 292.295 374.756 290.673 374.756 288.673C374.756 286.672 367.693 285.051 358.981 285.051C350.269 285.051 343.206 286.672 343.206 288.673C343.206 290.673 350.269 292.295 358.981 292.295Z" fill="#D4D2D1"/>
<path d="M361.258 314.827C360.8 315.861 360.164 316.852 359.41 317.754L352.402 310.539L349.992 308.07L346.133 304.108L344.714 302.629C345.291 302.629 345.882 302.629 346.459 302.644C348.662 302.674 350.805 302.807 352.772 303.102C354.664 303.369 356.379 303.783 357.813 304.344C358.227 304.507 358.626 304.684 358.981 304.891C360.356 305.631 361.347 306.606 361.761 307.848V307.863C361.805 307.967 361.835 308.085 361.864 308.188C361.938 308.469 361.982 308.735 362.027 309.001C362.367 311.071 362.056 313.038 361.258 314.827Z" fill="#D4D2D1"/>
<path d="M332.103 247.927V283.261C332.103 285.257 333.168 287.017 334.661 287.46C366.27 296.967 387.027 291.496 393.666 289.131C395.041 288.643 396.016 287.076 396.105 285.242L397.879 247.927H332.103Z" fill="#EF7E64"/>
<path d="M334.661 287.475C344.714 290.506 353.674 291.999 361.421 292.576C369.863 291.91 375.747 290.21 378.733 289.146C380.108 288.658 381.084 287.091 381.173 285.257L382.947 247.941H332.088V283.276C332.103 285.272 333.168 287.017 334.661 287.475Z" fill="#F49F81"/>
<path d="M364.998 255.496C383.166 255.496 397.894 252.107 397.894 247.927C397.894 243.746 383.166 240.357 364.998 240.357C346.831 240.357 332.103 243.746 332.103 247.927C332.103 252.107 346.831 255.496 364.998 255.496Z" fill="#D4D2D1"/>
<path d="M364.999 253.323C377.973 253.323 388.491 250.907 388.491 247.926C388.491 244.946 377.973 242.53 364.999 242.53C352.024 242.53 341.506 244.946 341.506 247.926C341.506 250.907 352.024 253.323 364.999 253.323Z" fill="#909091"/>
<path d="M364.999 251.549C373.711 251.549 380.774 249.927 380.774 247.927C380.774 245.926 373.711 244.304 364.999 244.304C356.286 244.304 349.224 245.926 349.224 247.927C349.224 249.927 356.286 251.549 364.999 251.549Z" fill="#D4D2D1"/>
<path d="M332.103 263.524C332.103 263.524 365.546 257.965 367.882 267.457C370.203 276.948 358.567 284.828 348.913 282.744C339.244 280.659 332.118 279.728 332.118 279.728V263.524H332.103Z" fill="#D4D2D1"/>
<path d="M352.462 333.056H352.417V333.041C352.432 333.056 352.447 333.056 352.462 333.056Z" fill="#EF7E64"/>
<path d="M420.706 309.016C420.558 309.533 420.396 310.021 420.218 310.524V310.539C420.1 310.894 419.967 311.248 419.834 311.603C419.183 313.289 418.415 314.915 417.483 316.482V316.497C416.67 317.901 415.739 319.247 414.704 320.533C413.831 321.612 412.9 322.647 411.88 323.638C407.385 328.014 401.974 330.867 396.282 332.213C390.901 333.499 385.268 333.425 379.916 332.006C377.683 331.429 375.51 330.601 373.411 329.552C371.711 328.694 370.099 327.704 368.532 326.536H368.517C367.083 325.471 365.708 324.288 364.437 322.958L359.395 317.783L352.387 310.568V309.031H366.388C366.403 309.031 366.403 309.031 366.403 309.031H420.706V309.016Z" fill="#EF7E64"/>
<path d="M433.702 309.016C433.702 309.105 433.687 309.193 433.687 309.297L433.642 310.317L433.421 310.095L432.386 309.016H433.702Z" fill="#EF7E64"/>
<path d="M352.462 333.056H352.417V333.041C352.432 333.056 352.447 333.056 352.462 333.056Z" fill="#F49F81"/>
<path d="M415.251 309.016L415.133 311.485L415.044 313.377L414.881 316.896L414.719 320.533C413.846 321.612 412.915 322.647 411.895 323.638C407.4 328.014 401.989 330.867 396.297 332.213C390.916 333.499 385.283 333.425 379.931 332.006C377.698 331.429 375.525 330.601 373.426 329.552C371.725 328.694 370.114 327.704 368.547 326.536H368.532C367.098 325.471 365.723 324.288 364.451 322.958L359.41 317.783L352.402 310.568V309.031H366.403C366.418 309.031 366.418 309.031 366.418 309.031H415.251V309.016Z" fill="#F49F81"/>
<path d="M421.918 302.437C421.785 304.078 421.519 305.719 421.135 307.331C421.002 307.892 420.854 308.454 420.691 309.016C420.544 309.533 420.381 310.021 420.203 310.524V310.539C420.085 310.894 419.952 311.248 419.819 311.603C419.169 313.289 418.4 314.915 417.468 316.482V316.497C416.626 316.63 415.753 316.778 414.866 316.896C408.568 317.828 401.087 318.36 393.044 318.36C392.172 318.36 391.315 318.345 390.457 318.33C385.15 318.256 380.138 317.946 375.569 317.443C369.966 316.837 365.072 315.92 361.243 314.826C355.699 313.23 352.387 311.204 352.387 309.016C352.387 308.469 352.579 307.937 352.979 307.434C353.378 306.887 353.999 306.34 354.827 305.823C355.625 305.32 356.616 304.832 357.784 304.374C358.316 304.152 358.892 303.945 359.499 303.753C363.461 302.422 368.872 301.343 375.214 300.633C375.599 300.589 375.968 300.545 376.368 300.515C378.378 300.308 380.463 300.131 382.636 299.997C382.636 299.997 382.636 299.997 382.651 299.997C385.445 299.835 388.358 299.731 391.344 299.702C391.906 299.687 392.483 299.687 393.044 299.687C400.363 299.687 407.223 300.131 413.166 300.899C416.389 301.313 419.331 301.831 421.918 302.437Z" fill="#D4D2D1"/>
<path d="M433.702 309.016C433.702 309.105 433.687 309.193 433.687 309.297C433.642 309.563 433.569 309.829 433.421 310.095L432.386 309.016L430.286 306.857L427.581 304.063C428.926 304.566 430.079 305.083 431.011 305.645C432.741 306.695 433.702 307.833 433.702 309.016Z" fill="#D4D2D1"/>
<path d="M421.15 307.331C421.017 307.893 420.869 308.454 420.706 309.016C420.558 309.534 420.396 310.022 420.218 310.524V310.539C420.1 310.894 419.967 311.249 419.834 311.603C418.651 312.254 417.025 312.845 415.044 313.378C409.721 314.797 401.841 315.699 393.059 315.699C392.231 315.699 391.403 315.684 390.605 315.669C385.061 315.566 379.96 315.107 375.732 314.368C368.621 313.156 364.023 311.204 364.023 309.016C364.023 308.839 364.052 308.647 364.126 308.469V308.454C364.836 306.444 369.463 304.67 376.249 303.561C380.522 302.851 385.667 302.422 391.226 302.348C391.832 302.334 392.438 302.334 393.059 302.334C400.777 302.334 407.785 303.028 412.989 304.152C416.877 305.01 419.745 306.089 421.15 307.331Z" fill="#909091"/>
<path d="M412.545 309.016C412.545 311.485 403.822 313.496 393.059 313.496C382.296 313.496 373.573 311.485 373.573 309.016C373.573 306.547 382.296 304.536 393.059 304.536C403.822 304.536 412.545 306.532 412.545 309.016Z" fill="#D4D2D1"/>
<path d="M352.462 333.056H352.417V333.041C352.432 333.056 352.447 333.056 352.462 333.056Z" fill="#D4D2D1"/>
<path d="M396.282 332.198C390.901 333.484 385.268 333.41 379.916 331.991C377.683 331.414 375.51 330.587 373.411 329.537C371.71 328.679 370.099 327.689 368.532 326.521C370.69 326.388 372.908 326.299 375.14 326.284C380.448 326.24 385.711 326.595 389.703 327.748C392.911 328.665 395.306 330.084 396.282 332.198Z" fill="#D4D2D1"/>
<path d="M433.702 257.271L433.495 261.632L431.514 303.368C431.469 304.182 431.292 304.965 430.996 305.645C430.804 306.089 430.567 306.503 430.287 306.843L427.581 304.049L422.037 298.342C422.052 298.741 422.066 299.155 422.066 299.554C422.066 300.5 422.022 301.461 421.948 302.407C421.815 304.049 421.549 305.69 421.165 307.301C421.032 307.863 420.884 308.425 420.721 308.987C420.573 309.504 420.411 309.992 420.233 310.495V310.509C418.696 310.849 416.995 311.175 415.147 311.47C412.087 311.973 408.598 312.372 404.724 312.594H404.71C400.511 312.845 395.854 312.86 390.753 312.564C390.058 312.52 389.363 312.476 388.654 312.417C388.062 312.372 387.456 312.328 386.835 312.269C385.002 312.121 383.124 311.914 381.187 311.663C380.537 311.574 379.886 311.485 379.236 311.396C378.837 311.337 378.423 311.278 378.024 311.219C377.935 311.204 377.846 311.189 377.743 311.175C377.136 311.086 376.516 310.982 375.909 310.879C375.658 310.835 375.392 310.79 375.126 310.746H375.111C375.111 310.746 375.111 310.746 375.096 310.731L374.934 310.702C372.893 310.347 370.809 309.948 368.65 309.474C368.251 309.386 367.852 309.312 367.453 309.208C367.113 309.134 366.773 309.06 366.433 308.972C366.418 308.972 366.418 308.972 366.418 308.972C365.826 308.839 365.235 308.691 364.644 308.558C364.466 308.513 364.304 308.469 364.126 308.44C363.771 308.351 363.417 308.262 363.062 308.173C362.633 308.07 362.204 307.952 361.761 307.848C361.465 307.774 361.184 307.7 360.888 307.612C360.829 307.597 360.77 307.582 360.696 307.552C360.327 307.449 359.942 307.36 359.573 307.242C359.203 307.138 358.819 307.035 358.434 306.932C358.005 306.813 357.562 306.68 357.133 306.562C356.941 306.503 356.749 306.444 356.542 306.384H356.527C356.202 306.296 355.876 306.207 355.566 306.104C355.433 306.059 355.315 306.015 355.196 305.971C355.078 305.911 354.96 305.852 354.842 305.793C354.782 305.764 354.723 305.734 354.679 305.69C354.62 305.66 354.561 305.616 354.516 305.571C354.413 305.497 354.309 305.423 354.206 305.32C354.176 305.305 354.147 305.276 354.132 305.246C354.028 305.157 353.94 305.069 353.851 304.965C353.792 304.906 353.733 304.832 353.688 304.758C353.614 304.669 353.54 304.581 353.481 304.477C353.186 304.078 352.964 303.59 352.786 303.088C352.772 303.073 352.772 303.058 352.772 303.043C352.727 302.925 352.698 302.807 352.668 302.688C352.639 302.629 352.624 302.57 352.624 302.496C352.58 302.363 352.565 302.23 352.535 302.097C352.491 301.905 352.476 301.713 352.461 301.52C352.446 301.432 352.446 301.358 352.446 301.269C352.432 301.151 352.432 301.033 352.432 300.914V257.256H433.702V257.271Z" fill="#EF7E64"/>
<path d="M355.581 306.133C368.014 309.873 379.073 311.736 388.654 312.446C399.091 311.618 406.351 309.519 410.047 308.203C411.747 307.597 412.959 305.675 413.063 303.383L415.251 257.27H352.417V300.944C352.417 303.413 353.718 305.571 355.581 306.133Z" fill="#F49F81"/>
<path d="M393.059 266.614C415.506 266.614 433.702 262.431 433.702 257.27C433.702 252.11 415.506 247.927 393.059 247.927C370.613 247.927 352.417 252.11 352.417 257.27C352.417 262.431 370.613 266.614 393.059 266.614Z" fill="#D4D2D1"/>
<path d="M422.081 257.27C422.081 260.952 409.086 263.953 393.044 263.953C377.018 263.953 364.008 260.967 364.008 257.27C364.008 253.589 377.003 250.588 393.044 250.588C409.086 250.603 422.081 253.589 422.081 257.27Z" fill="#909091"/>
<path d="M412.545 257.27C412.545 259.739 403.822 261.75 393.059 261.75C382.296 261.75 373.573 259.739 373.573 257.27C373.573 254.801 382.296 252.791 393.059 252.791C403.822 252.791 412.545 254.801 412.545 257.27Z" fill="#D4D2D1"/>
<path d="M352.417 276.535C352.417 276.535 393.739 269.675 396.622 281.399C399.491 293.123 385.12 302.851 373.174 300.278C361.228 297.706 352.417 296.553 352.417 296.553V276.535Z" fill="#D4D2D1"/>
<path d="M227.607 159.279L231.82 159.93C231.82 159.93 231.791 176.237 231.347 176.03C230.918 175.823 227.4 176.06 227.4 176.06L227.607 159.279Z" fill="#41B7AE"/>
<path d="M223.26 160.964C223.955 160.639 226.616 159.649 227.607 159.294C227.784 159.22 227.976 159.368 227.976 159.56L227.71 175.808C227.71 175.971 227.562 176.104 227.4 176.074L222.861 175.379C222.728 175.364 222.624 175.231 222.624 175.098L223.097 161.201C223.112 161.098 223.171 161.009 223.26 160.964Z" fill="#8CCECF"/>
<path d="M230.504 162.472C229.662 162.428 230.031 162.517 229.188 162.472C228.937 162.457 228.73 162.65 228.73 162.901L228.287 173.797C228.272 174.034 228.464 174.241 228.701 174.255L230.356 174.433C230.608 174.448 230.815 174.255 230.815 174.019L231.332 163.123C231.362 162.886 230.741 162.487 230.504 162.472Z" fill="#FEF5AD"/>
<path d="M227.4 162.783C227.222 162.029 224.931 163.877 224.029 164.646C223.792 164.838 223.659 165.134 223.63 165.429L223.393 169.214C223.363 169.598 223.541 169.968 223.836 170.19C224.591 170.752 226.01 171.801 226.527 172.141C227.266 172.614 227.621 163.729 227.4 162.783Z" fill="#FEEDDB"/>
<path d="M267.82 146.89L275.996 148.146C275.996 148.146 275.922 179.815 275.094 179.416C274.252 179.016 267.421 179.46 267.421 179.46L267.82 146.89Z" fill="#41B7AE"/>
<path d="M259.378 150.142C260.709 149.522 265.884 147.6 267.805 146.89C268.16 146.757 268.53 147.023 268.53 147.407L268.027 178.943C268.027 179.268 267.732 179.504 267.406 179.46L258.595 178.129C258.329 178.085 258.136 177.849 258.136 177.582L259.068 150.616C259.083 150.409 259.201 150.231 259.378 150.142Z" fill="#8CCECF"/>
<path d="M273.438 153.099C271.812 153.011 272.536 153.188 270.895 153.099C270.422 153.07 270.023 153.439 269.994 153.927L269.136 175.069C269.121 175.542 269.476 175.941 269.949 175.956L273.172 176.311C273.645 176.34 274.059 175.971 274.074 175.498L275.094 154.356C275.109 153.868 273.911 153.114 273.438 153.099Z" fill="#FEF5AD"/>
<path d="M267.421 153.676C267.081 152.197 262.646 155.805 260.886 157.298C260.428 157.682 260.162 158.229 260.118 158.821L259.659 166.169C259.615 166.908 259.94 167.618 260.532 168.061C261.995 169.155 264.745 171.195 265.75 171.846C267.14 172.763 267.835 155.509 267.421 153.676Z" fill="#FEF5AD"/>
<path d="M235.221 156.366L240.528 157.18C240.528 157.18 240.484 177.76 239.937 177.493C239.39 177.242 234.954 177.523 234.954 177.523L235.221 156.366Z" fill="#41B7AE"/>
<path d="M229.75 158.481C230.623 158.082 233.979 156.825 235.235 156.367C235.457 156.278 235.708 156.455 235.708 156.692L235.383 177.183C235.383 177.39 235.191 177.553 234.984 177.523L229.262 176.651C229.085 176.621 228.967 176.473 228.967 176.296L229.573 158.776C229.558 158.658 229.632 158.54 229.75 158.481Z" fill="#8CCECF"/>
<path d="M238.872 160.403C237.823 160.343 238.281 160.462 237.217 160.403C236.906 160.388 236.64 160.624 236.64 160.935L236.093 174.67C236.078 174.98 236.315 175.231 236.625 175.246L238.725 175.468C239.035 175.483 239.301 175.246 239.316 174.936L239.966 161.201C239.966 160.905 239.183 160.417 238.872 160.403Z" fill="#FEF5AD"/>
<path d="M234.969 160.787C234.747 159.826 231.864 162.177 230.726 163.138C230.43 163.389 230.253 163.744 230.238 164.128L229.942 168.904C229.913 169.392 230.12 169.85 230.504 170.131C231.45 170.841 233.239 172.171 233.89 172.585C234.792 173.191 235.235 161.97 234.969 160.787Z" fill="#FEEDDB"/>
<path d="M257.442 146.283L265.617 147.54C265.617 147.54 265.543 179.208 264.716 178.809C263.873 178.41 257.042 178.854 257.042 178.854L257.442 146.283Z" fill="#41B7AE"/>
<path d="M249 149.536C250.33 148.915 255.505 146.993 257.427 146.283C257.782 146.15 258.151 146.417 258.151 146.801L257.649 178.336C257.649 178.661 257.353 178.898 257.028 178.854L248.216 177.523C247.95 177.479 247.758 177.242 247.758 176.976L248.689 150.009C248.704 149.802 248.822 149.625 249 149.536Z" fill="#8CCECF"/>
<path d="M263.045 152.493C261.418 152.404 262.143 152.582 260.502 152.493C260.029 152.463 259.63 152.833 259.6 153.321L258.742 174.463C258.728 174.936 259.083 175.335 259.556 175.35L262.779 175.705C263.252 175.734 263.666 175.365 263.68 174.891L264.686 153.75C264.73 153.277 263.518 152.523 263.045 152.493Z" fill="#FEF5AD"/>
<path d="M257.028 153.069C256.687 151.591 252.252 155.198 250.493 156.692C250.034 157.076 249.768 157.623 249.724 158.214L249.266 165.562C249.221 166.302 249.547 167.011 250.138 167.455C251.602 168.549 254.352 170.589 255.357 171.24C256.761 172.171 257.456 154.918 257.028 153.069Z" fill="#FEF5AD"/>
<path d="M247.994 146.283L256.17 147.54C256.17 147.54 256.096 179.208 255.268 178.809C254.426 178.41 247.595 178.854 247.595 178.854L247.994 146.283Z" fill="#41B7AE"/>
<path d="M239.567 149.536C240.898 148.915 246.072 146.993 247.994 146.283C248.349 146.15 248.719 146.417 248.719 146.801L248.216 178.336C248.216 178.661 247.92 178.898 247.595 178.854L238.784 177.523C238.517 177.479 238.325 177.242 238.325 176.976L239.257 150.009C239.271 149.802 239.375 149.625 239.567 149.536Z" fill="#8CCECF"/>
<path d="M253.612 152.493C251.986 152.404 252.71 152.582 251.069 152.493C250.596 152.463 250.197 152.833 250.168 153.321L249.31 174.463C249.295 174.936 249.65 175.335 250.123 175.35L253.346 175.705C253.819 175.734 254.233 175.365 254.248 174.891L255.253 153.75C255.298 153.277 254.085 152.523 253.612 152.493Z" fill="#FEF5AD"/>
<path d="M247.595 153.069C247.255 151.591 242.82 155.198 241.06 156.692C240.602 157.076 240.336 157.623 240.292 158.214L239.833 165.562C239.789 166.302 240.114 167.011 240.706 167.455C242.169 168.549 244.919 170.589 245.924 171.24C247.329 172.171 248.024 154.918 247.595 153.069Z" fill="#FEEDDB"/>
<path d="M260.044 156.455L271.103 157.401C271.103 157.401 271.265 182.018 270.644 181.722C270.023 181.426 259.748 180.805 259.748 180.805L260.044 156.455Z" fill="#E74A5F"/>
<path d="M253.731 158.895C254.736 158.436 258.595 156.988 260.029 156.455C260.295 156.352 260.576 156.559 260.561 156.84L260.192 180.421C260.192 180.657 259.97 180.85 259.733 180.805L253.154 179.8C252.947 179.77 252.814 179.593 252.814 179.386L253.509 159.22C253.509 159.087 253.598 158.954 253.731 158.895Z" fill="#F0807D"/>
<path d="M268.826 161.364C267.613 161.305 264.982 161.157 263.755 161.098C263.4 161.083 263.104 161.364 263.089 161.719L262.454 177.523C262.439 177.878 262.705 178.174 263.06 178.188L267.998 178.455C268.353 178.469 268.648 178.203 268.678 177.848L269.432 162.044C269.447 161.674 269.166 161.379 268.826 161.364Z" fill="#FEF5AD"/>
<path d="M253.169 168.815C253.169 168.815 253.76 162.133 255.963 163.286C258.151 164.424 259.216 162.96 259.733 163.848C260.251 164.735 259.038 166.864 259.364 169.776C259.689 172.689 260.473 177.568 258.092 176.976C255.697 176.385 256.983 171.535 255.342 172.334C253.701 173.117 253.302 170.53 253.169 168.815Z" fill="#FEF5AD"/>
<path d="M274.296 149.788L289.893 151.118C289.893 151.118 290.13 185.847 289.243 185.433C288.356 185.019 273.867 184.132 273.867 184.132L274.296 149.788Z" fill="#E74A5F"/>
<path d="M265.41 153.218C266.815 152.567 272.27 150.542 274.311 149.788C274.68 149.655 275.079 149.935 275.065 150.32L274.532 183.585C274.532 183.925 274.222 184.191 273.882 184.132L264.597 182.727C264.316 182.683 264.109 182.432 264.124 182.151L265.1 153.706C265.085 153.499 265.218 153.306 265.41 153.218Z" fill="#F0807D"/>
<path d="M286.685 156.707C284.97 156.618 281.259 156.426 279.53 156.337C279.027 156.308 278.598 156.707 278.583 157.21L277.681 179.505C277.667 180.007 278.036 180.421 278.539 180.451L285.517 180.82C286.02 180.85 286.449 180.466 286.463 179.963L287.528 157.668C287.572 157.15 287.188 156.722 286.685 156.707Z" fill="#FEF5AD"/>
<path d="M264.612 167.234C264.612 167.234 265.455 157.816 268.545 159.427C271.635 161.039 273.128 158.969 273.867 160.211C274.592 161.453 272.891 164.454 273.35 168.564C273.808 172.674 274.917 179.564 271.546 178.721C268.175 177.893 269.979 171.048 267.672 172.157C265.366 173.28 264.789 169.629 264.612 167.234Z" fill="#FEF5AD"/>
<path d="M310.104 135.787C310.104 135.21 309.631 134.737 309.054 134.766L289.701 135.373C289.154 135.387 288.711 135.846 288.711 136.393V161.305C288.711 161.866 289.154 162.31 289.716 162.325C293.974 162.399 310.34 162.65 310.119 162.31C309.897 161.955 310.059 140.03 310.104 135.787Z" fill="#D48D22"/>
<path d="M288.711 156.411H310.015C310 151.665 310.045 145.071 310.074 140.473H288.725V156.411H288.711Z" fill="#FEF5AD"/>
<path d="M310.059 140.488H288.711V142.632H299.829C301.159 142.632 302.238 143.711 302.238 145.042V150.394C302.238 151.724 301.159 152.804 299.829 152.804H288.711V156.426H310.015C310 151.68 310.03 145.086 310.059 140.488Z" fill="#739540"/>
<path d="M310.104 163.508C310.104 162.931 309.631 162.458 309.054 162.487L289.701 163.094C289.154 163.108 288.711 163.567 288.711 164.114V189.026C288.711 189.587 289.154 190.031 289.716 190.046C293.974 190.12 310.34 190.371 310.119 190.031C309.897 189.676 310.059 167.751 310.104 163.508Z" fill="#D48D22"/>
<path d="M288.711 184.132H310.015C310 179.386 310.045 172.792 310.074 168.194H288.725V184.132H288.711Z" fill="#FEF5AD"/>
<path d="M310.059 168.209H288.711V170.353H299.829C301.159 170.353 302.238 171.432 302.238 172.763V178.115C302.238 179.445 301.159 180.524 299.829 180.524H288.711V184.147H310.015C310 179.401 310.03 172.807 310.059 168.209Z" fill="#739540"/>
<path d="M330.876 131.529C330.876 130.878 330.344 130.361 329.708 130.39L308.137 131.07C307.517 131.085 307.029 131.588 307.029 132.209V159.989C307.029 160.61 307.517 161.112 308.137 161.127C312.883 161.216 331.127 161.497 330.891 161.112C330.639 160.698 330.817 136.245 330.876 131.529Z" fill="#D48D22"/>
<path d="M307.014 154.519H330.758C330.743 149.241 330.787 141.878 330.817 136.748H307.014V154.519Z" fill="#FEF5AD"/>
<path d="M330.832 136.763H307.029V139.158H319.418C320.896 139.158 322.109 140.355 322.109 141.848V147.821C322.109 149.3 320.911 150.512 319.418 150.512H307.029V154.548H330.772C330.758 149.241 330.787 141.893 330.832 136.763Z" fill="#739540"/>
<path d="M330.876 162.428C330.876 161.778 330.344 161.26 329.708 161.29L308.137 161.97C307.517 161.985 307.029 162.487 307.029 163.108V190.888C307.029 191.509 307.517 192.012 308.137 192.027C312.883 192.115 331.127 192.396 330.891 192.012C330.639 191.613 330.817 167.159 330.876 162.428Z" fill="#D48D22"/>
<path d="M307.014 185.433H330.758C330.743 180.155 330.787 172.792 330.817 167.662H307.014V185.433Z" fill="#FEF5AD"/>
<path d="M330.832 167.662H307.029V170.057H319.418C320.896 170.057 322.109 171.254 322.109 172.748V178.721C322.109 180.199 320.911 181.411 319.418 181.411H307.029V185.447H330.772C330.758 180.14 330.787 172.792 330.832 167.662Z" fill="#739540"/>
<path d="M355.95 131.529C355.95 130.878 355.418 130.361 354.782 130.39L333.212 131.07C332.591 131.085 332.103 131.588 332.103 132.209V159.989C332.103 160.61 332.591 161.112 333.212 161.127C337.958 161.216 356.202 161.497 355.965 161.112C355.729 160.698 355.906 136.245 355.95 131.529Z" fill="#D48D22"/>
<path d="M332.103 154.519H355.847C355.832 149.241 355.876 141.878 355.906 136.748H332.103V154.519Z" fill="#FEF5AD"/>
<path d="M355.906 136.763H332.103V139.158H344.492C345.971 139.158 347.183 140.355 347.183 141.848V147.821C347.183 149.3 345.986 150.512 344.492 150.512H332.103V154.548H355.847C355.832 149.241 355.876 141.893 355.906 136.763Z" fill="#8DC043"/>
<path d="M355.95 162.428C355.95 161.778 355.418 161.26 354.782 161.29L333.212 161.97C332.591 161.985 332.103 162.487 332.103 163.108V190.888C332.103 191.509 332.591 192.012 333.212 192.027C337.958 192.115 356.202 192.396 355.965 192.012C355.729 191.613 355.906 167.159 355.95 162.428Z" fill="#D48D22"/>
<path d="M332.103 185.433H355.847C355.832 180.155 355.876 172.792 355.906 167.662H332.103V185.433Z" fill="#FEF5AD"/>
<path d="M355.906 167.662H332.103V170.057H344.492C345.971 170.057 347.183 171.254 347.183 172.748V178.721C347.183 180.199 345.986 181.411 344.492 181.411H332.103V185.447H355.847C355.832 180.14 355.876 172.792 355.906 167.662Z" fill="#8DC043"/>
<path d="M381.601 104.296L336.331 105.153C335.844 105.168 335.474 105.612 335.563 106.099C336.538 111.333 341.491 136.999 343.99 137.176C346.769 137.369 373.854 138.167 375.037 137.176C376.102 136.289 381.306 110.609 382.385 105.257C382.503 104.739 382.119 104.281 381.601 104.296Z" fill="#D14332"/>
<path d="M358.863 115.059H337.352C338.165 118.962 339.155 123.412 340.146 127.3H358.863C361.421 127.3 363.49 125.23 363.49 122.673V119.686C363.49 117.143 361.421 115.059 358.863 115.059Z" fill="#D48D22"/>
<path d="M381.601 134.914L336.331 135.772C335.844 135.787 335.474 136.23 335.563 136.718C336.538 141.952 341.491 167.617 343.99 167.795C346.769 167.987 373.854 168.785 375.037 167.795C376.102 166.908 381.306 141.227 382.385 135.875C382.503 135.373 382.119 134.899 381.601 134.914Z" fill="#D14332"/>
<path d="M358.863 145.692H337.352C338.165 149.595 339.155 154.045 340.146 157.934H358.863C361.421 157.934 363.49 155.864 363.49 153.306V150.32C363.49 147.762 361.421 145.692 358.863 145.692Z" fill="#D48D22"/>
<path d="M381.601 165.962L336.331 166.819C335.844 166.834 335.474 167.278 335.563 167.765C336.538 172.999 341.491 198.665 343.99 198.842C346.769 199.035 373.854 199.833 375.037 198.842C376.102 197.955 381.306 172.275 382.385 166.923C382.503 166.42 382.119 165.962 381.601 165.962Z" fill="#D14332"/>
<path d="M358.863 176.74H337.352C338.165 180.643 339.155 185.093 340.146 188.981H358.863C361.421 188.981 363.49 186.911 363.49 184.354V181.367C363.49 178.809 361.421 176.74 358.863 176.74Z" fill="#D48D22"/>
<path d="M423.708 128.513C423.412 129.696 423.146 130.745 422.909 131.588C422.495 133.007 422.17 133.924 421.978 134.087C420.588 135.24 389.053 134.323 385.815 134.087C385.386 134.057 384.913 133.406 384.411 132.312C383.464 130.287 382.385 126.724 381.335 122.599C380.966 121.18 380.611 119.686 380.241 118.178C380.153 117.809 380.064 117.439 379.975 117.07C379.946 116.922 379.901 116.774 379.872 116.611C379.857 116.537 379.842 116.449 379.813 116.375C379.679 115.769 379.532 115.162 379.399 114.556C379.147 113.418 378.896 112.294 378.659 111.171C378.6 110.919 378.556 110.653 378.497 110.417C378.393 109.914 378.29 109.411 378.186 108.923C378.142 108.731 378.098 108.524 378.068 108.332C377.772 106.927 377.506 105.582 377.255 104.355C376.678 101.472 376.235 99.1509 375.983 97.8646C375.88 97.3028 376.309 96.7706 376.885 96.7706L393.03 96.4601L400.511 104.281L404.591 108.539L404.606 108.554L408.361 112.472L423.708 128.513Z" fill="#D14332"/>
<path d="M408.494 113.743V117.217C408.494 120.189 406.084 122.599 403.098 122.599H381.306C380.936 121.18 380.581 119.686 380.212 118.178C380.123 117.809 380.049 117.439 379.96 117.055V117.04C379.916 116.892 379.886 116.759 379.857 116.626C379.842 116.552 379.827 116.463 379.798 116.389C379.665 115.783 379.517 115.177 379.384 114.571C379.132 113.433 378.881 112.309 378.645 111.185C378.585 110.934 378.541 110.668 378.482 110.431C378.378 109.929 378.275 109.426 378.171 108.938C378.127 108.746 378.083 108.539 378.053 108.347H403.098C403.615 108.347 404.103 108.421 404.576 108.554L404.591 108.568L408.347 112.486C408.45 112.9 408.494 113.314 408.494 113.743Z" fill="#D48D22"/>
<path d="M430.021 135.107C428.409 143.046 424.565 161.63 422.747 167.766C422.407 168.904 422.14 169.599 421.963 169.747C420.573 170.915 389.038 169.983 385.8 169.747C385.445 169.717 385.061 169.274 384.647 168.475C383.642 166.583 382.474 162.754 381.321 158.274C380.951 156.855 380.596 155.361 380.227 153.853C380.108 153.336 379.975 152.818 379.872 152.301C379.724 151.636 379.576 150.97 379.413 150.32V150.305C379.103 148.886 378.792 147.466 378.497 146.092C378.393 145.589 378.275 145.086 378.186 144.598C378.142 144.406 378.098 144.199 378.068 144.007C377.299 140.34 376.678 137.117 376.264 135.003C376.205 134.693 376.146 134.397 376.102 134.131V134.116C376.057 133.894 376.013 133.717 375.983 133.54C375.909 133.096 376.131 132.697 376.516 132.534C376.619 132.475 376.752 132.445 376.885 132.445L384.396 132.312L422.909 131.588L426.605 131.514L430.021 135.107Z" fill="#D14332"/>
<path d="M403.113 144.021H378.068C379.014 148.56 380.167 153.75 381.321 158.274H403.113C406.085 158.274 408.509 155.864 408.509 152.877V149.403C408.494 146.431 406.085 144.021 403.113 144.021Z" fill="#D48D22"/>
<path d="M429.592 167.632L376.87 168.623C376.294 168.638 375.865 169.155 375.969 169.717C377.107 175.808 382.873 205.702 385.785 205.909C389.038 206.146 420.558 207.062 421.948 205.909C423.19 204.874 429.252 174.965 430.508 168.741C430.641 168.164 430.183 167.617 429.592 167.632Z" fill="#D14332"/>
<path d="M403.113 180.184H378.068C379.014 184.723 380.167 189.912 381.321 194.437H403.113C406.085 194.437 408.509 192.027 408.509 189.04V185.566C408.494 182.594 406.085 180.184 403.113 180.184Z" fill="#D48D22"/>
<path d="M258.21 95.2773C258.21 95.2773 255.564 96.4601 251.454 98.2194C251.01 98.4116 250.537 98.6038 250.064 98.8108C249.842 98.8995 249.621 98.9882 249.399 99.0917C248.911 99.2987 248.408 99.5057 247.876 99.7422C243.884 101.442 239.109 103.424 234.23 105.346C233.594 105.597 232.959 105.848 232.323 106.1C223.659 109.5 214.981 112.605 210.161 113.492C200.758 115.222 182.056 109.737 174.383 107.282C172.254 106.602 170.967 106.144 170.967 106.144C170.967 106.144 170.746 106.765 170.391 107.859C168.75 112.9 164.152 128.04 164.388 139.32C164.507 145.604 165.601 155.908 166.739 165.223C167.064 167.825 167.39 170.353 167.685 172.689C167.789 173.398 167.877 174.093 167.966 174.773C168.838 181.308 169.533 185.95 169.533 185.95C168.646 186.409 167.759 186.837 166.872 187.251C161.594 189.706 156.212 191.435 150.875 192.589C150.831 192.603 150.787 192.618 150.742 192.618C146.159 193.609 141.62 194.185 137.229 194.451C133.947 194.658 130.724 194.688 127.649 194.585C123.613 194.466 119.798 194.111 116.294 193.638C116.294 193.638 116.28 193.624 116.28 193.638C115.319 193.52 114.372 193.372 113.456 193.239C109.42 192.603 105.901 191.849 103.048 191.125H103.033C102.678 191.036 102.338 190.948 102.013 190.859H101.998C100.505 190.474 99.2332 190.105 98.1983 189.794C96.2467 189.203 95.1675 188.804 95.1675 188.804L95.3301 187.976L96.2911 183.245L101.924 155.48V155.465L105.443 138.182C105.443 138.182 105.443 138.182 95.7145 135.033C95.0196 134.811 94.3839 134.338 93.7777 133.658C92.0184 131.632 90.7026 127.744 89.7564 122.673C86.5333 105.39 87.7309 74.446 91.4122 57.8135C91.6636 56.6751 91.9445 55.5959 92.2401 54.561C94.3987 46.9765 97.6513 41.9646 100.874 38.6529L111.623 49.7116C111.623 49.5342 111.608 49.3568 111.608 49.1942C111.608 47.627 111.711 46.0747 111.933 44.5223C112.273 42.0237 112.909 39.5547 113.825 37.1744C117.965 43.7831 126.141 52.6981 133.932 59.1589C141.768 65.6789 149.219 69.7002 151.748 66.4181C154.941 62.2784 152.797 55.2854 150.269 49.9039C149.826 48.9576 149.367 48.0706 148.924 47.2426C147.504 44.5667 146.233 42.689 146.056 42.4229C146.041 42.4081 146.041 42.4081 146.041 42.3933C146.203 42.4673 148.687 43.6944 152.043 45.7199C155.458 47.7897 159.79 50.7022 163.486 54.1174C170.923 60.9774 193.795 89.0087 202.089 89.0087C206.982 89.0087 224.014 86.8206 237.157 85.0317C239.952 84.6473 242.568 84.2777 244.86 83.9524C246.56 83.7159 248.083 83.4941 249.355 83.3167C250.153 83.1984 250.877 83.095 251.469 83.021C252.799 82.8288 253.568 82.7106 253.568 82.7106L253.672 83.0062L257.412 93.311L258.21 95.2773Z" fill="#ED6960"/>
<path d="M172.416 99.3872C172.372 99.3872 172.327 99.3872 172.268 99.3724C171.943 99.2985 171.751 98.9733 171.84 98.648C175.077 85.6525 169.371 64.969 169.311 64.762C169.223 64.4515 169.4 64.1115 169.725 64.0228C170.051 63.9341 170.376 64.1263 170.465 64.4368C170.701 65.2943 176.334 85.6229 173.008 98.9289C172.934 99.2098 172.682 99.3872 172.416 99.3872Z" fill="#C25B57"/>
<path d="M167.109 182.801C167.064 183.925 166.99 185.418 166.872 187.251C166.177 198.414 164.27 221.522 162.525 241.954C160.751 262.622 159.155 280.556 159.155 280.556C159.155 280.556 159.879 302.053 159.155 307.611C159.022 308.632 158.667 312.934 158.179 319.306C157.07 320.844 155.813 322.307 154.394 323.667C146.144 331.681 134.849 334.608 124.367 332.494C122.947 332.213 121.528 331.828 120.138 331.355C116.073 329.966 112.229 327.777 108.843 324.791C110.277 313.673 111.652 303.028 112.835 293.847L113.589 287.948C113.722 286.898 113.855 285.878 113.973 284.888C114.106 283.838 114.239 282.818 114.358 281.827L114.609 279.905C114.727 278.959 114.846 278.057 114.949 277.185L115.171 275.485C113.796 268.24 112.377 260.804 110.943 253.456C110.706 252.258 110.469 251.061 110.248 249.878C106.005 228.175 101.85 207.683 99.3959 195.575C99.1297 194.289 98.8932 193.106 98.6714 192.012C98.6418 191.864 98.6123 191.716 98.5827 191.568C98.4497 190.933 98.3314 190.341 98.2131 189.794C98.0505 188.981 97.9026 188.242 97.7548 187.606C97.326 185.536 97.0895 184.398 97.0895 184.398L112.229 182.018L114.653 181.796L149.752 178.558L155.592 178.026L157.691 177.834C157.691 177.834 158.46 177.065 159.554 176.281C160.648 175.498 162.052 174.699 163.368 174.596H163.383C164.27 174.537 165.098 174.788 165.763 175.616C166.695 176.725 167.257 178.928 167.109 182.801Z" fill="#3C4F6E"/>
<path d="M61.7398 259.429C62.3312 259.237 90.1999 253.663 90.1999 253.663L64.6376 179.608L33.0728 189.114L61.7398 259.429Z" fill="#88C7D0"/>
<path d="M64.6523 179.593L81.8466 177.612L98.5235 249.878L90.1998 253.648L64.6523 179.593Z" fill="#B5DFE4"/>
<path d="M64.6523 179.593L63.8244 171.994L37.8481 179.593L33.0728 189.099L64.6523 179.593Z" fill="#B5DFE4"/>
<path d="M81.8466 177.612L63.8244 171.994L64.6523 179.593L81.8466 177.612Z" fill="#88C7D0"/>
<path d="M63.8244 171.994L37.8481 179.593L37.0497 174.507C36.7984 172.94 37.5524 171.417 38.8978 170.648C42.5496 170.708 46.1717 171.373 49.6609 172.615L45.3882 168.224L57.6001 163.774C59.7439 162.99 62.0946 164.276 62.5825 166.509L63.8244 171.994Z" fill="#88C7D0"/>
<path d="M104.733 194.629C104.733 194.629 114.491 199.907 118.364 210.847C122.253 221.803 123.642 242.102 118.364 245.887C113.086 249.671 99.8984 254.24 94.8569 249.864C89.8007 245.487 81.1074 219.348 84.4783 207.669C87.9378 195.723 104.733 194.629 104.733 194.629Z" fill="#F9AF3C"/>
<path d="M152.176 235.286L147.386 198.414C147.135 196.447 145.154 195.191 143.261 195.811L115.688 204.786C114.328 205.229 113.441 206.515 113.5 207.935L114.934 241.983C115.023 243.92 116.812 245.339 118.719 244.955L149.648 238.79C151.289 238.479 152.398 236.942 152.176 235.286Z" fill="#A1D1B2"/>
<path d="M118.379 213.154C118.379 213.154 130.473 207.329 135.1 211.365C139.728 215.401 140.777 208.452 143.912 211.557C147.046 214.662 152.871 226.001 146.75 227.938C140.63 229.875 139.284 225.1 134.065 229.284C128.846 233.468 129.881 240.18 123.908 234.355C117.921 228.53 112.096 218.964 118.379 213.154Z" fill="#F5F4F2"/>
<path d="M87.9378 189.099C87.169 188.966 71.3497 175.793 71.3497 175.793L87.9378 182.446L76.8643 164.927L88.7362 173.886L86.1193 158.806L95.5814 172.008L101.806 152.537L103.151 175.793L114.003 162.369L108.917 180.539L118.379 171.994L113.397 185.226L87.9378 189.099Z" fill="#5E9D9F"/>
<path d="M109.715 113.492C109.715 113.492 112.702 114.674 112.554 115.118C112.406 115.562 94.0439 125.718 94.0439 125.718L92.5358 184.043L84.4931 185.758C84.4931 185.758 84.981 126.62 87.9527 123.93C90.9095 121.239 109.715 113.492 109.715 113.492Z" fill="#1B6476"/>
<path d="M121.513 133.776V177.863L113.397 179.593L114.934 135.875L121.513 133.776Z" fill="#1B6476"/>
<path d="M149.116 180.953L32.3482 205.481L60.7344 262.903L158.814 244.393L149.116 180.953ZM66.8699 254.816C64.8297 255.437 62.6564 254.417 61.8284 252.451C58.2358 243.891 48.9364 221.758 45.0333 212.917C44.1019 210.818 45.0481 208.378 47.1327 207.447L48.2415 206.944C50.4148 205.968 52.9578 207.003 53.83 209.221L69.5459 249.316C70.4182 251.578 69.1911 254.121 66.8699 254.816ZM88.056 250.632C86.0158 251.253 83.8425 250.233 83.0146 248.267C79.4219 239.707 70.1225 217.574 66.2194 208.733C65.288 206.634 66.2342 204.194 68.3188 203.263L69.4276 202.76C71.601 201.784 74.1439 202.819 75.0162 205.037L90.732 245.132C91.6191 247.394 90.392 249.937 88.056 250.632ZM103.698 247.069C101.658 247.69 99.4844 246.67 98.6565 244.704C95.0639 236.143 88.9283 213.701 85.0252 204.86C84.0938 202.76 85.04 200.321 87.1246 199.389L88.2335 198.887C90.4068 197.911 92.9497 198.946 93.822 201.163L106.374 241.569C107.261 243.831 106.019 246.374 103.698 247.069ZM121.484 243.935C119.133 244.541 116.753 243.003 116.353 240.608L109.065 198.162C108.666 195.811 110.307 193.609 112.672 193.328L113.884 193.18C116.161 192.899 118.216 194.51 118.512 196.772C119.754 206.368 123.228 230.111 124.588 239.293C124.884 241.422 123.554 243.417 121.484 243.935ZM140.009 239.884C137.658 240.49 135.278 238.953 134.878 236.557L127.59 194.111C127.19 191.761 128.832 189.558 131.197 189.277L132.409 189.129C134.686 188.848 136.741 190.46 137.037 192.722C138.279 202.317 141.753 226.06 143.113 235.242C143.409 237.356 142.078 239.352 140.009 239.884Z" fill="#DB572F"/>
<path d="M175.994 169.022L178.685 231.575L158.681 244.408L148.983 180.953L175.994 169.022Z" fill="#B2311C"/>
<path d="M177.872 161.911C177.827 161.453 177.369 161.172 176.94 161.334L148.968 171.994L150.166 181.545L178.197 170.855C178.478 170.752 178.67 170.456 178.64 170.146L177.872 161.911Z" fill="#C63B24"/>
<path d="M148.983 171.994C148.968 171.994 40.2284 195.191 28.3565 197.748C27.7504 197.881 27.3068 198.414 27.3068 199.035V204.86C27.3068 205.702 28.0756 206.323 28.8888 206.161L150.166 181.545L148.983 171.994Z" fill="#EC673A"/>
<path d="M144.193 104.917L148.968 117.602C148.968 117.602 163.753 107.593 168.528 107.903C173.303 108.199 185.693 104.621 187.334 103.128C188.975 101.634 188.827 86.5544 188.827 86.5544L182.263 84.0114C182.263 84.0114 184.347 78.3342 182.263 78.1864C180.178 78.0385 177.635 81.3207 175.092 82.8139C172.549 84.3071 164.492 86.85 162.703 89.8365C160.914 92.823 160.47 97.7462 160.47 97.7462L144.193 104.917Z" fill="#FAD2B1"/>
<path d="M221.412 174.566L436.363 215.623C436.363 215.623 437.561 264.411 436.363 262.903C435.166 261.395 221.412 180.539 221.412 180.539V174.566Z" fill="#88C7D0"/>
<path d="M353.112 54.8418L352.831 55.0192L349.83 56.8525L328.052 70.1733L327.623 70.4394L308.182 82.3261L302.978 85.5195L284.837 96.6226L268.722 106.484L251.809 116.848L249.695 118.134L237.941 125.334L235.723 126.694L224.147 133.776V125.26L232.752 119.805L235.842 117.838L248.024 110.121L249.754 109.027L249.99 108.879L252.829 107.075L266.8 98.2194L268.988 96.8296L282.93 87.9885L285.251 86.5101L293.309 81.4094L303.096 75.2L303.229 75.1113L305.136 73.8989L310.355 70.5872L315.53 67.3051L326.781 60.179L328.466 59.1145L333.197 56.1132L345.794 48.1296C346.695 48.7654 347.582 49.4602 348.425 50.1995C349.135 50.8056 349.815 51.4709 350.48 52.151L352.816 54.5757V54.5904L352.949 54.7235L352.964 54.7383L353.112 54.8418Z" fill="#88C7D0"/>
<path d="M355.137 53.6146L354.531 53.9842C354.546 53.9547 354.546 53.9399 354.561 53.9103L355.137 53.6146Z" fill="#88C7D0"/>
<path d="M315.071 312.032C314.45 312.535 313.815 312.993 313.164 313.437C310.488 315.285 307.59 316.689 304.574 317.65C261.448 273.962 224.458 236.617 224.458 236.617V221.936L244.313 241.688L253.465 250.795L264.804 262.075L266.711 263.968L266.726 263.983H266.741L266.756 263.997L279.559 276.727L280.151 277.318L287.824 284.947L302.919 299.953L308.551 305.557L315.071 312.032Z" fill="#88C7D0"/>
<path d="M263.282 38.904L261.389 40.5747L248.941 51.7222L224.177 73.8988L226.232 64.1854L227.089 63.3871L249.044 42.6889L249.739 42.0383L255.682 36.435L258.403 33.8773L262.971 38.5936L263.282 38.904Z" fill="#88C7D0"/>
<path d="M335.504 43.2064C334.912 43.5464 334.291 43.7386 333.656 43.7386C332.561 43.7386 331.527 43.1916 330.61 42.2306C332.251 42.4228 333.892 42.7628 335.504 43.2064Z" fill="#C4D67B"/>
<path d="M124.382 332.464C122.962 332.183 121.543 331.799 120.153 331.326C118.276 317.28 115.821 302.984 112.85 293.817L113.604 287.919L113.988 284.858L114.372 281.798L114.624 279.876L114.964 277.155L115.186 275.455C115.186 275.47 121.883 299.864 124.382 332.464Z" fill="#322D69"/>
<path d="M144.193 104.917L108.991 117.321C108.991 117.321 108.932 85.756 110.174 81.0693C110.188 81.0546 107.616 114.66 144.193 104.917Z" fill="#C25B57"/>
<path d="M114.934 135.875L121.513 133.776V137.797L114.934 139.483V135.875Z" fill="#134956"/>
<path d="M482.387 189.765V317.059C469.066 327.704 449.551 326.698 437.413 314.206L436.733 313.511L436.674 261.514V261.469L436.644 230.378V230.274L436.614 199.641V199.567L436.6 184.132L436.555 141.967L482.387 189.765Z" fill="#707171"/>
</svg>
