<svg width="475" height="356" viewBox="0 0 475 356" fill="none" xmlns="http://www.w3.org/2000/svg">
<path d="M465.722 244.472C460.606 249.44 454.187 252.247 447.608 252.918C448.924 256.396 449.582 260.061 449.582 263.741C449.582 271.676 446.493 279.612 440.357 285.587C439.645 286.285 438.893 286.943 438.128 287.561C426.03 297.229 408.305 296.316 397.281 284.969L396.664 284.338L396.274 283.936L393.844 281.425L393.642 281.237L392.703 280.256L390.796 278.296L388.339 275.758L383.303 270.575C383.317 270.938 383.33 271.314 383.33 271.676C383.33 272.536 383.29 273.408 383.223 274.268C383.102 275.758 382.86 277.249 382.511 278.712C382.39 279.223 382.256 279.733 382.108 280.243C381.974 280.713 381.826 281.156 381.665 281.613V281.626C381.558 281.948 381.437 282.271 381.316 282.593C380.725 284.124 380.027 285.601 379.181 287.024V287.037C378.442 288.313 377.596 289.535 376.657 290.703C375.864 291.683 375.018 292.623 374.092 293.523C370.01 297.497 365.095 300.089 359.926 301.311C355.038 302.479 349.922 302.412 345.061 301.123C343.034 300.599 341.06 299.847 339.153 298.894C337.609 298.115 336.146 297.215 334.722 296.155H334.709C333.406 295.188 332.158 294.114 331.003 292.905L326.424 288.206L320.059 281.653L317.871 279.411L314.366 275.812L313.077 274.469L305.625 266.802L303.705 264.828L300.751 261.78L298.28 259.229L297.689 258.625C297.689 258.786 297.702 258.947 297.702 259.095C297.702 259.256 297.702 259.417 297.689 259.578C297.676 260.303 297.635 261.028 297.582 261.767C297.528 262.411 297.447 263.056 297.353 263.7C297.098 265.392 296.695 267.071 296.158 268.709C295.755 269.904 295.286 271.085 294.735 272.24C293.54 274.738 291.982 277.114 290.076 279.276C290.062 279.276 290.062 279.276 290.062 279.29C289.552 279.854 289.028 280.404 288.464 280.955C287.712 281.68 286.934 282.365 286.141 282.996C285.577 283.452 285 283.868 284.409 284.271C281.979 285.95 279.347 287.225 276.608 288.098C270.606 290.045 264.12 290.059 258.105 288.179L273.278 303.782C279.038 309.703 281.898 317.357 281.898 325.01C281.898 332.946 278.81 340.895 272.66 346.871C260.602 358.593 241.307 358.324 229.584 346.253L147.958 262.25C148.965 265.325 149.462 268.521 149.462 271.716C149.462 278.014 147.515 284.298 143.661 289.602C142.654 290.998 141.513 292.328 140.224 293.563C132.731 300.841 122.473 303.5 112.953 301.579C111.664 301.324 110.375 300.975 109.112 300.546C105.42 299.283 101.929 297.296 98.8537 294.584C98.2629 294.06 97.6855 293.523 97.135 292.945L12.9307 206.284C7.18374 200.362 4.32367 192.709 4.32367 185.055C4.32367 177.119 7.41201 169.17 13.5484 163.195C19.6042 157.314 27.4862 154.454 35.3011 154.588C38.6177 154.642 41.9074 155.246 45.0763 156.374L41.1958 152.386L8.62049 118.817C2.86007 112.895 0 105.242 0 97.5879C0 89.6522 3.08834 81.7165 9.23816 75.7412C17.5364 67.6713 29.2587 65.2812 39.5844 68.5172L24.4382 52.9278C18.6777 47.0063 15.8177 39.3526 15.8177 31.7123C15.8177 23.7632 18.906 15.8275 25.0558 9.85221C37.1138 -1.87005 56.4092 -1.6015 68.1314 10.4699L79.3569 22.0176L91.67 34.6932L101.432 44.737C101.432 44.5759 101.418 44.4148 101.418 44.2671C101.418 42.8437 101.512 41.4338 101.714 40.0239C102.023 37.7547 102.6 35.5123 103.433 33.3504C104.963 29.349 107.367 25.6027 110.643 22.4204C118.968 14.3236 130.731 11.9469 141.083 15.2232C144.615 16.3377 147.985 18.1236 150.993 20.554C151.933 21.3193 152.846 22.1519 153.719 23.0515L161.816 31.3766C161.802 31.0812 161.802 30.7724 161.802 30.4769C161.802 22.5413 164.89 14.5921 171.04 8.61687C183.098 -3.10539 202.394 -2.83683 214.116 9.23454L222.401 17.7476L226.55 22.0176L226.563 22.031L226.805 22.2727L226.818 22.2861L231.975 27.5766L231.988 27.59L234.7 30.3829L238.849 34.6663L239.118 34.9483L239.172 35.002L239.185 35.0155L240.796 36.6805L256.923 53.2635L256.936 53.2769L261.582 58.0572L266.175 62.7702L266.483 63.0925C267.007 60.0176 268.001 57.0098 269.464 54.1766C270.538 52.1222 271.854 50.1617 273.412 48.349C273.734 47.9731 274.07 47.6105 274.419 47.2345C274.701 46.9391 274.983 46.6572 275.278 46.3752C278.447 43.3003 282.1 41.0444 286.007 39.6211C289.404 38.3723 292.976 37.7547 296.548 37.7681C297.192 37.7681 297.823 37.795 298.468 37.8353C298.938 37.8621 299.394 37.9024 299.864 37.9561C299.999 37.9695 300.146 37.9829 300.281 38.0098C301.784 38.1844 303.261 38.4932 304.725 38.896H304.739C308.042 39.8091 311.224 41.2996 314.111 43.354C314.93 43.9314 315.736 44.5625 316.501 45.2338C317.146 45.7844 317.763 46.3886 318.367 47.0063L320.489 49.2084V49.2218L320.61 49.3427L320.623 49.3561L320.731 49.4769L320.744 49.4904L321.362 50.1349L356.985 87.3024L363.779 94.4056L367.485 98.2727L367.499 98.2861L370.91 101.844L384.861 116.4L387.479 119.139L390.581 122.389L390.594 122.402L396.543 128.619V128.646L438.168 172.044L466.393 201.504C472.14 207.425 475 215.079 475 222.719C474.946 230.561 471.871 238.51 465.722 244.472Z" fill="#FBF2D9"/>
<path d="M231.639 203.84C230.833 202.229 229.772 202.095 229.249 201.477C228.725 200.859 228.309 199.517 228.121 198.295C228.161 198.281 228.188 198.281 228.228 198.268C228.618 198.093 228.416 196.952 228.215 196.656C228.013 196.361 225.851 196.361 225.489 196.562C225.126 196.764 225.194 197.946 225.194 197.946C225.194 198.053 225.288 198.147 225.449 198.214C225.261 199.449 224.844 200.846 224.307 201.477C223.797 202.095 222.723 202.216 221.917 203.84C221.273 205.129 221.394 207.533 221.474 208.929L231.424 212.864C231.625 211.011 232.055 210.473 232.055 209.762C232.042 208.835 232.444 205.452 231.639 203.84Z" fill="#D8D8DB"/>
<path d="M231.854 219.886C231.84 219.833 231.773 219.658 231.693 219.336L222.226 215.589C222.172 218.544 221.756 219.725 221.702 219.873C221.702 219.886 221.689 219.9 221.689 219.913C221.635 220.141 221.286 221.941 221.689 224.197C222.119 226.613 223.649 227.889 224.24 227.822C224.831 227.755 224.912 227.137 225.502 227.607C225.878 227.903 226.281 227.983 226.536 228.01C226.644 228.023 226.738 227.943 226.765 227.822C226.791 227.929 226.885 228.01 226.993 228.01C227.248 227.983 227.664 227.903 228.027 227.607C228.618 227.137 228.698 227.768 229.289 227.822C229.88 227.889 231.411 226.613 231.84 224.197C232.243 221.941 231.894 220.128 231.84 219.913C231.854 219.913 231.854 219.9 231.854 219.886Z" fill="#D8D8DB"/>
<path d="M226.818 22.2861V45.3278L226.093 45.932L206.489 62.3136L206.247 57.1709L205.16 35.002L222.414 17.7476L226.563 22.0175L226.577 22.0309L226.805 22.2726L226.818 22.2861Z" fill="#FAE1DF"/>
<path d="M240.783 36.6536L240.756 41.501C240.756 41.501 226.63 48.3222 226.201 48.725C226.134 48.7921 226.093 47.9865 226.093 46.5766V45.9321C226.093 44.0656 226.134 41.3936 226.187 38.3858C226.281 33.1893 226.442 26.9723 226.577 22.031L226.818 22.2727L226.832 22.2861L231.988 27.5766L232.001 27.59L234.714 30.383L238.863 34.6663L239.131 34.9483L239.185 35.002L239.199 35.0155L240.783 36.6536Z" fill="#C6CFD6"/>
<path d="M239.172 34.9751L237.399 36.4522L232.592 40.467V40.3327L232.216 32.6924L231.974 27.5765L234.687 30.3695L238.836 34.6529L239.118 34.9348L239.172 34.9751Z" fill="#F1898C"/>
<path d="M320.583 49.289L320.462 49.3561L316.367 51.4374L298.092 60.7561L297.273 61.1724L286.41 66.718H203.589L226.093 46.2409L232.592 40.3328L238.836 34.653L239.105 34.9349L239.158 34.9886L239.172 35.0021L240.783 36.6671L256.909 53.2501L256.923 53.2636L261.569 58.0438L266.161 62.7568L266.47 63.0791C266.994 60.0042 267.987 56.9964 269.451 54.1632C270.525 52.1088 271.841 50.1484 273.399 48.3356C273.721 47.9597 274.056 47.5971 274.406 47.2212C274.688 46.9257 274.97 46.6438 275.265 46.3618C278.434 43.2869 282.086 41.031 285.994 39.6077C289.391 38.359 292.962 37.7413 296.534 37.7547C297.179 37.7547 297.81 37.7816 298.454 37.8219C298.924 37.8487 299.381 37.889 299.851 37.9427C299.837 37.795 299.824 37.6473 299.824 37.4862C299.972 37.6607 300.119 37.8353 300.267 37.983C301.771 38.1576 303.248 38.4664 304.712 38.8692H304.725C308.028 39.7823 311.211 41.2727 314.097 43.3272C314.917 43.9045 315.722 44.5356 316.488 45.207C317.132 45.7575 317.75 46.3618 318.354 46.9795L320.476 49.1816V49.195L320.583 49.289Z" fill="#909091"/>
<path d="M341.409 36.7476C341.395 36.7878 341.395 36.828 341.395 36.8682C341.315 36.8816 341.248 36.8816 341.167 36.895L341.409 36.7476Z" fill="#C47C1B"/>
<path d="M320.462 49.1545C320.449 49.2217 320.449 49.2888 320.449 49.3559C320.449 49.4231 320.435 49.4902 320.435 49.5708C320.422 49.9065 320.408 50.2421 320.408 50.5778C320.153 59.534 319.522 67.5503 317.924 68.3022C315.145 69.6047 308.538 69.7793 308.538 69.7793C308.538 69.7793 301.932 69.6181 299.153 68.3022C298.589 68.0337 298.145 66.8655 297.796 65.0662C297.702 64.6096 297.622 64.1262 297.541 63.5891C297.434 62.8506 297.34 62.045 297.259 61.1856C297.125 59.8966 297.018 58.4867 296.937 56.9828C296.883 56.11 296.843 55.1969 296.803 54.257C296.561 48.9531 296.521 42.9375 296.507 37.7142C297.152 37.7142 297.783 37.7411 298.427 37.7814C298.897 37.8082 299.354 37.8485 299.824 37.9022C299.811 37.7545 299.797 37.6068 299.797 37.4457C299.945 37.6202 300.092 37.7948 300.24 37.9425C301.744 38.1171 303.221 38.4259 304.685 38.8287H304.698C308.001 39.7418 311.184 41.2322 314.071 43.2867C314.89 43.8641 315.695 44.4951 316.461 45.1665C317.105 45.7171 317.723 46.3213 318.327 46.939L320.462 49.1545Z" fill="#D14332"/>
<path d="M320.114 302.09H320.073V302.076C320.086 302.09 320.1 302.09 320.114 302.09Z" fill="#BAC2CB"/>
<path d="M396.274 230.548V283.949L393.844 281.438L393.642 281.237L392.702 280.256L390.796 278.296L388.338 275.758L383.303 270.575C383.317 270.938 383.33 271.314 383.33 271.676C383.33 272.536 383.29 273.408 383.223 274.268C383.102 275.758 382.86 277.249 382.511 278.712C382.39 279.222 382.256 279.733 382.108 280.243C381.974 280.713 381.826 281.156 381.665 281.613V281.626C381.558 281.948 381.437 282.271 381.316 282.593C380.725 284.124 380.027 285.601 379.181 287.024V287.037C378.442 288.313 377.596 289.535 376.656 290.703C375.864 291.683 375.018 292.623 374.092 293.523C370.01 297.497 365.095 300.089 359.926 301.311C355.038 302.479 349.922 302.412 345.061 301.123C343.034 300.599 341.06 299.847 339.153 298.894C337.609 298.115 336.145 297.215 334.722 296.155H334.709C333.406 295.188 332.158 294.114 331.003 292.905L326.424 288.206L320.059 281.653L317.871 279.41L314.366 275.812L313.077 274.469L305.625 266.802L303.705 264.828L300.75 261.78L298.28 259.229L297.689 258.625C297.689 258.786 297.702 258.947 297.702 259.095C297.702 259.256 297.702 259.417 297.689 259.578C297.676 260.303 297.635 261.028 297.582 261.767C297.528 262.411 297.447 263.056 297.353 263.7C297.098 265.392 296.695 267.071 296.158 268.709C295.755 269.904 295.285 271.085 294.735 272.24C293.54 274.738 291.982 277.114 290.076 279.276C290.156 279.303 290.223 279.316 290.304 279.316C290.223 279.303 290.156 279.29 290.076 279.276C289.565 279.84 289.042 280.391 288.478 280.941C287.726 281.666 286.947 282.351 286.155 282.982C285.591 283.439 285.013 283.855 284.423 284.258L258.668 257.698L253.902 252.784L229.652 227.768L221.77 219.644L203.857 201.168H310.15L396.274 230.548Z" fill="#BAC2CB"/>
<path d="M201.091 158.146L338.16 166.834H396.798L396.314 195.448L201.091 158.146Z" fill="#BAC2CB"/>
<path d="M227.1 89.6656C227.1 81.6628 225.153 80.4543 223.743 79.4741C222.334 78.4939 221.622 69.2692 221.622 69.2692L219.057 69.0543L216.493 69.2692C216.493 69.2692 215.781 78.4939 214.371 79.4741C212.961 80.4543 211.014 81.6628 211.014 89.6656C211.014 97.6685 210.92 113.365 212.787 114.238C214.64 115.111 219.071 115.218 219.071 115.218C219.071 115.218 223.502 115.111 225.355 114.238C227.194 113.365 227.1 97.6685 227.1 89.6656Z" fill="#355641"/>
<path d="M222.387 66.7178L215.754 67.2281C215.391 67.2549 215.136 67.6577 215.19 68.1008L215.351 69.2825C215.405 69.645 215.647 69.9136 215.942 69.9136H222.427C222.763 69.9136 223.032 69.5779 223.032 69.1616V67.4697C223.018 67.0401 222.723 66.7044 222.387 66.7178Z" fill="#2E2C39"/>
<path d="M225.368 103.859L225.073 87.262C225.046 85.4896 223.663 84.0663 221.984 84.0663C220.011 84.0797 217.889 84.1066 215.741 84.1468C214.062 84.1737 212.733 85.6239 212.733 87.3963V103.845C212.733 105.618 214.076 107.068 215.741 107.095C217.996 107.135 220.212 107.162 222.28 107.175C224.012 107.189 225.395 105.685 225.368 103.859Z" fill="#D48D22"/>
<path d="M244.355 78.2656C244.355 69.3631 242.193 68.0203 240.608 66.9193C239.037 65.8182 238.245 55.5596 238.245 55.5596L235.385 55.3179L232.525 55.5596C232.525 55.5596 231.733 65.8182 230.162 66.9193C228.591 68.0203 226.415 69.3631 226.415 78.2656C226.415 87.1681 226.321 104.624 228.389 105.604C230.457 106.584 235.372 106.705 235.372 106.705C235.372 106.705 240.3 106.584 242.354 105.604C244.449 104.624 244.355 87.1681 244.355 78.2656Z" fill="#355641"/>
<path d="M239.105 52.7533L231.719 53.3307C231.317 53.3575 231.021 53.8141 231.088 54.2975L231.263 55.6134C231.317 56.0162 231.599 56.3116 231.921 56.3116H239.131C239.507 56.3116 239.803 55.9356 239.803 55.4791V53.5858C239.816 53.1024 239.494 52.7265 239.105 52.7533Z" fill="#2E2C39"/>
<path d="M242.421 94.0564L242.099 75.5935C242.059 73.6197 240.541 72.0352 238.675 72.0487C236.473 72.0621 234.123 72.089 231.733 72.1292C229.866 72.1695 228.376 73.7674 228.376 75.7412V94.0296C228.376 96.0034 229.866 97.6148 231.733 97.6416C234.244 97.6953 236.714 97.7222 238.997 97.7356C240.917 97.749 242.461 96.084 242.421 94.0564Z" fill="#D48D22"/>
<path d="M225.731 77.3794L236.674 71.807L248.208 60.6755L259.071 57.896V64.1532L251.471 74.2239C251.471 74.2239 257.581 75.4593 257.755 76.332C257.93 77.2048 248.437 83.113 244.234 83.6366C240.018 84.1603 236.218 83.6366 236.218 83.6366C236.218 83.6366 229.061 85.7179 228.537 85.8925C228.013 86.0805 225.731 77.3794 225.731 77.3794Z" fill="#FAD2B1"/>
<path d="M275.453 58.5537C275.453 60.2187 275.453 62.1926 275.44 64.2873C275.44 65.0795 275.426 65.8986 275.426 66.7177C275.426 67.0802 275.426 67.4427 275.413 67.8187C275.413 68.1276 275.399 68.4498 275.399 68.7587V68.7855C275.386 69.1883 275.386 69.5912 275.372 69.994C275.332 72.4915 275.265 75.0025 275.158 77.2986C274.889 82.6428 274.365 86.8859 273.358 87.3558C271.183 88.3897 266 88.5106 266 88.5106C266 88.5106 260.897 88.3897 258.695 87.3827C258.682 87.3692 258.655 87.3693 258.642 87.3558C257.89 87.0067 257.393 84.5226 257.097 81.0449C257.044 80.5615 257.003 80.0378 256.977 79.5141C256.95 79.1247 256.923 78.7219 256.896 78.3191C256.869 77.9968 256.856 77.6746 256.842 77.3523V77.3389C256.815 76.8018 256.789 76.2512 256.762 75.6873C256.762 75.6873 256.762 75.6873 256.762 75.6738C256.735 75.1502 256.721 74.5996 256.708 74.0625C256.695 73.5523 256.681 73.0152 256.668 72.4915C256.654 72.317 256.654 72.129 256.654 71.941C256.641 71.5919 256.641 71.2562 256.628 70.9071C256.614 70.6385 256.614 70.37 256.614 70.1014C256.601 69.3897 256.587 68.6781 256.587 67.9799C256.574 67.8053 256.574 67.6173 256.574 67.4427C256.574 67.4293 256.574 67.4293 256.574 67.4293C256.56 67.1876 256.56 66.9594 256.56 66.7311C256.534 63.8844 256.547 61.1721 256.547 58.9297V58.5403C256.547 56.3919 256.668 54.6597 256.883 53.2498L261.529 58.03L266.121 62.7431L266.43 63.0654C266.953 59.9905 267.947 56.9827 269.411 54.1495C270.485 52.095 271.801 50.1346 273.358 48.3219C273.734 48.8187 274.097 49.4767 274.392 50.336C275.05 52.0145 275.453 54.5791 275.453 58.5537Z" fill="#D14332"/>
<path d="M266.47 75.6874C266.497 76.8019 265.638 77.7418 264.523 77.8224C263.865 77.8627 263.073 77.9164 262.2 77.9701C261.233 78.0372 260.186 78.1044 259.098 78.1715C258.373 78.2252 257.635 78.2655 256.91 78.3192C256.883 77.9969 256.869 77.6747 256.856 77.3524V77.339C256.829 76.8019 256.802 76.2513 256.775 75.6874C256.775 75.6874 256.775 75.6874 256.775 75.674C256.748 75.1503 256.735 74.5998 256.722 74.0627C256.708 73.5524 256.695 73.0153 256.681 72.4916C256.668 72.3171 256.668 72.1291 256.668 71.9411C256.654 71.592 256.654 71.2563 256.641 70.9072C256.628 70.6386 256.628 70.3701 256.628 70.1015C256.614 69.3899 256.601 68.6782 256.601 67.98C256.587 67.8054 256.587 67.6174 256.587 67.4429C256.587 67.4294 256.587 67.4294 256.587 67.4294C256.574 67.1877 256.574 66.9595 256.574 66.7312C256.547 63.8846 256.56 61.1722 256.56 58.9298C257.366 58.7821 258.212 58.6344 259.045 58.4867C259.904 58.3256 260.75 58.1779 261.542 58.0302L266.134 62.7432L266.228 66.7178L266.389 73.5255L266.43 75.392L266.47 75.6874Z" fill="#D48D22"/>
<path d="M298.347 53.2902C298.32 54.257 298.307 55.2237 298.28 56.1771C298.226 57.7481 298.172 59.2923 298.105 60.7693C298.065 61.6555 298.011 62.5283 297.957 63.3608C297.917 63.9517 297.877 64.529 297.823 65.0796C297.434 69.7389 296.816 73.0958 295.809 73.5658C293.03 74.8683 286.423 75.0428 286.423 75.0428C286.423 75.0428 282.905 74.9488 279.911 74.3983C278.81 74.1969 277.776 73.9283 277.024 73.5658C276.42 73.2838 275.95 71.9411 275.587 69.8866C275.52 69.5509 275.466 69.175 275.413 68.799V68.7722C275.372 68.4902 275.332 68.1948 275.292 67.8994C275.238 67.5234 275.198 67.1206 275.157 66.7177C275.077 65.9658 275.01 65.1601 274.943 64.3276C274.902 63.8711 274.875 63.4146 274.849 62.9312C274.835 62.7163 274.822 62.5149 274.808 62.3001C274.781 61.9241 274.768 61.5481 274.741 61.1722C274.701 60.3262 274.661 59.4534 274.62 58.5806C274.607 58.1375 274.58 57.7078 274.567 57.2647C274.553 56.7411 274.54 56.1905 274.513 55.6534C274.5 55.3983 274.5 55.1432 274.486 54.8746C274.446 53.3707 274.419 51.8266 274.406 50.3227C274.392 49.2753 274.379 48.228 274.365 47.1941C274.647 46.8987 274.929 46.6167 275.225 46.3347C278.394 43.2598 282.046 41.004 285.953 39.5806C289.35 38.3319 292.922 37.7142 296.494 37.7276C297.138 37.7276 297.769 37.7545 298.414 37.7948C298.454 42.1319 298.454 47.7714 298.347 53.2902Z" fill="#D14332"/>
<path d="M287.497 42.0915L286.611 60.729L286.598 61.011C286.531 62.3269 285.51 63.3876 284.208 63.5085L281.912 63.7233L275.453 64.3007L274.969 64.341C274.929 63.8845 274.902 63.4279 274.875 62.9445C274.862 62.7297 274.849 62.5283 274.835 62.3134C274.808 61.9375 274.795 61.5615 274.768 61.1855C274.728 60.3396 274.687 59.4668 274.647 58.594C274.634 58.1509 274.607 57.7212 274.593 57.2781C274.58 56.7544 274.567 56.2039 274.54 55.6668C274.526 55.4117 274.526 55.1565 274.513 54.888C274.473 53.3841 274.446 51.8399 274.432 50.336C274.419 49.2887 274.406 48.2413 274.392 47.2074C274.674 46.912 274.956 46.63 275.251 46.3481C278.42 43.2731 282.073 41.0173 285.98 39.594C286.907 40.0102 287.551 40.977 287.497 42.0915Z" fill="#C47C1B"/>
<path d="M321.322 50.0676C321.228 50.1884 321.107 50.2824 320.999 50.3361C320.825 50.4167 320.623 50.4973 320.408 50.5778C319.63 50.8598 318.69 51.0747 317.709 51.2358C317.266 51.3163 316.81 51.3701 316.353 51.4372C313.869 51.7595 311.546 51.8132 311.546 51.8132C311.546 51.8132 308.874 51.746 306.202 51.3566C304.913 51.1821 303.611 50.9135 302.617 50.5376C302.442 50.4704 302.268 50.4033 302.107 50.3227C300.831 49.7185 300.173 44.522 299.824 37.8888C299.811 37.7411 299.797 37.5934 299.797 37.4323C299.945 37.6068 300.093 37.7814 300.24 37.9291C301.744 38.1036 303.221 38.4125 304.685 38.8153H304.698C308.001 39.7284 311.184 41.2188 314.071 43.2732C314.89 43.8506 315.695 44.4817 316.461 45.1531C317.105 45.7036 317.723 46.3079 318.327 46.9255L320.449 49.1277V49.1411L320.57 49.2619L320.583 49.2754L320.69 49.3962L320.704 49.4096L321.322 50.0676Z" fill="#D48D22"/>
<path d="M322.543 48.2952L321.993 48.6309C322.006 48.604 322.006 48.5906 322.02 48.5637L322.543 48.2952Z" fill="#909091"/>
<path d="M371 99.7856L358.832 103.584L352.868 105.442L350.305 106.246L334.637 111.127L312.976 117.893L306.213 120L227.215 119.556L217.064 119.501L212.989 119.473L204 119.418L212.163 114.537L215.369 112.624L226.627 105.886L228.307 104.874L228.461 104.777L231.794 102.78L244.409 95.238L246.454 94.018L259.811 86.032L265.118 82.8571L269.557 80.2089L278.882 74.6216L279.092 74.5106L284.539 71.2525L301.355 61.1869L302.727 60.355L311.016 55.3915L321.699 49C322.372 49.5684 323.016 50.1923 323.646 50.8301L325.858 53.1039V53.1178L325.984 53.2425L325.998 53.2564L326.11 53.3812L326.124 53.395L326.768 54.0605L363.915 92.4374L371 99.7856Z" fill="#909091"/>
<path d="M151.006 20.5405C149.529 32.7864 144.011 37.9426 138.156 41.0981C137.216 41.5949 136.276 42.0649 135.336 42.4811C135.296 42.508 135.256 42.5214 135.215 42.5348C128.864 45.3681 122.822 46.8317 121.721 53.3037C121.345 55.4656 121.519 58.1914 122.432 61.7228C123.01 63.9787 119.264 64.4621 114.725 64.0592C110.536 63.6967 105.688 62.5956 102.909 61.4811C102.237 61.2126 91.6699 56.3652 83.8416 49.1412C80.2162 45.7977 77.1681 41.944 75.9731 37.8083C74.0663 31.2423 76.161 26.8112 79.3568 22.0175L91.6699 34.6931L101.432 44.737C101.432 44.5758 101.418 44.4147 101.418 44.267C101.418 42.8437 101.512 41.4338 101.714 40.0239C102.023 37.7546 102.6 35.5122 103.432 33.3504C104.963 29.349 107.367 25.6027 110.643 22.4204C118.968 14.3235 130.731 11.9469 141.083 15.2232C144.628 16.3377 147.998 18.1101 151.006 20.5405Z" fill="#344676"/>
<path d="M148.455 66.0062C148.455 66.0062 134.893 74.5059 125.131 73.0557C122.258 72.626 118.471 69.0274 114.712 64.0592C109.475 57.1172 104.278 47.4896 101.727 40.0239C102.036 37.7546 102.613 35.5122 103.446 33.3504C104.977 29.349 107.38 25.6027 110.656 22.4204C118.981 14.3235 130.744 11.9469 141.097 15.2232C140.492 17.9221 139.794 20.8896 138.881 21.8027C135.444 25.2401 127.723 22.0712 127.723 22.0712C127.723 22.0712 126.058 24.5956 125.145 28.2211C124.245 31.8331 132.704 38.0769 132.704 38.0769C132.704 38.0769 132.704 38.0769 132.718 38.0903C132.718 38.1037 132.731 38.1038 132.731 38.1172L135.229 42.5483L136.572 44.9115L148.455 66.0062Z" fill="#FAD2B1"/>
<path d="M226.469 202.86V221.282C226.469 222.316 226.791 223.243 227.248 223.471C236.835 228.426 243.119 225.579 245.133 224.344C245.55 224.089 245.845 223.27 245.872 222.316L246.409 202.86H226.469Z" fill="#E74A5F"/>
<path d="M227.248 223.484C230.296 225.055 233.008 225.848 235.358 226.143C237.923 225.794 239.695 224.908 240.608 224.357C241.025 224.102 241.32 223.283 241.347 222.33L241.884 202.873H226.469V221.296C226.469 222.33 226.791 223.243 227.248 223.484Z" fill="#F0807D"/>
<path d="M246.409 202.86C246.409 205.035 241.951 206.808 236.432 206.808C230.927 206.808 226.456 205.049 226.456 202.86C226.456 200.685 230.914 198.912 236.432 198.912C241.951 198.926 246.409 200.685 246.409 202.86Z" fill="#D4D2D1"/>
<path d="M236.432 205.679C240.363 205.679 243.549 204.417 243.549 202.86C243.549 201.302 240.363 200.04 236.432 200.04C232.502 200.04 229.316 201.302 229.316 202.86C229.316 204.417 232.502 205.679 236.432 205.679Z" fill="#909091"/>
<path d="M241.226 202.86C241.226 203.907 239.091 204.753 236.446 204.753C233.801 204.753 231.666 203.907 231.666 202.86C231.666 201.812 233.801 200.967 236.446 200.967C239.091 200.967 241.226 201.826 241.226 202.86Z" fill="#D4D2D1"/>
<path d="M226.469 210.997C226.469 210.997 236.607 208.096 237.319 213.051C238.03 218.006 234.499 222.101 231.572 221.014C228.644 219.926 226.483 219.443 226.483 219.443V210.997H226.469Z" fill="#95BFCD"/>
<path d="M226.469 182.195V200.618C226.469 201.651 226.791 202.578 227.248 202.806C236.835 207.761 243.119 204.914 245.133 203.679C245.55 203.424 245.845 202.605 245.872 201.651L246.409 182.195H226.469Z" fill="#E74A5F"/>
<path d="M227.248 202.806C230.296 204.377 233.008 205.17 235.358 205.465C237.923 205.116 239.695 204.23 240.608 203.679C241.025 203.424 241.32 202.605 241.347 201.651L241.884 182.195H226.469V200.618C226.469 201.651 226.791 202.565 227.248 202.806Z" fill="#F0807D"/>
<path d="M236.432 186.142C241.942 186.142 246.409 184.375 246.409 182.195C246.409 180.015 241.942 178.247 236.432 178.247C230.922 178.247 226.456 180.015 226.456 182.195C226.456 184.375 230.922 186.142 236.432 186.142Z" fill="#D4D2D1"/>
<path d="M236.432 185.015C240.363 185.015 243.549 183.752 243.549 182.195C243.549 180.637 240.363 179.375 236.432 179.375C232.502 179.375 229.316 180.637 229.316 182.195C229.316 183.752 232.502 185.015 236.432 185.015Z" fill="#909091"/>
<path d="M236.432 184.088C239.072 184.088 241.213 183.241 241.213 182.195C241.213 181.149 239.072 180.302 236.432 180.302C233.792 180.302 231.652 181.149 231.652 182.195C231.652 183.241 233.792 184.088 236.432 184.088Z" fill="#D4D2D1"/>
<path d="M226.469 190.318C226.469 190.318 236.607 187.418 237.319 192.373C238.03 197.328 234.499 201.423 231.572 200.335C228.644 199.248 226.483 198.764 226.483 198.764V190.318H226.469Z" fill="#95BFCD"/>
<path d="M240.367 214.878V236.321C240.367 237.53 240.743 238.591 241.266 238.873C252.411 244.646 259.743 241.316 262.079 239.88C262.562 239.584 262.912 238.631 262.938 237.516L263.556 214.878H240.367Z" fill="#E74A5F"/>
<path d="M241.28 238.859C244.825 240.699 247.98 241.612 250.719 241.961C253.7 241.558 255.768 240.524 256.829 239.88C257.312 239.584 257.661 238.631 257.688 237.516L258.306 214.878H240.367V236.321C240.367 237.516 240.743 238.591 241.28 238.859Z" fill="#F0807D"/>
<path d="M263.57 214.877C263.57 217.415 258.373 219.47 251.968 219.47C245.563 219.47 240.367 217.415 240.367 214.877C240.367 212.34 245.563 210.285 251.968 210.285C258.373 210.285 263.57 212.34 263.57 214.877Z" fill="#D4D2D1"/>
<path d="M251.968 218.154C256.544 218.154 260.253 216.687 260.253 214.877C260.253 213.068 256.544 211.601 251.968 211.601C247.392 211.601 243.683 213.068 243.683 214.877C243.683 216.687 247.392 218.154 251.968 218.154Z" fill="#909091"/>
<path d="M251.968 217.08C255.038 217.08 257.527 216.094 257.527 214.878C257.527 213.661 255.038 212.675 251.968 212.675C248.898 212.675 246.409 213.661 246.409 214.878C246.409 216.094 248.898 217.08 251.968 217.08Z" fill="#D4D2D1"/>
<path d="M240.367 224.33C240.367 224.33 252.17 220.96 252.989 226.721C253.808 232.481 249.699 237.261 246.302 235.986C242.891 234.723 240.38 234.159 240.38 234.159V224.33H240.367Z" fill="#95BFCD"/>
<path d="M240.367 190.816V212.259C240.367 213.468 240.743 214.529 241.266 214.811C252.411 220.585 259.743 217.255 262.079 215.818C262.562 215.522 262.912 214.569 262.938 213.455L263.556 190.816H240.367Z" fill="#E74A5F"/>
<path d="M241.28 214.797C244.825 216.637 247.98 217.55 250.719 217.899C253.7 217.496 255.768 216.462 256.829 215.818C257.312 215.522 257.661 214.569 257.688 213.455L258.306 190.816H240.367V212.259C240.367 213.455 240.743 214.529 241.28 214.797Z" fill="#F0807D"/>
<path d="M263.57 190.815C263.57 193.353 258.373 195.408 251.968 195.408C245.563 195.408 240.367 193.353 240.367 190.815C240.367 188.278 245.563 186.223 251.968 186.223C258.373 186.223 263.57 188.278 263.57 190.815Z" fill="#D4D2D1"/>
<path d="M260.266 190.816C260.266 192.628 256.56 194.092 251.981 194.092C247.403 194.092 243.697 192.628 243.697 190.816C243.697 189.003 247.403 187.539 251.981 187.539C256.56 187.539 260.266 189.003 260.266 190.816Z" fill="#909091"/>
<path d="M257.541 190.816C257.541 192.037 255.043 193.018 251.981 193.018C248.907 193.018 246.422 192.037 246.422 190.816C246.422 189.594 248.92 188.613 251.981 188.613C255.043 188.613 257.541 189.594 257.541 190.816Z" fill="#D4D2D1"/>
<path d="M240.367 200.269C240.367 200.269 252.17 196.898 252.989 202.659C253.808 208.419 249.699 213.199 246.302 211.924C242.891 210.662 240.38 210.098 240.38 210.098V200.269H240.367Z" fill="#95BFCD"/>
<path d="M253.902 228.883V253.898C253.902 255.308 254.654 256.557 255.714 256.866C278.085 263.593 292.775 259.726 297.474 258.047C298.454 257.698 299.139 256.597 299.206 255.295L300.455 228.883H253.902Z" fill="#E74A5F"/>
<path d="M255.714 256.866C262.831 259.001 269.169 260.075 274.661 260.478C280.636 260.008 284.799 258.799 286.92 258.047C287.9 257.698 288.585 256.597 288.652 255.295L289.901 228.883H253.902V253.898C253.902 255.308 254.654 256.544 255.714 256.866Z" fill="#F0807D"/>
<path d="M277.185 234.24C290.044 234.24 300.469 231.842 300.469 228.883C300.469 225.924 290.044 223.525 277.185 223.525C264.326 223.525 253.902 225.924 253.902 228.883C253.902 231.842 264.326 234.24 277.185 234.24Z" fill="#D4D2D1"/>
<path d="M277.185 232.71C286.366 232.71 293.808 230.996 293.808 228.883C293.808 226.769 286.366 225.056 277.185 225.056C268.004 225.056 260.562 226.769 260.562 228.883C260.562 230.996 268.004 232.71 277.185 232.71Z" fill="#909091"/>
<path d="M277.185 231.447C283.348 231.447 288.343 230.299 288.343 228.883C288.343 227.466 283.348 226.318 277.185 226.318C271.022 226.318 266.027 227.466 266.027 228.883C266.027 230.299 271.022 231.447 277.185 231.447Z" fill="#D4D2D1"/>
<path d="M253.902 239.92C253.902 239.92 277.575 235.986 279.226 242.7C280.878 249.413 272.633 254.986 265.799 253.522C258.964 252.045 253.915 251.387 253.915 251.387L253.902 239.92Z" fill="#95BFCD"/>
<path d="M253.902 200.805V225.821C253.902 227.231 254.654 228.48 255.714 228.788C278.085 235.516 292.775 231.649 297.474 229.97C298.454 229.621 299.139 228.52 299.206 227.217L300.455 200.805H253.902Z" fill="#E74A5F"/>
<path d="M255.714 228.802C262.831 230.937 269.169 232.011 274.661 232.414C280.636 231.944 284.799 230.736 286.92 229.984C287.9 229.635 288.585 228.533 288.652 227.231L289.901 200.819H253.902V225.835C253.902 227.231 254.654 228.48 255.714 228.802Z" fill="#F0807D"/>
<path d="M300.469 200.805C300.469 203.76 290.049 206.163 277.185 206.163C264.322 206.163 253.902 203.76 253.902 200.805C253.902 197.851 264.322 195.448 277.185 195.448C290.049 195.461 300.469 197.851 300.469 200.805Z" fill="#D4D2D1"/>
<path d="M293.808 200.805C293.808 202.913 286.37 204.632 277.185 204.632C268.001 204.632 260.562 202.927 260.562 200.805C260.562 198.697 268.001 196.979 277.185 196.979C286.37 196.992 293.808 198.697 293.808 200.805Z" fill="#909091"/>
<path d="M288.357 200.805C288.357 202.229 283.362 203.37 277.198 203.37C271.035 203.37 266.04 202.215 266.04 200.805C266.04 199.382 271.035 198.241 277.198 198.241C283.348 198.241 288.357 199.395 288.357 200.805Z" fill="#D4D2D1"/>
<path d="M253.902 211.843C253.902 211.843 277.575 207.909 279.226 214.622C280.878 221.336 272.633 226.909 265.799 225.445C258.964 223.968 253.915 223.31 253.915 223.31L253.902 211.843Z" fill="#95BFCD"/>
<path d="M328.116 244.391C328.116 244.445 328.116 244.499 328.102 244.553L327.861 249.736L327.619 254.65L327.606 254.919L327.512 256.893L327.431 258.504L327.283 261.794L327.136 265.07V265.083L327.122 265.244L327.109 265.258L327.042 266.695L326.948 268.655L326.88 270.025L326.666 274.469C326.652 274.818 326.585 275.154 326.504 275.476C326.397 275.879 326.222 276.228 326.008 276.537C325.672 277.034 325.215 277.41 324.705 277.598C324.437 277.692 324.128 277.799 323.806 277.907H323.792C322.919 278.189 321.845 278.511 320.583 278.82C319.764 279.021 318.851 279.223 317.857 279.411L314.353 275.812L313.063 274.469L305.611 266.802L303.691 264.828L300.737 261.78L298.266 259.229L297.675 258.625C297.675 258.786 297.689 258.947 297.689 259.095C297.689 259.256 297.689 259.417 297.675 259.578C297.662 260.303 297.622 261.028 297.568 261.767C297.514 262.411 297.434 263.056 297.34 263.7C297.085 265.392 296.682 267.071 296.145 268.709C295.742 269.904 295.272 271.085 294.721 272.24C293.526 274.738 291.969 277.114 290.062 279.276C289.619 279.209 289.189 279.129 288.746 279.048C287.484 278.82 286.195 278.551 284.866 278.256C283.697 278.001 282.502 277.719 281.294 277.396C280.945 277.302 280.582 277.208 280.22 277.114C279.213 276.846 278.206 276.564 277.172 276.242C275.963 275.879 275.104 274.469 275.104 272.858V244.391H277.494C277.507 244.391 277.507 244.391 277.507 244.391H328.116Z" fill="#E74A5F"/>
<path d="M316.085 244.391L315.95 247.225L315.924 247.789L315.843 249.534L315.574 255.348L315.534 256.114L315.467 257.537L315.373 259.591L315.266 261.794L315.185 263.526L315.158 263.942L315.064 266.01L314.97 268.172L314.675 274.469V274.509C314.648 274.979 314.554 275.423 314.393 275.839L313.104 274.496L305.651 266.829L303.731 264.855L300.777 261.807L298.307 259.256L297.716 258.652C297.716 258.813 297.729 258.974 297.729 259.122C297.729 259.283 297.729 259.444 297.716 259.605C297.702 260.33 297.662 261.055 297.608 261.794C297.555 262.438 297.474 263.083 297.38 263.727C297.125 265.419 296.722 267.097 296.185 268.736C295.782 269.931 295.312 271.112 294.762 272.267C293.567 274.765 292.009 277.141 290.102 279.303C290.183 279.33 290.25 279.343 290.331 279.343C290.25 279.33 290.183 279.317 290.102 279.303C289.673 279.223 289.23 279.155 288.786 279.061C287.524 278.833 286.235 278.565 284.906 278.269C283.738 278.014 282.543 277.732 281.334 277.41C280.985 277.316 280.622 277.222 280.26 277.128C279.253 276.859 278.246 276.577 277.212 276.255C276.003 275.893 275.144 274.483 275.144 272.871V244.405H277.534C277.548 244.405 277.548 244.405 277.548 244.405H316.085V244.391Z" fill="#F0807D"/>
<path d="M328.117 244.392C328.117 247.762 316.247 250.488 301.625 250.488C286.988 250.488 275.132 247.762 275.132 244.392C275.132 241.021 287.002 238.295 301.625 238.295C316.261 238.295 328.117 241.021 328.117 244.392Z" fill="#D4D2D1"/>
<path d="M301.623 248.742C312.08 248.742 320.556 246.794 320.556 244.392C320.556 241.989 312.08 240.041 301.623 240.041C291.167 240.041 282.69 241.989 282.69 244.392C282.69 246.794 291.167 248.742 301.623 248.742Z" fill="#909091"/>
<path d="M314.326 244.391C314.326 246.003 308.632 247.319 301.623 247.319C294.601 247.319 288.921 246.016 288.921 244.391C288.921 242.78 294.614 241.464 301.623 241.464C308.632 241.464 314.326 242.78 314.326 244.391Z" fill="#D4D2D1"/>
<path d="M304.174 261.78C304.215 262.841 304.054 263.848 303.704 264.828L300.75 261.78L298.28 259.229L297.689 258.625C297.689 258.786 297.702 258.947 297.702 259.095C297.702 259.256 297.702 259.417 297.689 259.578C297.676 260.303 297.635 261.028 297.582 261.767C297.528 262.411 297.447 263.056 297.353 263.7C297.098 265.392 296.695 267.071 296.158 268.709C295.755 269.904 295.285 271.086 294.735 272.24C292.748 272.751 290.639 272.858 288.639 272.415C280.851 270.736 275.104 269.998 275.104 269.998V256.946C275.104 256.946 281.697 255.845 288.585 255.671C292.278 255.577 296.051 255.738 298.951 256.476C299.972 256.745 300.885 257.067 301.637 257.483C301.771 257.551 301.892 257.618 301.999 257.698C302.993 258.329 303.678 259.122 303.919 260.129C303.973 260.33 304.013 260.532 304.04 260.733C304.134 261.082 304.161 261.431 304.174 261.78Z" fill="#95BFCD"/>
<path d="M275.117 212.434V240.901C275.117 242.512 275.977 243.922 277.185 244.284C302.644 251.951 319.374 247.534 324.719 245.627C325.833 245.238 326.612 243.975 326.679 242.485L328.102 212.421H275.117V212.434Z" fill="#E74A5F"/>
<path d="M277.185 244.298C285.282 246.741 292.506 247.95 298.75 248.407C305.557 247.869 310.284 246.5 312.701 245.64C313.815 245.251 314.594 243.989 314.661 242.498L316.085 212.434H275.117V240.901C275.117 242.512 275.977 243.935 277.185 244.298Z" fill="#F0807D"/>
<path d="M301.623 218.53C316.254 218.53 328.115 215.801 328.115 212.434C328.115 209.067 316.254 206.338 301.623 206.338C286.991 206.338 275.13 209.067 275.13 212.434C275.13 215.801 286.991 218.53 301.623 218.53Z" fill="#D4D2D1"/>
<path d="M301.623 216.785C312.08 216.785 320.556 214.837 320.556 212.434C320.556 210.031 312.08 208.084 301.623 208.084C291.167 208.084 282.69 210.031 282.69 212.434C282.69 214.837 291.167 216.785 301.623 216.785Z" fill="#909091"/>
<path d="M314.326 212.434C314.326 214.045 308.632 215.361 301.623 215.361C294.601 215.361 288.921 214.059 288.921 212.434C288.921 210.823 294.614 209.507 301.623 209.507C308.632 209.52 314.326 210.823 314.326 212.434Z" fill="#D4D2D1"/>
<path d="M275.117 225.002C275.117 225.002 302.066 220.531 303.933 228.171C305.813 235.825 296.44 242.163 288.652 240.484C280.864 238.806 275.117 238.054 275.117 238.054V225.002Z" fill="#95BFCD"/>
<path d="M320.114 302.09H320.073V302.076C320.086 302.09 320.1 302.09 320.114 302.09Z" fill="#EF7E64"/>
<path d="M297.595 261.78C297.541 262.425 297.461 263.069 297.367 263.714C297.112 265.406 296.709 267.084 296.172 268.722V261.78H297.595Z" fill="#EF7E64"/>
<path d="M355.911 261.78C355.911 261.847 355.897 261.901 355.897 261.955L355.857 262.76L355.615 267.782V267.796L355.427 271.77L355.306 274.201L355.212 276.201L355.011 280.256L354.877 283.197L354.863 283.493L354.823 284.298L354.729 286.299L354.608 288.716L354.286 295.671C354.259 296.249 354.138 296.786 353.937 297.269C353.547 298.196 352.889 298.907 352.07 299.216C350.54 299.767 348.176 300.492 345.034 301.136C343.007 300.613 341.033 299.861 339.126 298.907C337.582 298.129 336.118 297.229 334.695 296.168H334.682C333.379 295.201 332.13 294.127 330.976 292.919L326.397 288.219L320.032 281.666L317.844 279.424L314.339 275.825L313.05 274.483L305.598 266.815L303.677 264.842L300.723 261.794H307.773C307.786 261.794 307.786 261.794 307.786 261.794H355.911V261.78Z" fill="#EF7E64"/>
<path d="M297.595 261.78C297.541 262.425 297.461 263.069 297.367 263.714C297.112 265.406 296.709 267.084 296.172 268.722V261.78H297.595Z" fill="#F49F81"/>
<path d="M342.349 261.78L342.295 262.76L342.188 264.989L342.174 265.298L342.067 267.567L341.825 272.495L341.812 272.67L341.691 275.288L341.557 278.229L341.463 280.23L341.382 281.948L341.369 282.163L341.234 285.104L341.1 287.897L340.738 295.644C340.724 295.738 340.724 295.819 340.711 295.913C340.59 297.175 339.999 298.276 339.126 298.867C337.582 298.088 336.118 297.189 334.695 296.128H334.682C333.379 295.161 332.13 294.087 330.976 292.878L326.397 288.179L320.032 281.626L317.844 279.384L314.339 275.785L313.05 274.442L305.598 266.775L303.677 264.801L300.723 261.753H307.773C307.786 261.753 307.786 261.753 307.786 261.753H342.349V261.78Z" fill="#F49F81"/>
<path d="M297.702 259.605C297.689 260.33 297.649 261.055 297.595 261.794C297.541 262.438 297.461 263.083 297.367 263.727C296.588 263.109 296.172 262.465 296.172 261.794C296.158 261.015 296.709 260.29 297.702 259.605Z" fill="#D4D2D1"/>
<path d="M355.911 261.78C355.911 261.847 355.897 261.901 355.897 261.955C355.857 262.264 355.736 262.559 355.535 262.854C354.165 264.842 349.13 266.534 342.08 267.567C337.69 268.212 332.52 268.601 326.961 268.642C326.652 268.655 326.343 268.655 326.034 268.655C323.993 268.655 321.993 268.601 320.059 268.521C318.3 268.44 316.595 268.319 314.957 268.172C311.479 267.863 308.323 267.393 305.625 266.816L303.704 264.842L300.75 261.794L298.28 259.242C299.166 258.732 300.321 258.249 301.69 257.806C301.798 257.765 301.905 257.738 302.013 257.698C304.886 256.812 308.659 256.087 313.037 255.603C313.869 255.51 314.702 255.429 315.574 255.348C317.025 255.228 318.528 255.12 320.073 255.053C322.006 254.959 323.993 254.919 326.048 254.919C326.41 254.919 326.76 254.919 327.109 254.932C327.109 254.932 327.122 254.946 327.122 254.932H327.632C334.816 255.026 341.342 255.684 346.31 256.745C352.205 257.98 355.911 259.793 355.911 261.78Z" fill="#D4D2D1"/>
<path d="M326.034 266.681C337.818 266.681 347.371 264.487 347.371 261.78C347.371 259.073 337.818 256.879 326.034 256.879C314.251 256.879 304.698 259.073 304.698 261.78C304.698 264.487 314.251 266.681 326.034 266.681Z" fill="#909091"/>
<path d="M326.034 265.07C333.947 265.07 340.362 263.597 340.362 261.78C340.362 259.963 333.947 258.49 326.034 258.49C318.122 258.49 311.707 259.963 311.707 261.78C311.707 263.597 318.122 265.07 326.034 265.07Z" fill="#D4D2D1"/>
<path d="M328.102 285.534C327.686 286.473 327.109 287.373 326.424 288.192L320.059 281.64L317.871 279.397L314.366 275.799L313.077 274.456C313.601 274.456 314.138 274.456 314.661 274.469C316.662 274.496 318.609 274.617 320.395 274.885C322.114 275.127 323.671 275.503 324.974 276.013C325.35 276.161 325.712 276.322 326.034 276.51C327.283 277.182 328.183 278.068 328.559 279.196V279.209C328.599 279.303 328.626 279.411 328.653 279.505C328.72 279.76 328.76 280.001 328.801 280.243C329.109 282.123 328.827 283.909 328.102 285.534Z" fill="#D4D2D1"/>
<path d="M301.623 224.774V256.865C301.623 258.678 302.59 260.276 303.946 260.679C332.654 269.313 351.507 264.345 357.536 262.196C358.784 261.753 359.671 260.33 359.751 258.665L361.363 224.774H301.623Z" fill="#EF7E64"/>
<path d="M303.946 260.692C313.077 263.445 321.214 264.801 328.25 265.325C335.917 264.721 341.261 263.176 343.974 262.21C345.223 261.766 346.109 260.343 346.189 258.678L347.801 224.787H301.61V256.879C301.623 258.692 302.59 260.276 303.946 260.692Z" fill="#F49F81"/>
<path d="M331.499 231.649C348 231.649 361.376 228.571 361.376 224.774C361.376 220.977 348 217.899 331.499 217.899C314.999 217.899 301.623 220.977 301.623 224.774C301.623 228.571 314.999 231.649 331.499 231.649Z" fill="#D4D2D1"/>
<path d="M331.5 229.675C343.283 229.675 352.836 227.48 352.836 224.774C352.836 222.067 343.283 219.872 331.5 219.872C319.716 219.872 310.163 222.067 310.163 224.774C310.163 227.48 319.716 229.675 331.5 229.675Z" fill="#909091"/>
<path d="M331.5 228.063C339.412 228.063 345.827 226.591 345.827 224.774C345.827 222.957 339.412 221.484 331.5 221.484C323.587 221.484 317.172 222.957 317.172 224.774C317.172 226.591 323.587 228.063 331.5 228.063Z" fill="#D4D2D1"/>
<path d="M301.623 238.94C301.623 238.94 331.996 233.891 334.118 242.511C336.226 251.132 325.659 258.289 316.89 256.395C308.109 254.502 301.637 253.656 301.637 253.656V238.94H301.623Z" fill="#D4D2D1"/>
<path d="M320.114 302.09H320.073V302.076C320.086 302.09 320.1 302.09 320.114 302.09Z" fill="#EF7E64"/>
<path d="M382.095 280.256C381.96 280.726 381.813 281.169 381.651 281.626V281.639C381.544 281.962 381.423 282.284 381.302 282.606C380.711 284.137 380.013 285.614 379.167 287.037V287.051C378.429 288.326 377.583 289.548 376.643 290.716C375.851 291.696 375.005 292.636 374.078 293.536C369.996 297.511 365.082 300.102 359.912 301.324C355.025 302.492 349.909 302.425 345.048 301.136C343.02 300.612 341.046 299.86 339.14 298.907C337.596 298.128 336.132 297.229 334.709 296.168H334.695C333.393 295.201 332.144 294.127 330.989 292.918L326.41 288.219L320.046 281.666V280.27H332.762C332.775 280.27 332.775 280.27 332.775 280.27H382.095V280.256Z" fill="#EF7E64"/>
<path d="M393.897 280.256C393.897 280.337 393.884 280.417 393.884 280.511L393.843 281.438L393.642 281.236L392.702 280.256H393.897Z" fill="#EF7E64"/>
<path d="M320.114 302.09H320.073V302.076C320.086 302.09 320.1 302.09 320.114 302.09Z" fill="#F49F81"/>
<path d="M377.14 280.256L377.032 282.499L376.952 284.217L376.804 287.413L376.656 290.716C375.864 291.696 375.018 292.636 374.092 293.536C370.01 297.511 365.095 300.102 359.926 301.324C355.038 302.492 349.922 302.425 345.061 301.136C343.034 300.612 341.06 299.86 339.153 298.907C337.609 298.128 336.145 297.229 334.722 296.168H334.709C333.406 295.201 332.157 294.127 331.003 292.918L326.424 288.219L320.059 281.666V280.27H332.775C332.789 280.27 332.789 280.27 332.789 280.27H377.14V280.256Z" fill="#F49F81"/>
<path d="M383.195 274.281C383.075 275.771 382.833 277.262 382.484 278.725C382.363 279.236 382.229 279.746 382.081 280.256C381.947 280.726 381.799 281.169 381.638 281.626V281.639C381.53 281.962 381.41 282.284 381.289 282.606C380.698 284.137 380 285.614 379.154 287.037V287.051C378.388 287.171 377.596 287.306 376.791 287.413C371.07 288.259 364.276 288.742 356.971 288.742C356.179 288.742 355.4 288.729 354.622 288.716C349.801 288.648 345.249 288.366 341.1 287.91C336.011 287.359 331.566 286.527 328.089 285.533C323.053 284.083 320.046 282.244 320.046 280.256C320.046 279.759 320.22 279.276 320.583 278.819C320.945 278.323 321.509 277.826 322.261 277.356C322.986 276.899 323.886 276.456 324.947 276.04C325.43 275.839 325.954 275.651 326.504 275.476C330.103 274.268 335.017 273.287 340.778 272.643C341.127 272.603 341.463 272.562 341.825 272.535C343.651 272.347 345.545 272.186 347.518 272.065C347.518 272.065 347.518 272.065 347.532 272.065C350.07 271.918 352.715 271.824 355.427 271.797C355.938 271.783 356.461 271.783 356.971 271.783C363.618 271.783 369.849 272.186 375.246 272.885C378.174 273.26 380.846 273.73 383.195 274.281Z" fill="#D4D2D1"/>
<path d="M393.897 280.256C393.897 280.337 393.884 280.417 393.884 280.511C393.843 280.753 393.776 280.995 393.642 281.236L392.702 280.256L390.795 278.296L388.338 275.758C389.56 276.214 390.607 276.684 391.453 277.195C393.024 278.148 393.897 279.182 393.897 280.256Z" fill="#D4D2D1"/>
<path d="M382.497 278.726C382.376 279.236 382.242 279.746 382.094 280.256C381.96 280.726 381.812 281.169 381.651 281.626V281.639C381.544 281.962 381.423 282.284 381.302 282.606C380.228 283.197 378.751 283.734 376.952 284.218C372.118 285.507 364.961 286.326 356.985 286.326C356.233 286.326 355.481 286.312 354.756 286.299C349.721 286.205 345.088 285.789 341.248 285.117C334.789 284.016 330.613 282.244 330.613 280.256C330.613 280.095 330.64 279.921 330.707 279.76V279.746C331.352 277.92 335.555 276.309 341.718 275.302C345.598 274.657 350.271 274.268 355.32 274.201C355.87 274.187 356.421 274.187 356.985 274.187C363.994 274.187 370.359 274.818 375.085 275.839C378.617 276.618 381.222 277.598 382.497 278.726Z" fill="#909091"/>
<path d="M374.682 280.256C374.682 282.499 366.76 284.325 356.985 284.325C347.21 284.325 339.287 282.499 339.287 280.256C339.287 278.014 347.21 276.188 356.985 276.188C366.76 276.188 374.682 278 374.682 280.256Z" fill="#D4D2D1"/>
<path d="M320.114 302.09H320.073V302.076C320.086 302.09 320.1 302.09 320.114 302.09Z" fill="#D4D2D1"/>
<path d="M359.912 301.311C355.025 302.479 349.909 302.412 345.048 301.123C343.02 300.599 341.046 299.847 339.14 298.894C337.596 298.115 336.132 297.215 334.709 296.154C336.669 296.034 338.683 295.953 340.711 295.94C345.531 295.899 350.311 296.222 353.937 297.269C356.851 298.101 359.026 299.39 359.912 301.311Z" fill="#D4D2D1"/>
<path d="M393.897 233.26L393.709 237.221L391.91 275.127C391.87 275.866 391.709 276.577 391.44 277.195C391.266 277.598 391.051 277.974 390.796 278.283L388.338 275.745L383.303 270.562C383.316 270.924 383.33 271.3 383.33 271.663C383.33 272.522 383.29 273.395 383.222 274.254C383.102 275.745 382.86 277.235 382.511 278.699C382.39 279.209 382.256 279.719 382.108 280.23C381.974 280.7 381.826 281.143 381.665 281.599V281.613C380.268 281.921 378.724 282.217 377.046 282.485C374.266 282.942 371.097 283.305 367.579 283.506H367.566C363.753 283.734 359.523 283.748 354.89 283.479C354.259 283.439 353.628 283.399 352.984 283.345C352.446 283.305 351.896 283.264 351.332 283.211C349.667 283.076 347.962 282.888 346.203 282.66C345.612 282.579 345.021 282.499 344.43 282.418C344.068 282.365 343.692 282.311 343.329 282.257C343.249 282.244 343.168 282.23 343.074 282.217C342.524 282.136 341.96 282.042 341.409 281.948C341.181 281.908 340.939 281.868 340.697 281.827H340.684C340.684 281.827 340.684 281.828 340.671 281.814L340.523 281.787C338.67 281.465 336.777 281.102 334.816 280.673C334.454 280.592 334.091 280.525 333.728 280.431C333.42 280.364 333.111 280.297 332.802 280.216C332.789 280.216 332.789 280.216 332.789 280.216C332.251 280.095 331.714 279.961 331.177 279.84C331.016 279.8 330.868 279.76 330.707 279.733C330.385 279.652 330.063 279.572 329.74 279.491C329.351 279.397 328.962 279.29 328.559 279.196C328.29 279.129 328.035 279.061 327.767 278.981C327.713 278.967 327.659 278.954 327.592 278.927C327.256 278.833 326.907 278.753 326.572 278.645C326.236 278.551 325.887 278.457 325.538 278.363C325.148 278.256 324.745 278.135 324.356 278.028C324.181 277.974 324.007 277.92 323.819 277.866H323.805C323.51 277.786 323.215 277.705 322.933 277.611C322.812 277.571 322.704 277.531 322.597 277.49C322.49 277.437 322.382 277.383 322.275 277.329C322.221 277.302 322.167 277.276 322.127 277.235C322.073 277.208 322.02 277.168 321.979 277.128C321.885 277.061 321.791 276.994 321.697 276.9C321.671 276.886 321.644 276.859 321.63 276.832C321.536 276.752 321.456 276.671 321.375 276.577C321.321 276.524 321.268 276.456 321.227 276.389C321.16 276.309 321.093 276.228 321.039 276.134C320.771 275.772 320.569 275.329 320.408 274.872C320.395 274.859 320.395 274.845 320.395 274.832C320.355 274.724 320.328 274.617 320.301 274.509C320.274 274.456 320.261 274.402 320.261 274.335C320.22 274.214 320.207 274.093 320.18 273.972C320.14 273.798 320.126 273.623 320.113 273.449C320.099 273.368 320.1 273.301 320.1 273.22C320.086 273.113 320.086 273.006 320.086 272.898V233.247H393.897V233.26Z" fill="#EF7E64"/>
<path d="M322.946 277.638C334.239 281.035 344.283 282.727 352.984 283.372C362.463 282.62 369.056 280.713 372.413 279.518C373.957 278.967 375.059 277.222 375.153 275.14L377.14 233.26H320.073V272.925C320.073 275.167 321.254 277.128 322.946 277.638Z" fill="#F49F81"/>
<path d="M356.985 241.746C377.371 241.746 393.897 237.947 393.897 233.26C393.897 228.573 377.371 224.774 356.985 224.774C336.599 224.774 320.073 228.573 320.073 233.26C320.073 237.947 336.599 241.746 356.985 241.746Z" fill="#D4D2D1"/>
<path d="M383.343 233.26C383.343 236.604 371.54 239.329 356.971 239.329C342.416 239.329 330.6 236.617 330.6 233.26C330.6 229.917 342.403 227.191 356.971 227.191C371.54 227.204 383.343 229.917 383.343 233.26Z" fill="#909091"/>
<path d="M374.682 233.26C374.682 235.502 366.76 237.329 356.985 237.329C347.21 237.329 339.287 235.502 339.287 233.26C339.287 231.018 347.21 229.191 356.985 229.191C366.76 229.191 374.682 231.018 374.682 233.26Z" fill="#D4D2D1"/>
<path d="M320.073 250.756C320.073 250.756 357.603 244.526 360.221 255.174C362.826 265.822 349.774 274.657 338.925 272.321C328.075 269.984 320.073 268.937 320.073 268.937V250.756Z" fill="#D4D2D1"/>
<path d="M206.717 144.262L210.544 144.853C210.544 144.853 210.517 159.664 210.114 159.476C209.725 159.288 206.529 159.502 206.529 159.502L206.717 144.262Z" fill="#41B7AE"/>
<path d="M202.77 145.793C203.401 145.497 205.818 144.598 206.717 144.275C206.878 144.208 207.053 144.342 207.053 144.517L206.811 159.274C206.811 159.422 206.677 159.542 206.529 159.516L202.407 158.884C202.286 158.871 202.192 158.75 202.192 158.629L202.622 146.007C202.635 145.913 202.689 145.833 202.77 145.793Z" fill="#8CCECF"/>
<path d="M209.349 147.162C208.584 147.122 208.919 147.202 208.154 147.162C207.926 147.149 207.738 147.323 207.738 147.552L207.335 157.448C207.322 157.662 207.496 157.85 207.711 157.864L209.215 158.025C209.443 158.038 209.631 157.864 209.631 157.649L210.101 147.753C210.128 147.538 209.564 147.176 209.349 147.162Z" fill="#FEF5AD"/>
<path d="M206.529 147.444C206.368 146.759 204.287 148.438 203.468 149.136C203.253 149.311 203.132 149.579 203.105 149.848L202.89 153.285C202.864 153.634 203.025 153.97 203.293 154.171C203.978 154.682 205.267 155.635 205.737 155.944C206.408 156.373 206.731 148.304 206.529 147.444Z" fill="#FEEDDB"/>
<path d="M243.24 133.01L250.666 134.151C250.666 134.151 250.599 162.913 249.847 162.55C249.081 162.188 242.878 162.591 242.878 162.591L243.24 133.01Z" fill="#41B7AE"/>
<path d="M235.573 135.964C236.781 135.4 241.481 133.654 243.227 133.01C243.549 132.889 243.885 133.131 243.885 133.48L243.428 162.121C243.428 162.416 243.16 162.631 242.864 162.591L234.861 161.382C234.62 161.342 234.445 161.127 234.445 160.886L235.291 136.394C235.304 136.206 235.412 136.045 235.573 135.964Z" fill="#8CCECF"/>
<path d="M248.343 138.649C246.866 138.569 247.524 138.73 246.033 138.649C245.603 138.623 245.241 138.958 245.214 139.401L244.435 158.603C244.422 159.032 244.744 159.395 245.174 159.408L248.101 159.731C248.531 159.757 248.907 159.422 248.92 158.992L249.847 139.791C249.86 139.348 248.772 138.663 248.343 138.649Z" fill="#FEF5AD"/>
<path d="M242.878 139.173C242.569 137.83 238.54 141.107 236.943 142.463C236.526 142.812 236.285 143.309 236.244 143.846L235.828 150.519C235.788 151.191 236.083 151.835 236.62 152.238C237.95 153.232 240.447 155.085 241.36 155.675C242.622 156.508 243.254 140.838 242.878 139.173Z" fill="#FEF5AD"/>
<path d="M213.632 141.617L218.453 142.355C218.453 142.355 218.413 161.046 217.916 160.805C217.419 160.576 213.391 160.832 213.391 160.832L213.632 141.617Z" fill="#41B7AE"/>
<path d="M208.664 143.537C209.457 143.174 212.505 142.033 213.646 141.617C213.847 141.536 214.076 141.697 214.076 141.912L213.78 160.523C213.78 160.711 213.606 160.858 213.418 160.832L208.221 160.039C208.06 160.012 207.953 159.878 207.953 159.717L208.503 143.805C208.49 143.698 208.557 143.591 208.664 143.537Z" fill="#8CCECF"/>
<path d="M216.949 145.282C215.996 145.229 216.412 145.336 215.445 145.282C215.163 145.269 214.922 145.484 214.922 145.766L214.425 158.24C214.411 158.522 214.626 158.75 214.908 158.764L216.815 158.965C217.097 158.978 217.339 158.764 217.352 158.482L217.943 146.007C217.943 145.739 217.231 145.296 216.949 145.282Z" fill="#FEF5AD"/>
<path d="M213.404 145.632C213.203 144.759 210.584 146.894 209.55 147.767C209.282 147.995 209.121 148.317 209.107 148.666L208.839 153.003C208.812 153.446 209 153.863 209.349 154.118C210.208 154.762 211.833 155.971 212.424 156.347C213.243 156.897 213.646 146.706 213.404 145.632Z" fill="#FEEDDB"/>
<path d="M233.814 132.459L241.239 133.6C241.239 133.6 241.172 162.362 240.42 162C239.655 161.637 233.451 162.04 233.451 162.04L233.814 132.459Z" fill="#41B7AE"/>
<path d="M226.147 135.413C227.355 134.849 232.055 133.104 233.801 132.459C234.123 132.338 234.458 132.58 234.458 132.929L234.002 161.57C234.002 161.865 233.733 162.08 233.438 162.04L225.435 160.832C225.193 160.791 225.019 160.576 225.019 160.335L225.865 135.843C225.878 135.655 225.986 135.494 226.147 135.413Z" fill="#8CCECF"/>
<path d="M238.903 138.099C237.426 138.018 238.084 138.179 236.593 138.099C236.164 138.072 235.801 138.408 235.774 138.851L234.996 158.052C234.982 158.482 235.304 158.844 235.734 158.858L238.661 159.18C239.091 159.207 239.467 158.871 239.48 158.441L240.393 139.24C240.434 138.81 239.333 138.126 238.903 138.099Z" fill="#FEF5AD"/>
<path d="M233.438 138.622C233.129 137.28 229.101 140.556 227.503 141.912C227.087 142.261 226.845 142.758 226.805 143.295L226.389 149.969C226.348 150.64 226.644 151.285 227.181 151.687C228.51 152.681 231.008 154.534 231.921 155.125C233.196 155.971 233.827 140.301 233.438 138.622Z" fill="#FEF5AD"/>
<path d="M225.234 132.459L232.659 133.6C232.659 133.6 232.592 162.362 231.84 162C231.075 161.637 224.871 162.04 224.871 162.04L225.234 132.459Z" fill="#41B7AE"/>
<path d="M217.58 135.413C218.789 134.849 223.488 133.104 225.234 132.459C225.556 132.338 225.892 132.58 225.892 132.929L225.435 161.57C225.435 161.865 225.167 162.08 224.871 162.04L216.868 160.832C216.627 160.791 216.452 160.576 216.452 160.335L217.298 135.843C217.311 135.655 217.406 135.494 217.58 135.413Z" fill="#8CCECF"/>
<path d="M230.336 138.099C228.859 138.018 229.517 138.179 228.027 138.099C227.597 138.072 227.234 138.408 227.208 138.851L226.429 158.052C226.415 158.482 226.738 158.844 227.167 158.858L230.094 159.18C230.524 159.207 230.9 158.871 230.914 158.441L231.827 139.24C231.867 138.81 230.766 138.126 230.336 138.099Z" fill="#FEF5AD"/>
<path d="M224.871 138.622C224.562 137.28 220.534 140.556 218.936 141.912C218.52 142.261 218.278 142.758 218.238 143.295L217.822 149.969C217.781 150.64 218.077 151.285 218.614 151.687C219.943 152.681 222.441 154.534 223.354 155.125C224.63 155.971 225.261 140.301 224.871 138.622Z" fill="#FEEDDB"/>
<path d="M236.178 141.697L246.221 142.557C246.221 142.557 246.369 164.914 245.805 164.645C245.241 164.376 235.909 163.812 235.909 163.812L236.178 141.697Z" fill="#E74A5F"/>
<path d="M230.444 143.913C231.357 143.497 234.862 142.181 236.164 141.697C236.406 141.603 236.661 141.791 236.647 142.046L236.312 163.463C236.312 163.678 236.11 163.853 235.895 163.813L229.92 162.899C229.732 162.873 229.611 162.711 229.611 162.523L230.242 144.208C230.242 144.087 230.323 143.967 230.444 143.913Z" fill="#F0807D"/>
<path d="M244.153 146.155C243.052 146.102 240.662 145.967 239.548 145.914C239.226 145.9 238.957 146.155 238.944 146.478L238.366 160.832C238.353 161.154 238.594 161.422 238.917 161.436L243.401 161.678C243.724 161.691 243.992 161.449 244.019 161.127L244.704 146.773C244.717 146.437 244.462 146.169 244.153 146.155Z" fill="#FEF5AD"/>
<path d="M229.934 152.923C229.934 152.923 230.471 146.854 232.471 147.901C234.459 148.935 235.425 147.605 235.895 148.411C236.365 149.217 235.264 151.15 235.56 153.796C235.855 156.441 236.567 160.872 234.405 160.335C232.23 159.798 233.398 155.393 231.907 156.119C230.417 156.83 230.054 154.48 229.934 152.923Z" fill="#FEF5AD"/>
<path d="M249.121 135.642L263.288 136.85C263.288 136.85 263.502 168.392 262.697 168.016C261.891 167.64 248.732 166.834 248.732 166.834L249.121 135.642Z" fill="#E74A5F"/>
<path d="M241.052 138.757C242.327 138.166 247.282 136.326 249.135 135.642C249.471 135.521 249.833 135.776 249.82 136.125L249.336 166.337C249.336 166.646 249.054 166.888 248.746 166.834L240.313 165.558C240.058 165.518 239.87 165.29 239.883 165.035L240.77 139.2C240.756 139.012 240.877 138.837 241.052 138.757Z" fill="#F0807D"/>
<path d="M260.374 141.926C258.816 141.845 255.446 141.671 253.875 141.59C253.418 141.563 253.029 141.926 253.016 142.382L252.196 162.631C252.183 163.088 252.519 163.464 252.975 163.491L259.313 163.826C259.77 163.853 260.159 163.504 260.172 163.048L261.139 142.799C261.179 142.329 260.83 141.939 260.374 141.926Z" fill="#FEF5AD"/>
<path d="M240.326 151.486C240.326 151.486 241.092 142.933 243.898 144.397C246.705 145.86 248.061 143.98 248.732 145.108C249.39 146.236 247.846 148.962 248.262 152.695C248.678 156.428 249.685 162.685 246.624 161.92C243.562 161.168 245.201 154.951 243.106 155.958C241.011 156.978 240.488 153.662 240.326 151.486Z" fill="#FEF5AD"/>
<path d="M281.643 122.926C281.643 122.402 281.213 121.972 280.69 121.999L263.113 122.55C262.616 122.563 262.213 122.979 262.213 123.476V146.102C262.213 146.612 262.616 147.015 263.126 147.028C266.993 147.095 281.858 147.324 281.656 147.015C281.455 146.692 281.603 126.779 281.643 122.926Z" fill="#D48D22"/>
<path d="M262.213 141.657H281.562C281.549 137.347 281.589 131.358 281.616 127.182H262.227V141.657H262.213Z" fill="#FEF5AD"/>
<path d="M281.603 127.196H262.213V129.143H272.311C273.519 129.143 274.499 130.123 274.499 131.331V136.192C274.499 137.401 273.519 138.381 272.311 138.381H262.213V141.671H281.562C281.549 137.36 281.576 131.372 281.603 127.196Z" fill="#739540"/>
<path d="M281.643 148.102C281.643 147.579 281.213 147.149 280.69 147.176L263.113 147.726C262.616 147.74 262.213 148.156 262.213 148.653V171.278C262.213 171.789 262.616 172.191 263.126 172.205C266.993 172.272 281.858 172.5 281.656 172.191C281.455 171.869 281.603 151.956 281.643 148.102Z" fill="#D48D22"/>
<path d="M262.213 166.834H281.562C281.549 162.523 281.589 156.535 281.616 152.359H262.227V166.834H262.213Z" fill="#FEF5AD"/>
<path d="M281.603 152.372H262.213V154.319H272.311C273.519 154.319 274.499 155.3 274.499 156.508V161.369C274.499 162.577 273.519 163.557 272.311 163.557H262.213V166.847H281.562C281.549 162.537 281.576 156.548 281.603 152.372Z" fill="#739540"/>
<path d="M300.509 119.058C300.509 118.468 300.025 117.998 299.448 118.024L279.857 118.642C279.293 118.655 278.85 119.112 278.85 119.676V144.906C278.85 145.47 279.293 145.927 279.857 145.94C284.167 146.021 300.737 146.276 300.522 145.927C300.294 145.551 300.455 123.342 300.509 119.058Z" fill="#D48D22"/>
<path d="M278.837 139.938H300.401C300.388 135.145 300.428 128.458 300.455 123.799H278.837V139.938Z" fill="#FEF5AD"/>
<path d="M300.468 123.812H278.85V125.987H290.102C291.445 125.987 292.546 127.075 292.546 128.431V133.856C292.546 135.199 291.459 136.3 290.102 136.3H278.85V139.965H300.415C300.401 135.145 300.428 128.471 300.468 123.812Z" fill="#739540"/>
<path d="M300.509 147.122C300.509 146.531 300.025 146.061 299.448 146.088L279.857 146.706C279.293 146.719 278.85 147.176 278.85 147.74V172.97C278.85 173.534 279.293 173.991 279.857 174.004C284.167 174.085 300.737 174.34 300.522 173.991C300.294 173.628 300.455 151.419 300.509 147.122Z" fill="#D48D22"/>
<path d="M278.837 168.015H300.401C300.388 163.222 300.428 156.535 300.455 151.875H278.837V168.015Z" fill="#FEF5AD"/>
<path d="M300.468 151.875H278.85V154.051H290.102C291.445 154.051 292.546 155.138 292.546 156.494V161.919C292.546 163.262 291.459 164.363 290.102 164.363H278.85V168.029H300.415C300.401 163.208 300.428 156.535 300.468 151.875Z" fill="#739540"/>
<path d="M323.282 119.058C323.282 118.468 322.798 117.998 322.221 118.024L302.63 118.642C302.066 118.655 301.623 119.112 301.623 119.676V144.906C301.623 145.47 302.066 145.927 302.63 145.94C306.94 146.021 323.51 146.276 323.295 145.927C323.08 145.551 323.242 123.342 323.282 119.058Z" fill="#D48D22"/>
<path d="M301.623 139.938H323.188C323.174 135.145 323.215 128.458 323.242 123.799H301.623V139.938Z" fill="#FEF5AD"/>
<path d="M323.242 123.812H301.623V125.987H312.875C314.218 125.987 315.319 127.075 315.319 128.431V133.856C315.319 135.199 314.232 136.3 312.875 136.3H301.623V139.965H323.188C323.174 135.145 323.215 128.471 323.242 123.812Z" fill="#8DC043"/>
<path d="M323.282 147.122C323.282 146.531 322.798 146.061 322.221 146.088L302.63 146.706C302.066 146.719 301.623 147.176 301.623 147.74V172.97C301.623 173.534 302.066 173.991 302.63 174.004C306.94 174.085 323.51 174.34 323.295 173.991C323.08 173.628 323.242 151.419 323.282 147.122Z" fill="#D48D22"/>
<path d="M301.623 168.015H323.188C323.174 163.222 323.215 156.535 323.242 151.875H301.623V168.015Z" fill="#FEF5AD"/>
<path d="M323.242 151.875H301.623V154.051H312.875C314.218 154.051 315.319 155.138 315.319 156.494V161.919C315.319 163.262 314.232 164.363 312.875 164.363H301.623V168.029H323.188C323.174 163.208 323.215 156.535 323.242 151.875Z" fill="#8DC043"/>
<path d="M346.579 94.3249L305.464 95.1037C305.02 95.1171 304.685 95.52 304.765 95.9631C305.652 100.716 310.15 124.027 312.419 124.188C314.943 124.362 339.543 125.087 340.617 124.188C341.584 123.382 346.31 100.058 347.29 95.1977C347.398 94.7277 347.049 94.3115 346.579 94.3249Z" fill="#D14332"/>
<path d="M325.927 104.1H306.39C307.129 107.645 308.028 111.687 308.928 115.218H325.927C328.25 115.218 330.13 113.338 330.13 111.015V108.303C330.13 105.993 328.25 104.1 325.927 104.1Z" fill="#D48D22"/>
<path d="M346.579 122.133L305.464 122.912C305.02 122.926 304.685 123.328 304.765 123.772C305.652 128.525 310.15 151.835 312.419 151.996C314.943 152.171 339.543 152.896 340.617 151.996C341.584 151.191 346.31 127.867 347.29 123.006C347.398 122.55 347.049 122.12 346.579 122.133Z" fill="#D14332"/>
<path d="M325.927 131.922H306.39C307.129 135.467 308.028 139.509 308.928 143.04H325.927C328.25 143.04 330.13 141.16 330.13 138.837V136.125C330.13 133.802 328.25 131.922 325.927 131.922Z" fill="#D48D22"/>
<path d="M346.579 150.331L305.464 151.11C305.02 151.124 304.685 151.526 304.765 151.969C305.652 156.723 310.15 180.033 312.419 180.194C314.943 180.369 339.543 181.094 340.617 180.194C341.584 179.389 346.31 156.065 347.29 151.204C347.398 150.748 347.049 150.331 346.579 150.331Z" fill="#D14332"/>
<path d="M325.927 160.12H306.39C307.129 163.665 308.028 167.706 308.928 171.238H325.927C328.25 171.238 330.13 169.358 330.13 167.035V164.323C330.13 162 328.25 160.12 325.927 160.12Z" fill="#D48D22"/>
<path d="M384.82 116.319C384.552 117.394 384.31 118.347 384.095 119.112C383.719 120.401 383.424 121.234 383.249 121.382C381.987 122.429 353.346 121.596 350.406 121.382C350.016 121.355 349.586 120.764 349.13 119.77C348.271 117.931 347.29 114.695 346.337 110.948C346.001 109.659 345.679 108.303 345.343 106.933C345.263 106.598 345.182 106.262 345.102 105.926C345.075 105.792 345.035 105.658 345.008 105.51C344.994 105.443 344.981 105.362 344.954 105.295C344.833 104.745 344.699 104.194 344.578 103.644C344.35 102.61 344.121 101.589 343.907 100.569C343.853 100.341 343.813 100.099 343.759 99.884C343.665 99.4275 343.571 98.9709 343.477 98.5278C343.437 98.3533 343.396 98.1653 343.369 97.9907C343.101 96.7151 342.859 95.4932 342.631 94.3787C342.107 91.7603 341.704 89.6522 341.476 88.484C341.382 87.9738 341.772 87.4904 342.295 87.4904L356.958 87.2084L363.753 94.3116L367.459 98.1787L367.472 98.1921L370.883 101.75L384.82 116.319Z" fill="#D14332"/>
<path d="M371.003 102.905V106.061C371.003 108.76 368.815 110.948 366.102 110.948H346.31C345.974 109.659 345.652 108.303 345.316 106.933C345.236 106.598 345.169 106.262 345.088 105.913V105.899C345.048 105.765 345.021 105.644 344.994 105.523C344.981 105.456 344.967 105.376 344.941 105.309C344.82 104.758 344.685 104.208 344.565 103.657C344.336 102.623 344.108 101.603 343.893 100.582C343.839 100.354 343.799 100.112 343.745 99.8973C343.651 99.4408 343.557 98.9842 343.463 98.5411C343.423 98.3666 343.383 98.1786 343.356 98.004H366.102C366.572 98.004 367.015 98.0712 367.445 98.192L367.459 98.2054L370.869 101.764C370.963 102.14 371.003 102.516 371.003 102.905Z" fill="#D48D22"/>
<path d="M390.554 122.308C389.09 129.519 385.599 146.397 383.948 151.97C383.639 153.003 383.397 153.635 383.236 153.769C381.974 154.83 353.333 153.984 350.392 153.769C350.07 153.742 349.721 153.339 349.345 152.614C348.432 150.895 347.371 147.418 346.324 143.349C345.988 142.06 345.666 140.704 345.33 139.334C345.222 138.864 345.102 138.394 345.008 137.924C344.873 137.32 344.739 136.716 344.591 136.125V136.112C344.309 134.823 344.027 133.534 343.759 132.285C343.665 131.828 343.558 131.372 343.477 130.929C343.437 130.754 343.396 130.566 343.37 130.391C342.671 127.061 342.107 124.134 341.731 122.214C341.678 121.932 341.624 121.664 341.584 121.422V121.408C341.543 121.207 341.503 121.046 341.476 120.885C341.409 120.482 341.611 120.119 341.96 119.972C342.054 119.918 342.174 119.891 342.295 119.891L349.116 119.77L384.095 119.112L387.452 119.045L390.554 122.308Z" fill="#D14332"/>
<path d="M366.116 130.405H343.37C344.229 134.527 345.276 139.24 346.324 143.349H366.116C368.815 143.349 371.017 141.16 371.017 138.448V135.292C371.004 132.593 368.815 130.405 366.116 130.405Z" fill="#D48D22"/>
<path d="M390.165 151.849L342.282 152.748C341.758 152.762 341.369 153.232 341.463 153.742C342.497 159.274 347.733 186.425 350.379 186.612C353.333 186.827 381.96 187.66 383.222 186.612C384.35 185.673 389.856 158.509 390.997 152.856C391.118 152.332 390.702 151.835 390.165 151.849Z" fill="#D14332"/>
<path d="M366.116 163.249H343.37C344.229 167.371 345.276 172.084 346.324 176.193H366.116C368.815 176.193 371.017 174.004 371.017 171.292V168.136C371.004 165.437 368.815 163.249 366.116 163.249Z" fill="#D48D22"/>
<path d="M234.512 86.1342C234.512 86.1342 232.109 87.2084 228.376 88.8063C227.973 88.9809 227.543 89.1554 227.114 89.3434C226.912 89.424 226.711 89.5045 226.509 89.5985C226.066 89.7865 225.61 89.9745 225.126 90.1893C221.501 91.7335 217.164 93.5328 212.733 95.2784C212.155 95.5067 211.578 95.7349 211.001 95.9632C203.132 99.0515 195.25 101.871 190.873 102.677C182.333 104.248 165.347 99.2664 158.378 97.0374C156.444 96.4197 155.276 96.0035 155.276 96.0035C155.276 96.0035 155.075 96.5674 154.753 97.5611C153.262 102.14 149.086 115.89 149.301 126.135C149.408 131.842 150.402 141.201 151.436 149.66C151.731 152.023 152.027 154.319 152.295 156.441C152.389 157.085 152.47 157.717 152.55 158.334C153.343 164.269 153.974 168.485 153.974 168.485C153.168 168.902 152.362 169.291 151.557 169.667C146.763 171.896 141.876 173.467 137.028 174.514C136.988 174.528 136.948 174.541 136.907 174.541C132.745 175.441 128.623 175.965 124.635 176.206C121.654 176.394 118.726 176.421 115.934 176.327C112.268 176.22 108.803 175.897 105.621 175.468C105.621 175.468 105.608 175.454 105.608 175.468C104.735 175.36 103.876 175.226 103.043 175.105C99.3773 174.528 96.1816 173.843 93.59 173.185H93.5766C93.2544 173.105 92.9455 173.024 92.6501 172.943H92.6367C91.2805 172.594 90.1257 172.259 89.1858 171.977C87.4134 171.44 86.4332 171.077 86.4332 171.077L86.5809 170.325L87.4536 166.028L92.5695 140.811V140.798L95.7653 125.101C95.7653 125.101 95.7653 125.101 86.93 122.241C86.2989 122.04 85.7215 121.61 85.171 120.992C83.5731 119.153 82.378 115.621 81.5187 111.015C78.5915 95.3187 79.6791 67.2148 83.0226 52.1088C83.2508 51.0748 83.5059 50.0946 83.7745 49.1547C85.7349 42.2664 88.689 37.7144 91.6162 34.7066L101.378 44.7505C101.378 44.5893 101.365 44.4282 101.365 44.2805C101.365 42.8572 101.459 41.4473 101.66 40.0374C101.969 37.7681 102.546 35.5257 103.379 33.3639C107.138 39.366 114.564 47.4628 121.64 53.3307C128.757 59.2522 135.524 62.9045 137.82 59.9236C140.721 56.1639 138.774 49.8127 136.478 44.925C136.075 44.0657 135.659 43.26 135.256 42.5081C133.967 40.0777 132.812 38.3724 132.651 38.1307C132.637 38.1173 132.637 38.1172 132.637 38.1038C132.785 38.171 135.041 39.2854 138.089 41.125C141.191 43.0049 145.125 45.6501 148.482 48.7519C155.236 54.9823 176.008 80.4409 183.541 80.4409C187.986 80.4409 203.454 78.4537 215.391 76.8289C217.929 76.4798 220.306 76.1441 222.387 75.8487C223.931 75.6339 225.314 75.4324 226.469 75.2713C227.194 75.1639 227.852 75.0699 228.389 75.0028C229.598 74.8282 230.296 74.7208 230.296 74.7208L230.39 74.9893L233.787 84.3484L234.512 86.1342Z" fill="#ED6960"/>
<path d="M156.592 89.8668C156.552 89.8668 156.512 89.8668 156.458 89.8534C156.162 89.7863 155.988 89.4909 156.068 89.1955C159.009 77.3926 153.826 58.6075 153.772 58.4195C153.692 58.1375 153.853 57.8287 154.148 57.7481C154.444 57.6675 154.739 57.8421 154.82 58.1241C155.035 58.9029 160.15 77.3658 157.129 89.4506C157.062 89.7057 156.834 89.8668 156.592 89.8668Z" fill="#C25B57"/>
<path d="M151.772 165.625C151.731 166.646 151.664 168.002 151.557 169.667C150.926 179.805 149.194 200.792 147.609 219.349C145.998 238.121 144.548 254.408 144.548 254.408C144.548 254.408 145.206 273.932 144.548 278.981C144.427 279.907 144.105 283.815 143.661 289.602C142.654 290.998 141.513 292.328 140.224 293.563C132.731 300.841 122.473 303.499 112.953 301.579C111.664 301.324 110.374 300.975 109.112 300.545C105.42 299.283 101.929 297.296 98.8536 294.583C100.156 284.486 101.405 274.818 102.479 266.48L103.164 261.122C103.285 260.169 103.406 259.242 103.513 258.343C103.634 257.389 103.755 256.463 103.862 255.563L104.09 253.817C104.198 252.958 104.305 252.139 104.399 251.347L104.601 249.803C103.352 243.223 102.063 236.469 100.76 229.795C100.545 228.708 100.331 227.62 100.129 226.546C96.2755 206.834 92.5024 188.224 90.2734 177.227C90.0317 176.058 89.8169 174.984 89.6155 173.991C89.5886 173.856 89.5618 173.722 89.5349 173.588C89.414 173.01 89.3066 172.473 89.1992 171.976C89.0515 171.238 88.9172 170.567 88.783 169.989C88.3936 168.109 88.1787 167.075 88.1787 167.075L101.929 164.914L104.131 164.712L136.008 161.771L141.312 161.288L143.218 161.114C143.218 161.114 143.917 160.415 144.91 159.704C145.904 158.992 147.179 158.267 148.374 158.173H148.388C149.194 158.119 149.945 158.347 150.55 159.099C151.396 160.106 151.906 162.107 151.772 165.625Z" fill="#3C4F6E"/>
<path d="M56.0734 235.221C56.6105 235.046 81.9215 229.984 81.9215 229.984L58.7052 162.725L30.0374 171.359L56.0734 235.221Z" fill="#88C7D0"/>
<path d="M58.7186 162.712L74.3349 160.912L89.4812 226.546L81.9215 229.97L58.7186 162.712Z" fill="#B5DFE4"/>
<path d="M58.7186 162.712L57.9667 155.81L34.3745 162.712L30.0374 171.345L58.7186 162.712Z" fill="#B5DFE4"/>
<path d="M74.3349 160.912L57.9667 155.81L58.7186 162.712L74.3349 160.912Z" fill="#88C7D0"/>
<path d="M57.9667 155.81L34.3745 162.712L33.6494 158.093C33.4211 156.669 34.1059 155.286 35.3278 154.588C38.6445 154.642 41.9342 155.246 45.1031 156.374L41.2225 152.386L52.3137 148.344C54.2607 147.632 56.3957 148.801 56.8388 150.828L57.9667 155.81Z" fill="#88C7D0"/>
<path d="M95.1207 176.367C95.1207 176.367 103.983 181.161 107.501 191.097C111.032 201.047 112.295 219.483 107.501 222.921C102.707 226.358 90.7299 230.507 86.1511 226.533C81.5589 222.558 73.6635 198.818 76.7249 188.211C79.867 177.361 95.1207 176.367 95.1207 176.367Z" fill="#F9AF3C"/>
<path d="M138.21 213.293L133.859 179.805C133.631 178.019 131.832 176.878 130.113 177.441L105.071 185.592C103.835 185.995 103.03 187.163 103.083 188.452L104.386 219.376C104.466 221.135 106.091 222.424 107.823 222.075L135.914 216.475C137.404 216.193 138.411 214.797 138.21 213.293Z" fill="#A1D1B2"/>
<path d="M107.514 193.192C107.514 193.192 118.498 187.902 122.701 191.567C126.904 195.233 127.857 188.922 130.704 191.742C133.55 194.562 138.841 204.861 133.282 206.62C127.723 208.379 126.501 204.042 121.761 207.842C117.021 211.642 117.961 217.738 112.536 212.447C107.098 207.157 101.808 198.469 107.514 193.192Z" fill="#F5F4F2"/>
<path d="M79.867 171.345C79.1688 171.225 64.8013 159.261 64.8013 159.261L79.867 165.303L69.8097 149.391L80.5921 157.528L78.2154 143.832L86.809 155.823L92.462 138.139L93.6839 159.261L103.54 147.068L98.9207 163.571L107.514 155.81L102.989 167.827L79.867 171.345Z" fill="#5E9D9F"/>
<path d="M99.6458 102.677C99.6458 102.677 102.358 103.751 102.224 104.154C102.09 104.557 85.4126 113.781 85.4126 113.781L84.043 166.753L76.7384 168.311C76.7384 168.311 77.1815 114.601 79.8804 112.157C82.566 109.713 99.6458 102.677 99.6458 102.677Z" fill="#1B6476"/>
<path d="M110.361 121.099V161.14L102.989 162.711L104.386 123.006L110.361 121.099Z" fill="#1B6476"/>
<path d="M135.43 163.947L29.3794 186.223L55.1603 238.376L144.239 221.564L135.43 163.947ZM60.7327 231.031C58.8797 231.595 56.9059 230.668 56.1539 228.882C52.8911 221.108 44.4451 201.007 40.9002 192.977C40.0543 191.07 40.9137 188.855 42.807 188.009L43.814 187.552C45.7879 186.666 48.0974 187.606 48.8896 189.62L63.1631 226.036C63.9554 228.09 62.8409 230.4 60.7327 231.031ZM79.9744 227.231C78.1214 227.795 76.1476 226.868 75.3956 225.082C72.1327 217.308 63.6868 197.207 60.1419 189.177C59.296 187.27 60.1554 185.055 62.0486 184.209L63.0557 183.752C65.0296 182.866 67.3391 183.806 68.1313 185.82L82.4048 222.236C83.2105 224.29 82.096 226.6 79.9744 227.231ZM94.1808 223.995C92.3278 224.559 90.354 223.632 89.602 221.846C86.3391 214.072 80.7667 193.689 77.2218 185.659C76.3759 183.752 77.2352 181.537 79.1285 180.691L80.1356 180.234C82.1094 179.348 84.419 180.288 85.2112 182.302L96.6112 219C97.4168 221.054 96.2889 223.364 94.1808 223.995ZM110.334 221.148C108.199 221.699 106.037 220.302 105.675 218.127L99.055 179.576C98.6925 177.441 100.183 175.441 102.331 175.186L103.432 175.051C105.5 174.796 107.367 176.26 107.635 178.314C108.763 187.029 111.919 208.593 113.154 216.932C113.422 218.866 112.214 220.678 110.334 221.148ZM127.159 217.469C125.024 218.02 122.862 216.623 122.5 214.448L115.88 175.897C115.517 173.762 117.008 171.762 119.156 171.507L120.257 171.372C122.325 171.117 124.191 172.581 124.46 174.635C125.588 183.35 128.743 204.914 129.979 213.253C130.247 215.173 129.039 216.986 127.159 217.469Z" fill="#DB572F"/>
<path d="M159.842 153.111L162.285 209.923L144.118 221.578L135.309 163.947L159.842 153.111Z" fill="#B2311C"/>
<path d="M161.547 146.652C161.507 146.236 161.09 145.981 160.701 146.129L135.296 155.81L136.384 164.484L161.842 154.776C162.097 154.682 162.272 154.413 162.245 154.131L161.547 146.652Z" fill="#C63B24"/>
<path d="M135.309 155.81C135.296 155.81 36.5363 176.878 25.754 179.201C25.2035 179.321 24.8007 179.805 24.8007 180.369V185.659C24.8007 186.425 25.4989 186.988 26.2374 186.841L136.384 164.484L135.309 155.81Z" fill="#EC673A"/>
<path d="M130.959 94.8888L135.296 106.41C135.296 106.41 148.724 97.3192 153.061 97.6012C157.398 97.8698 168.65 94.6203 170.14 93.2641C171.631 91.9079 171.497 78.2118 171.497 78.2118L165.535 75.9023C165.535 75.9023 167.428 70.7461 165.535 70.6118C163.642 70.4775 161.332 73.4585 159.022 74.8146C156.713 76.1708 149.395 78.4804 147.77 81.1927C146.145 83.9051 145.743 88.3765 145.743 88.3765L130.959 94.8888Z" fill="#FAD2B1"/>
<path d="M201.091 158.146L396.314 195.434C396.314 195.434 397.402 239.745 396.314 238.376C395.227 237.006 201.091 163.571 201.091 163.571V158.146Z" fill="#88C7D0"/>
<path d="M321 49.1129L320.745 49.2745L318.022 50.9441L298.265 63.0756L297.876 63.318L280.238 74.1435L275.517 77.0518L259.06 87.1637L244.44 96.1445L229.095 105.583L227.177 106.755L216.514 113.312L214.502 114.55L204 121V113.244L211.806 108.276L214.61 106.485L225.662 99.4568L227.231 98.4604L227.446 98.3257L230.021 96.6831L242.696 88.6178L244.681 87.3521L257.329 79.3004L259.435 77.9539L266.745 73.3087L275.624 67.6536L275.745 67.5728L277.475 66.4687L282.21 63.4526L286.905 60.4635L297.112 53.9736L298.641 53.0041L302.933 50.2708L314.361 43C315.179 43.579 315.984 44.2118 316.748 44.885C317.392 45.4371 318.009 46.043 318.613 46.6624L320.732 48.8705V48.884L320.852 49.0052L320.866 49.0186L321 49.1129Z" fill="#88C7D0"/>
<path d="M322.543 48.2952L321.993 48.6309C322.006 48.604 322.006 48.5906 322.02 48.5637L322.543 48.2952Z" fill="#88C7D0"/>
<path d="M286.155 282.996C285.591 283.452 285.013 283.868 284.423 284.271C281.992 285.95 279.36 287.225 276.621 288.098C237.453 248.42 203.857 214.502 203.857 214.502V201.168L221.89 219.107L230.202 227.379L240.501 237.624L242.233 239.343L242.247 239.356H242.26L242.273 239.369L253.902 250.931L254.439 251.468L261.408 258.396L275.117 272.025L280.233 277.114L286.155 282.996Z" fill="#88C7D0"/>
<path d="M239.118 34.9348L237.399 36.4521L226.093 46.5765L203.602 66.7178L205.468 57.8959L206.247 57.1708L226.187 38.3722L226.818 37.7814L232.216 32.6924L234.687 30.3694L238.836 34.6528L239.118 34.9348Z" fill="#88C7D0"/>
<path d="M304.712 38.8422C304.175 39.151 303.611 39.3255 303.033 39.3255C302.04 39.3255 301.1 38.8287 300.267 37.9559C301.758 38.1305 303.248 38.4393 304.712 38.8422Z" fill="#C4D67B"/>
<path d="M112.966 301.552C111.677 301.297 110.388 300.948 109.126 300.518C107.42 287.762 105.191 274.778 102.492 266.453L103.177 261.095L103.526 258.316L103.875 255.536L104.104 253.79L104.413 251.32L104.614 249.776C104.614 249.789 110.697 271.945 112.966 301.552Z" fill="#322D69"/>
<path d="M130.959 94.8889L98.988 106.155C98.988 106.155 98.9342 77.4868 100.062 73.2302C100.076 73.2168 97.7392 103.738 130.959 94.8889Z" fill="#C25B57"/>
<path d="M104.386 123.006L110.361 121.099V124.752L104.386 126.282V123.006Z" fill="#134956"/>
<path d="M438.114 171.95V287.561C426.016 297.229 408.292 296.316 397.268 284.97L396.65 284.338L396.596 237.114V237.073L396.57 208.835V208.741L396.543 180.919V180.852L396.529 166.834L396.489 128.538L438.114 171.95Z" fill="#707171"/>
</svg>
