<svg width="150" height="163" viewBox="0 0 150 163" fill="none" xmlns="http://www.w3.org/2000/svg">
<g id="Picture/2">
<circle id="Background" cx="75" cy="88" r="75" fill="#FAEFD2"/>
<g id="Group 16">
<g id="Hand">
<path d="M109.428 127.034C109.428 127.034 113.805 122.176 115.886 118.58C122.784 106.658 122.088 78.2323 122.088 78.2323L122.088 48.3136C120.442 46.008 116.238 42.7802 112.591 48.3136C108.944 53.847 107.019 62.4037 106.512 65.9903L57.0021 101.288L51.6836 120.886C57.1541 132.26 66.1196 137.409 69.9186 138.562L72.9577 145.863L109.428 132.414V127.034Z" fill="#FBCEAE"/>
<path d="M35.4739 27.8808C36.9375 32.883 42.0167 36.3302 44.7016 38.6358V18.654C35.4739 19.3131 34.1557 23.3754 35.4739 27.8808Z" fill="#FBCEAE"/>
</g>
<g id="Phone">
<path id="Vector" d="M52.9312 0.8573H100.058C102.898 0.861486 105.62 2.25168 107.628 4.72294C109.636 7.1942 110.765 10.5447 110.769 14.0396V108.952C110.765 112.447 109.636 115.798 107.628 118.269C105.62 120.74 102.898 122.131 100.058 122.135C100.058 122.135 66.945 122.074 50.8983 122.027C48.6343 122.016 46.4659 120.902 44.8669 118.93C43.2678 116.957 42.368 114.286 42.3641 111.499L42.2205 14.0396C42.2234 10.5445 43.3527 7.19358 45.3607 4.72217C47.3688 2.25076 50.0914 0.86079 52.9312 0.8573Z" fill="#C5C5C5"/>
<path id="Vector_2" d="M48.3409 103.68H104.648C105.223 103.68 105.774 103.402 106.18 102.907C106.586 102.413 106.814 101.742 106.814 101.043V16.6761C106.814 15.9769 106.586 15.3063 106.18 14.8118C105.774 14.3174 105.223 14.0396 104.648 14.0396H48.3409C47.7665 14.0396 47.2157 14.3174 46.8095 14.8118C46.4034 15.3063 46.1752 15.9769 46.1752 16.6761V101.043C46.1752 101.742 46.4034 102.413 46.8095 102.907C47.2157 103.402 47.7665 103.68 48.3409 103.68Z" fill="white"/>
<circle id="Ellipse 1" r="5.27293" transform="matrix(-1 0 0 1 76.4946 112.907)" fill="#ECECEC"/>
</g>
<g id="Fingers">
<path d="M39.9068 78.2325C38.2606 77.8482 34.4363 78.5399 32.3088 84.3807C30.4658 89.4407 37.1991 98.1922 43.7825 107.821C52.9768 112.432 57.0021 105.131 57.0021 101.288C57.0021 99.0145 50.7667 90.9942 45.2141 84.3807C50.0043 83.6122 58.0043 80.3075 51.6835 73.237C45.3627 66.1666 39.4286 62.1552 39.4286 62.1552C39.4286 62.1552 23.4953 61.0174 39.9068 78.2325Z" fill="#FBCEAE"/>
<path d="M34.2083 53.7012C34.8148 56.6131 38.3965 59.0438 42.0651 60.8371C50.8697 62.6814 50.1943 53.915 49.3154 51.6094C47.4159 46.1017 44.24 43.1294 38.7695 44.359C31.9314 45.8961 33.5815 50.6917 34.2083 53.7012Z" fill="#FBCEAE"/>
</g>
<path id="Sleeve" fill-rule="evenodd" clip-rule="evenodd" d="M121.188 146.857L114.845 130.044L90.9782 138.875L67.1114 147.706L73.1923 162.985C73.6928 162.995 74.1946 163 74.6974 163C92.2572 163 108.408 156.965 121.188 146.857Z" fill="#FFFBF3"/>
</g>
<path id="Fingers_2" d="M39.4402 62.2227C39.4402 62.2227 45.3743 66.2341 51.6951 73.3045C54.5247 76.4697 54.4843 78.8803 53.1468 80.6464C52.1165 76.4772 43.5797 66.6267 39.4402 62.2227Z" fill="#F5A585"/>
<path id="Fingers_3" d="M45.2141 84.3807C43.2599 82.0531 41.3902 79.8997 39.9068 78.2325C43.0231 83.622 50.8051 95.7786 57.0021 101.288C57.0021 99.0145 50.7667 90.9942 45.2141 84.3807Z" fill="#F5A585"/>
<path id="Hand_2" d="M122.088 77.8321L122.088 47.9135C121.968 70.4669 118.506 104.458 115.886 118.18C122.784 106.258 122.088 77.8321 122.088 77.8321Z" fill="#F5A585"/>
<g id="a-chat 1">
<g id="Group">
<path id="Vector_3" d="M93.625 41.6875H61.375C60.1875 41.6889 59.0491 42.1613 58.2094 43.001C57.3697 43.8407 56.8973 44.9792 56.8959 46.1667V64.9792C56.8973 66.1667 57.3697 67.3051 58.2094 68.1448C59.0491 68.9845 60.1875 69.4569 61.375 69.4583H65.8542V78.4167C65.8542 78.5847 65.9016 78.7494 65.9907 78.8919C66.0799 79.0344 66.2074 79.1488 66.3586 79.2223C66.5098 79.2957 66.6786 79.3252 66.8457 79.3072C67.0128 79.2893 67.1715 79.2247 67.3037 79.1208L79.6017 69.4583H93.625C94.8126 69.4569 95.951 68.9845 96.7907 68.1448C97.6304 67.3051 98.1028 66.1667 98.1042 64.9792V46.1667C98.1028 44.9792 97.6304 43.8407 96.7907 43.001C95.951 42.1613 94.8126 41.6889 93.625 41.6875Z" fill="#64CCE3"/>
</g>
</g>
<path id="Fingers_4" d="M49.5304 51.6094C47.6309 46.1016 44.455 43.1294 38.9845 44.359C46.4238 44.359 49.1148 53.3173 49.5304 57.7964C50.3604 55.5441 49.971 52.7651 49.5304 51.6094Z" fill="#F5A585"/>
</g>
</svg>
