<svg width="1067" height="326" viewBox="0 0 1067 326" fill="none" xmlns="http://www.w3.org/2000/svg">
<g id="Group 17">
<g id="HIW Card">
<g id="Zaregistrujete se jako dobrovoln&#195;&#173;k">
<text fill="#50350D" xml:space="preserve" style="white-space: pre" font-family="Source Sans Pro" font-size="20" letter-spacing="0em"><tspan x="74.4531" y="297.11">jako dobrovoln&#xed;k</tspan></text>
<text fill="#50350D" xml:space="preserve" style="white-space: pre" font-family="Source Sans Pro" font-size="20" letter-spacing="0em"><tspan x="75.7812" y="265.11">Zaregistrujete se&#10;</tspan></text>
</g>
<g id="Picture/1">
<circle id="Background" cx="145" cy="135" r="75" fill="#FAEFD2"/>
<g id="Notebook Illustration">
<g id="Group 177">
<path id="Vector" d="M205.611 148.397V67.0718C205.611 63.1664 202.444 60 198.539 60H92.4621C88.5567 60 85.3903 63.1664 85.3903 67.0718V148.397H205.611Z" fill="#C2C2C2"/>
<path id="Intersect" fill-rule="evenodd" clip-rule="evenodd" d="M87.3097 182.928C82.0833 176.644 77.8641 169.493 74.9001 161.722L85.3897 148.396H205.61L215.422 160.861C212.445 168.965 208.109 176.413 202.69 182.928H87.3097Z" fill="#E2E2E2"/>
<path id="Vector_2" d="M200.075 65.8091H90.9263C89.8218 65.8091 88.9263 66.7045 88.9263 67.8091V140.588C88.9263 141.693 89.8218 142.588 90.9263 142.588H200.075C201.179 142.588 202.075 141.693 202.075 140.588V67.8091C202.075 66.7045 201.179 65.8091 200.075 65.8091Z" fill="#ECECEC"/>
<path id="Vector_3" d="M202.075 164.118H88.9259L95.9977 152.889H195.003L202.075 164.118Z" fill="#C2C2C2"/>
<path id="Vector_4" d="M163.18 173.101H127.821L129.736 168.609H161.265L163.18 173.101Z" fill="#C2C2C2"/>
</g>
</g>
<g id="Group 18">
<path id="Vector_5" d="M184.204 139.793H106.92C106.131 139.793 105.375 139.579 104.818 139.198C104.26 138.817 103.947 138.301 103.947 137.762V72.7449C103.947 72.2061 104.26 71.6893 104.818 71.3082C105.375 70.9272 106.131 70.7131 106.92 70.7131H184.204C184.992 70.7131 185.749 70.9272 186.306 71.3082C186.863 71.6893 187.177 72.2061 187.177 72.7449V137.762C187.177 138.301 186.863 138.817 186.306 139.198C185.749 139.579 184.992 139.793 184.204 139.793Z" fill="white"/>
<rect id="Rectangle 17" x="120.231" y="82.8631" width="50.6614" height="6.09532" fill="#ECECEC"/>
<rect id="Rectangle 18" x="120.231" y="93.5756" width="50.6614" height="6.09532" fill="#ECECEC"/>
<rect id="Rectangle 19" x="120.231" y="104.288" width="50.6614" height="6.09532" fill="#ECECEC"/>
<rect id="Rectangle 20" x="120.231" y="118.934" width="50.6614" height="8.7021" rx="4" fill="#64CCE3"/>
<path id="Vector 17" d="M143.711 122.842L145.175 124.306L147.905 121.576" stroke="white" stroke-linecap="round" stroke-linejoin="round"/>
</g>
</g>
</g>
<g id="HIW Card_2">
<text id="Budou v&#195;&#161;s kontaktovat dobro&#196;&#141;inn&#195;&#169; organizace z okol&#195;&#173;" fill="#50350D" xml:space="preserve" style="white-space: pre" font-family="Source Sans Pro" font-size="20" letter-spacing="0em"><tspan x="441.023" y="265.11">Budou v&#xe1;s kontaktovat </tspan><tspan x="412.684" y="297.11">dobro&#x10d;inn&#xe9; organizace z okol&#xed;</tspan></text>
<g id="Picture/2">
<circle id="Background_2" cx="537" cy="135" r="75" fill="#FAEFD2"/>
<g id="Group 16">
<g id="Hand">
<path d="M571.428 174.034C571.428 174.034 575.805 169.176 577.886 165.58C584.784 153.658 584.088 125.232 584.088 125.232L584.088 95.3136C582.442 93.008 578.238 89.7802 574.591 95.3136C570.944 100.847 569.019 109.404 568.512 112.99L519.002 148.288L513.684 167.886C519.154 179.26 528.12 184.409 531.919 185.562L534.958 192.863L571.428 179.414V174.034Z" fill="#FBCEAE"/>
<path d="M497.474 74.8808C498.937 79.883 504.017 83.3302 506.702 85.6358V65.654C497.474 66.3131 496.156 70.3754 497.474 74.8808Z" fill="#FBCEAE"/>
</g>
<g id="Phone">
<path id="Vector_6" d="M514.931 47.8573H562.058C564.898 47.8615 567.62 49.2517 569.628 51.7229C571.636 54.1942 572.765 57.5447 572.769 61.0396V155.952C572.765 159.447 571.636 162.798 569.628 165.269C567.62 167.74 564.898 169.131 562.058 169.135C562.058 169.135 528.945 169.074 512.898 169.027C510.634 169.016 508.466 167.902 506.867 165.93C505.268 163.957 504.368 161.286 504.364 158.499L504.221 61.0396C504.223 57.5445 505.353 54.1936 507.361 51.7222C509.369 49.2508 512.091 47.8608 514.931 47.8573Z" fill="#C5C5C5"/>
<path id="Vector_7" d="M510.341 150.68H566.648C567.223 150.68 567.774 150.402 568.18 149.907C568.586 149.413 568.814 148.742 568.814 148.043V63.6761C568.814 62.9769 568.586 62.3063 568.18 61.8118C567.774 61.3174 567.223 61.0396 566.648 61.0396H510.341C509.767 61.0396 509.216 61.3174 508.81 61.8118C508.403 62.3063 508.175 62.9769 508.175 63.6761V148.043C508.175 148.742 508.403 149.413 508.81 149.907C509.216 150.402 509.767 150.68 510.341 150.68Z" fill="white"/>
<circle id="Ellipse 1" r="5.27293" transform="matrix(-1 0 0 1 538.495 159.907)" fill="#ECECEC"/>
</g>
<g id="Fingers">
<path d="M501.907 125.232C500.261 124.848 496.436 125.54 494.309 131.381C492.466 136.441 499.199 145.192 505.783 154.821C514.977 159.432 519.002 152.131 519.002 148.288C519.002 146.015 512.767 137.994 507.214 131.381C512.004 130.612 520.004 127.308 513.684 120.237C507.363 113.167 501.429 109.155 501.429 109.155C501.429 109.155 485.495 108.017 501.907 125.232Z" fill="#FBCEAE"/>
<path d="M496.208 100.701C496.815 103.613 500.397 106.044 504.065 107.837C512.87 109.681 512.194 100.915 511.315 98.6094C509.416 93.1017 506.24 90.1294 500.77 91.359C493.931 92.8961 495.582 97.6917 496.208 100.701Z" fill="#FBCEAE"/>
</g>
<path id="Sleeve" fill-rule="evenodd" clip-rule="evenodd" d="M583.188 193.857L576.845 177.044L552.978 185.875L529.111 194.706L535.192 209.985C535.693 209.995 536.195 210 536.697 210C554.257 210 570.408 203.965 583.188 193.857Z" fill="#FFFBF3"/>
</g>
<path id="Fingers_2" d="M501.44 109.223C501.44 109.223 507.374 113.234 513.695 120.305C516.525 123.47 516.484 125.88 515.147 127.646C514.116 123.477 505.58 113.627 501.44 109.223Z" fill="#F5A585"/>
<path id="Fingers_3" d="M507.214 131.381C505.26 129.053 503.39 126.9 501.907 125.232C505.023 130.622 512.805 142.779 519.002 148.288C519.002 146.015 512.767 137.994 507.214 131.381Z" fill="#F5A585"/>
<path id="Hand_2" d="M584.088 124.832L584.088 94.9135C583.968 117.467 580.506 151.458 577.886 165.18C584.784 153.258 584.088 124.832 584.088 124.832Z" fill="#F5A585"/>
<g id="a-chat 1">
<g id="Group">
<path id="Vector_8" d="M555.625 88.6875H523.375C522.188 88.6889 521.049 89.1613 520.209 90.001C519.37 90.8407 518.897 91.9792 518.896 93.1667V111.979C518.897 113.167 519.37 114.305 520.209 115.145C521.049 115.985 522.188 116.457 523.375 116.458H527.854V125.417C527.854 125.585 527.902 125.749 527.991 125.892C528.08 126.034 528.207 126.149 528.359 126.222C528.51 126.296 528.679 126.325 528.846 126.307C529.013 126.289 529.172 126.225 529.304 126.121L541.602 116.458H555.625C556.813 116.457 557.951 115.985 558.791 115.145C559.63 114.305 560.103 113.167 560.104 111.979V93.1667C560.103 91.9792 559.63 90.8407 558.791 90.001C557.951 89.1613 556.813 88.6889 555.625 88.6875Z" fill="#64CCE3"/>
</g>
</g>
<path id="Fingers_4" d="M511.53 98.6094C509.631 93.1016 506.455 90.1294 500.985 91.359C508.424 91.359 511.115 100.317 511.53 104.796C512.36 102.544 511.971 99.7651 511.53 98.6094Z" fill="#F5A585"/>
</g>
</g>
<g id="HIW Card_3">
<text id="Spole&#196;&#141;n&#196;&#155; se domluv&#195;&#173;te na konkr&#195;&#169;tn&#195;&#173; pomoci pot&#197;&#153;ebn&#195;&#189;m" fill="#50350D" xml:space="preserve" style="white-space: pre" font-family="Source Sans Pro" font-size="20" letter-spacing="0em"><tspan x="814.773" y="265.11">Spole&#x10d;n&#x11b; se domluv&#xed;te na </tspan><tspan x="799.49" y="297.11">konkr&#xe9;tn&#xed; pomoci pot&#x159;ebn&#xfd;m</tspan></text>
<g id="Picture/3">
<circle id="Background_3" cx="922" cy="135" r="75" fill="#FAEFD2"/>
<g id="Group_2">
<path id="Vector_9" opacity="0.5" d="M900.194 161.854C900.251 161.899 900.299 161.94 900.348 161.98C900.313 162.053 900.281 162.123 900.248 162.193C900.235 162.08 900.219 161.967 900.194 161.854Z" fill="#1D79A1"/>
<path id="Vector_10" d="M949.111 153.328C948.53 154.181 947.583 155.061 946.044 155.15C945.223 155.198 944.236 155.023 943.047 154.496C942.719 154.351 942.372 154.179 942.011 153.977C942.011 153.977 942.014 153.979 942.017 153.985C942.046 154.031 942.191 154.265 942.361 154.636C942.719 155.432 943.176 156.863 942.778 158.461C942.775 158.472 942.773 158.486 942.767 158.496C942.708 158.741 942.622 158.989 942.517 159.242C942.506 159.26 942.501 159.279 942.493 159.298C941.274 162.08 937.521 162.29 936.488 161.951V161.953C936.512 162.007 937.185 163.425 936.109 165.16C935.982 165.364 935.835 165.572 935.654 165.784C933.933 167.821 931.552 167.342 930.831 167.11C930.107 166.884 929.289 166.239 929.289 166.239C929.289 166.239 929.149 167.422 928.423 168.402C927.912 169.093 927.11 169.68 925.867 169.69C923.871 169.706 922.303 169.141 920.495 168.165C920.086 167.944 919.669 167.705 919.231 167.444C918.663 167.108 918.063 166.739 917.417 166.344C915.012 164.872 907.657 161.16 903.611 159.139C901.97 158.319 900.875 157.778 900.875 157.778C900.875 157.778 899.977 157.033 898.645 155.946C898.632 155.935 898.618 155.922 898.605 155.914C898.083 155.486 897.496 155.007 896.872 154.501C896.522 154.219 896.162 153.926 895.796 153.63C895.753 153.595 895.71 153.56 895.667 153.525C895.258 153.194 894.841 152.858 894.427 152.521C894.018 152.193 893.609 151.865 893.205 151.542C893.109 151.464 893.012 151.389 892.915 151.311C892.697 151.136 892.479 150.964 892.264 150.794C891.957 150.549 891.659 150.315 891.368 150.087C890.83 149.664 890.324 149.269 889.87 148.922C889.576 148.699 889.305 148.494 889.06 148.314L886.827 147.243L886.437 147.058L886.23 146.958L878.84 143.418L878.786 143.393L875.197 141.672L864.891 136.735L879.063 116.481L886.049 119.534L890.768 121.595L894.814 123.362L900.022 125.641L901.004 125.412L901.15 125.38L902.258 125.122L902.336 125.103L911.897 122.889L912.494 122.749L914.741 122.222L923.034 127.478L923.683 127.89L924.259 128.256L925.55 129.074L925.808 129.238L947.822 143.197L948.764 146.971L949.692 149.051C949.692 149.051 949.692 149.051 949.694 149.054C949.797 149.282 949.856 149.533 949.867 149.783C949.867 149.799 949.867 149.818 949.869 149.834C949.888 150.609 949.837 152.263 949.111 153.328Z" fill="#FBCEAE"/>
<path id="Vector_11" opacity="0.46" d="M919.29 167.363C918.725 167.027 918.125 166.658 917.477 166.26C914.095 164.191 900.937 157.697 900.937 157.697C900.937 157.697 898.502 155.685 895.726 153.436C893.329 151.496 890.677 149.379 889.116 148.228L886.496 146.971L878.845 143.307L880.47 140.477L892.041 145.938C892.041 145.938 906.404 158.036 910.552 160.646C914.7 163.255 919.142 166.653 919.142 166.653L919.29 167.363Z" fill="#EE7455"/>
<path id="Vector_12" opacity="0.46" d="M949.746 148.97L948.817 146.888L947.876 143.114L924.312 128.17L914.794 122.133L911.951 122.8L910.159 125.374L902.161 136.342C902.161 136.342 903.528 139.781 907.913 139.412C912.298 139.041 916 132.961 917.546 132.237C918.16 131.949 921.593 133.173 925.848 134.968C932.135 138.449 944.397 145.279 947.01 147.036C948.433 147.994 949.342 148.925 949.92 149.699C949.907 149.449 949.848 149.202 949.746 148.97Z" fill="#EE7455"/>
<path id="Vector_13" opacity="0.46" d="M942.837 158.383C940.365 156.648 936.206 153.815 934.083 152.363C930.605 149.979 931.038 146.971 931.038 146.971L942.07 153.896C942.07 153.896 942.073 153.899 942.076 153.904C942.17 154.055 943.418 156.04 942.837 158.383Z" fill="#EE7455"/>
<path id="Vector_14" opacity="0.46" d="M936.168 165.079C934.409 163.893 931.525 161.945 929.771 160.753C927.11 158.946 926.994 155.473 926.994 155.473L936.545 161.87C936.572 161.926 937.241 163.347 936.168 165.079Z" fill="#EE7455"/>
<path id="Vector_15" d="M983.228 131.427L963.409 138.678L960.861 139.608L957.364 140.889L957.329 140.902L957.047 141.005L955.607 141.532L955.357 141.623C955.301 141.691 955.242 141.758 955.185 141.822C954.658 142.422 954.09 142.985 953.52 143.501C953.256 143.741 952.993 143.967 952.732 144.184C952.654 144.249 952.576 144.314 952.498 144.375C952.325 144.513 952.159 144.647 951.992 144.776C951.459 145.191 950.951 145.554 950.504 145.86C949.474 146.565 948.761 146.966 948.761 146.966L948.204 146.251C947.642 145.53 946.95 144.916 946.165 144.445L942.802 142.43L936.437 138.613L936.109 138.414L935.253 137.9L934.492 137.445L932.644 136.337L930.909 135.296L930.554 135.083L929.001 134.153L928.054 133.585L927.783 133.421L927.231 133.093L921.001 129.359C920.503 129.06 919.914 128.963 919.354 129.082C919.26 129.1 919.169 129.127 919.08 129.157L915.195 130.497L914.975 130.575C914.899 130.602 914.824 130.631 914.754 130.666C914.506 130.779 914.283 130.938 914.092 131.132C913.979 131.245 913.877 131.374 913.791 131.514C910.818 136.208 907.724 137.677 905.4 137.954C905.107 137.989 904.827 138.008 904.563 138.008C903.955 138.01 903.42 137.938 902.979 137.833C902.024 137.612 901.497 136.587 901.86 135.678L906.081 126.445C906.449 125.522 907.13 124.758 908.004 124.285L919.451 118.092C920.199 117.686 921.052 117.516 921.899 117.602L930.241 118.442L931.603 118.579L932.377 118.657L932.803 118.7L935.146 118.937H935.154L935.31 118.953L935.716 118.993L941.252 119.55L941.683 119.593L942.541 119.276L942.977 119.114L943.033 119.093L943.518 118.915L943.733 118.837L943.792 118.816L943.808 118.81L944.214 118.66L947.451 117.463L947.827 117.323L948.511 117.07L949.167 116.828L949.468 116.717L949.697 116.634L950.34 116.397L950.735 116.252L951.161 116.093L951.335 116.029L952.301 115.674L952.729 115.515L952.753 115.507L953.531 115.219L953.786 115.125L954.792 114.754L955.212 114.6L955.363 114.544L955.842 114.366L956.355 114.175L957.337 113.812L957.343 113.809L957.372 113.799L960.87 112.507L974.288 107.549L981.813 127.629L983.228 131.427Z" fill="#FBCEAE"/>
<path id="Vector_16" d="M963.412 138.678L955.36 141.623C955.303 141.691 955.244 141.758 955.188 141.822L947.822 117.325L955.836 114.366L963.412 138.678Z" fill="#C5C5C5"/>
<path id="Vector_17" d="M893.746 119.574L882.531 146.347L874.027 142.82L865.399 139.242L878.783 112.97L884.799 115.625L893.746 119.574Z" fill="white"/>
<path id="Vector_18" d="M884.68 110.777L884.174 111.934L883.464 113.556L882.921 114.797L881.689 117.624L878.875 124.062L878.167 125.689L873.653 136.022L872.423 138.831L871.802 140.041L871.017 141.572L867.799 147.843L851.421 141.669L847.711 139.861L833.606 134.798C833.693 123.195 838.433 112.698 846.049 105.082C848.287 102.844 850.775 100.853 853.466 99.1584L867.003 103.834L884.68 110.777Z" fill="#64CCE3"/>
<path id="Vector_19" opacity="0.46" d="M929.351 166.161C929.351 166.161 929.211 167.344 928.482 168.324C926.96 167.417 924.745 166.048 923.341 164.958C921.028 163.161 921.149 161.289 921.149 161.289L929.351 166.161Z" fill="#EE7455"/>
<path id="Vector_20" d="M916.793 162.612C916.295 163.043 915.558 163.941 914.864 165.776C914.286 167.309 913.788 168.765 913.43 169.857C912.263 168.972 912.139 167.761 912.139 167.761L914.216 163.433C915.144 162.637 916.029 162.456 916.793 162.612Z" fill="#141E32"/>
<path id="Vector_21" d="M1010.39 135.129C1010.39 136.173 1010.36 137.209 1010.28 138.234L980.54 148.642L975.883 137.314L974.751 134.559L974.74 134.532L973.091 130.521L970.43 124.048L969.755 122.405L965.063 110.998L965.047 110.96L964.722 110.167L964.24 108.996L982.066 102.44L991.102 99.5243C1002.72 107.105 1010.39 120.22 1010.39 135.129Z" fill="#64CCE3"/>
<g id="Group_3">
<path id="Vector_22" opacity="0.46" d="M920.498 168.162C919.564 167.659 918.569 167.043 917.417 166.338C914.036 164.269 900.878 157.775 900.878 157.775C900.878 157.775 898.443 155.763 895.667 153.514C896.918 153.552 899.422 154.001 902.002 156.608L905.43 154.98C905.43 154.98 909.172 155.287 910.603 160.221L914.132 158.647C914.132 158.647 916.653 159.86 917.035 163.099C917.035 163.099 919.873 164.111 920.347 165.894C920.597 166.839 920.576 167.627 920.498 168.162Z" fill="#EE7455"/>
<path id="Vector_23" d="M898.336 159.57C897.8 159.642 897.187 159.564 896.536 159.26C894.432 158.284 892.449 154.456 894.031 153.337C894.031 153.337 894.876 152.486 897.068 153.805C898.357 154.577 899.194 155.322 899.686 156.062C900.033 156.581 900.211 157.097 900.259 157.617C900.334 158.491 899.533 159.408 898.336 159.57Z" fill="#FBCEAE"/>
<path id="Vector_24" opacity="0.5" d="M898.336 159.57C898.672 158.222 899.307 156.834 899.686 156.062C900.033 156.581 900.211 157.097 900.259 157.617C900.334 158.491 899.533 159.408 898.336 159.57Z" fill="#CD8B7A"/>
<path id="Vector_25" d="M901.879 164.617C899.99 164.216 898.825 162.303 899.269 160.425C899.554 159.223 900.079 157.587 901.026 156.113C902.896 153.199 908.362 154.434 907.813 159.314L905.709 164.049C905.709 164.049 903.805 165.025 901.879 164.617Z" fill="#FBCEAE"/>
<path id="Vector_26" d="M913.565 169.949C913.565 169.949 916.19 171.498 918.305 170.271C920.419 169.042 921.705 168.727 921.705 168.727L917.057 165.999L913.565 169.949Z" fill="#F5A585"/>
<path id="Vector_27" d="M919.37 165.351C919.096 166.731 917.939 170.261 917.939 170.261C917.458 170.715 916.664 171.216 914.498 170.43C914.071 170.274 913.718 170.075 913.43 169.857C912.263 168.972 912.139 167.761 912.139 167.761L914.216 163.433C915.144 162.637 916.026 162.456 916.793 162.61C918.405 162.938 919.494 164.735 919.37 165.351Z" fill="#FBCEAE"/>
<path id="Vector_28" d="M914.676 162.483L912.139 167.761C911.996 167.829 909.505 168.684 907.399 167.186C907.262 167.086 907.135 166.989 907.017 166.89C905.37 165.496 905.712 164.052 905.712 164.052L907.816 159.317C907.816 159.317 909.325 156.425 911.945 157.095C911.999 157.108 912.053 157.122 912.109 157.14C914.829 157.974 915.351 160.487 914.676 162.483Z" fill="#FBCEAE"/>
<path id="Vector_29" opacity="0.5" d="M911.945 157.092C911.2 157.646 909.812 158.946 908.87 161.45C908.166 163.323 907.496 165.364 907.017 166.887C905.37 165.494 905.712 164.049 905.712 164.049L907.816 159.314C907.816 159.314 909.325 156.422 911.945 157.092Z" fill="#CD8B7A"/>
</g>
</g>
</g>
</g>
<g id="Arrow">
<path id="Vector 1" d="M321 129.259H369M369 129.259L356.721 117.259M369 129.259L356.721 141.259" stroke="#CFBDA2" stroke-width="2" stroke-linecap="round" stroke-linejoin="round"/>
</g>
<g id="Arrow_2">
<path id="Vector 1_2" d="M705 131.03H753M753 131.03L740.721 119.03M753 131.03L740.721 143.03" stroke="#CFBDA2" stroke-width="2" stroke-linecap="round" stroke-linejoin="round"/>
</g>
</g>
</svg>
