<svg width="150" height="150" viewBox="0 0 150 150" fill="none" xmlns="http://www.w3.org/2000/svg">
<g id="Picture/1">
<circle id="Background" cx="75" cy="75" r="75" fill="#FAEFD2"/>
<g id="Notebook Illustration">
<g id="Group 177">
<path id="Vector" d="M135.611 88.3974V7.0718C135.611 3.16641 132.444 0 128.539 0H22.4621C18.5567 0 15.3903 3.16641 15.3903 7.0718V88.3974H135.611Z" fill="#C2C2C2"/>
<path id="Intersect" fill-rule="evenodd" clip-rule="evenodd" d="M17.3097 122.928C12.0833 116.644 7.86413 109.493 4.90009 101.722L15.3897 88.3956H135.61L145.422 100.861C142.445 108.965 138.109 116.413 132.69 122.928H17.3097Z" fill="#E2E2E2"/>
<path id="Vector_2" d="M130.075 5.8091H20.9263C19.8218 5.8091 18.9263 6.70453 18.9263 7.8091V80.5883C18.9263 81.6929 19.8218 82.5883 20.9263 82.5883H130.075C131.179 82.5883 132.075 81.6929 132.075 80.5883V7.8091C132.075 6.70454 131.179 5.8091 130.075 5.8091Z" fill="#ECECEC"/>
<path id="Vector_3" d="M132.075 104.118H18.9259L25.9977 92.8886H125.003L132.075 104.118Z" fill="#C2C2C2"/>
<path id="Vector_4" d="M93.1801 113.101H57.8212L59.7359 108.609H91.2654L93.1801 113.101Z" fill="#C2C2C2"/>
</g>
</g>
<g id="Group 18">
<path id="Vector_5" d="M114.204 79.7935H36.9196C36.1313 79.7935 35.3752 79.5794 34.8178 79.1984C34.2603 78.8173 33.9471 78.3006 33.9471 77.7617V12.7449C33.9471 12.2061 34.2603 11.6893 34.8178 11.3082C35.3752 10.9272 36.1313 10.7131 36.9196 10.7131H114.204C114.992 10.7131 115.749 10.9272 116.306 11.3082C116.863 11.6893 117.177 12.2061 117.177 12.7449V77.7617C117.177 78.3006 116.863 78.8173 116.306 79.1984C115.749 79.5794 114.992 79.7935 114.204 79.7935Z" fill="white"/>
<rect id="Rectangle 17" x="50.2313" y="22.8631" width="50.6614" height="6.09532" fill="#ECECEC"/>
<rect id="Rectangle 18" x="50.2313" y="33.5756" width="50.6614" height="6.09532" fill="#ECECEC"/>
<rect id="Rectangle 19" x="50.2313" y="44.2881" width="50.6614" height="6.09532" fill="#ECECEC"/>
<rect id="Rectangle 20" x="50.2313" y="58.9345" width="50.6614" height="8.7021" rx="4" fill="#64CCE3"/>
<path id="Vector 17" d="M73.7107 62.8418L75.1748 64.306L77.9052 61.5756" stroke="white" stroke-linecap="round" stroke-linejoin="round"/>
</g>
</g>
</svg>
