<svg width="178" height="150" viewBox="0 0 178 150" fill="none" xmlns="http://www.w3.org/2000/svg">
<g id="Picture/3">
<circle id="Background" cx="89" cy="75" r="75" fill="#FAEFD2"/>
<g id="Group">
<path id="Vector" opacity="0.5" d="M67.1945 101.854C67.251 101.899 67.2994 101.94 67.3478 101.98C67.3128 102.053 67.2805 102.123 67.2483 102.193C67.2348 102.08 67.2187 101.967 67.1945 101.854Z" fill="#1D79A1"/>
<path id="Vector_2" d="M116.111 93.3284C115.53 94.1812 114.583 95.0609 113.044 95.1497C112.223 95.1981 111.236 95.0233 110.047 94.496C109.719 94.3507 109.372 94.1786 109.011 93.9768C109.011 93.9768 109.014 93.9795 109.017 93.9849C109.046 94.0306 109.191 94.2646 109.361 94.6359C109.719 95.4322 110.176 96.8634 109.778 98.4614C109.775 98.4721 109.773 98.4856 109.767 98.4963C109.708 98.7411 109.622 98.9886 109.517 99.2415C109.506 99.2604 109.501 99.2792 109.493 99.298C108.274 102.08 104.521 102.29 103.488 101.951V101.953C103.512 102.007 104.185 103.425 103.109 105.16C102.982 105.364 102.835 105.572 102.654 105.784C100.933 107.821 98.5517 107.342 97.8307 107.11C97.1071 106.884 96.2892 106.239 96.2892 106.239C96.2892 106.239 96.1494 107.422 95.423 108.402C94.9119 109.093 94.1102 109.68 92.8673 109.69C90.8712 109.706 89.3028 109.141 87.4949 108.165C87.086 107.944 86.669 107.705 86.2305 107.444C85.6629 107.108 85.063 106.739 84.4173 106.344C82.0123 104.872 74.6573 101.16 70.6112 99.1393C68.9702 98.3188 67.8752 97.778 67.8752 97.778C67.8752 97.778 66.9767 97.0329 65.6451 95.946C65.6316 95.9353 65.6182 95.9218 65.6047 95.9137C65.0828 95.486 64.4963 95.0071 63.8722 94.5014C63.5225 94.2189 63.162 93.9257 62.7961 93.6297C62.7531 93.5948 62.71 93.5598 62.667 93.5248C62.2581 93.1939 61.8411 92.8577 61.4268 92.5214C61.0179 92.1932 60.609 91.865 60.2055 91.5421C60.1086 91.4641 60.0118 91.3888 59.9149 91.3108C59.697 91.1359 59.4791 90.9637 59.2639 90.7943C58.9572 90.5495 58.6586 90.3154 58.368 90.0867C57.83 89.6644 57.3242 89.2689 56.8696 88.9219C56.5764 88.6986 56.3047 88.4941 56.0598 88.3139L53.827 87.2432L53.4369 87.0576L53.2297 86.958L45.8397 83.4177L45.7859 83.3935L42.1972 81.6718L31.891 76.7352L46.063 56.4806L53.0495 59.534L57.7681 61.5947L61.8142 63.3622L67.0224 65.6408L68.0044 65.4121L68.1496 65.3798L69.258 65.1216L69.336 65.1028L78.897 62.8887L79.4943 62.7488L81.7406 62.2215L90.0345 67.4782L90.6828 67.8898L91.2585 68.2557L92.5498 69.0735L92.8081 69.2376L114.822 83.1971L115.764 86.9715L116.692 89.051C116.692 89.051 116.692 89.051 116.694 89.0537C116.797 89.2824 116.856 89.5326 116.867 89.7827C116.867 89.7989 116.867 89.8177 116.869 89.8339C116.888 90.6086 116.837 92.2631 116.111 93.3284Z" fill="#FBCEAE"/>
<path id="Vector_3" opacity="0.46" d="M86.2897 107.363C85.7248 107.027 85.1249 106.658 84.4765 106.26C81.0949 104.191 67.9371 97.6973 67.9371 97.6973C67.9371 97.6973 65.5025 95.6851 62.7262 93.436C60.3292 91.4964 57.6766 89.3792 56.1163 88.2278L53.496 86.9715L45.8451 83.3074L47.47 80.4773L59.0406 85.9384C59.0406 85.9384 73.4036 98.0363 77.5519 100.646C81.7002 103.255 86.1418 106.653 86.1418 106.653L86.2897 107.363Z" fill="#EE7455"/>
<path id="Vector_4" opacity="0.46" d="M116.746 88.9703L115.817 86.8881L114.876 83.1137L91.3123 68.1696L81.7944 62.1328L78.9508 62.7999L77.1591 65.3745L69.1611 76.3425C69.1611 76.3425 70.5278 79.7806 74.9128 79.412C79.2978 79.0407 82.9996 72.9609 84.5464 72.2372C85.1598 71.9494 88.5925 73.1734 92.8484 74.9678C99.1355 78.4489 111.397 85.2793 114.01 87.0361C115.433 87.9938 116.342 88.9246 116.92 89.6994C116.907 89.4492 116.848 89.2017 116.746 88.9703Z" fill="#EE7455"/>
<path id="Vector_5" opacity="0.46" d="M109.837 98.3833C107.365 96.6482 103.206 93.8154 101.083 92.3627C97.6046 89.9791 98.0377 86.9715 98.0377 86.9715L109.07 93.8961C109.07 93.8961 109.073 93.8988 109.076 93.9041C109.17 94.0548 110.418 96.0402 109.837 98.3833Z" fill="#EE7455"/>
<path id="Vector_6" opacity="0.46" d="M103.168 105.079C101.409 103.893 98.5247 101.945 96.7707 100.753C94.1101 98.9456 93.9944 95.4725 93.9944 95.4725L103.545 101.87C103.572 101.926 104.241 103.347 103.168 105.079Z" fill="#EE7455"/>
<path id="Vector_7" d="M150.228 71.4275L130.409 78.6776L127.861 79.6084L124.364 80.8889L124.329 80.9024L124.047 81.0046L122.607 81.5319L122.357 81.6233C122.301 81.6906 122.242 81.7579 122.185 81.8224C121.658 82.4223 121.09 82.9846 120.52 83.5011C120.256 83.7405 119.993 83.9665 119.732 84.1844C119.654 84.249 119.576 84.3136 119.498 84.3754C119.325 84.5126 119.159 84.6471 118.992 84.7763C118.459 85.1906 117.951 85.5537 117.504 85.8604C116.474 86.5653 115.761 86.9661 115.761 86.9661L115.204 86.2505C114.642 85.5295 113.95 84.9162 113.165 84.4454L109.802 82.4304L103.437 78.613L103.109 78.4139L102.253 77.9001L101.492 77.4455L99.6438 76.3371L97.9086 75.296L97.5535 75.0834L96.0013 74.1526L95.0543 73.585L94.7826 73.4209L94.2311 73.0927L88.0006 69.3587C87.5029 69.0601 86.9138 68.9632 86.3542 69.0816C86.26 69.1004 86.1686 69.1273 86.0798 69.1569L82.1951 70.4966L81.9745 70.5747C81.8992 70.6016 81.8239 70.6312 81.7539 70.6661C81.5064 70.7791 81.2831 70.9378 81.0921 71.1315C80.9791 71.2445 80.8769 71.3736 80.7908 71.5135C77.8182 76.208 74.7244 77.6768 72.4001 77.9539C72.1068 77.9889 71.8271 78.0077 71.5634 78.0077C70.9554 78.0104 70.4201 77.9378 69.9789 77.8328C69.0239 77.6122 68.4966 76.5873 68.8598 75.678L73.0807 66.4452C73.4493 65.5224 74.1299 64.7584 75.0042 64.2849L86.451 58.0921C87.1989 57.6859 88.0517 57.5164 88.8991 57.6025L97.2415 58.4418L98.6027 58.579L99.3775 58.657L99.8026 58.7001L102.146 58.9368H102.154L102.31 58.9529L102.716 58.9933L108.252 59.5502L108.683 59.5932L109.541 59.2758L109.977 59.1144L110.033 59.0928L110.518 58.9153L110.733 58.8373L110.792 58.8157L110.808 58.8104L111.214 58.6597L114.451 57.4626L114.827 57.3227L115.511 57.0698L116.167 56.8277L116.468 56.7174L116.697 56.634L117.34 56.3972L117.735 56.252L118.161 56.0933L118.335 56.0287L119.301 55.6736L119.729 55.5149L119.753 55.5068L120.531 55.2189L120.786 55.1248L121.792 54.7535L122.212 54.6002L122.363 54.5437L122.842 54.3661L123.355 54.1751L124.337 53.812L124.343 53.8093L124.372 53.7985L127.87 52.5072L141.288 47.5491L148.813 67.6289L150.228 71.4275Z" fill="#FBCEAE"/>
<path id="Vector_8" d="M130.412 78.6776L122.36 81.6233C122.303 81.6906 122.244 81.7579 122.188 81.8224L114.822 57.3254L122.836 54.3661L130.412 78.6776Z" fill="#C5C5C5"/>
<path id="Vector_9" d="M60.7462 59.5744L49.5307 86.3473L41.0269 82.8205L32.3994 79.2425L45.7832 52.9699L51.7985 55.6251L60.7462 59.5744Z" fill="white"/>
<path id="Vector_10" d="M51.6801 50.7774L51.1743 51.9342L50.4641 53.5564L49.9207 54.7966L48.6886 57.624L45.8746 64.0616L45.1671 65.6892L40.6529 76.0223L39.4235 78.8309L38.8021 80.0415L38.0165 81.5722L34.799 87.8431L18.421 81.6691L14.7112 79.8612L0.606445 74.7983C0.692532 63.1954 5.43268 52.6982 13.0487 45.0822C15.2869 42.8439 17.7754 40.8532 20.4656 39.1584L34.0027 43.8339L51.6801 50.7774Z" fill="#64CCE3"/>
<path id="Vector_11" opacity="0.46" d="M96.3511 106.161C96.3511 106.161 96.2112 107.344 95.4822 108.324C93.9595 107.417 91.7455 106.048 90.3412 104.958C88.0276 103.161 88.1487 101.289 88.1487 101.289L96.3511 106.161Z" fill="#EE7455"/>
<path id="Vector_12" d="M83.7931 102.612C83.2954 103.043 82.5583 103.941 81.8642 105.776C81.2858 107.309 80.7881 108.765 80.4303 109.857C79.2628 108.972 79.139 107.761 79.139 107.761L81.2159 103.433C82.144 102.637 83.0291 102.456 83.7931 102.612Z" fill="#141E32"/>
<path id="Vector_13" d="M177.393 75.1292C177.393 76.173 177.356 77.2087 177.28 78.2337L147.54 88.6421L142.883 77.3137L141.751 74.5589L141.74 74.532L140.091 70.5209L137.43 64.0482L136.755 62.4045L132.063 50.998L132.047 50.9603L131.722 50.1667L131.24 48.9965L149.066 42.4405L158.102 39.5243C169.718 47.1053 177.393 60.2201 177.393 75.1292Z" fill="#64CCE3"/>
<g id="Group_2">
<path id="Vector_14" opacity="0.46" d="M87.4975 108.162C86.564 107.659 85.5686 107.043 84.4172 106.338C81.0356 104.269 67.8778 97.7753 67.8778 97.7753C67.8778 97.7753 65.4432 95.763 62.6669 93.514C63.9178 93.5517 66.4224 94.0009 69.0023 96.6077L72.4296 94.9802C72.4296 94.9802 76.1717 95.2868 77.6029 100.221L81.1325 98.6469C81.1325 98.6469 83.6532 99.8602 84.0352 103.099C84.0352 103.099 86.8734 104.111 87.3469 105.894C87.597 106.839 87.5755 107.627 87.4975 108.162Z" fill="#EE7455"/>
<path id="Vector_15" d="M65.3356 99.5697C64.8002 99.6424 64.1869 99.5643 63.5358 99.2603C61.4321 98.2838 59.4494 94.4556 61.0312 93.3365C61.0312 93.3365 61.876 92.4864 64.0685 93.8046C65.3571 94.5767 66.1938 95.3219 66.6861 96.0617C67.0331 96.5809 67.2107 97.0974 67.2591 97.6166C67.3344 98.4909 66.5327 99.4083 65.3356 99.5697Z" fill="#FBCEAE"/>
<path id="Vector_16" opacity="0.5" d="M65.3356 99.5697C65.6718 98.2219 66.3067 96.8337 66.6861 96.0616C67.0331 96.5808 67.2107 97.0974 67.2591 97.6166C67.3344 98.4909 66.5327 99.4082 65.3356 99.5697Z" fill="#CD8B7A"/>
<path id="Vector_17" d="M68.8786 104.617C66.9901 104.216 65.8252 102.303 66.2691 100.425C66.5543 99.2226 67.0789 97.587 68.0258 96.1127C69.8955 93.1993 75.362 94.4341 74.8132 99.3141L72.7095 104.049C72.7095 104.049 70.8048 105.025 68.8786 104.617Z" fill="#FBCEAE"/>
<path id="Vector_18" d="M80.5648 109.949C80.5648 109.949 83.1905 111.498 85.305 110.271C87.4195 109.042 88.7054 108.727 88.7054 108.727L84.0567 105.999L80.5648 109.949Z" fill="#F5A585"/>
<path id="Vector_19" d="M86.3703 105.351C86.0959 106.731 84.9391 110.261 84.9391 110.261C84.4576 110.715 83.664 111.216 81.4984 110.43C81.0706 110.274 80.7182 110.075 80.4303 109.857C79.2628 108.972 79.139 107.761 79.139 107.761L81.2159 103.433C82.144 102.637 83.0264 102.456 83.7931 102.61C85.4045 102.938 86.4941 104.735 86.3703 105.351Z" fill="#FBCEAE"/>
<path id="Vector_20" d="M81.6759 102.483L79.139 107.761C78.9965 107.829 76.5053 108.684 74.3989 107.186C74.2617 107.086 74.1353 106.989 74.0169 106.89C72.3705 105.496 72.7121 104.052 72.7121 104.052L74.8159 99.3168C74.8159 99.3168 76.3251 96.4248 78.9454 97.0947C78.9992 97.1081 79.053 97.1215 79.1095 97.1404C81.8293 97.9743 82.3512 100.487 81.6759 102.483Z" fill="#FBCEAE"/>
<path id="Vector_21" opacity="0.5" d="M78.9454 97.092C78.2002 97.6462 76.812 98.9455 75.8704 101.45C75.1656 103.323 74.4957 105.364 74.0169 106.887C72.3705 105.494 72.7121 104.049 72.7121 104.049L74.8159 99.3141C74.8159 99.3141 76.3251 96.4221 78.9454 97.092Z" fill="#CD8B7A"/>
</g>
</g>
</g>
</svg>
