<svg width="150" height="170" viewBox="0 0 150 170" fill="none" xmlns="http://www.w3.org/2000/svg">
<circle cx="75" cy="95" r="75" fill="#FAEFD2"/>
<path d="M51.6103 57.1037C38.5876 64.4561 18.7132 73.5483 18.7132 73.5483L15.7492 129.75C15.7492 129.75 19.1614 128.664 22.25 129.338C25.3386 130.012 52.2023 148.311 93.2407 144.1C126.529 140.684 117.46 86.8688 115.742 73.4889C114.367 62.785 97.9151 59.9698 87.9657 60.8907C100.426 30.9474 98.2197 16.7282 95.6956 11.2316C93.1715 5.73505 89.9455 2.8937 84.2841 2.81749C78.6227 2.74127 76.0498 3.3395 73.9166 10.8718C71.7834 18.4042 64.633 49.7513 51.6103 57.1037Z" fill="#FBCEAE"/>
<path d="M79.2085 82.7669C72.2537 70.2065 81.0729 62.8513 87.5997 60.8314C88.8294 60.285 92.2331 59.8491 100.479 60.7048C119.881 62.7183 122.82 70.6034 119.617 74.9837C116.413 79.3639 120.038 81.6289 122.251 82.2138C124.864 86.8345 128.992 96.5806 124.595 98.5999C120.198 100.619 121.341 104.463 122.462 106.132C122.98 109.725 123.897 118.399 119.197 121.133C114.497 123.868 116.954 126.932 118.77 128.122C120.047 132.248 120.347 140.032 115.559 141.38C109.574 143.065 94.8662 144.432 88.7713 144.383C82.6765 144.335 79.8015 140.166 78.9285 133.259C78.2301 127.734 81.7382 124.959 83.5796 124.262C73.0806 112.396 80.9261 105.284 86.1613 103.212L82.041 99.9922C78.6669 107.168 70.0999 115.253 66.2381 118.399C66.2381 118.399 65.0204 119.782 64.0712 118.536C63.122 117.291 64.3672 116.342 64.3672 116.342C72.2626 110.475 86.2844 95.546 79.2085 82.7669Z" fill="#F5A585"/>
<path d="M81.3677 73.4926C80.4885 59.6244 107.874 59.1936 108.307 59.1661C116.542 58.6441 124.397 59.0163 126.598 66.2739C129.705 76.5199 114.843 77.6071 107.865 79.645C99.3257 82.2169 82.071 84.5872 81.3677 73.4926Z" fill="#FBCEAE"/>
<path d="M81.8649 95.0636C81.0592 82.3533 111.638 81.6111 112.122 81.5804C121.321 80.9972 132.006 80.844 132.452 87.8686C133.18 99.361 125.68 99.8365 110.945 100.771C96.2099 101.705 82.3692 103.017 81.8649 95.0636Z" fill="#FBCEAE"/>
<path d="M81.3234 113.981C80.5178 101.273 111.159 102.981 111.159 102.981C111.159 102.981 128.468 102.635 128.913 109.658C129.312 115.952 130.885 121.708 110.293 122.148C89.7012 122.587 81.8275 121.933 81.3234 113.981Z" fill="#FBCEAE"/>
<path d="M81.7607 134.6C81.0482 123.362 107.233 124.931 107.233 124.931C107.233 124.931 122.021 124.657 122.414 130.868C122.767 136.434 124.122 141.527 106.529 141.877C88.9353 142.226 82.2065 141.632 81.7607 134.6Z" fill="#FBCEAE"/>
<path fill-rule="evenodd" clip-rule="evenodd" d="M0.169894 89.9089C0.679247 82.3103 2.32031 75.0217 4.92596 68.2102L19.7559 70.3899C18.7941 87.9012 18.5012 121.33 22.4257 132.808L10.6548 133.554C6.28468 126.276 3.11437 118.196 1.41736 109.586L0.169894 89.9089Z" fill="#64CCE3"/>
</svg>
