<svg width="454" height="394" viewBox="0 0 454 394" fill="none" xmlns="http://www.w3.org/2000/svg">
<g id="Illustration">
<path id="Vector" d="M440.815 208.35C452.431 219.629 452.69 238.199 441.411 249.815L418.283 273.604L396.475 296.046L360.371 333.199C354.621 339.117 346.981 342.083 339.341 342.083C331.985 342.083 324.617 339.325 318.919 333.795C310.618 325.74 308.118 313.956 311.485 303.648L232.932 384.507C227.182 390.425 219.542 393.39 211.901 393.39C204.546 393.39 197.177 390.632 191.479 385.102C179.863 373.823 179.604 355.253 190.884 343.637L193.72 340.723C190.871 341.617 187.905 342.057 184.94 342.057C177.571 342.057 170.203 339.299 164.505 333.769C158.47 327.916 155.505 320.081 155.634 312.285L135.342 333.173C129.592 339.091 121.952 342.057 114.311 342.057C106.943 342.057 99.5743 339.299 93.8764 333.756C84.4359 324.588 82.4935 310.602 88.1525 299.465C89.4605 296.888 91.1569 294.479 93.2677 292.304L103.032 282.255C100.649 282.863 98.2016 283.174 95.7541 283.174C89.0979 283.174 82.4417 280.921 77.0157 276.388C76.4459 275.909 75.8761 275.404 75.3322 274.873C73.4027 272.996 71.7839 270.924 70.489 268.709C67.9767 264.436 66.6299 259.67 66.4745 254.853L53.2009 268.709L50.339 271.701C44.5893 277.619 36.9489 280.584 29.3085 280.584C21.953 280.584 14.5845 277.826 8.88658 272.296C-2.72942 261.017 -2.98842 242.447 8.29089 230.831L150.739 82.1797C156.489 76.2616 164.129 73.2961 171.77 73.2961C176.82 73.2961 181.87 74.5911 186.377 77.181C188.449 78.3724 190.417 79.8357 192.204 81.584C198.343 87.5538 201.308 95.5698 201.075 103.508L233.035 70.6414L293.097 8.88359C298.846 2.96551 306.487 0 314.127 0C321.496 0 328.864 2.75832 334.562 8.2879C346.178 19.5672 346.437 38.1373 335.158 49.7533L319.942 65.4096C322.26 64.8269 324.642 64.5549 327.012 64.5549C334.381 64.5549 341.736 67.3132 347.434 72.8428C351.876 77.1551 354.66 82.5423 355.761 88.2013C356.162 90.2215 356.344 92.2805 356.318 94.3266L359.387 91.1669L376.61 73.4385C382.36 67.5205 390 64.5549 397.641 64.5549C404.996 64.5549 412.365 67.3003 418.063 72.8428C429.679 84.1221 429.938 102.692 418.658 114.308L415.822 117.222C418.684 116.328 421.65 115.875 424.615 115.875C431.971 115.875 439.339 118.621 445.037 124.163C456.653 135.442 456.912 154.012 445.633 165.628L410.526 201.771C420.666 198.12 432.515 200.282 440.815 208.35Z" fill="#FFFAF0"/>
<g id="Group 11">
<g id="Group">
<g id="Group_2">
<g id="Group_3">
<path id="Vector_2" d="M274.954 139.612C280.47 146.074 282.322 154.802 280.574 163.142C280.445 163.803 280.276 164.45 280.095 165.098C278.761 169.863 276.223 174.421 272.506 178.28C266.938 184.043 259.751 187.229 252.576 187.708C251.812 188.589 251.035 189.456 250.207 190.285C241.181 199.311 229.189 203.675 216.926 203.494C216.304 203.481 215.695 203.468 215.087 203.442C214.841 203.455 214.595 203.468 214.336 203.481C213.921 203.494 213.52 203.507 213.118 203.507C212.549 203.52 211.979 203.52 211.422 203.494C199.754 203.248 188.436 198.884 179.837 190.285C177.934 188.381 176.25 186.348 174.761 184.212C167.768 184.056 160.646 181.246 155.051 175.833C143.966 165.11 142.891 147.848 152.643 137.372C152.565 137.294 152.474 137.217 152.397 137.126C140.897 124.914 142.127 104.674 155.103 92.1123C162.951 84.5237 173.336 81.3251 182.971 82.6071C183.904 80.7035 185.03 78.9034 186.338 77.22C188.41 78.4114 190.378 79.8747 192.166 81.6229C198.304 87.5928 201.269 95.6087 201.036 103.547L232.996 70.6803C237.632 73.9048 241.349 78.243 243.667 83.2546C254.182 80.6258 266.148 83.6301 274.928 92.1252C287.904 104.687 289.134 124.927 277.634 137.139C276.78 138.032 275.873 138.848 274.954 139.612Z" fill="#95C122"/>
</g>
</g>
<g id="Group_4">
<path id="Vector_3" d="M215.268 102.265L217.69 251.421H212.328L214.75 102.265H215.268Z" fill="#24224F"/>
<path id="Vector_4" d="M223.556 106.603L214.906 123.438L214.608 120.731L223.556 106.59V106.603Z" fill="#24224F"/>
<path id="Vector_5" d="M196.659 116.704L216.032 148.133L214.789 152.756L195.649 117.287L196.659 116.704Z" fill="#24224F"/>
<path id="Vector_6" d="M233.54 135.222L214.18 166.664L215.41 171.275L234.55 135.818L233.54 135.222Z" fill="#24224F"/>
</g>
</g>
<g id="Group_5">
<g id="Group_6">
<path id="Vector_7" d="M224.605 252.91C222.597 240.815 210.243 244.234 209.609 239.054C209.311 236.645 209.35 233.395 209.518 230.196C209.777 225.107 203.406 221.08 196.27 221.857C194.211 222.077 192.334 222.129 190.948 221.857C185.6 220.808 187.439 214.346 177.195 211.963C174.385 211.186 171.199 210.888 167.923 211.264C153.73 212.883 156.553 220.588 150.674 221.753C149.301 222.025 147.411 221.973 145.352 221.753C138.216 220.976 131.845 225.004 132.104 230.093C132.272 233.291 132.298 236.555 132.013 238.951C131.379 244.13 119.025 240.712 117.017 252.807H135.743L135.678 252.91H224.605Z" fill="#009741"/>
<path id="Vector_8" d="M150.7 252.91C148.693 240.815 136.339 244.234 135.704 239.054C135.406 236.645 135.445 233.395 135.613 230.196C135.872 225.107 129.501 221.08 122.366 221.857C120.307 222.077 118.429 222.129 117.043 221.857C111.695 220.808 113.534 214.346 103.291 211.963C100.481 211.186 97.2949 210.888 94.0186 211.264C79.8256 212.883 82.6486 220.588 76.7694 221.753C75.3967 222.025 73.5061 221.973 71.447 221.753C64.3117 220.976 57.9404 225.004 58.1993 230.093C58.3677 233.291 58.3936 236.555 58.1087 238.951C57.4742 244.13 45.12 240.712 43.1128 252.807H61.8383L61.7735 252.91H150.7Z" fill="#95C122"/>
</g>
<g id="Group_7">
<path id="Vector_9" d="M387.617 243.185C385.908 232.877 375.38 235.791 374.836 231.375C374.59 229.329 374.616 226.544 374.758 223.825C374.978 219.487 369.552 216.055 363.466 216.716C361.705 216.91 360.099 216.949 358.933 216.716C354.375 215.822 355.942 210.318 347.214 208.285C344.818 207.625 342.111 207.366 339.314 207.69C327.219 209.062 329.628 215.641 324.616 216.625C323.438 216.858 321.832 216.819 320.084 216.625C313.997 215.952 308.571 219.396 308.792 223.734C308.934 226.467 308.96 229.238 308.714 231.284C308.17 235.7 297.642 232.786 295.932 243.094H311.9L311.835 243.185H387.617Z" fill="#95C122"/>
</g>
</g>
<path id="Vector_10" d="M248.924 340.464H183.243C177.26 340.464 172.404 335.608 172.404 329.625C172.404 323.643 177.26 318.786 183.243 318.786H248.912C254.894 318.786 259.751 323.643 259.751 329.625C259.764 335.608 254.907 340.464 248.924 340.464Z" fill="#95C122"/>
<path id="Vector_11" d="M243.33 281.685H108.587C101.439 281.685 95.6375 275.883 95.6375 268.735C95.6375 261.587 101.439 255.785 108.587 255.785H243.33C250.479 255.785 256.28 261.587 256.28 268.735C256.267 275.883 250.479 281.685 243.33 281.685Z" fill="#95C122"/>
<path id="Vector_12" d="M288.396 251.395H186.416C180.64 251.395 175.952 246.707 175.952 240.932C175.952 235.156 180.64 230.468 186.416 230.468H288.396C294.171 230.468 298.859 235.156 298.859 240.932C298.846 246.707 294.171 251.395 288.396 251.395Z" fill="#95C122"/>
<path id="Vector_13" d="M382.398 266.78H281.377C274.241 266.78 268.453 260.991 268.453 253.856C268.453 246.72 274.241 240.932 281.377 240.932H382.398C389.534 240.932 395.322 246.72 395.322 253.856C395.322 260.991 389.534 266.78 382.398 266.78Z" fill="#95C122"/>
<path id="Vector_14" d="M222.559 254.814V256.394C222.559 259.333 221.536 262.027 219.813 264.151C217.547 266.948 214.089 268.748 210.204 268.748H70.4628C67.9505 264.475 66.6037 259.709 66.4483 254.892L53.1748 268.748H38.8004C31.9759 268.748 26.4463 263.218 26.4463 256.394V254.814C26.4463 247.989 31.9759 242.473 38.8004 242.473H210.217C210.632 242.473 211.046 242.499 211.448 242.538C211.784 242.563 212.134 242.615 212.471 242.68C212.95 242.771 213.416 242.887 213.869 243.017C214.879 243.327 215.825 243.768 216.705 244.312C217.003 244.493 217.301 244.687 217.586 244.907C217.599 244.92 217.599 244.92 217.612 244.92C219.256 246.151 220.59 247.782 221.445 249.673C221.704 250.217 221.911 250.8 222.079 251.395C222.222 251.887 222.338 252.392 222.416 252.91C222.52 253.532 222.559 254.166 222.559 254.814Z" fill="#95C122"/>
<path id="Vector_15" d="M324.966 281.491H190.223C183.075 281.491 177.273 275.689 177.273 268.541C177.273 261.393 183.075 255.591 190.223 255.591H324.966C332.114 255.591 337.916 261.393 337.916 268.541C337.903 275.702 332.114 281.491 324.966 281.491Z" fill="#95C122"/>
<path id="Vector_16" d="M273.348 264.151H207.679C201.696 264.151 196.84 259.295 196.84 253.312C196.84 247.329 201.696 242.473 207.679 242.473H273.348C279.331 242.473 284.187 247.329 284.187 253.312C284.187 259.295 279.331 264.151 273.348 264.151Z" fill="#95C122"/>
<path id="Vector_17" d="M418.283 273.604L396.475 296.046H354.453C348.625 296.046 343.899 291.332 343.899 285.505V284.158C343.899 278.331 348.625 273.604 354.453 273.604H418.283Z" fill="#95C122"/>
<path id="Vector_18" opacity="0.27" d="M212.367 257.093H160.451C158.211 257.093 156.385 255.267 156.385 253.027C156.385 250.787 158.211 248.961 160.451 248.961H212.367C214.607 248.961 216.433 250.787 216.433 253.027C216.433 255.267 214.62 257.093 212.367 257.093Z" fill="#009741"/>
<path id="Vector_19" d="M299.248 153.922L189.873 217.739L189.07 216.521L298.445 152.705L299.248 153.922Z" fill="#E74744"/>
<g id="Group_8">
<g id="Group_9">
<g id="Group_10">
<g id="Group_11">
<path id="Vector_20" d="M174.774 209.49C174.774 208.57 174.372 207.754 173.751 207.159C173.647 206.977 173.518 206.809 173.375 206.667C175.784 204.439 178.283 201.551 179.41 198.366C181.08 198.728 179.656 203.494 180.834 204.141C184.15 204.75 188.19 208.195 188.19 208.195C188.19 208.195 191.777 207.949 194.484 205.618C193.991 213.854 184.525 218.516 184.15 218.58C183.891 218.632 175.629 214.864 170.85 212.675C171.044 212.714 171.239 212.727 171.446 212.727C173.285 212.727 174.774 211.277 174.774 209.49Z" fill="#D4D2D1"/>
</g>
<g id="Group_12">
<path id="Vector_21" d="M168.325 210.629C168.532 211.147 168.856 211.613 169.283 211.963C168.195 211.471 167.509 211.147 167.509 211.147C167.509 211.147 167.82 210.966 168.325 210.629Z" fill="#D4D2D1"/>
</g>
<path id="Vector_22" d="M169.283 211.963C169.736 212.17 170.267 212.416 170.837 212.675C170.254 212.572 169.723 212.313 169.283 211.963Z" fill="#D4D2D1"/>
<g id="Group_13">
<path id="Vector_23" d="M168.325 210.629C168.61 210.435 168.972 210.189 169.374 209.904C170.798 209.632 172.443 209.438 174.152 209.503C174.204 209.282 174.23 209.049 174.23 208.816C174.23 208.208 174.049 207.638 173.751 207.159C174.385 207.754 174.774 208.57 174.774 209.49C174.774 211.277 173.285 212.727 171.433 212.727C171.226 212.727 171.031 212.701 170.837 212.675C170.254 212.416 169.736 212.17 169.283 211.963C168.856 211.6 168.519 211.147 168.325 210.629Z" fill="#D4D2D1"/>
</g>
<path id="Vector_24" d="M173.259 206.77C173.298 206.731 173.336 206.693 173.375 206.667C173.518 206.822 173.647 206.99 173.751 207.159C173.595 207.016 173.44 206.874 173.259 206.77Z" fill="#D4D2D1"/>
<g id="Group_14">
<path id="Vector_25" d="M173.751 207.159C174.049 207.651 174.23 208.208 174.23 208.816C174.23 209.049 174.204 209.282 174.152 209.503C172.443 209.425 170.798 209.619 169.374 209.904C170.436 209.153 171.821 208.078 173.259 206.77C173.44 206.874 173.595 207.016 173.751 207.159Z" fill="#D4D2D1"/>
</g>
</g>
</g>
<path id="Vector_26" d="M216.485 239.041C215.799 239.572 215.022 239.999 214.193 240.258C213.688 240.66 213.066 241.126 212.6 241.372C212.51 241.424 212.432 241.463 212.367 241.502C211.849 242.149 211.279 242.745 210.606 243.25C211.279 245.102 211.875 249.906 210.774 250.515C208.689 251.68 215.074 251.965 214.828 250.696C215.268 249.79 216.861 245.775 216.809 242.486C216.809 241.67 216.692 240.453 216.485 239.041Z" fill="#E5E5E4"/>
<path id="Vector_27" d="M192.373 238.614C191.686 239.145 190.909 239.572 190.081 239.831C189.576 240.232 188.954 240.699 188.488 240.945C188.397 240.996 188.319 241.035 188.255 241.074C187.737 241.722 187.167 242.317 186.493 242.822C187.167 244.674 187.763 249.479 186.662 250.087C184.577 251.253 190.961 251.538 190.715 250.269C191.155 249.362 192.748 245.348 192.696 242.058C192.683 241.243 192.567 240.012 192.373 238.614Z" fill="#E5E5E4"/>
<path id="Vector_28" d="M215.009 222.893C215.255 222.893 218.881 219.577 217.405 212.054C226.262 216.56 221.652 225.47 221.652 225.47L215.009 222.893Z" fill="white"/>
<path id="Vector_29" d="M225.149 241.294C225.071 236.309 223.918 231.401 222.662 226.596C222.183 224.783 221.432 222.996 219.477 222.478C217.845 222.051 216.11 222.206 214.439 222.206C209.687 222.206 204.934 222.647 200.168 222.543C198.835 222.517 197.501 222.439 196.18 222.284C194.768 222.116 192.632 221.896 191.725 220.614C188.811 216.47 187.296 214.229 187.296 214.229L172.792 221.028C172.792 221.028 172.65 229.924 173.453 232.592C174.256 235.26 177.493 237.681 178.944 240.712C180.394 243.742 177.934 249.893 175.849 251.732C173.764 253.571 182.078 253.351 181.974 251.771C181.909 250.851 183.165 249.699 183.696 249.077C185.263 247.225 187.465 243.781 190.171 243.768C190.806 243.768 191.324 243.405 191.906 243.224C192.554 243.03 193.046 243.198 193.694 243.302C194.341 243.418 194.989 243.522 195.636 243.612C196.879 243.794 198.135 243.949 199.391 244.053C202.849 244.364 206.358 244.389 209.816 243.975C210.878 243.846 211.914 243.625 212.937 243.34C213.74 243.12 214.504 242.667 215.346 242.602C215.643 242.576 217.651 243.056 217.651 243.198C217.728 244.83 217.456 246.384 216.977 247.938C216.667 248.948 216.226 250.657 215.216 251.227C212.626 252.664 220.539 253.027 220.228 251.447C220.772 250.333 225.213 245.361 225.149 241.294Z" fill="#D4D2D1"/>
<path id="Vector_30" d="M186.778 222.97C187.659 222.323 189.86 220.225 191.129 218.943C192.386 217.648 189.07 214.76 188.371 215.654C188.527 216.094 189.096 216.949 189.096 216.949C182.026 224.11 173.595 223.113 172.585 222.828C171.575 222.543 170.656 225.237 172.145 225.677C173.647 226.117 179.19 228.513 186.778 222.97Z" fill="#FAB50D"/>
<path id="Vector_31" d="M165.049 211.29C165.631 210.616 167.146 210.422 167.898 210.228C168.441 211.303 169.581 212.054 170.889 212.054C172.495 212.054 173.829 210.953 174.152 209.503C176.211 209.593 178.348 210.046 180.278 211.212C182.803 212.714 184.693 214.928 185.665 217.687C186.131 219.008 186.455 220.717 185.898 222.051C184.965 224.252 181.896 224.473 179.863 224.693C176.134 225.081 172.054 223.916 169.231 221.416C168.273 220.562 167.405 219.616 166.667 218.58C165.515 216.962 163.805 213.478 164.919 211.484C164.958 211.406 164.997 211.354 165.049 211.29Z" fill="#D4D2D1"/>
<path id="Vector_32" d="M170.889 212.054C169.568 212.054 168.441 211.302 167.897 210.228C169.581 209.787 171.808 209.399 174.152 209.49C173.828 210.966 172.482 212.054 170.889 212.054Z" fill="#E5E5E4"/>
<path id="Vector_33" d="M164.401 210.072C165.657 209.995 169.581 211.251 169.451 211.859C169.322 212.468 166.136 213.685 165.476 213.452C164.815 213.206 163.585 210.008 164.401 210.072Z" fill="#513320"/>
<g id="Group_15">
<path id="Vector_34" d="M171.277 207.651C171.873 207.91 172.119 208.648 171.834 209.282C171.549 209.93 170.837 210.241 170.254 209.982C169.659 209.723 169.413 208.984 169.698 208.35C169.969 207.702 170.682 207.392 171.277 207.651Z" fill="#2A150D"/>
</g>
<path id="Vector_35" d="M169.477 221.533C169.464 221.533 169.464 221.533 169.451 221.533V221.041C169.503 221.054 173.699 221.041 174.541 219.034L174.994 219.228C174.049 221.481 169.866 221.533 169.477 221.533Z" fill="#513320"/>
<g id="Group_16">
<g id="Group_17">
<g id="Group_18">
<path id="Vector_36" d="M184.862 212.468C184.862 214.255 183.373 215.705 181.521 215.705C179.682 215.705 178.18 214.255 178.18 212.468C178.18 210.681 179.669 209.231 181.521 209.231C183.373 209.218 184.862 210.668 184.862 212.468Z" fill="#E5E5E4"/>
</g>
<g id="Group_19">
<path id="Vector_37" d="M181.909 211.303C182.505 211.562 182.751 212.3 182.466 212.934C182.181 213.582 181.482 213.893 180.886 213.634C180.291 213.375 180.045 212.636 180.329 212.002C180.614 211.354 181.314 211.044 181.909 211.303Z" fill="#2A150D"/>
</g>
</g>
</g>
</g>
<path id="Vector_38" d="M290.209 285.777V287.331C290.209 294.052 284.757 299.504 278.036 299.504H88.1265C89.4344 296.927 91.1308 294.518 93.2417 292.343L103.006 282.293C100.623 282.902 98.1756 283.213 95.728 283.213C89.0718 283.213 82.4156 280.96 76.9896 276.427C79.1004 274.679 81.807 273.617 84.7595 273.617H278.036C283.242 273.617 287.696 276.893 289.432 281.504C289.937 282.824 290.209 284.275 290.209 285.777Z" fill="#95C122"/>
<path id="Vector_39" opacity="0.27" d="M358.687 264.915H283.099C279.823 264.915 277.181 262.26 277.181 258.997C277.181 255.72 279.836 253.079 283.099 253.079H358.687C361.964 253.079 364.605 255.733 364.605 258.997C364.618 262.273 361.964 264.915 358.687 264.915Z" fill="#009741"/>
<path id="Vector_40" d="M302.964 153.857C302.679 156.098 298.82 158.208 296.58 157.923C294.34 157.639 293.575 156.24 293.873 154C294.158 151.759 298.199 150.102 300.439 150.387C302.679 150.672 303.249 151.617 302.964 153.857Z" fill="#FAD2B1"/>
<g id="Group_20">
<path id="Vector_41" d="M325.756 159.516L297.577 248.585L305.58 251.02L324.371 215.874L345.595 247.536L355.334 241.282L338.978 212.403L353.935 159.516H325.756Z" fill="white"/>
<path id="Vector_42" d="M345.595 247.536V253.662C345.595 253.959 345.44 254.244 345.194 254.413L336.608 260.136C336.362 260.305 336.207 260.59 336.207 260.888C336.207 261.393 336.608 261.794 337.113 261.794H347.952C348.172 261.794 348.379 261.716 348.548 261.574L360.047 251.538C360.384 251.24 360.462 250.735 360.203 250.359L354.544 241.787L345.595 247.536Z" fill="#322D69"/>
<path id="Vector_43" d="M304.816 250.787L300.271 261.198L279.305 253.895L280.03 252.794C281.196 251.007 283.242 249.997 285.365 250.165L296.36 251.02L297.577 248.585L304.816 250.787Z" fill="#322D69"/>
<path id="Vector_44" d="M325.756 159.516L341.93 123.334H351.203L352.769 159.516H325.756Z" fill="#E74744"/>
<path id="Vector_45" d="M339.845 117.067H351.461L356.939 172.518L342.979 175.393C342.979 175.393 336.453 165.473 336.984 140.04C336.984 140.04 317.157 152.653 301.76 156.136L299.934 149.182C299.921 149.169 335.417 136.116 339.845 117.067Z" fill="#322D69"/>
<path id="Vector_46" d="M342.72 117.067V113.674C342.72 113.674 331.635 109.232 341.542 95.0132C351.448 80.7943 364.113 107.147 351.979 112.107L350.93 117.067H342.72Z" fill="#FAD2B1"/>
<path id="Vector_47" d="M362.689 100.763C362.689 108.196 352.51 113.156 352.51 113.156C352.277 113.001 352.07 112.793 351.902 112.547C350.684 110.799 351.086 107.29 351.086 107.29L352.381 106.707C352.989 106.435 353.378 105.826 353.378 105.179C353.378 105.036 353.352 104.881 353.313 104.726C353.041 103.741 351.953 103.223 351.021 103.651L350.322 103.962C350.581 102.459 350.425 99.8694 343.277 96.1916C342.565 95.8161 341.982 95.4405 341.555 95.052C337.605 91.5944 344.714 87.9685 344.714 87.9685C349.26 86.4015 352.925 86.7641 355.735 88.2145C356.136 90.2347 356.318 92.2937 356.292 94.3398L359.361 91.18C361.575 93.8995 362.689 97.5255 362.689 100.763Z" fill="#E74744"/>
<path id="Vector_48" d="M324.37 215.874L336.194 186.724L327.504 220.562L324.37 215.874Z" fill="#322D69"/>
<path id="Vector_49" d="M336.984 140.027C336.984 140.027 342.202 135.572 344.21 132.36C344.21 132.36 337.074 144.3 337.126 149.493L336.984 140.027Z" fill="#24224F"/>
</g>
<path id="Vector_50" d="M298.225 150.296C298.225 150.296 300.828 155.385 297.616 158.545C294.404 161.705 296.502 166.263 297.94 168.724" stroke="#E74744" stroke-width="3" stroke-miterlimit="10" stroke-linecap="round"/>
</g>
</g>
</svg>
