<svg width="352" height="48" viewBox="0 0 352 48" fill="none" xmlns="http://www.w3.org/2000/svg">
<path d="M15.936 32.128C14.272 32.128 12.864 32.0853 11.712 32C10.6027 31.872 9.13067 31.68 7.296 31.424L7.232 38.144C7.18933 39.296 7.168 40.9387 7.168 43.072C7.168 44.1813 6.848 45.056 6.208 45.696C5.61067 46.2933 4.928 46.592 4.16 46.592C2.752 46.592 1.70667 46.4213 1.024 46.08C0.341333 45.696 0 45.0347 0 44.096C0 42.8587 0.106667 41.1093 0.32 38.848C0.789333 33.984 1.024 28.992 1.024 23.872C1.024 19.0933 0.874667 14.592 0.576 10.368C0.618667 9.77067 0.917334 9.088 1.472 8.32C2.06933 7.552 2.816 7.12533 3.712 7.04C4.69333 7.04 6.25067 6.86933 8.384 6.528C10.6027 6.18667 12.288 6.016 13.44 6.016C16.9387 6.016 19.648 6.35734 21.568 7.04C23.5307 7.72267 25.4933 8.85333 27.456 10.432C29.5893 13.76 30.656 16.1067 30.656 17.472C30.656 20.3307 30.08 22.8693 28.928 25.088C27.776 27.3067 26.0907 29.0347 23.872 30.272C21.6533 31.5093 19.008 32.128 15.936 32.128ZM14.464 11.456C13.0987 11.456 11.904 11.5413 10.88 11.712C9.89867 11.84 8.704 12.0747 7.296 12.416C7.46667 16.3413 7.552 19.2 7.552 20.992C7.552 22.8267 7.488 24.3627 7.36 25.6C9.19467 25.984 10.6453 26.24 11.712 26.368C12.7787 26.4533 13.9733 26.496 15.296 26.496C18.4533 26.496 20.672 25.6853 21.952 24.064C23.2747 22.4 23.936 20.48 23.936 18.304C23.936 17.664 23.744 16.8747 23.36 15.936C22.976 14.9973 22.6347 14.3787 22.336 14.08C21.184 13.056 20.0533 12.3733 18.944 12.032C17.8773 11.648 16.384 11.456 14.464 11.456Z" fill="#1F74BA"/>
<path d="M58.881 26.048C59.2223 26.6453 59.4997 27.52 59.713 28.672C59.9263 29.7813 60.033 30.784 60.033 31.68C60.033 33.344 59.6703 35.712 58.945 38.784C56.001 44.16 51.649 46.848 45.889 46.848C43.7557 46.848 41.5797 46.144 39.361 44.736C37.1423 43.328 35.6063 41.7067 34.753 39.872C33.601 36.2027 33.025 33.8773 33.025 32.896C33.025 31.1893 33.3877 29.376 34.113 27.456C34.881 25.536 35.841 23.872 36.993 22.464C37.7183 21.4827 39.0197 20.6507 40.897 19.968C42.7743 19.2427 44.481 18.88 46.017 18.88C49.0037 18.88 51.5423 19.456 53.633 20.608C55.7237 21.7173 57.473 23.5307 58.881 26.048ZM53.313 36.352C53.5263 35.7973 53.633 34.368 53.633 32.064C53.633 30.8267 53.3983 29.6107 52.929 28.416C52.5023 27.2213 51.8623 26.1973 51.009 25.344C50.9237 25.2587 50.689 25.1307 50.305 24.96C49.921 24.7467 49.3877 24.5547 48.705 24.384C48.065 24.1707 47.3183 24.064 46.465 24.064C44.0757 24.064 42.3263 25.024 41.217 26.944C40.1077 28.864 39.553 31.04 39.553 33.472C39.553 33.8987 39.6597 34.7093 39.873 35.904C40.129 37.0987 40.3423 37.8453 40.513 38.144C40.641 38.4427 40.961 38.8693 41.473 39.424C42.0277 39.936 42.689 40.4053 43.457 40.832C44.2677 41.216 45.0997 41.408 45.953 41.408C47.873 41.408 49.409 40.96 50.561 40.064C51.713 39.1253 52.6303 37.888 53.313 36.352Z" fill="#1F74BA"/>
<path d="M106.671 44.352C106.031 43.1573 105.626 41.8347 105.455 40.384C105.284 38.8907 105.199 36.8427 105.199 34.24C105.199 31.7653 104.858 29.6107 104.175 27.776C103.492 25.9413 102.084 25.024 99.951 25.024C99.1403 25.024 98.3297 25.28 97.519 25.792C96.751 26.2613 96.175 26.8587 95.791 27.584C95.1937 28.736 94.7883 29.9947 94.575 31.36C94.3617 32.6827 94.255 34.2187 94.255 35.968C94.255 37.0773 94.319 38.208 94.447 39.36C94.447 39.7013 94.4683 40.256 94.511 41.024C94.5963 41.7493 94.639 42.4107 94.639 43.008C94.639 45.568 93.743 46.848 91.951 46.848C89.6043 46.848 88.367 45.6107 88.239 43.136C88.239 41.3867 88.2603 40.448 88.303 40.32V37.568C88.303 36.032 88.239 34.5387 88.111 33.088C87.983 31.6373 87.8337 30.5493 87.663 29.824C87.279 28.416 86.767 27.328 86.127 26.56C85.5297 25.792 84.5697 25.408 83.247 25.408C81.3697 25.408 79.855 26.2187 78.703 27.84C77.8923 29.12 77.359 30.6773 77.103 32.512C76.847 34.8587 76.655 36.7147 76.527 38.08C76.4417 39.4027 76.399 40.9387 76.399 42.688C76.399 43.9253 76.1857 44.928 75.759 45.696C75.375 46.464 74.6283 46.848 73.519 46.848C72.7083 46.848 71.855 46.6347 70.959 46.208C70.1057 45.7387 69.679 45.12 69.679 44.352C69.679 43.5413 69.7643 42.7307 69.935 41.92C70.319 39.488 70.511 35.136 70.511 28.864C70.511 27.84 70.255 26.8587 69.743 25.92C69.2737 24.9387 68.6977 24.448 68.015 24.448C67.8443 24.448 67.5243 24.5333 67.055 24.704C66.6283 24.8747 66.3083 24.96 66.095 24.96C65.5403 24.96 65.0283 24.704 64.559 24.192C64.1323 23.68 63.919 23.2533 63.919 22.912C63.919 21.8453 64.431 20.9493 65.455 20.224C66.5217 19.456 67.631 19.072 68.783 19.072C70.3617 19.072 71.7057 19.5627 72.815 20.544C73.9243 21.5253 74.7777 22.8907 75.375 24.64C76.3563 22.9333 77.679 21.568 79.343 20.544C81.007 19.4773 82.863 18.944 84.911 18.944C86.191 18.944 87.215 19.1147 87.983 19.456C88.7937 19.7547 89.455 20.2027 89.967 20.8C90.479 21.3547 91.1403 22.208 91.951 23.36C93.0177 21.9947 94.383 20.928 96.047 20.16C97.7537 19.392 99.503 19.008 101.295 19.008C103.428 19.008 105.348 19.8827 107.055 21.632C108.762 23.3387 109.914 25.3227 110.511 27.584C110.81 28.736 110.959 30.9547 110.959 34.24L111.215 37.952C111.428 40.1707 112.154 41.5147 113.391 41.984C114.842 42.4107 115.567 42.8587 115.567 43.328C115.567 44.352 115.311 45.0987 114.799 45.568C114.415 45.824 113.882 46.1013 113.199 46.4C112.516 46.6987 111.983 46.848 111.599 46.848C109.295 46.848 107.652 46.016 106.671 44.352Z" fill="#1F74BA"/>
<path d="M134.692 11.328C133.668 11.328 132.665 11.2427 131.684 11.072C130.745 10.8587 130.041 10.5173 129.572 10.048C128.036 8.512 127.267 6.976 127.267 5.44C127.267 4.58667 127.545 3.75467 128.1 2.944C128.654 2.09067 129.401 1.38667 130.34 0.832001C131.278 0.277334 132.324 0 133.476 0C135.694 0 137.401 0.512 138.596 1.536C139.79 2.51733 140.387 3.968 140.387 5.888C140.387 6.656 140.068 7.46667 139.428 8.32C138.83 9.17333 138.083 9.89867 137.188 10.496C136.292 11.0507 135.46 11.328 134.692 11.328ZM133.604 3.328C133.049 3.328 132.494 3.54133 131.939 3.968C131.427 4.352 131.172 4.88534 131.172 5.568C131.172 6.29333 131.385 6.89067 131.812 7.36C132.281 7.82933 132.878 8.064 133.604 8.064C134.457 8.064 135.14 7.872 135.652 7.488C136.206 7.104 136.484 6.54934 136.484 5.824C136.484 5.056 136.227 4.45867 135.715 4.032C135.204 3.56267 134.5 3.328 133.604 3.328ZM118.883 25.024C119.225 25.024 119.545 25.0027 119.843 24.96C120.185 24.8747 120.483 24.832 120.739 24.832C121.081 24.832 121.379 24.96 121.635 25.216C121.934 25.472 122.083 25.792 122.083 26.176C122.083 27.456 122.019 28.864 121.891 30.4C121.721 32.7893 121.635 34.7733 121.635 36.352C121.635 37.5467 121.721 38.4427 121.891 39.04C122.105 39.6373 122.233 39.9787 122.275 40.064C122.873 41.856 124.025 43.4347 125.731 44.8C127.438 46.1653 129.124 46.848 130.788 46.848C132.025 46.848 133.262 46.72 134.5 46.464C135.737 46.1653 136.782 45.7173 137.636 45.12C138.873 44.096 140.217 42.752 141.668 41.088C142.222 42.7947 143.076 44.1813 144.228 45.248C145.38 46.3147 146.745 46.848 148.324 46.848C148.878 46.848 149.39 46.6347 149.86 46.208C150.372 45.7387 150.628 45.248 150.628 44.736C150.628 44.3947 150.5 44.0533 150.244 43.712C149.988 43.328 149.433 42.6667 148.58 41.728C148.238 41.2587 147.875 40.6827 147.492 40C147.108 39.2747 146.809 38.5707 146.596 37.888C146.297 36.8213 146.126 35.7547 146.084 34.688C145.998 33.9627 145.956 32.832 145.956 31.296L145.892 27.904C145.892 26.1973 146.041 24.896 146.34 24C146.468 23.5307 146.532 23.04 146.532 22.528C146.532 21.5467 146.404 20.8427 146.148 20.416C145.934 19.9893 145.486 19.6267 144.804 19.328C144.164 18.9867 143.588 18.816 143.076 18.816C142.18 18.816 141.476 19.136 140.964 19.776C140.452 20.3733 140.196 21.1413 140.196 22.08C140.196 23.5307 140.089 25.28 139.876 27.328C139.79 27.968 139.705 28.9707 139.62 30.336C139.492 32.4267 139.278 34.0693 138.98 35.264C138.724 36.4587 138.148 37.5253 137.252 38.464C136.356 39.4027 135.524 40.0853 134.756 40.512C133.988 40.9387 132.985 41.152 131.748 41.152C131.236 41.152 130.66 40.9813 130.02 40.64C129.38 40.2987 128.91 39.8293 128.612 39.232C127.801 37.3973 127.396 34.9867 127.396 32C127.396 31.0187 127.481 29.632 127.651 27.84C127.822 26.304 127.907 25.3013 127.907 24.832C127.907 23.2107 127.395 21.9733 126.371 21.12C125.347 20.224 124.025 19.776 122.403 19.776C121.806 19.776 121.123 19.9253 120.355 20.224C119.587 20.5227 119.075 20.736 118.819 20.864C117.966 21.7173 117.539 22.6347 117.539 23.616C117.539 24 117.668 24.3413 117.924 24.64C118.222 24.896 118.542 25.024 118.883 25.024Z" fill="#1F74BA"/>
<path d="M167.443 11.904C166.504 11.904 165.757 11.776 165.202 11.52C164.69 11.2213 164.115 10.752 163.475 10.112C162.749 9.42933 161.384 8 159.379 5.824C158.952 5.35467 158.611 4.94934 158.355 4.608C158.099 4.26667 157.971 3.98933 157.971 3.776C157.971 3.43467 158.248 3.072 158.803 2.688C159.357 2.26133 159.912 2.048 160.467 2.048C161.448 2.048 162.28 2.32533 162.963 2.88C163.688 3.392 164.477 4.18134 165.331 5.248C165.501 5.46133 165.779 5.80267 166.163 6.272C166.547 6.69867 166.93 7.06134 167.314 7.36C167.912 6.89067 168.829 5.97334 170.067 4.608C170.877 3.712 171.517 3.072 171.987 2.688C172.499 2.26133 173.011 2.048 173.523 2.048C174.248 2.048 174.952 2.26133 175.635 2.688C176.36 3.072 176.723 3.43467 176.723 3.776C176.723 4.33067 175.869 5.41867 174.163 7.04C172.712 8.448 171.603 9.64267 170.835 10.624C170.579 10.9653 170.152 11.264 169.555 11.52C168.957 11.776 168.253 11.904 167.443 11.904ZM177.618 24.704C176.722 26.24 175.507 27.8187 173.971 29.44C172.435 31.0613 170.472 32.9813 168.083 35.2C165.821 37.3333 164.563 38.5493 164.307 38.848L162.131 40.832C162.984 41.0027 164.584 41.088 166.931 41.088C167.869 41.088 169.235 40.9173 171.027 40.576C172.733 40.2347 173.992 40.064 174.803 40.064C175.485 40.064 176.253 40.1707 177.107 40.384C178.003 40.5973 178.835 40.9173 179.603 41.344C179.987 41.5147 180.306 41.856 180.562 42.368C180.819 42.8373 180.947 43.2853 180.947 43.712C180.947 44.2667 180.754 44.8853 180.37 45.568C179.986 46.2507 179.539 46.592 179.027 46.592C178.557 46.592 177.939 46.5067 177.171 46.336C176.019 46.1227 175.208 46.016 174.739 46.016C173.245 46.016 171.261 46.1227 168.786 46.336C165.373 46.592 162.856 46.72 161.235 46.72C159.187 46.72 157.565 46.464 156.37 45.952C155.218 45.44 154.643 44.48 154.643 43.072C154.643 42.0053 155.176 40.7893 156.243 39.424C157.309 38.016 158.61 36.544 160.146 35.008L161.043 34.048C161.725 33.3653 162.877 32.3413 164.499 30.976C166.12 29.568 167.357 28.4587 168.211 27.648C169.064 26.7947 169.768 25.8987 170.323 24.96L160.083 25.024C158.419 25.024 157.181 24.832 156.37 24.448C155.602 24.064 155.219 23.3387 155.219 22.272C155.219 21.6747 155.432 21.12 155.859 20.608C156.285 20.0533 156.84 19.712 157.523 19.584C159.059 19.3707 162.195 19.264 166.931 19.264C171.667 19.264 174.931 19.4987 176.723 19.968C177.192 20.1387 177.555 20.4587 177.811 20.928C178.109 21.3547 178.258 21.8027 178.258 22.272C178.258 23.04 178.045 23.8507 177.618 24.704Z" fill="#1F74BA"/>
<path d="M184.522 31.936C184.522 29.3333 185.098 27.1787 186.25 25.472C187.402 23.7227 189.002 22.08 191.05 20.544C191.647 20.1173 192.65 19.7547 194.058 19.456C195.466 19.1147 196.703 18.944 197.77 18.944C199.05 18.944 200.394 19.2213 201.802 19.776C203.253 20.288 204.426 20.8853 205.322 21.568C206.901 22.72 207.989 24.064 208.586 25.6C209.183 27.0933 209.482 28.8853 209.482 30.976C209.482 31.872 208.97 32.7467 207.946 33.6C206.965 34.4107 205.898 34.816 204.746 34.816L202.314 34.752C201.077 34.752 199.306 34.7947 197.002 34.88L195.658 34.944C194.719 35.0293 194.015 35.072 193.546 35.072C192.863 35.072 191.925 34.9867 190.73 34.816C190.901 36.8213 191.647 38.4 192.97 39.552C194.293 40.6613 195.722 41.216 197.258 41.216C199.946 41.216 201.823 40.6827 202.89 39.616C203.786 38.976 204.383 38.5707 204.682 38.4C204.981 38.2293 205.45 38.144 206.09 38.144C206.773 38.144 207.37 38.464 207.882 39.104C208.394 39.744 208.65 40.384 208.65 41.024C208.65 41.7493 208.202 42.496 207.306 43.264C206.453 43.9893 205.279 44.7573 203.786 45.568C202.975 45.9093 201.866 46.208 200.458 46.464C199.05 46.72 197.877 46.848 196.938 46.848C195.445 46.848 193.781 46.4213 191.946 45.568C190.111 44.672 188.746 43.6907 187.85 42.624C186.954 41.5573 186.165 40.0427 185.482 38.08C184.842 36.1173 184.522 34.0693 184.522 31.936ZM197.258 30.208C200.287 30.208 202.506 30.1013 203.914 29.888C203.829 28.6507 203.445 27.648 202.762 26.88C202.079 26.0693 201.141 25.3867 199.946 24.832C199.562 24.6613 199.221 24.5333 198.922 24.448C198.623 24.3627 198.282 24.32 197.898 24.32C195.935 24.32 194.271 24.8533 192.906 25.92C191.583 26.9867 190.794 28.352 190.538 30.016C192.671 30.144 194.911 30.208 197.258 30.208Z" fill="#1F74BA"/>
<path d="M215.473 24.576C214.406 23.68 213.873 22.6347 213.873 21.44C213.873 20.8427 214.172 20.3093 214.769 19.84C215.366 19.328 216.092 19.072 216.945 19.072C218.481 19.072 219.74 19.4773 220.721 20.288C221.702 21.0987 222.556 22.272 223.281 23.808C224.177 22.144 225.308 20.928 226.673 20.16C228.081 19.3493 229.852 18.944 231.985 18.944C233.265 18.944 234.289 19.1147 235.057 19.456C235.868 19.7547 236.529 20.2027 237.041 20.8C237.553 21.3547 238.193 22.208 238.961 23.36C240.07 21.9947 241.457 20.928 243.121 20.16C244.828 19.392 246.577 19.008 248.369 19.008C250.46 19.008 252.358 19.8827 254.065 21.632C255.814 23.3813 256.988 25.3653 257.585 27.584C257.798 28.5227 257.948 30.7413 258.033 34.24L258.289 37.952C258.502 40.2133 259.228 41.5573 260.465 41.984C261.062 42.1547 261.553 42.368 261.937 42.624C262.364 42.8373 262.577 43.072 262.577 43.328C262.662 44.352 262.428 45.0987 261.873 45.568C261.489 45.824 260.956 46.1013 260.273 46.4C259.59 46.6987 259.057 46.848 258.673 46.848C256.369 46.848 254.726 46.016 253.745 44.352C253.105 43.2427 252.7 41.984 252.529 40.576C252.358 39.1253 252.273 37.1627 252.273 34.688C252.273 32.0427 251.953 29.7813 251.313 27.904C250.673 25.984 249.222 25.024 246.961 25.024C246.15 25.024 245.34 25.28 244.529 25.792C243.761 26.2613 243.206 26.8587 242.865 27.584C242.268 28.736 241.862 29.9947 241.649 31.36C241.436 32.6827 241.329 34.2187 241.329 35.968C241.329 37.0773 241.393 38.208 241.521 39.36C241.521 39.7013 241.542 40.256 241.585 41.024C241.67 41.7493 241.713 42.4107 241.713 43.008C241.713 44.0747 241.5 44.992 241.073 45.76C240.689 46.4853 240.006 46.848 239.025 46.848C236.678 46.848 235.441 45.6107 235.313 43.136C235.313 41.3867 235.334 40.448 235.377 40.32V37.568C235.377 36.032 235.313 34.5387 235.185 33.088C235.057 31.6373 234.908 30.5493 234.737 29.824C234.353 28.416 233.841 27.328 233.201 26.56C232.561 25.792 231.58 25.408 230.257 25.408C229.361 25.408 228.529 25.6213 227.761 26.048C226.993 26.4747 226.332 27.072 225.777 27.84C224.966 29.12 224.433 30.6773 224.177 32.512C223.921 34.8587 223.729 36.7147 223.601 38.08C223.516 39.4027 223.473 40.9387 223.473 42.688C223.473 43.9253 223.26 44.928 222.833 45.696C222.449 46.464 221.702 46.848 220.593 46.848C219.782 46.848 218.929 46.6347 218.033 46.208C217.18 45.7387 216.753 45.12 216.753 44.352C216.753 43.5413 216.838 42.7307 217.009 41.92C217.393 39.488 217.585 35.3493 217.585 29.504C217.585 28.5653 217.372 27.648 216.945 26.752C216.561 25.8133 216.07 25.088 215.473 24.576Z" fill="#1F74BA"/>
<path d="M266.525 32.128C266.525 30.592 266.802 29.1627 267.357 27.84C267.912 26.4747 268.722 25.0667 269.789 23.616C270.856 22.1653 272.328 21.0347 274.205 20.224C276.082 19.3707 278.13 18.944 280.349 18.944C282.056 18.944 283.698 19.3067 285.277 20.032C286.898 20.7147 288.349 21.568 289.629 22.592C289.8 22.8907 290.098 23.4453 290.525 24.256C290.952 25.024 291.25 25.728 291.421 26.368C291.634 27.008 291.741 27.6693 291.741 28.352C291.741 31.2107 290.696 33.1307 288.605 34.112C286.514 35.0507 283.869 35.52 280.669 35.52C277.469 35.52 274.866 35.3067 272.861 34.88C272.946 35.6907 273.16 36.5013 273.501 37.312C273.842 38.1227 274.248 38.7413 274.717 39.168C275.57 39.9787 276.402 40.512 277.213 40.768C278.066 40.9813 279.197 41.088 280.605 41.088C282.738 41.088 284.402 40.6827 285.597 39.872C286.706 39.1467 287.56 38.784 288.157 38.784C288.968 38.784 289.586 39.04 290.013 39.552C290.44 40.0213 290.653 40.64 290.653 41.408C290.653 43.0293 289.608 44.352 287.517 45.376C285.469 46.4 283.144 46.912 280.541 46.912C278.493 46.912 276.466 46.5493 274.461 45.824C272.456 45.0987 270.856 44.0747 269.661 42.752C268.85 41.3867 268.125 39.7227 267.485 37.76C266.845 35.7973 266.525 33.92 266.525 32.128ZM280.605 24.192C279.666 24.192 278.685 24.3627 277.661 24.704C276.68 25.0027 275.912 25.472 275.357 26.112C274.674 26.8373 274.162 27.4987 273.821 28.096C273.522 28.6933 273.33 29.44 273.245 30.336C273.714 30.336 274.162 30.3573 274.589 30.4C275.016 30.4427 275.421 30.4853 275.805 30.528C277.682 30.6987 279.09 30.784 280.029 30.784C281.906 30.784 283.336 30.5067 284.317 29.952C285.341 29.3973 285.853 28.6507 285.853 27.712C285.853 26.816 285.277 26.0053 284.125 25.28C283.016 24.5547 281.842 24.192 280.605 24.192Z" fill="#1F74BA"/>
<path d="M306.808 43.072C306.808 44.1387 306.381 45.1413 305.528 46.08C304.675 46.976 303.736 47.424 302.712 47.424C301.517 47.424 300.429 47.104 299.448 46.464C298.467 45.7813 297.976 44.928 297.976 43.904C297.976 42.2827 298.275 41.088 298.872 40.32C299.512 39.552 300.451 39.168 301.688 39.168C303.139 39.168 304.355 39.5307 305.336 40.256C306.317 40.9387 306.808 41.8773 306.808 43.072Z" fill="#1F74BA"/>
<path d="M331.838 31.936C333.545 32.9173 334.739 33.8987 335.422 34.88C336.105 35.8187 336.446 37.056 336.446 38.592C336.446 40.128 335.998 41.4933 335.102 42.688C334.206 43.84 333.054 44.736 331.646 45.376C330.622 45.8453 329.342 46.208 327.806 46.464C326.313 46.72 325.139 46.848 324.286 46.848C322.793 46.848 321.171 46.5707 319.422 46.016C317.673 45.4613 316.179 44.672 314.942 43.648C313.747 42.624 313.15 41.4293 313.15 40.064C313.15 39.2107 313.427 38.5493 313.982 38.08C314.537 37.568 315.262 37.312 316.158 37.312C316.883 37.312 317.651 37.824 318.462 38.848C319.273 39.744 320.211 40.4267 321.278 40.896C322.387 41.3653 323.475 41.6 324.542 41.6C328.595 41.6 330.622 40.6827 330.622 38.848C330.622 38.464 330.494 38.1013 330.238 37.76C329.982 37.376 329.747 37.12 329.534 36.992C329.15 36.6933 328.617 36.4373 327.934 36.224C327.251 36.0107 326.569 35.84 325.886 35.712C325.203 35.5413 324.691 35.4133 324.35 35.328C324.009 35.2427 323.283 35.0933 322.174 34.88C321.107 34.6667 320.083 34.304 319.102 33.792C317.481 33.024 316.158 32.0853 315.134 30.976C314.153 29.8667 313.662 28.4373 313.662 26.688C313.662 25.7067 313.897 24.7253 314.366 23.744C314.878 22.72 315.561 21.952 316.414 21.44C317.694 20.6293 319.102 20.0107 320.638 19.584C322.174 19.1573 323.603 18.944 324.926 18.944C325.993 18.944 327.187 19.0507 328.51 19.264C329.875 19.4773 330.857 19.776 331.454 20.16C332.563 20.7573 333.374 21.376 333.886 22.016C334.398 22.656 334.654 23.4667 334.654 24.448C334.654 24.9173 334.547 25.3867 334.334 25.856C334.121 26.2827 333.865 26.5813 333.566 26.752C332.883 27.008 332.286 27.136 331.774 27.136C331.39 27.136 331.07 27.072 330.814 26.944C330.558 26.7733 330.323 26.6027 330.11 26.432C329.939 26.2613 329.833 26.1547 329.79 26.112C329.235 25.5147 328.617 25.0453 327.934 24.704C327.251 24.3627 326.249 24.192 324.926 24.192C324.073 24.192 323.241 24.32 322.43 24.576C321.662 24.7893 321.065 25.0667 320.638 25.408C320.297 25.664 320.062 25.8987 319.934 26.112C319.806 26.2827 319.742 26.5173 319.742 26.816C319.742 28.0107 320.937 28.8853 323.326 29.44C325.758 29.9947 327.038 30.2933 327.166 30.336C327.422 30.4213 328.126 30.6347 329.278 30.976C330.473 31.3173 331.326 31.6373 331.838 31.936Z" fill="#1F74BA"/>
<path d="M345.738 5.504C347.232 5.632 348.533 6.03733 349.642 6.72C350.752 7.36 351.306 8.34133 351.306 9.664C351.306 10.6453 350.837 11.4347 349.898 12.032C349.002 12.5867 347.914 12.864 346.634 12.864C345.397 12.864 344.544 12.544 344.074 11.904C343.605 11.264 343.37 10.6027 343.37 9.92C343.37 8.64 343.498 7.57333 343.754 6.72C344.053 5.86667 344.714 5.46134 345.738 5.504ZM350.858 33.856V35.712C350.858 37.376 350.901 38.9547 350.986 40.448C351.114 41.8987 351.264 43.3707 351.434 44.864C351.392 45.2907 351.072 45.7387 350.474 46.208C349.877 46.6347 349.344 46.848 348.874 46.848C348.064 46.848 347.232 46.6987 346.378 46.4C345.568 46.0587 345.077 45.6533 344.906 45.184C344.65 43.8187 344.522 42.6027 344.522 41.536C344.522 38.0373 344.416 34.112 344.202 29.76C344.032 25.92 343.947 23.232 343.947 21.696C343.947 20.928 344.33 20.2667 345.098 19.712C345.866 19.1573 346.677 18.88 347.53 18.88C348.768 18.88 349.621 19.1573 350.09 19.712C350.602 20.2667 350.858 21.1413 350.858 22.336V33.856Z" fill="#1F74BA"/>
</svg>
