<svg width="65" height="63" viewBox="0 0 65 63" fill="none" xmlns="http://www.w3.org/2000/svg">
<path fill-rule="evenodd" clip-rule="evenodd" d="M0 26.609C0 40.9051 10.3057 52.7521 25.2738 52.7521C40.1612 52.7521 50.4669 40.9051 50.4669 26.609C50.4669 11.4333 40.3493 0.465942 25.2738 0.465942C10.1176 0.465942 0 11.4333 0 26.609ZM9.72792 26.609C9.72792 17.1112 15.4652 7.90833 25.2738 7.90833C35.0017 7.90833 40.739 17.1112 40.739 26.609C40.739 35.5196 35.9825 45.311 25.2738 45.311C14.4844 45.311 9.72792 35.5196 9.72792 26.609Z" fill="#CFBDA2"/>
<path d="M64.1451 62.5341V59.0484H55.183C58.7705 55.5004 63.4464 51.1919 63.4464 46.5032C63.4464 42.1623 60.7457 40.0405 56.567 40.0405C54.3366 40.0405 52.0389 40.6116 50.0504 41.6251L50.3997 45.3003C51.8374 44.349 53.611 43.5249 55.4652 43.5249C57.2522 43.5249 59.0527 44.4762 59.0527 46.5032C59.0527 50.5586 51.5956 56.8319 49.5532 58.8278V62.5341H64.1451Z" fill="#CFBDA2"/>
</svg>
