<svg width="175" height="100" viewBox="0 0 175 100" fill="none" xmlns="http://www.w3.org/2000/svg">
<path d="M108.5 39.0002H130.5V43.8982H108.5V39.0002Z" fill="#CFBDA2"/>
<path d="M131.5 39.0002H145.5V43.8982H131.5V39.0002Z" fill="#CFBDA2"/>
<path d="M131.5 58.1021H145.5V63H131.5V58.1021Z" fill="#CFBDA2"/>
<path d="M108.5 47.8165H130.5V53.2042H108.5V47.8165Z" fill="#CFBDA2"/>
<path d="M102.5 63V39.0002L107.5 39.0002V63H102.5Z" fill="#CFBDA2"/>
<path d="M80 63V39.0002L84.5 39.0002V63H80Z" fill="#CFBDA2"/>
<path d="M70.5 63V39.0002L76 39.0002V63H70.5Z" fill="#CFBDA2"/>
<path d="M62 43.8982L44.5 43.8982V39.0002L62 39.0002V43.8982Z" fill="#CFBDA2"/>
<path d="M62 54.1838V39.0002L62.5 39.0002C65.2614 39.0002 67.5 41.1931 67.5 43.8982V49.2859C67.5 51.9909 65.2614 54.1838 62.5 54.1838H62Z" fill="#CFBDA2"/>
<path d="M62 54.1838L44.5 54.1838V49.7756L62 49.7756V54.1838Z" fill="#CFBDA2"/>
<path d="M56.6013 50.2654L53 53.7932L62.3723 62.9742H69.575L56.6013 50.2654Z" fill="#CFBDA2"/>
<path d="M50 54.1838V63H44.5V54.1838L50 54.1838Z" fill="#CFBDA2"/>
<path d="M28.5 63L28.5 39.0002L34 39.0002L34 63H28.5Z" fill="#CFBDA2"/>
<path d="M43.5 43.8982L19 43.8982L19 39.0002L43.5 39.0002V43.8982Z" fill="#CFBDA2"/>
<path d="M108.5 58.1021H130.5V63H108.5V58.1021Z" fill="#CFBDA2"/>
<path fill-rule="evenodd" clip-rule="evenodd" d="M91.8694 57.8426L80.8694 41.4346L84.6308 39.0149L93.706 52.5518L102.344 39.0541L106.156 41.3954L95.6565 57.8034L91.8694 57.8426Z" fill="#CFBDA2"/>
<path fill-rule="evenodd" clip-rule="evenodd" d="M141.82 63C141.797 63 141.773 63 141.75 63V58.1021C143.281 58.1021 144.619 58.0993 145.837 57.9648C147.046 57.8313 147.953 57.5837 148.637 57.202C149.732 56.5908 151 55.2064 151 50.7796C151 48.5839 150.632 47.193 150.174 46.3095C149.74 45.4735 149.169 44.9797 148.481 44.6448C147.739 44.2836 146.787 44.0744 145.591 43.9759C144.585 43.893 143.56 43.8963 142.447 43.8998C142.219 43.9005 141.987 43.9012 141.75 43.9012V39.0033C141.949 39.0033 142.155 39.0025 142.368 39.0017C143.481 38.9975 144.766 38.9927 146.01 39.0952C147.51 39.2188 149.167 39.5093 150.706 40.2585C152.299 41.034 153.682 42.2612 154.631 44.0902C155.555 45.8717 156 48.0895 156 50.7796C156 56.1242 154.393 59.6255 151.113 61.4572C149.609 62.2969 147.954 62.66 146.397 62.8319C144.874 63.0001 143.271 63 141.82 63Z" fill="#CFBDA2"/>
</svg>
