<svg width="105" height="74" viewBox="0 0 105 74" fill="none" xmlns="http://www.w3.org/2000/svg">
<path fill-rule="evenodd" clip-rule="evenodd" d="M20 32.609C20 46.9051 30.3057 58.7521 45.2738 58.7521C60.1612 58.7521 70.4669 46.9051 70.4669 32.609C70.4669 17.4333 60.3493 6.46594 45.2738 6.46594C30.1176 6.46594 20 17.4333 20 32.609ZM29.7279 32.609C29.7279 23.1112 35.4652 13.9083 45.2738 13.9083C55.0017 13.9083 60.739 23.1112 60.739 32.609C60.739 41.5196 55.9825 51.311 45.2738 51.311C34.4844 51.311 29.7279 41.5196 29.7279 32.609Z" fill="#CFBDA2"/>
<path d="M84.1451 68.5341V65.0484H75.183C78.7705 61.5004 83.4464 57.1919 83.4464 52.5032C83.4464 48.1623 80.7457 46.0405 76.567 46.0405C74.3366 46.0405 72.0389 46.6116 70.0504 47.6251L70.3997 51.3003C71.8374 50.349 73.611 49.5249 75.4652 49.5249C77.2522 49.5249 79.0527 50.4762 79.0527 52.5032C79.0527 56.5586 71.5956 62.8319 69.5532 64.8278V68.5341H84.1451Z" fill="#CFBDA2"/>
</svg>
