<svg width="181" height="41" viewBox="0 0 181 41" fill="none" xmlns="http://www.w3.org/2000/svg">
<path d="M108.657 3.79274L108.658 3.8035C105.462 3.94293 102.312 4.24519 99.214 4.69858C95.0725 5.3059 91.028 6.18834 87.0944 7.32204C86.9923 7.35245 86.8879 7.38053 86.7867 7.41C86.6275 7.45726 86.4683 7.50732 86.309 7.55505C83.0045 8.54604 79.7303 9.7284 76.4993 11.1143L78.3141 15.2972C80.8703 14.2033 83.4906 13.2287 86.1685 12.3781C86.2411 12.3547 86.3123 12.3299 86.3849 12.3074C86.6387 12.2279 86.8931 12.1525 87.1478 12.0749C91.3558 10.7882 95.6135 9.83321 99.888 9.2053C103.721 8.64149 107.567 8.33924 111.401 8.28777L111.421 3.72115C110.5 3.73285 109.581 3.75297 108.657 3.79274Z" fill="#CFBDA2"/>
<path d="M109.058 12.9629V12.9723C106.185 13.0967 103.355 13.3691 100.572 13.7761C96.2307 14.4115 92.0059 15.3829 87.9206 16.6593C87.8953 16.6677 87.8691 16.6752 87.8438 16.6827C87.5998 16.7594 87.3563 16.8399 87.1137 16.9189C86.8064 17.02 86.4969 17.1173 86.1892 17.2217C86.1868 17.2217 86.1859 17.2231 86.1835 17.2245C84.158 17.9095 82.1465 18.6801 80.1537 19.5335L81.9695 23.7211C84.2882 22.7306 86.6664 21.8477 89.0971 21.0799C89.106 21.0766 89.1144 21.0733 89.1233 21.071C89.468 20.962 89.8169 20.8576 90.1653 20.7528C90.3269 20.7046 90.4871 20.6541 90.6496 20.6069C90.821 20.5563 90.9943 20.5095 91.168 20.4599C94.5021 19.505 97.8685 18.7816 101.247 18.2866C103.375 17.9745 105.508 17.7541 107.638 17.6189C107.654 17.618 107.669 17.617 107.684 17.617C108.148 17.5871 108.614 17.5632 109.08 17.5417C109.139 17.5384 109.199 17.5352 109.257 17.5319L109.258 17.5338C109.957 17.5047 110.656 17.4879 111.355 17.4762L111.377 12.9007C110.606 12.9129 109.832 12.9306 109.058 12.9629Z" fill="#CFBDA2"/>
<path d="M109.458 22.1369L109.46 22.1415C106.912 22.251 104.399 22.4925 101.93 22.8523C97.6924 23.4741 93.5785 24.4553 89.6192 25.7593C89.4764 25.8075 89.3326 25.8533 89.1898 25.8996C89.0249 25.9553 88.8624 26.0138 88.7003 26.0709C88.3852 26.178 88.0714 26.2866 87.7581 26.3998C87.7253 26.4106 87.6934 26.4237 87.6606 26.4358C86.3685 26.9033 85.0848 27.41 83.809 27.9551L85.6229 32.1343C88.2831 31.0001 91.0331 30.0316 93.8591 29.2343C96.7534 28.4136 99.6725 27.7871 102.604 27.3571C105.503 26.9309 108.411 26.7002 111.312 26.6455L111.334 22.0859C110.709 22.0957 110.084 22.1111 109.458 22.1369Z" fill="#CFBDA2"/>
<path d="M98.5321 0.137573C90.1583 1.36625 82.1567 3.66126 74.6568 6.87333C70.653 8.58909 66.7916 10.5655 63.0941 12.7805L65.5327 16.6958C69.0382 14.5987 72.6987 12.7285 76.4941 11.1035C79.6736 9.74337 82.9497 8.5568 86.309 7.55505C86.4683 7.50732 86.6275 7.45726 86.7867 7.41C86.8879 7.38053 86.9923 7.35245 87.0944 7.32204C91.1015 6.1598 95.1512 5.28297 99.2126 4.68454L98.5321 0.137573Z" fill="#CFBDA2"/>
<path d="M99.214 4.69858L99.2116 4.68405C95.1502 5.28248 91.102 6.1598 87.0944 7.32204C91.028 6.18834 95.0725 5.3059 99.214 4.69858Z" fill="#CFBDA2"/>
<path d="M108.658 3.8035L108.657 3.79274C105.509 3.92702 102.358 4.22179 99.2126 4.68454L99.214 4.69858C102.312 4.24519 105.462 3.94293 108.658 3.8035Z" fill="#CFBDA2"/>
<path d="M99.8898 9.21513C95.524 9.85567 91.2696 10.8177 87.1478 12.0749C86.8931 12.1525 86.6387 12.2279 86.3849 12.3074C86.3123 12.3299 86.2411 12.3547 86.1685 12.3781C83.5271 13.2189 80.9077 14.1935 78.3164 15.3029C75.5837 16.4731 72.8851 17.7934 70.2301 19.2682C69.4625 19.695 68.7062 20.1362 67.9545 20.5844L70.3884 24.4936C73.5132 22.6342 76.7714 20.9723 80.15 19.5274C82.1231 18.6852 84.1355 17.9156 86.184 17.2254C86.1859 17.2245 86.1873 17.2226 86.1896 17.2226C86.4968 17.1183 86.8064 17.021 87.1141 16.9199C87.3567 16.8408 87.6007 16.7603 87.8442 16.6841C87.8695 16.6756 87.8953 16.6677 87.9206 16.6593C92.0949 15.3487 96.3244 14.3877 100.57 13.7635L99.8898 9.21513Z" fill="#CFBDA2"/>
<path d="M70.2301 19.2682C72.8851 17.7934 75.5837 16.4731 78.3164 15.3029L78.3141 15.2972C75.5392 16.4848 72.8444 17.8126 70.2301 19.2682Z" fill="#CFBDA2"/>
<path d="M78.3141 15.2972L78.3164 15.3029C80.9077 14.1935 83.5271 13.2189 86.1685 12.3781C83.4915 13.2282 80.8703 14.2028 78.3141 15.2972Z" fill="#CFBDA2"/>
<path d="M100.573 13.7761L100.57 13.7635C96.3244 14.3877 92.0949 15.3487 87.9206 16.6593C92.0059 15.3829 96.2312 14.412 100.573 13.7761Z" fill="#CFBDA2"/>
<path d="M109.058 12.9723V12.9629C106.228 13.0836 103.396 13.348 100.57 13.7635L100.572 13.7761C103.355 13.3691 106.185 13.0967 109.058 12.9723Z" fill="#CFBDA2"/>
<path d="M101.248 18.2917C97.8053 18.7961 94.4426 19.5265 91.1689 20.4609C90.9952 20.51 90.8219 20.5573 90.6505 20.6078C90.488 20.655 90.3278 20.7056 90.1662 20.7538C89.8183 20.8586 89.4689 20.9625 89.1242 21.0719C89.1153 21.0743 89.1064 21.0776 89.098 21.0808C86.7001 21.8393 84.3233 22.7213 81.9727 23.7249C80.4951 24.3579 79.0269 25.0378 77.5704 25.7691C77.4931 25.8075 77.4153 25.8496 77.3376 25.8889C76.9807 26.069 76.6253 26.2529 76.2717 26.4396C76.0839 26.5383 75.8961 26.6394 75.7097 26.7404C75.4835 26.8602 75.2582 26.9828 75.0343 27.1068C74.2845 27.5181 73.5455 27.9467 72.8111 28.3837L75.2484 32.2971C75.8005 31.9705 76.3564 31.6477 76.9161 31.3351V31.3314C77.0018 31.2832 77.0908 31.2373 77.1788 31.1887C77.4575 31.0352 77.7385 30.8831 78.0195 30.7325C78.1347 30.6707 78.2466 30.6094 78.3609 30.55C78.7487 30.346 79.1383 30.1443 79.5289 29.946C79.5533 29.9352 79.5776 29.9226 79.6015 29.9095C80.9794 29.2142 82.3806 28.5605 83.8086 27.9504C85.0736 27.4109 86.3573 26.9051 87.6606 26.4358C87.6934 26.4237 87.7253 26.4106 87.7581 26.3998C88.0714 26.2866 88.3852 26.178 88.7003 26.0709C88.8624 26.0138 89.0249 25.9553 89.1898 25.8996C89.3326 25.8533 89.4764 25.8075 89.6192 25.7593C93.675 24.4202 97.794 23.4512 101.929 22.8457L101.248 18.2917Z" fill="#CFBDA2"/>
<path d="M109.257 17.5328C109.199 17.5361 109.14 17.5394 109.08 17.5426C109.14 17.5394 109.199 17.537 109.258 17.5347L109.257 17.5328Z" fill="#CFBDA2"/>
<path d="M81.9695 23.7211L81.9727 23.7249C84.3233 22.7213 86.7001 21.8393 89.098 21.0808C86.6673 21.8482 84.2887 22.7306 81.9695 23.7211Z" fill="#CFBDA2"/>
<path d="M77.5704 25.7691C79.0269 25.0378 80.4951 24.3579 81.9727 23.7249L81.9695 23.7211C80.4787 24.3593 79.0128 25.0443 77.5704 25.7691Z" fill="#CFBDA2"/>
<path d="M76.9161 31.3351C77.0041 31.2865 77.0908 31.2369 77.1788 31.1887C77.0908 31.2373 77.0013 31.2832 76.9147 31.3314L76.9161 31.3351Z" fill="#CFBDA2"/>
<path d="M109.46 22.1415L109.458 22.1369C106.95 22.244 104.436 22.477 101.929 22.8457L101.93 22.8523C104.399 22.4925 106.912 22.251 109.46 22.1415Z" fill="#CFBDA2"/>
<path d="M101.93 22.8523L101.929 22.8457C97.794 23.4512 93.675 24.4202 89.6192 25.7593C93.5785 24.4553 97.6924 23.4741 101.93 22.8523Z" fill="#CFBDA2"/>
<path d="M102.606 27.3679C99.6201 27.8035 96.7019 28.4323 93.8591 29.2343C91.0331 30.0316 88.2831 31.0001 85.6229 32.1343C83.3955 33.0827 81.2314 34.1476 79.1332 35.3159C78.6358 35.592 78.145 35.876 77.6556 36.1647L80.0942 40.0814C82.457 38.6937 84.9129 37.4467 87.4602 36.3654L85.6276 32.1455C87.6593 31.278 89.7134 30.5168 91.7839 29.858C89.7138 30.5168 87.6597 31.278 85.629 32.1455L87.4602 36.3654C92.4339 34.2487 97.7392 32.7393 103.29 31.9298L102.606 27.3679Z" fill="#CFBDA2"/>
<path d="M55.3296 19.5869H56.3398L58.2599 17.7696L56.9121 17.1459L55.3296 19.5869ZM53.6276 32.3425C54.9408 32.3425 55.7829 31.6865 56.5252 29.8875L60.1792 20.8998H58.799L56.0026 28.1535L52.8361 20.8998H51.4044L55.3623 29.567C54.8411 30.7957 54.3521 31.2004 53.577 31.2004C53.0211 31.2004 52.6338 31.0993 52.2123 30.8799L51.7754 31.905C52.3641 32.1909 52.904 32.3425 53.6276 32.3425ZM45.5582 29.6657H46.7033L50.4935 20.8998H49.096L46.1483 28.1198L43.2179 20.8998H41.7853L45.5582 29.6657ZM36.2753 28.6415C34.4399 28.6415 33.056 27.1269 33.056 25.2582V25.224C33.056 23.3889 34.3547 21.8571 36.2411 21.8571C38.078 21.8571 39.4769 23.3889 39.4769 25.2586V25.2923C39.4769 27.1269 38.1627 28.6415 36.2753 28.6415ZM36.2411 29.8009C38.8708 29.8009 40.8065 27.7155 40.8065 25.2577V25.2235C40.8065 22.7666 38.8882 20.7145 36.2753 20.7145C33.647 20.7145 31.7287 22.7994 31.7287 25.2577V25.2914C31.7292 27.7487 33.6292 29.8009 36.2411 29.8009ZM22.0576 29.5983H23.3535V24.6181C23.3535 22.9837 24.4667 21.8903 25.9663 21.8903C27.5001 21.8903 28.3764 22.9005 28.3764 24.5161V29.5979H29.6723V24.197C29.6723 22.1261 28.4434 20.7149 26.3377 20.7149C24.8376 20.7149 23.9267 21.4706 23.3535 22.4129V17.3143H22.0576V29.5983ZM15.0494 29.7845C16.549 29.7845 17.4417 29.0275 18.0313 28.0866V29.5979H19.3104V20.8998H18.0313V25.88C18.0313 27.5143 16.9026 28.6087 15.4194 28.6087C13.8856 28.6087 13.0094 27.599 13.0094 25.9834V20.8998H11.7149V26.303C11.7154 28.372 12.9429 29.7845 15.0494 29.7845ZM4.7217 28.6251C3.07035 28.6251 1.65504 27.3122 1.65504 25.2582V25.224C1.65504 23.1194 3.03757 21.8744 4.7217 21.8744C6.3398 21.8744 7.87454 23.2214 7.87454 25.224V25.2582C7.87501 27.2617 6.3398 28.6251 4.7217 28.6251ZM4.4866 29.7845C6.08737 29.7845 7.1149 28.8937 7.82396 27.8493V29.5979H9.11843V17.3143H7.82396V22.565C7.14909 21.5885 6.1047 20.7149 4.4866 20.7149C2.39735 20.7149 0.325439 22.3965 0.325439 25.2394V25.2745C0.325439 28.1371 2.39735 29.7845 4.4866 29.7845Z" fill="#CFBDA2"/>
<path d="M167.127 29.5983H168.423V24.634C168.423 23.0348 169.467 21.8908 170.849 21.8908C172.232 21.8908 173.091 22.8509 173.091 24.4829V29.5988H174.369V24.583C174.369 22.8668 175.465 21.8903 176.779 21.8903C178.196 21.8903 179.039 22.8326 179.039 24.5161V29.5979H180.333V24.2124C180.333 22.0583 179.106 20.7145 177.1 20.7145C175.584 20.7145 174.656 21.487 174.034 22.4461C173.563 21.4701 172.653 20.7145 171.237 20.7145C169.772 20.7145 168.996 21.5043 168.423 22.3619V20.8998H167.127L167.127 29.5983ZM157.926 24.7365C158.112 23.053 159.257 21.8056 160.758 21.8056C162.477 21.8056 163.386 23.1536 163.539 24.7365H157.926ZM157.926 25.7789H164.833C164.851 25.5768 164.851 25.4421 164.851 25.3246C164.851 22.7667 163.37 20.7145 160.792 20.7145C158.382 20.7145 156.614 22.7325 156.614 25.2577C156.614 27.9677 158.566 29.8009 160.96 29.8009C162.612 29.8009 163.674 29.1463 164.548 28.1699L163.74 27.446C163.032 28.1872 162.19 28.6756 160.993 28.6756C159.46 28.6756 158.112 27.6149 157.926 25.7789ZM149.859 28.6251C148.207 28.6251 146.792 27.3122 146.792 25.2582V25.224C146.792 23.1194 148.174 21.8744 149.859 21.8744C151.477 21.8744 153.01 23.2214 153.01 25.224V25.2582C153.01 27.2617 151.477 28.6251 149.859 28.6251ZM149.623 29.7846C151.224 29.7846 152.252 28.8937 152.96 27.8494V29.5979H154.254V17.3143H152.96V22.565C152.285 21.5885 151.24 20.715 149.623 20.715C147.533 20.715 145.463 22.3966 145.463 25.2395V25.2746C145.463 28.1371 147.533 29.7846 149.623 29.7846ZM135.591 29.5983H136.886V24.6181C136.886 22.9838 137.998 21.8903 139.497 21.8903C141.031 21.8903 141.908 22.9005 141.908 24.5161V29.5979H143.202V24.197C143.202 22.1261 141.975 20.715 139.868 20.715C138.369 20.715 137.458 21.4706 136.886 22.4129V20.9002H135.591V29.5983ZM128.683 28.7426C127.502 28.7426 126.491 28.1034 126.491 27.0076V26.9749C126.491 25.9305 127.419 25.2231 129.036 25.2231C130.098 25.2231 130.941 25.4084 131.58 25.5937V26.4022C131.58 27.7829 130.283 28.7426 128.683 28.7426ZM128.429 29.7846C129.963 29.7846 130.957 29.078 131.563 28.3046V29.5983H132.841V24.2831C132.841 23.1704 132.539 22.3282 131.934 21.7233C131.312 21.101 130.35 20.765 129.12 20.765C127.839 20.765 126.912 21.0673 125.951 21.5043L126.34 22.565C127.148 22.1944 127.956 21.9413 128.985 21.9413C130.619 21.9413 131.562 22.7498 131.562 24.3004V24.568C130.789 24.3486 130.012 24.1993 128.9 24.1993C126.692 24.1993 125.178 25.1726 125.178 27.0404V27.0741C125.179 28.86 126.794 29.7846 128.429 29.7846ZM121.943 29.7504C122.566 29.7504 123.054 29.6156 123.509 29.3808V28.2709C123.054 28.4904 122.685 28.5746 122.246 28.5746C121.37 28.5746 120.781 28.1872 120.781 27.1265V22.0414H123.544V20.8998H120.781V18.2735H119.485V20.8998H118.272V22.0414H119.485V27.2944C119.485 29.0617 120.545 29.7504 121.943 29.7504Z" fill="#CFBDA2"/>
</svg>
