<svg width="125" height="38" viewBox="0 0 125 38" fill="none" xmlns="http://www.w3.org/2000/svg">
<g clip-path="url(#clip0)">
<path d="M2.76622 28.4309C3.16055 29.2072 3.64549 29.9331 4.21067 30.5929C4.30048 30.7139 4.38281 30.6459 4.45017 30.5929C5.66142 29.8157 6.66402 28.7485 7.36901 27.486C8.26922 25.8931 9.46927 24.4935 10.9016 23.3661C11.1036 23.1847 11.2608 23.1242 11.2309 22.9427H7.21184C6.62091 23.4211 6.09941 23.981 5.66261 24.6058C5.05639 25.4827 4.59985 26.2765 3.98614 27.0929C3.64143 27.5172 3.2497 27.9002 2.81861 28.2344C2.73628 28.3024 2.73628 28.3478 2.7737 28.4385" fill="#CFBDA2"/>
<path d="M6.8227 33.3596C6.13238 32.8499 5.52183 32.2383 5.01152 31.5453C4.94416 31.4471 4.96661 31.3941 5.07888 31.3185C6.28836 30.4741 7.30836 29.3821 8.07256 28.1133C8.98212 26.5911 10.1123 25.2152 11.4255 24.0312C11.8611 23.5929 12.3673 23.2325 12.9223 22.9653H14.726C14.8757 22.9653 14.9131 23.0409 14.9131 23.1241V25.0517C14.9655 25.3163 13.8279 25.8757 13.2891 26.2991C12.3431 27.0685 11.5507 28.0125 10.954 29.0809C10.4288 30.1162 9.76386 31.0728 8.97815 31.9233C8.42443 32.5218 7.76762 33.0136 7.03974 33.3747C7.00437 33.4023 6.96094 33.4173 6.91625 33.4173C6.87156 33.4173 6.82813 33.4023 6.79276 33.3747" fill="#CFBDA2"/>
<path d="M7.88533 34.2516C8.47979 34.7393 9.12174 35.1648 9.80129 35.5216C10.0408 35.6803 10.168 35.5216 10.415 35.3629C11.8554 34.3656 13.0281 33.0227 13.8278 31.4546C14.3143 30.4946 14.9804 29.9427 14.9055 29.7159V26.6921C14.9055 26.4956 14.9055 26.3746 14.696 26.4654C12.6453 27.3422 11.7696 29.5647 10.43 31.4697C9.75561 32.3953 8.92759 33.1958 7.98263 33.8358C7.84043 33.9568 7.66829 34.0324 7.89282 34.2592" fill="#CFBDA2"/>
<path d="M28.3921 35.3024C29.1638 34.9063 29.883 34.4136 30.5326 33.8358C30.6598 33.7451 30.585 33.6544 30.5326 33.5939C29.7694 32.3752 28.7206 31.3653 27.479 30.6533C25.9039 29.7412 24.5208 28.5265 23.4076 27.0777C23.228 26.866 23.1681 26.7148 22.9885 26.7451V30.8196C23.4502 31.4165 23.9917 31.9457 24.5976 32.392C25.4658 32.9967 26.2516 33.4579 27.0599 34.0853C27.4775 34.4334 27.8564 34.8263 28.1901 35.257C28.2574 35.3477 28.3023 35.3477 28.3921 35.3099" fill="#CFBDA2"/>
<path d="M33.2793 31.2279C32.7735 31.9263 32.1682 32.5453 31.4831 33.0648C31.3933 33.1328 31.3409 33.0648 31.2661 32.9892C30.4292 31.7683 29.3482 30.7382 28.0928 29.9654C26.5845 29.0485 25.222 27.9067 24.0513 26.5788C23.6189 26.1375 23.2623 25.6265 22.996 25.0669V23.2299C22.9895 23.2069 22.9889 23.1826 22.9941 23.1592C22.9993 23.1358 23.0102 23.1141 23.0258 23.0961C23.0414 23.078 23.0612 23.0642 23.0835 23.0559C23.1058 23.0476 23.1297 23.0451 23.1532 23.0485H25.0691C25.3236 22.9956 25.8849 24.1522 26.304 24.6965C27.0664 25.6512 28.001 26.4515 29.0582 27.055C30.0857 27.5813 31.0333 28.2534 31.8723 29.0507C32.4568 29.5922 32.9409 30.2348 33.3018 30.9482C33.3309 30.9845 33.3469 31.0299 33.3469 31.0767C33.3469 31.1235 33.3309 31.1688 33.3018 31.2052" fill="#CFBDA2"/>
<path d="M34.1249 30.1394C34.6072 29.5358 35.0284 28.885 35.3823 28.1966C35.5469 27.9623 35.3823 27.8262 35.2251 27.5768C34.2366 26.121 32.9075 24.9343 31.3558 24.1221C30.3978 23.6307 29.8589 22.9579 29.6269 23.0411H26.6332C26.4461 23.0411 26.3189 23.0411 26.4087 23.2452C27.247 25.3618 29.4922 26.2085 31.3708 27.5616C32.2828 28.2483 33.0724 29.0868 33.7058 30.0412C33.8256 30.1923 33.8929 30.3662 34.1249 30.1394" fill="#CFBDA2"/>
<path d="M9.50202 2.86465C8.7315 3.26266 8.01257 3.75523 7.36154 4.33119C7.24179 4.4219 7.31663 4.51261 7.36154 4.57309C8.12631 5.80173 9.18057 6.81984 10.4301 7.5364C12.0099 8.44453 13.4002 9.65373 14.5239 11.0969C14.7035 11.3086 14.7634 11.4598 14.943 11.4295V7.35498C14.4824 6.75493 13.9408 6.2231 13.3339 5.77505C12.4658 5.17029 11.6874 4.70916 10.8791 4.08173C10.4623 3.73273 10.0835 3.33995 9.749 2.91001C9.68164 2.81929 9.64422 2.81929 9.55441 2.85709" fill="#CFBDA2"/>
<path d="M4.63729 6.96947C5.14025 6.26862 5.74593 5.6492 6.4335 5.13252C6.51583 5.06448 6.5757 5.09472 6.65803 5.20055C7.49404 6.4222 8.57524 7.45246 9.83133 8.22434C11.3389 9.14231 12.7013 10.2839 13.8728 11.611C14.308 12.05 14.6649 12.5614 14.9281 13.1229V14.9523C14.9346 14.9753 14.9352 14.9996 14.93 15.023C14.9248 15.0464 14.9139 15.0681 14.8983 15.0861C14.8827 15.1042 14.8629 15.118 14.8406 15.1263C14.8183 15.1346 14.7944 15.1371 14.7709 15.1337H12.8624C12.608 15.1866 12.0467 14.03 11.6275 13.4857C10.8632 12.53 9.92602 11.7296 8.86587 11.1272C7.8417 10.5954 6.8948 9.92389 6.05181 9.13148C5.46843 8.58314 4.98463 7.93585 4.62232 7.21893C4.59501 7.18321 4.5802 7.13934 4.5802 7.0942C4.5802 7.04907 4.59501 7.0052 4.62232 6.96947" fill="#CFBDA2"/>
<path d="M3.78401 8.02028C3.30895 8.62713 2.89526 9.28051 2.54911 9.97062C2.39194 10.2125 2.54911 10.341 2.70628 10.5905C3.69217 12.0344 5.01286 13.2126 6.55316 14.0225C7.51114 14.5139 8.05 15.1867 8.28202 15.1035H11.2757C11.4703 15.1035 11.59 15.1035 11.5002 14.8994C10.6321 12.8205 8.43169 11.9361 6.54567 10.5829C5.63106 9.89922 4.84097 9.06025 4.21061 8.10343C4.08337 7.95225 4.01602 7.77838 3.78401 8.00516" fill="#CFBDA2"/>
<path d="M35.1804 9.48684C34.7858 8.70832 34.3009 7.98001 33.7359 7.31727C33.6461 7.19632 33.5638 7.27191 33.4964 7.31727C32.286 8.09549 31.2836 9.16248 30.5776 10.4242C29.6744 12.015 28.4748 13.414 27.045 14.5441C26.8355 14.7256 26.6858 14.786 26.7157 14.9675H30.7422C31.3351 14.5004 31.8592 13.9506 32.2989 13.3346C32.9052 12.4653 33.3542 11.6715 33.9754 10.8551C34.3188 10.4321 34.7079 10.0493 35.1355 9.71362C35.2253 9.63803 35.2253 9.60023 35.1878 9.50952" fill="#CFBDA2"/>
<path d="M31.1313 4.59583C31.8205 5.10679 32.4309 5.71821 32.9425 6.4101C33.0098 6.50838 32.9799 6.56129 32.8751 6.63689C31.6668 7.48267 30.647 8.57447 29.8814 9.8421C28.9736 11.3634 27.846 12.7392 26.536 13.9242C26.0991 14.3611 25.5933 14.7213 25.0391 14.9901H23.2354C23.2128 14.9948 23.1894 14.9942 23.167 14.9883C23.1447 14.9823 23.124 14.9712 23.1066 14.9558C23.0892 14.9405 23.0755 14.9212 23.0667 14.8996C23.0579 14.878 23.0542 14.8547 23.0558 14.8314V12.9037C23.0034 12.6467 24.141 12.0797 24.6799 11.6564C25.6252 10.8863 26.4175 9.94238 27.015 8.87449C27.5398 7.83902 28.2048 6.88238 28.9908 6.03213C29.5251 5.4449 30.1587 4.95853 30.8619 4.59583C30.8978 4.56637 30.9428 4.55029 30.9891 4.55029C31.0354 4.55029 31.0803 4.56637 31.1163 4.59583" fill="#CFBDA2"/>
<path d="M30.0686 3.71893C29.4754 3.22938 28.8333 2.80374 28.1526 2.44893C27.9131 2.29019 27.7859 2.44893 27.5314 2.60768C26.0977 3.60822 24.9306 4.95065 24.1336 6.51593C23.6471 7.47599 22.981 8.02783 23.0634 8.25461V11.2784C23.0634 11.4674 23.0633 11.5959 23.2654 11.4976C25.3236 10.6283 26.1917 8.4058 27.5314 6.50081C28.2017 5.57427 29.0275 4.77347 29.9713 4.1347C30.121 4.01375 30.2931 3.93815 30.0686 3.71137" fill="#CFBDA2"/>
<path d="M15.4595 1.04292V36.9504C15.463 37.0127 15.4819 37.073 15.5146 37.1258C15.5473 37.1787 15.5927 37.2224 15.6466 37.2528L15.8187 37.3057H22.0605C22.1222 37.3057 22.1827 37.2898 22.2365 37.2593C22.2902 37.2289 22.3353 37.185 22.3674 37.1318L22.4198 36.9504V1.04292C22.4185 0.981084 22.4012 0.920664 22.3697 0.867631C22.3382 0.814598 22.2936 0.77079 22.2402 0.740538L22.0605 0.687622H15.8187C15.7577 0.689659 15.6981 0.707388 15.6457 0.739134C15.5934 0.77088 15.5499 0.815594 15.5193 0.869049L15.467 1.04292" fill="#CFBDA2"/>
<path d="M0.618192 15.8293V22.1415C0.61742 22.2038 0.632924 22.2653 0.663141 22.3197C0.693358 22.3741 0.737225 22.4195 0.790331 22.4514L0.962467 22.5043H36.9316C36.992 22.5038 37.0514 22.4875 37.1038 22.457C37.1563 22.4266 37.2 22.383 37.2309 22.3304L37.2833 22.149V15.8293C37.2841 15.766 37.2678 15.7037 37.2362 15.6491C37.2045 15.5945 37.1587 15.5496 37.1037 15.5194L36.9316 15.474H0.962467C0.902124 15.4752 0.843064 15.4918 0.790742 15.5222C0.738419 15.5526 0.69452 15.5958 0.663098 15.6479L0.618192 15.8293Z" fill="#CFBDA2"/>
<path d="M15.5044 15.4286H15.4595V15.4739H15.5044V15.4286Z" fill="#CFBDA2"/>
<path d="M15.5044 22.5118H15.4595V22.6555H15.5044V22.5118Z" fill="#CFBDA2"/>
<path d="M49.778 17L49.77 13.288L47.93 16.36H47.466L45.626 13.336V17H44.634V11.4H45.49L47.714 15.112L49.898 11.4H50.754L50.762 17H49.778ZM56.4746 16.128V17H52.2746V11.4H56.3626V12.272H53.3146V13.728H56.0186V14.584H53.3146V16.128H56.4746ZM55.8586 9.848L54.7866 10.944H53.8746L52.8026 9.848H53.6266L54.3306 10.44L55.0346 9.848H55.8586ZM59.37 17.08C58.938 17.08 58.5193 17.0187 58.114 16.896C57.714 16.7733 57.3966 16.6107 57.162 16.408L57.522 15.6C57.7513 15.7813 58.0313 15.9307 58.362 16.048C58.698 16.16 59.034 16.216 59.37 16.216C59.786 16.216 60.0953 16.1493 60.298 16.016C60.506 15.8827 60.61 15.7067 60.61 15.488C60.61 15.328 60.5513 15.1973 60.434 15.096C60.322 14.9893 60.178 14.9067 60.002 14.848C59.826 14.7893 59.586 14.7227 59.282 14.648C58.8553 14.5467 58.5086 14.4453 58.242 14.344C57.9806 14.2427 57.754 14.0853 57.562 13.872C57.3753 13.6533 57.282 13.36 57.282 12.992C57.282 12.6827 57.3646 12.4027 57.53 12.152C57.7006 11.896 57.954 11.6933 58.29 11.544C58.6313 11.3947 59.0473 11.32 59.538 11.32C59.8793 11.32 60.2153 11.3627 60.546 11.448C60.8766 11.5333 61.162 11.656 61.402 11.816L61.074 12.624C60.8286 12.48 60.5726 12.3707 60.306 12.296C60.0393 12.2213 59.7806 12.184 59.53 12.184C59.1193 12.184 58.8126 12.2533 58.61 12.392C58.4126 12.5307 58.314 12.7147 58.314 12.944C58.314 13.104 58.37 13.2347 58.482 13.336C58.5993 13.4373 58.746 13.5173 58.922 13.576C59.098 13.6347 59.338 13.7013 59.642 13.776C60.058 13.872 60.3993 13.9733 60.666 14.08C60.9326 14.1813 61.1593 14.3387 61.346 14.552C61.538 14.7653 61.634 15.0533 61.634 15.416C61.634 15.7253 61.5486 16.0053 61.378 16.256C61.2126 16.5067 60.9593 16.7067 60.618 16.856C60.2766 17.0053 59.8606 17.08 59.37 17.08ZM63.7231 12.28H61.8671V11.4H66.6191V12.28H64.7631V17H63.7231V12.28ZM69.0809 17.08C68.6489 17.08 68.2302 17.0187 67.8249 16.896C67.4249 16.7733 67.1076 16.6107 66.8729 16.408L67.2329 15.6C67.4622 15.7813 67.7422 15.9307 68.0729 16.048C68.4089 16.16 68.7449 16.216 69.0809 16.216C69.4969 16.216 69.8062 16.1493 70.0089 16.016C70.2169 15.8827 70.3209 15.7067 70.3209 15.488C70.3209 15.328 70.2622 15.1973 70.1449 15.096C70.0329 14.9893 69.8889 14.9067 69.7129 14.848C69.5369 14.7893 69.2969 14.7227 68.9929 14.648C68.5662 14.5467 68.2196 14.4453 67.9529 14.344C67.6916 14.2427 67.4649 14.0853 67.2729 13.872C67.0862 13.6533 66.9929 13.36 66.9929 12.992C66.9929 12.6827 67.0756 12.4027 67.2409 12.152C67.4116 11.896 67.6649 11.6933 68.0009 11.544C68.3422 11.3947 68.7582 11.32 69.2489 11.32C69.5902 11.32 69.9262 11.3627 70.2569 11.448C70.5876 11.5333 70.8729 11.656 71.1129 11.816L70.7849 12.624C70.5396 12.48 70.2836 12.3707 70.0169 12.296C69.7502 12.2213 69.4916 12.184 69.2409 12.184C68.8302 12.184 68.5236 12.2533 68.3209 12.392C68.1236 12.5307 68.0249 12.7147 68.0249 12.944C68.0249 13.104 68.0809 13.2347 68.1929 13.336C68.3102 13.4373 68.4569 13.5173 68.6329 13.576C68.8089 13.6347 69.0489 13.7013 69.3529 13.776C69.7689 13.872 70.1102 13.9733 70.3769 14.08C70.6436 14.1813 70.8702 14.3387 71.0569 14.552C71.2489 14.7653 71.3449 15.0533 71.3449 15.416C71.3449 15.7253 71.2596 16.0053 71.0889 16.256C70.9236 16.5067 70.6702 16.7067 70.3289 16.856C69.9876 17.0053 69.5716 17.08 69.0809 17.08ZM74.3041 14.656L73.4161 15.568V17H72.3761V11.4H73.4161V14.272L76.1841 11.4H77.3521L75.0001 13.904L77.4961 17H76.2801L74.3041 14.656ZM81.5941 15.704H78.7941L78.2421 17H77.1701L79.6901 11.4H80.7141L83.2421 17H82.1541L81.5941 15.704ZM81.2501 14.888L80.1941 12.44L79.1461 14.888H81.2501ZM80.6101 9.848H81.7861L80.3941 10.944H79.5301L80.6101 9.848ZM88.7572 17.08C88.1919 17.08 87.6799 16.9573 87.2212 16.712C86.7679 16.4613 86.4105 16.1173 86.1492 15.68C85.8932 15.2427 85.7652 14.7493 85.7652 14.2C85.7652 13.6507 85.8959 13.1573 86.1572 12.72C86.4185 12.2827 86.7759 11.9413 87.2292 11.696C87.6879 11.4453 88.1999 11.32 88.7652 11.32C89.2239 11.32 89.6425 11.4 90.0212 11.56C90.3999 11.72 90.7199 11.952 90.9812 12.256L90.3092 12.888C89.9039 12.4507 89.4052 12.232 88.8132 12.232C88.4292 12.232 88.0852 12.3173 87.7812 12.488C87.4772 12.6533 87.2399 12.8853 87.0692 13.184C86.8985 13.4827 86.8132 13.8213 86.8132 14.2C86.8132 14.5787 86.8985 14.9173 87.0692 15.216C87.2399 15.5147 87.4772 15.7493 87.7812 15.92C88.0852 16.0853 88.4292 16.168 88.8132 16.168C89.4052 16.168 89.9039 15.9467 90.3092 15.504L90.9812 16.144C90.7199 16.448 90.3972 16.68 90.0132 16.84C89.6345 17 89.2159 17.08 88.7572 17.08ZM96.9537 11.4V17H95.9137V14.6H93.0177V17H91.9777V11.4H93.0177V13.712H95.9137V11.4H96.9537ZM102.086 15.704H99.2863L98.7343 17H97.6623L100.182 11.4H101.206L103.734 17H102.646L102.086 15.704ZM101.742 14.888L100.686 12.44L99.6383 14.888H101.742ZM108.11 17L106.966 15.36C106.918 15.3653 106.846 15.368 106.75 15.368H105.486V17H104.446V11.4H106.75C107.236 11.4 107.657 11.48 108.014 11.64C108.377 11.8 108.654 12.0293 108.846 12.328C109.038 12.6267 109.134 12.9813 109.134 13.392C109.134 13.8133 109.03 14.176 108.822 14.48C108.62 14.784 108.326 15.0107 107.942 15.16L109.23 17H108.11ZM108.086 13.392C108.086 13.0347 107.969 12.76 107.734 12.568C107.5 12.376 107.156 12.28 106.702 12.28H105.486V14.512H106.702C107.156 14.512 107.5 14.416 107.734 14.224C107.969 14.0267 108.086 13.7493 108.086 13.392ZM110.298 11.4H111.338V17H110.298V11.4ZM113.989 12.28H112.133V11.4H116.885V12.28H115.029V17H113.989V12.28ZM121.016 15.704H118.216L117.664 17H116.592L119.112 11.4H120.136L122.664 17H121.576L121.016 15.704ZM120.672 14.888L119.616 12.44L118.568 14.888H120.672ZM47.226 27.08C46.6606 27.08 46.1486 26.9573 45.69 26.712C45.2366 26.4613 44.8793 26.1173 44.618 25.68C44.362 25.2427 44.234 24.7493 44.234 24.2C44.234 23.6507 44.3646 23.1573 44.626 22.72C44.8873 22.2827 45.2446 21.9413 45.698 21.696C46.1566 21.4453 46.6686 21.32 47.234 21.32C47.6926 21.32 48.1113 21.4 48.49 21.56C48.8686 21.72 49.1886 21.952 49.45 22.256L48.778 22.888C48.3726 22.4507 47.874 22.232 47.282 22.232C46.898 22.232 46.554 22.3173 46.25 22.488C45.946 22.6533 45.7086 22.8853 45.538 23.184C45.3673 23.4827 45.282 23.8213 45.282 24.2C45.282 24.5787 45.3673 24.9173 45.538 25.216C45.7086 25.5147 45.946 25.7493 46.25 25.92C46.554 26.0853 46.898 26.168 47.282 26.168C47.874 26.168 48.3726 25.9467 48.778 25.504L49.45 26.144C49.1886 26.448 48.866 26.68 48.482 26.84C48.1033 27 47.6846 27.08 47.226 27.08ZM48.714 19.848L47.642 20.944H46.73L45.658 19.848H46.482L47.186 20.44L47.89 19.848H48.714ZM54.6465 26.128V27H50.4465V21.4H54.5345V22.272H51.4865V23.728H54.1905V24.584H51.4865V26.128H54.6465ZM57.5418 27.08C57.1098 27.08 56.6912 27.0187 56.2858 26.896C55.8858 26.7733 55.5685 26.6107 55.3338 26.408L55.6938 25.6C55.9232 25.7813 56.2032 25.9307 56.5338 26.048C56.8698 26.16 57.2058 26.216 57.5418 26.216C57.9578 26.216 58.2672 26.1493 58.4698 26.016C58.6778 25.8827 58.7818 25.7067 58.7818 25.488C58.7818 25.328 58.7232 25.1973 58.6058 25.096C58.4938 24.9893 58.3498 24.9067 58.1738 24.848C57.9978 24.7893 57.7578 24.7227 57.4538 24.648C57.0272 24.5467 56.6805 24.4453 56.4138 24.344C56.1525 24.2427 55.9258 24.0853 55.7338 23.872C55.5472 23.6533 55.4538 23.36 55.4538 22.992C55.4538 22.6827 55.5365 22.4027 55.7018 22.152C55.8725 21.896 56.1258 21.6933 56.4618 21.544C56.8032 21.3947 57.2192 21.32 57.7098 21.32C58.0512 21.32 58.3872 21.3627 58.7178 21.448C59.0485 21.5333 59.3338 21.656 59.5738 21.816L59.2458 22.624C59.0005 22.48 58.7445 22.3707 58.4778 22.296C58.2112 22.2213 57.9525 22.184 57.7018 22.184C57.2912 22.184 56.9845 22.2533 56.7818 22.392C56.5845 22.5307 56.4858 22.7147 56.4858 22.944C56.4858 23.104 56.5418 23.2347 56.6538 23.336C56.7712 23.4373 56.9178 23.5173 57.0938 23.576C57.2698 23.6347 57.5098 23.7013 57.8138 23.776C58.2298 23.872 58.5712 23.9733 58.8378 24.08C59.1045 24.1813 59.3312 24.3387 59.5178 24.552C59.7098 24.7653 59.8058 25.0533 59.8058 25.416C59.8058 25.7253 59.7205 26.0053 59.5498 26.256C59.3845 26.5067 59.1312 26.7067 58.7898 26.856C58.4485 27.0053 58.0325 27.08 57.5418 27.08ZM62.7651 24.656L61.8771 25.568V27H60.8371V21.4H61.8771V24.272L64.6451 21.4H65.8131L63.4611 23.904L65.9571 27H64.7411L62.7651 24.656ZM70.8652 26.128V27H66.6652V21.4H70.7532V22.272H67.7052V23.728H70.4092V24.584H67.7052V26.128H70.8652ZM69.1292 19.848H70.3052L68.9132 20.944H68.0492L69.1292 19.848ZM78.2035 24.088C78.5129 24.1893 78.7582 24.36 78.9395 24.6C79.1209 24.8347 79.2115 25.128 79.2115 25.48C79.2115 25.9653 79.0249 26.3413 78.6515 26.608C78.2782 26.8693 77.7342 27 77.0195 27H74.2355V21.4H76.8595C77.5209 21.4 78.0302 21.5307 78.3875 21.792C78.7449 22.048 78.9235 22.4027 78.9235 22.856C78.9235 23.1333 78.8595 23.3787 78.7315 23.592C78.6035 23.8053 78.4275 23.9707 78.2035 24.088ZM75.2755 22.216V23.76H76.7475C77.1102 23.76 77.3875 23.696 77.5795 23.568C77.7769 23.4347 77.8755 23.2427 77.8755 22.992C77.8755 22.736 77.7769 22.544 77.5795 22.416C77.3875 22.2827 77.1102 22.216 76.7475 22.216H75.2755ZM76.9555 26.184C77.7609 26.184 78.1635 25.9147 78.1635 25.376C78.1635 24.8373 77.7609 24.568 76.9555 24.568H75.2755V26.184H76.9555ZM82.7295 27.08C81.9561 27.08 81.3535 26.864 80.9215 26.432C80.4895 25.9947 80.2735 25.3707 80.2735 24.56V21.4H81.3135V24.52C81.3135 25.6187 81.7881 26.168 82.7375 26.168C83.6815 26.168 84.1535 25.6187 84.1535 24.52V21.4H85.1775V24.56C85.1775 25.3707 84.9615 25.9947 84.5295 26.432C84.1028 26.864 83.5028 27.08 82.7295 27.08ZM86.634 21.4H89.082C89.6793 21.4 90.21 21.5173 90.674 21.752C91.138 21.9813 91.498 22.3093 91.754 22.736C92.01 23.1573 92.138 23.6453 92.138 24.2C92.138 24.7547 92.01 25.2453 91.754 25.672C91.498 26.0933 91.138 26.4213 90.674 26.656C90.21 26.8853 89.6793 27 89.082 27H86.634V21.4ZM89.034 26.12C89.4446 26.12 89.8046 26.0427 90.114 25.888C90.4286 25.728 90.6686 25.504 90.834 25.216C91.0046 24.9227 91.09 24.584 91.09 24.2C91.09 23.816 91.0046 23.48 90.834 23.192C90.6686 22.8987 90.4286 22.6747 90.114 22.52C89.8046 22.36 89.4446 22.28 89.034 22.28H87.674V26.12H89.034ZM97.4433 26.128V27H93.2433V21.4H97.3313V22.272H94.2833V23.728H96.9873V24.584H94.2833V26.128H97.4433ZM96.8273 19.848L95.7553 20.944H94.8433L93.7713 19.848H94.5953L95.2993 20.44L96.0033 19.848H96.8273ZM99.4747 27.08C99.1174 27.08 98.7867 27.0107 98.4827 26.872C98.184 26.728 97.9387 26.528 97.7467 26.272L98.3387 25.56C98.648 25.9867 99.0187 26.2 99.4507 26.2C100.032 26.2 100.323 25.856 100.323 25.168V22.272H98.3307V21.4H101.363V25.112C101.363 25.768 101.203 26.2613 100.883 26.592C100.563 26.9173 100.093 27.08 99.4747 27.08ZM105.437 27.08C104.867 27.08 104.352 26.9573 103.893 26.712C103.435 26.4613 103.075 26.1173 102.813 25.68C102.552 25.2373 102.421 24.744 102.421 24.2C102.421 23.656 102.552 23.1653 102.813 22.728C103.075 22.2853 103.435 21.9413 103.893 21.696C104.352 21.4453 104.867 21.32 105.437 21.32C106.008 21.32 106.523 21.4453 106.981 21.696C107.44 21.9413 107.8 22.2827 108.061 22.72C108.323 23.1573 108.453 23.6507 108.453 24.2C108.453 24.7493 108.323 25.2427 108.061 25.68C107.8 26.1173 107.44 26.4613 106.981 26.712C106.523 26.9573 106.008 27.08 105.437 27.08ZM105.437 26.168C105.811 26.168 106.147 26.0853 106.445 25.92C106.744 25.7493 106.979 25.5147 107.149 25.216C107.32 24.912 107.405 24.5733 107.405 24.2C107.405 23.8267 107.32 23.4907 107.149 23.192C106.979 22.888 106.744 22.6533 106.445 22.488C106.147 22.3173 105.811 22.232 105.437 22.232C105.064 22.232 104.728 22.3173 104.429 22.488C104.131 22.6533 103.896 22.888 103.725 23.192C103.555 23.4907 103.469 23.8267 103.469 24.2C103.469 24.5733 103.555 24.912 103.725 25.216C103.896 25.5147 104.131 25.7493 104.429 25.92C104.728 26.0853 105.064 26.168 105.437 26.168ZM114.496 21.4L112.056 27H111.032L108.584 21.4H109.712L111.576 25.72L113.456 21.4H114.496ZM119.287 26.128V27H115.087V21.4H119.175V22.272H116.127V23.728H118.831V24.584H116.127V26.128H119.287Z" fill="#CFBDA2"/>
</g>
<defs>
<clipPath id="clip0">
<rect x="0.118164" width="124.764" height="38" fill="white"/>
</clipPath>
</defs>
</svg>
