<svg width="136" height="52" viewBox="0 0 136 52" fill="none" xmlns="http://www.w3.org/2000/svg">
<path d="M49.5985 23.0439H53.1766C53.5555 23.0439 53.7238 23.211 53.7238 23.5867V24.8811C53.7238 25.2151 53.5555 25.3821 53.1766 25.3821H50.0195C48.925 25.3821 48.3777 25.9249 48.3777 26.9687V30.9352C48.3777 32.0208 48.925 32.5218 50.0195 32.5218H53.1766C53.5555 32.5218 53.7238 32.6888 53.7238 33.0228V34.3172C53.7238 34.6929 53.5555 34.8599 53.1766 34.8599H49.5985C47.157 34.8599 45.7678 33.4821 45.7678 31.0605V26.8434C45.7678 24.4218 47.157 23.0439 49.5985 23.0439Z" fill="#CFBDA2"/>
<path d="M60.3327 25.3821H57.1756C56.7967 25.3821 56.6283 25.2151 56.6283 24.8811V23.5867C56.6283 23.211 56.7967 23.0439 57.1756 23.0439H60.7537C63.1952 23.0439 64.5843 24.4218 64.5843 26.8434V34.3172C64.5843 34.6929 64.416 34.8599 64.0371 34.8599H62.4796C62.1428 34.8599 61.9744 34.6929 61.9744 34.3172V34.1502C61.9744 33.9831 61.764 33.8161 61.5535 33.9414L60.5432 34.7347C60.459 34.8182 60.3327 34.8599 60.2064 34.8599H58.5226C56.7546 34.8599 55.618 33.7326 55.618 31.979V30.6429C55.618 28.8893 56.7546 27.762 58.5226 27.762H61.6377C61.8481 27.762 61.9323 27.6785 61.9323 27.4697V27.0104C61.9744 25.9249 61.4272 25.3821 60.3327 25.3821ZM58.228 31.7285C58.228 32.2295 58.5226 32.5218 59.0278 32.5218H61.6798C61.8902 32.5218 61.9744 32.4383 61.9744 32.2295V30.1001C61.9744 29.8914 61.8902 29.8079 61.6798 29.8079H59.0278C58.5226 29.8079 58.228 30.1001 58.228 30.6012V31.7285Z" fill="#CFBDA2"/>
<path d="M69.0465 23.0439H71.1933C71.3196 23.0439 71.4038 23.0857 71.5301 23.1692L72.5404 23.9625C72.7508 24.1295 72.9613 23.9625 72.9613 23.7537V19.2862C72.9613 18.9104 73.1297 18.7434 73.4665 18.7434H75.024C75.4028 18.7434 75.5712 18.9104 75.5712 19.2862V34.3172C75.5712 34.6929 75.4028 34.8599 75.024 34.8599H73.4665C73.1297 34.8599 72.9613 34.6929 72.9613 34.3172V34.1501C72.9613 33.9831 72.7508 33.8161 72.5404 33.9414L71.5301 34.7347C71.4459 34.8182 71.3196 34.8599 71.1933 34.8599H69.0465C67.2784 34.8599 66.1419 33.7326 66.1419 31.979V25.9666C66.0998 24.1713 67.2364 23.0439 69.0465 23.0439ZM68.7097 31.7285C68.7097 32.2295 69.0044 32.5218 69.5095 32.5218H72.6246C72.835 32.5218 72.9192 32.4383 72.9192 32.2295V25.6743C72.9192 25.4656 72.835 25.3821 72.6246 25.3821H69.5095C69.0044 25.3821 68.7097 25.6744 68.7097 26.1754V31.7285Z" fill="#CFBDA2"/>
<path d="M80.3702 29.9331C78.6021 29.9331 77.4656 28.8058 77.4656 27.0522V25.9666C77.4656 24.213 78.6021 23.0857 80.3702 23.0857H84.8323C85.2111 23.0857 85.3795 23.2527 85.3795 23.5867V24.8811C85.3795 25.2568 85.2111 25.4238 84.8323 25.4238H80.8332C80.3281 25.4238 80.0334 25.7161 80.0334 26.2171V26.9687C80.0334 27.4697 80.3281 27.762 80.8332 27.762H82.938C84.706 27.762 85.8425 28.8893 85.8425 30.6429V31.979C85.8425 33.7744 84.706 34.8599 82.938 34.8599H78.4338C78.0549 34.8599 77.8865 34.6929 77.8865 34.3589V33.0646C77.8865 32.6888 78.0549 32.5218 78.4338 32.5218H82.4749C82.9801 32.5218 83.2747 32.2295 83.2747 31.7285V30.7264C83.2747 30.2254 82.9801 29.9331 82.4749 29.9331H80.3702Z" fill="#CFBDA2"/>
<path d="M91.6517 23.0439H93.967C94.3458 23.0439 94.5142 23.2109 94.5142 23.5867V24.8393C94.5142 25.2151 94.3458 25.3821 93.967 25.3821H91.6517C91.4413 25.3821 91.3571 25.4656 91.3571 25.6743V30.9352C91.3571 32.0208 91.9043 32.5218 92.9988 32.5218H93.967C94.3458 32.5218 94.5142 32.6888 94.5142 33.0228V34.3171C94.5142 34.6929 94.3458 34.8599 93.967 34.8599H92.6199C90.1784 34.8599 88.7893 33.4821 88.7893 31.0604V25.6743C88.7893 25.4656 88.7051 25.3821 88.4946 25.3821H87.6106C87.2317 25.3821 87.0634 25.2151 87.0634 24.8393V23.5867C87.0634 23.2109 87.2317 23.0439 87.6106 23.0439H88.4946C88.7051 23.0439 88.7893 22.9604 88.7893 22.7517V21.0816C88.7893 20.8728 88.8735 20.664 89.0839 20.6223L90.6415 20.163C91.0203 20.0377 91.3571 20.2047 91.3571 20.6223V22.7934C91.3571 22.9604 91.4413 23.0439 91.6517 23.0439Z" fill="#CFBDA2"/>
<path d="M103.228 23.5867C103.228 23.211 103.396 23.0439 103.733 23.0439H105.291C105.669 23.0439 105.838 23.211 105.838 23.5867V34.3172C105.838 34.6929 105.669 34.8599 105.291 34.8599H103.733C103.396 34.8599 103.228 34.6929 103.228 34.3172V34.1502C103.228 33.9831 103.017 33.8161 102.807 33.9414L101.797 34.7347C101.712 34.8182 101.586 34.8599 101.46 34.8599H99.313C97.5029 34.8599 96.4084 33.7326 96.4084 31.979V23.5867C96.4084 23.211 96.5768 23.0439 96.9136 23.0439H98.4711C98.85 23.0439 99.0184 23.211 99.0184 23.5867V31.7285C99.0184 32.2295 99.313 32.5218 99.8182 32.5218H102.933C103.144 32.5218 103.228 32.4383 103.228 32.2295V23.5867Z" fill="#CFBDA2"/>
<path d="M111.058 23.0439H113.205C113.331 23.0439 113.415 23.0857 113.541 23.1692L114.552 23.9625C114.762 24.1295 114.973 23.9625 114.973 23.7537V19.2862C114.973 18.9104 115.141 18.7434 115.478 18.7434H117.035C117.414 18.7434 117.582 18.9104 117.582 19.2862V34.3172C117.582 34.6929 117.414 34.8599 117.035 34.8599H115.478C115.141 34.8599 114.973 34.6929 114.973 34.3172V34.1501C114.973 33.9831 114.762 33.8161 114.552 33.9414L113.541 34.7347C113.457 34.8182 113.331 34.8599 113.205 34.8599H111.058C109.248 34.8599 108.153 33.7326 108.153 31.979V25.9666C108.153 24.1713 109.248 23.0439 111.058 23.0439ZM110.721 31.7285C110.721 32.2295 111.016 32.5218 111.521 32.5218H114.636C114.846 32.5218 114.93 32.4383 114.93 32.2295V25.6743C114.93 25.4656 114.846 25.3821 114.636 25.3821H111.521C111.016 25.3821 110.721 25.6744 110.721 26.1754V31.7285Z" fill="#CFBDA2"/>
<path d="M121.203 25.6743C121.203 25.4656 121.119 25.3821 120.908 25.3821H119.435C119.056 25.3821 118.887 25.2151 118.887 24.8393V23.545C118.887 23.2109 119.056 23.0439 119.435 23.0439H123.265C123.644 23.0439 123.813 23.2109 123.813 23.5867V34.3172C123.813 34.6929 123.644 34.8599 123.265 34.8599H121.708C121.371 34.8599 121.203 34.6929 121.203 34.3172V25.6743ZM123.265 18.7852C123.602 18.7852 123.771 18.9522 123.771 19.3279V20.7893C123.771 21.1651 123.602 21.3321 123.265 21.3321H121.708C121.329 21.3321 121.161 21.1651 121.161 20.7893V19.2862C121.161 18.9104 121.329 18.7434 121.708 18.7434H123.265V18.7852Z" fill="#CFBDA2"/>
<path d="M126.086 31.0605V26.8434C126.086 24.4218 127.475 23.0439 129.916 23.0439H132.021C134.463 23.0439 135.852 24.4218 135.852 26.8434V31.0605C135.852 33.4821 134.463 34.8599 132.021 34.8599H129.916C127.475 34.8599 126.086 33.4821 126.086 31.0605ZM133.284 30.9352V26.9687C133.284 25.8831 132.737 25.3821 131.642 25.3821H130.337C129.243 25.3821 128.696 25.9249 128.696 26.9687V30.9352C128.696 32.0208 129.243 32.5218 130.337 32.5218H131.642C132.737 32.5636 133.284 32.0208 133.284 30.9352Z" fill="#CFBDA2"/>
<path d="M38.4432 35.4028L20.5106 26.7182L9.5658 21.4156V32.7306L27.4984 41.4152V51.8533L38.4432 45.841V35.4028Z" fill="url(#paint0_linear)"/>
<path d="M38.4432 35.4028L20.5106 26.7182L9.5658 21.4156V32.7306L27.4984 41.4152V51.8533L38.4432 45.841V35.4028Z" fill="#CFBDA2"/>
<path d="M38.0223 13.4409L11.0392 0.414062L0.0943604 6.42645L27.0775 19.4533V29.8914L38.0223 23.8791V13.4409Z" fill="url(#paint1_linear)"/>
<path d="M38.0223 13.4409L11.0392 0.414062L0.0943604 6.42645L27.0775 19.4533V29.8914L38.0223 23.8791V13.4409Z" fill="#CFBDA2"/>
<defs>
<linearGradient id="paint0_linear" x1="15.1959" y1="18.3002" x2="32.2181" y2="49.261" gradientUnits="userSpaceOnUse">
<stop stop-color="#8FC73E"/>
<stop offset="0.2622" stop-color="#72BF44"/>
<stop offset="0.2893" stop-color="#CFBDA2"/>
<stop offset="0.7282" stop-color="#8EC850"/>
<stop offset="0.7501" stop-color="#72BF44"/>
<stop offset="1" stop-color="#6FBE44"/>
</linearGradient>
<linearGradient id="paint1_linear" x1="13.1003" y1="-0.730587" x2="29.278" y2="28.6944" gradientUnits="userSpaceOnUse">
<stop stop-color="#CFBDA2"/>
<stop offset="0.717" stop-color="#CFBDA2"/>
<stop offset="0.7386" stop-color="#00B9F2"/>
<stop offset="1" stop-color="#00AEEF"/>
</linearGradient>
</defs>
</svg>
