<svg width="301" height="33" viewBox="0 0 301 33" fill="none" xmlns="http://www.w3.org/2000/svg">
<g clip-path="url(#clip0)">
<path d="M300.32 0.367966H297.418C297.326 0.362628 297.235 0.376919 297.149 0.409882C297.064 0.442849 296.986 0.493732 296.922 0.559131C296.857 0.624534 296.808 0.702952 296.776 0.789156C296.744 0.875357 296.731 0.967356 296.737 1.05902V26.0267L282.024 0.825675C281.942 0.680212 281.822 0.560333 281.677 0.479486C281.531 0.39864 281.366 0.360022 281.2 0.367966H277.474C277.305 0.381721 277.148 0.46207 277.037 0.591512C276.926 0.72095 276.871 0.88899 276.883 1.05902V31.7166C276.878 31.8084 276.892 31.9002 276.925 31.986C276.958 32.0717 277.009 32.1495 277.074 32.214C277.139 32.2786 277.217 32.3285 277.304 32.3603C277.39 32.3921 277.481 32.4052 277.573 32.3987H280.474C280.566 32.4052 280.658 32.3921 280.744 32.3603C280.83 32.3285 280.908 32.2786 280.973 32.214C281.039 32.1495 281.089 32.0717 281.122 31.986C281.155 31.9002 281.169 31.8084 281.164 31.7166V6.68617L295.86 31.95C295.941 32.0954 296.061 32.2153 296.207 32.2961C296.352 32.377 296.517 32.4156 296.684 32.4077H300.427C300.591 32.3875 300.741 32.3059 300.847 32.1794C300.954 32.0529 301.008 31.8908 301 31.7256V1.05005C301.007 0.957578 300.994 0.864759 300.961 0.777888C300.929 0.691016 300.878 0.612128 300.813 0.546573C300.748 0.481021 300.669 0.430342 300.582 0.397976C300.496 0.365608 300.403 0.352313 300.311 0.358991L300.32 0.367966ZM247.169 21.9252L253.107 5.72587L259.044 21.9252H247.169ZM266.97 31.6269L255.373 0.897474C255.312 0.730008 255.199 0.58651 255.05 0.487996C254.902 0.389482 254.726 0.341129 254.548 0.350017H251.647C251.469 0.341129 251.293 0.389482 251.145 0.487996C250.997 0.58651 250.884 0.730008 250.823 0.897474L239.181 31.6089C239.002 32.0666 239.226 32.3897 239.727 32.3897H242.674C242.847 32.4042 243.02 32.3573 243.162 32.2573C243.304 32.1573 243.407 32.0104 243.453 31.8423L245.718 25.6856H260.379L262.635 31.8423C262.681 32.0104 262.784 32.1573 262.926 32.2573C263.068 32.3573 263.241 32.4042 263.414 32.3897H266.361C266.862 32.3897 267.095 32.0666 266.907 31.6089L266.97 31.6269ZM231.085 28.4947H215.458V1.05005C215.465 0.958383 215.452 0.86638 215.42 0.780179C215.388 0.693979 215.338 0.615561 215.274 0.550158C215.21 0.484755 215.132 0.433876 215.046 0.400909C214.961 0.367944 214.869 0.353654 214.778 0.358991H211.876C211.784 0.352313 211.691 0.365608 211.604 0.397976C211.518 0.430342 211.439 0.481021 211.374 0.546573C211.308 0.612128 211.258 0.691016 211.226 0.777888C211.193 0.864759 211.18 0.957578 211.186 1.05005V31.7166C211.181 31.8084 211.196 31.9002 211.228 31.986C211.261 32.0717 211.312 32.1495 211.377 32.214C211.443 32.2786 211.521 32.3285 211.607 32.3603C211.693 32.3921 211.785 32.4052 211.876 32.3987H231.175C231.266 32.4039 231.357 32.3898 231.441 32.3574C231.526 32.3249 231.604 32.2749 231.668 32.2105C231.732 32.1461 231.782 32.0688 231.814 31.9837C231.847 31.8986 231.861 31.8076 231.856 31.7166V29.2037C231.861 29.1128 231.847 29.0218 231.814 28.9366C231.782 28.8515 231.732 28.7742 231.668 28.7098C231.604 28.6454 231.526 28.5954 231.441 28.5629C231.357 28.5305 231.266 28.5164 231.175 28.5216L231.085 28.4947ZM198.389 25.7305C198.33 25.6606 198.257 25.6044 198.174 25.5659C198.092 25.5274 198.001 25.5074 197.91 25.5074C197.819 25.5074 197.729 25.5274 197.646 25.5659C197.563 25.6044 197.49 25.6606 197.431 25.7305C195.208 27.7565 192.304 28.8685 189.3 28.8447C182.744 28.8447 177.496 23.5586 177.496 16.5583C177.496 9.55806 182.744 4.20016 189.3 4.20016C192.303 4.18692 195.202 5.29746 197.431 7.31439C197.49 7.38429 197.563 7.44046 197.646 7.47899C197.729 7.51751 197.819 7.5375 197.91 7.5375C198.001 7.5375 198.092 7.51751 198.174 7.47899C198.257 7.44046 198.33 7.38429 198.389 7.31439L200.18 5.36688C200.254 5.31085 200.315 5.23829 200.356 5.15497C200.398 5.07165 200.419 4.97981 200.419 4.88674C200.419 4.79364 200.398 4.7018 200.356 4.61848C200.315 4.53516 200.254 4.46264 200.18 4.40658C197.262 1.57767 193.36 -0.00261912 189.3 3.25852e-06C187.149 -0.000425359 185.021 0.429044 183.038 1.26327C181.056 2.09749 179.259 3.3197 177.754 4.85834C176.248 6.39696 175.065 8.22112 174.272 10.224C173.478 12.2268 173.092 14.3681 173.135 16.5224C173.099 18.6727 173.491 20.8087 174.287 22.8057C175.084 24.8028 176.268 26.6211 177.773 28.1547C179.277 29.6883 181.071 30.9065 183.05 31.7384C185.029 32.5702 187.153 32.9991 189.3 33C191.315 33.0258 193.315 32.6504 195.184 31.8955C197.054 31.1406 198.755 30.0213 200.189 28.6024C200.263 28.5464 200.324 28.4738 200.365 28.3905C200.407 28.3072 200.428 28.2153 200.428 28.1223C200.428 28.0292 200.407 27.9373 200.365 27.854C200.324 27.7707 200.263 27.6982 200.189 27.6421L198.389 25.7305ZM123.665 28.9614C122.047 28.9593 120.446 28.6343 118.954 28.0054C117.463 27.3765 116.111 26.4563 114.979 25.2985C113.846 24.1406 112.954 22.7683 112.356 21.2615C111.758 19.7548 111.465 18.1438 111.495 16.5224C111.495 13.2901 112.776 10.1901 115.057 7.90446C117.338 5.61882 120.431 4.33479 123.656 4.33479C126.882 4.33479 129.975 5.61882 132.256 7.90446C134.536 10.1901 135.818 13.2901 135.818 16.5224C135.846 18.1415 135.553 19.7501 134.956 21.2546C134.358 22.7591 133.468 24.1296 132.337 25.2862C131.207 26.4429 129.857 27.3627 128.369 27.9921C126.88 28.6215 125.281 28.9479 123.665 28.9524V28.9614ZM123.665 33C125.82 32.9977 127.952 32.5692 129.941 31.7392C131.93 30.9092 133.736 29.694 135.255 28.1632C136.774 26.6324 137.977 24.8161 138.794 22.8186C139.611 20.821 140.027 18.6814 140.018 16.5224C140.018 14.3692 139.595 12.237 138.772 10.2476C137.95 8.25831 136.745 6.45076 135.226 4.92816C133.706 3.40557 131.903 2.1978 129.918 1.37378C127.933 0.549765 125.805 0.125649 123.656 0.125649C121.508 0.125649 119.38 0.549765 117.395 1.37378C115.41 2.1978 113.606 3.40557 112.087 4.92816C110.568 6.45076 109.362 8.25831 108.54 10.2476C107.718 12.237 107.295 14.3692 107.295 16.5224C107.285 18.6829 107.702 20.824 108.521 22.8227C109.339 24.8215 110.543 26.6385 112.064 28.1695C113.585 29.7006 115.393 30.9154 117.384 31.7444C119.375 32.5733 121.509 33 123.665 33ZM78.342 4.28095H86.402C90.6468 4.28095 93.4768 5.42071 93.4768 10.4376C93.4768 15.4545 90.6468 16.6122 86.402 16.6122H78.342V4.28095ZM90.8348 20.0046C95.6975 18.811 97.596 15.5173 97.596 10.4376C97.6142 3.9399 94.5064 0.367966 86.0796 0.367966H74.76C74.6682 0.362628 74.5768 0.376919 74.4912 0.409882C74.4057 0.442849 74.328 0.493732 74.2636 0.559131C74.1991 0.624534 74.1495 0.702952 74.1177 0.789156C74.0858 0.875357 74.0729 0.967356 74.0792 1.05902V31.7166C74.074 31.8076 74.0881 31.8986 74.1206 31.9837C74.1528 32.0688 74.2028 32.1461 74.2673 32.2105C74.3313 32.2749 74.4083 32.3249 74.4935 32.3574C74.5782 32.3898 74.6693 32.4039 74.76 32.3987H77.6616C77.753 32.4052 77.8448 32.3921 77.9307 32.3603C78.0166 32.3285 78.0951 32.2786 78.1603 32.214C78.2254 32.1495 78.2761 32.0717 78.3091 31.986C78.342 31.9002 78.3565 31.8084 78.3509 31.7166V20.4803H86.7512L92.6438 31.8961C92.7115 32.0499 92.8237 32.18 92.9655 32.2696C93.1077 32.3591 93.2732 32.4041 93.4409 32.3987H96.4587C96.9874 32.3987 97.211 32.0756 96.9604 31.5999L90.8348 20.0046ZM61.9896 28.5127H46.0488V17.6443H60.7356C60.8281 17.651 60.9207 17.6376 61.0073 17.6053C61.094 17.5729 61.1728 17.5223 61.238 17.4567C61.3035 17.3911 61.3542 17.3122 61.3865 17.2254C61.4187 17.1385 61.432 17.0457 61.4253 16.9532V14.4403C61.4305 14.3486 61.4164 14.2567 61.3835 14.171C61.3505 14.0852 61.2998 14.0074 61.2347 13.9429C61.1691 13.8783 61.091 13.8285 61.0051 13.7966C60.9188 13.7648 60.827 13.7517 60.7356 13.7582H46.0488V4.254H61.9448C62.0347 4.26034 62.1247 4.24769 62.2095 4.21692C62.2943 4.18614 62.3716 4.1379 62.4364 4.07531C62.5016 4.01273 62.5527 3.9372 62.5868 3.85358C62.6208 3.76997 62.6371 3.68015 62.6341 3.58988V1.05005C62.6408 0.958383 62.6278 0.86638 62.596 0.780179C62.5642 0.693979 62.5146 0.615561 62.4501 0.550158C62.3857 0.484755 62.308 0.433876 62.2224 0.400909C62.1369 0.367944 62.0451 0.353654 61.9536 0.358991H42.4668C42.3753 0.353654 42.2835 0.367944 42.198 0.400909C42.1125 0.433876 42.0347 0.484755 41.9703 0.550158C41.9059 0.615561 41.8563 0.693979 41.8244 0.780179C41.7926 0.86638 41.7796 0.958383 41.7863 1.05005V31.7166C41.7807 31.8076 41.7948 31.8986 41.8274 31.9837C41.8596 32.0688 41.9096 32.1461 41.974 32.2105C42.038 32.2749 42.1154 32.3249 42.2002 32.3574C42.285 32.3898 42.3761 32.4039 42.4668 32.3987H61.9896C62.081 32.4052 62.1728 32.3921 62.2587 32.3603C62.3446 32.3285 62.4231 32.2786 62.4883 32.214C62.5534 32.1495 62.6042 32.0717 62.6371 31.986C62.6701 31.9002 62.6845 31.8084 62.6789 31.7166V29.2037C62.6845 29.112 62.6701 29.0201 62.6371 28.9344C62.6042 28.8486 62.5534 28.7708 62.4883 28.7063C62.4231 28.6417 62.3446 28.5919 62.2587 28.56C62.1728 28.5282 62.081 28.5151 61.9896 28.5216V28.5127ZM28.0485 0.367966H25.147C25.0547 0.361287 24.9621 0.374583 24.8754 0.406949C24.7887 0.439315 24.71 0.489994 24.6446 0.555549C24.5792 0.621101 24.5286 0.699993 24.4963 0.786865C24.464 0.873736 24.4508 0.966555 24.4574 1.05902V7.95159H4.27191V1.05005C4.27724 0.958305 4.26299 0.866484 4.23011 0.780706C4.1972 0.694928 4.14644 0.617167 4.08117 0.552613C4.0159 0.488063 3.93767 0.438199 3.85166 0.40636C3.76562 0.37452 3.67383 0.36143 3.58236 0.367966H0.680812C0.590072 0.362757 0.499257 0.37683 0.414329 0.409267C0.329397 0.441699 0.252268 0.491763 0.188 0.556169C0.123732 0.620578 0.0737771 0.697872 0.041412 0.782986C0.00904692 0.8681 -0.00499716 0.95911 0.00020096 1.05005V31.7166C-0.00499716 31.8076 0.00904692 31.8986 0.041412 31.9837C0.0737771 32.0688 0.123732 32.1461 0.188 32.2105C0.252268 32.2749 0.329397 32.3249 0.414329 32.3574C0.499257 32.3898 0.590072 32.4039 0.680812 32.3987H3.58236C3.6731 32.4039 3.76391 32.3898 3.84885 32.3574C3.93378 32.3249 4.0109 32.2749 4.07517 32.2105C4.13944 32.1461 4.18939 32.0688 4.22175 31.9837C4.25414 31.8986 4.26817 31.8076 4.26299 31.7166V11.8377H24.4574V31.7166C24.4521 31.8084 24.4663 31.9002 24.4992 31.986C24.5321 32.0717 24.5829 32.1495 24.6482 32.214C24.7134 32.2786 24.7917 32.3285 24.8777 32.3603C24.9637 32.3921 25.0555 32.4052 25.147 32.3987H28.0485C28.1392 32.4039 28.2301 32.3898 28.315 32.3574C28.3999 32.3249 28.477 32.2749 28.5413 32.2105C28.6056 32.1461 28.6555 32.0688 28.6879 31.9837C28.7203 31.8986 28.7343 31.8076 28.7291 31.7166V1.05005C28.7357 0.958383 28.7226 0.86638 28.6908 0.780179C28.6591 0.693979 28.6093 0.615561 28.5449 0.550158C28.4805 0.484755 28.4029 0.433876 28.3173 0.400909C28.2317 0.367944 28.1401 0.353654 28.0485 0.358991" fill="#CFBDA2"/>
<path d="M9.96759 23.6394C10.2846 23.6418 10.5989 23.581 10.8923 23.4605C11.1856 23.3401 11.4521 23.1623 11.6763 22.9377C11.9005 22.713 12.0778 22.4459 12.1981 22.1519C12.3183 21.8579 12.379 21.543 12.3766 21.2252C12.3766 20.5838 12.1223 19.9686 11.6697 19.515C11.2171 19.0614 10.6032 18.8065 9.96311 18.8065C9.32301 18.8065 8.70912 19.0614 8.25651 19.515C7.8039 19.9686 7.54963 20.5838 7.54963 21.2252C7.54726 21.543 7.60794 21.8579 7.72815 22.1519C7.84837 22.4459 8.02571 22.713 8.24989 22.9377C8.47406 23.1623 8.74059 23.3401 9.03393 23.4605C9.32727 23.581 9.6416 23.6418 9.95863 23.6394" fill="#CFBDA2"/>
<path d="M18.7258 23.6394C19.0428 23.6418 19.3571 23.581 19.6505 23.4605C19.9438 23.3401 20.2103 23.1623 20.4345 22.9377C20.6586 22.713 20.836 22.4459 20.9562 22.1519C21.0765 21.8579 21.1371 21.543 21.1348 21.2252C21.1348 20.5838 20.8805 19.9686 20.4279 19.515C19.9752 19.0614 19.3614 18.8065 18.7213 18.8065C18.0812 18.8065 17.4673 19.0614 17.0147 19.515C16.5621 19.9686 16.3078 20.5838 16.3078 21.2252C16.3054 21.543 16.3661 21.8579 16.4863 22.1519C16.6066 22.4459 16.7839 22.713 17.0081 22.9377C17.2322 23.1623 17.4987 23.3401 17.7921 23.4605C18.0854 23.581 18.3998 23.6418 18.7168 23.6394" fill="#CFBDA2"/>
</g>
<defs>
<clipPath id="clip0">
<rect width="301" height="33" fill="white"/>
</clipPath>
</defs>
</svg>
