<svg width="201" height="31" viewBox="0 0 201 31" fill="none" xmlns="http://www.w3.org/2000/svg">
<path d="M172.662 1.57251V14.1123H176.782C175.949 13.1537 175.473 11.8569 175.473 10.5436C175.473 7.36826 178.087 4.84374 181.289 4.84374C182.675 4.84374 183.9 5.29242 184.923 6.08284V1.57251H172.662V1.57251ZM187.153 1.57251V6.08284C188.169 5.29242 189.457 4.84374 190.836 4.84374C194.042 4.84374 196.603 7.36826 196.603 10.5436C196.603 11.8569 196.154 13.1537 195.343 14.1123H199.462V1.57251H187.153V1.57251ZM1.5376 1.622V28.9319H13.5081C22.8799 28.9319 27.2232 23.5753 27.2232 15.2026C27.2232 8.3206 24.0645 1.622 15.1074 1.622H1.5376ZM29.3556 1.622V6.92537H36.7705V1.622H29.3556ZM62.117 1.622V28.9319H69.5803V23.1824L70.8888 21.7451L74.8628 28.9319H83.8286L75.7837 16.5408L82.7624 9.05662H74.3297L69.5803 14.8061V1.622H62.117V1.622ZM129.724 1.622V6.92537H137.187V1.622H129.724ZM181.289 6.97492C179.271 6.97492 177.605 8.53029 177.605 10.5435C177.605 12.4726 179.271 14.1122 181.289 14.1122H184.923V10.5435C184.923 8.53029 183.323 6.97492 181.289 6.97492ZM190.836 6.97492C188.826 6.97492 187.153 8.53029 187.153 10.5435V14.1122H190.836C192.89 14.1122 194.519 12.4726 194.519 10.5435C194.519 8.53029 192.89 6.97492 190.836 6.97492ZM49.9042 8.56098C45.2753 8.56098 40.0494 9.47223 39.8237 15.0539H46.754C46.7923 14.2129 47.2689 13.0218 49.5649 13.0218C50.7694 13.0218 51.9881 13.5175 51.9881 14.8556C51.9881 16.1179 50.9678 16.4488 49.9526 16.6399C46.1501 17.3663 38.9514 17.1105 38.9514 23.3807C38.9514 27.5486 42.0704 29.4275 45.8332 29.4275C48.242 29.4275 50.5524 28.8838 52.1335 27.0484H52.1819C52.1454 27.5836 52.2851 28.3967 52.4726 28.9319H60.0329C59.2052 27.6703 59.1606 25.9618 59.1606 24.4711V16.3425C59.1606 12.5186 59.2394 8.56098 49.9041 8.56098H49.9042ZM93.4728 8.56098C86.1332 8.56098 82.8109 13.4644 82.8109 18.9695C82.8109 24.4753 86.1332 29.4275 93.4728 29.4275C100.812 29.4275 104.135 24.4753 104.135 18.9695C104.135 13.4644 100.812 8.56098 93.4728 8.56098V8.56098ZM120.031 8.56098C117.058 8.56098 115.076 9.59668 113.682 11.5844H113.585V9.05662H106.413V28.9319H113.876V18.4242C113.876 15.2509 115.553 14.6078 116.832 14.6078C119.015 14.6078 119.304 16.2288 119.304 18.5234V28.9319H126.767V15.3017C126.767 10.7513 123.531 8.56098 120.031 8.56098V8.56098ZM149.4 8.56098C143.226 8.56098 139.077 13.2955 139.077 19.0686C139.077 25.6828 143.782 29.4275 150.03 29.4275C154.471 29.4275 158.604 27.4144 160.11 23.1328H153.131C152.529 24.0886 151.186 24.5702 149.981 24.5702C147.647 24.5702 146.389 22.9599 146.201 20.7042H160.498C160.498 12.9812 157.152 8.56098 149.4 8.56098V8.56098ZM9.82485 8.61046H12.4419C18.4261 8.61046 18.936 13.3826 18.936 15.1034C18.936 17.6651 18.1796 21.8937 13.0234 21.8937H9.82485V8.61046V8.61046ZM29.3556 9.05654V28.9318H36.7705V9.05654H29.3556ZM129.724 9.05654V28.9318H137.187V9.05654H129.724ZM150.078 13.4182C151.998 13.4182 153.374 14.9038 153.374 16.739H146.25C146.588 14.5979 147.859 13.4182 150.078 13.4182ZM93.4728 14.0625C96.2965 14.0625 96.6714 16.8669 96.6714 18.9694C96.6714 21.0727 96.2965 23.8762 93.4728 23.8762C90.6507 23.8762 90.2742 21.0727 90.2742 18.9694C90.2742 16.8669 90.6507 14.0625 93.4728 14.0625ZM172.662 16.392V28.9318H184.972V16.392H172.662ZM187.153 16.392V28.9318H199.462V16.392H187.153ZM51.9881 20.0102V21.8441C51.8753 23.9087 50.5804 24.9171 48.8864 24.9171C47.5311 24.9171 46.5602 24.0008 46.5602 23.0832C46.5602 21.745 47.4244 21.3337 49.0803 20.9519C50.0971 20.7219 51.0838 20.4696 51.9881 20.0102Z" fill="#CFBDA2"/>
</svg>
