<svg width="137" height="24" viewBox="0 0 137 24" fill="none" xmlns="http://www.w3.org/2000/svg">
<path d="M89.5 0.000244255H111.5V4.89815H89.5V0.000244255Z" fill="#CFBDA2"/>
<path d="M112.5 0.000244255H126.5V4.89815H112.5V0.000244255Z" fill="#CFBDA2"/>
<path d="M112.5 19.1021H126.5V24H112.5V19.1021Z" fill="#CFBDA2"/>
<path d="M89.5 8.81648H111.5V14.2042H89.5V8.81648Z" fill="#CFBDA2"/>
<path d="M83.5 24V0.000244255L88.5 0.000244041V24H83.5Z" fill="#CFBDA2"/>
<path d="M61 24V0.000244255L65.5 0.000244062V24H61Z" fill="#CFBDA2"/>
<path d="M51.5 24V0.000244255L57 0.00024402V24H51.5Z" fill="#CFBDA2"/>
<path d="M43 4.89815L25.5 4.89815V0.000244352L43 0.000242854V4.89815Z" fill="#CFBDA2"/>
<path d="M43 15.1838V0.000242854L43.5 0.000244261C46.2614 0.000244293 48.5 2.19311 48.5 4.89815V10.2859C48.5 12.9909 46.2614 15.1838 43.5 15.1838H43Z" fill="#CFBDA2"/>
<path d="M43 15.1838L25.5 15.1838V10.7756L43 10.7756V15.1838Z" fill="#CFBDA2"/>
<path d="M37.6013 11.2654L34 14.7932L43.3723 23.9742H50.575L37.6013 11.2654Z" fill="#CFBDA2"/>
<path d="M31 15.1838V24H25.5V15.1838L31 15.1838Z" fill="#CFBDA2"/>
<path d="M9.5 24L9.5 0.000246123L15 0.000245888L15 24H9.5Z" fill="#CFBDA2"/>
<path d="M24.5 4.89816L4.37114e-07 4.89816L0 0.000246353L24.5 0.000244255V4.89816Z" fill="#CFBDA2"/>
<path d="M89.5 19.1021H111.5V24H89.5V19.1021Z" fill="#CFBDA2"/>
<path fill-rule="evenodd" clip-rule="evenodd" d="M72.8694 18.8426L61.8694 2.43461L65.6308 0.0148626L74.706 13.5518L83.3437 0.054081L87.1565 2.39539L76.6565 18.8034L72.8694 18.8426Z" fill="#CFBDA2"/>
<path fill-rule="evenodd" clip-rule="evenodd" d="M122.82 24C122.797 24 122.773 24 122.75 24V19.1021C124.281 19.1021 125.619 19.0993 126.837 18.9648C128.046 18.8313 128.953 18.5837 129.637 18.202C130.732 17.5908 132 16.2064 132 11.7796C132 9.58389 131.632 8.19298 131.174 7.30952C130.74 6.47353 130.169 5.97965 129.481 5.64476C128.739 5.28362 127.787 5.07443 126.591 4.9759C125.585 4.89302 124.56 4.89627 123.447 4.89978C123.219 4.9005 122.987 4.90123 122.75 4.90123V0.00332525C122.949 0.00332524 123.155 0.00254424 123.368 0.00173895C124.481 -0.00246874 125.766 -0.00732665 127.01 0.0952207C128.51 0.218765 130.167 0.509251 131.706 1.2585C133.299 2.034 134.682 3.26123 135.631 5.09018C136.555 6.87167 137 9.08953 137 11.7796C137 17.1242 135.393 20.6255 132.113 22.4572C130.609 23.2969 128.954 23.66 127.397 23.8319C125.874 24.0001 124.271 24 122.82 24Z" fill="#CFBDA2"/>
</svg>
