<svg width="180" height="100" viewBox="0 0 180 100" fill="none" xmlns="http://www.w3.org/2000/svg">
<path d="M46.8073 41.39H48.8323V55.31H54.9072V57.31H46.8073V41.39ZM61.215 41.39C62.4165 41.39 63.591 41.7419 64.5901 42.4012C65.5891 43.0605 66.3677 43.9976 66.8275 45.0939C67.2873 46.1903 67.4076 47.3967 67.1732 48.5606C66.9388 49.7244 66.3602 50.7935 65.5106 51.6327C64.661 52.4718 63.5786 53.0432 62.4002 53.2747C61.2217 53.5062 60.0003 53.3874 58.8902 52.9333C57.7802 52.4792 56.8314 51.7101 56.1639 50.7234C55.4964 49.7367 55.1401 48.5767 55.1401 47.39C55.1401 46.6021 55.2972 45.8219 55.6025 45.0939C55.9078 44.366 56.3553 43.7045 56.9194 43.1474C57.4835 42.5902 58.1532 42.1483 58.8902 41.8467C59.6273 41.5452 60.4172 41.39 61.215 41.39ZM61.215 51.39C62.016 51.39 62.799 51.1554 63.465 50.7159C64.131 50.2764 64.6501 49.6517 64.9567 48.9207C65.2632 48.1898 65.3434 47.3856 65.1871 46.6096C65.0309 45.8337 64.6451 45.121 64.0788 44.5616C63.5124 44.0022 62.7907 43.6212 62.0051 43.4669C61.2195 43.3125 60.4052 43.3917 59.6652 43.6945C58.9251 43.9972 58.2926 44.5099 57.8476 45.1677C57.4026 45.8255 57.1651 46.5989 57.1651 47.39C57.1704 48.4474 57.5995 49.4597 58.3584 50.2055C59.1173 50.9513 60.1444 51.37 61.215 51.37V51.39ZM57.1651 55.33H65.265V57.33H57.1651V55.33ZM83.0847 57.33H81.0598V55.9C79.7538 56.8028 78.1989 57.288 76.6048 57.29C75.2456 57.299 73.9059 56.97 72.7092 56.3333C71.5125 55.6966 70.4972 54.7726 69.757 53.6466C69.0168 52.5206 68.5754 51.2287 68.4735 49.89C68.3716 48.5512 68.6125 47.2087 69.1739 45.986C69.7353 44.7633 70.5992 43.6999 71.6861 42.8936C72.773 42.0873 74.0478 41.5641 75.3931 41.3723C76.7385 41.1804 78.1111 41.3261 79.3844 41.7958C80.6578 42.2655 81.7911 43.0441 82.6797 44.06L81.1914 45.37C80.5155 44.6236 79.6612 44.0562 78.7064 43.7195C77.7516 43.3827 76.7266 43.2874 75.7249 43.4421C74.7233 43.5967 73.7767 43.9966 72.9715 44.6051C72.1664 45.2137 71.5283 46.0116 71.1153 46.9261C70.7023 47.8406 70.5277 48.8426 70.6072 49.8409C70.6868 50.8392 71.0181 51.8019 71.5708 52.6413C72.1236 53.4808 72.8803 54.1702 73.7719 54.6468C74.6636 55.1234 75.6618 55.372 76.6757 55.37C77.5171 55.3717 78.349 55.1939 79.1144 54.8487C79.8797 54.5035 80.5606 53.9991 81.1104 53.37H75.643V51.37H83.105L83.0847 57.33ZM90.5366 41.43C91.7381 41.43 92.9127 41.7819 93.9117 42.4412C94.9107 43.1005 95.6893 44.0376 96.1491 45.1339C96.6089 46.2303 96.7292 47.4367 96.4948 48.6006C96.2604 49.7644 95.6819 50.8335 94.8323 51.6727C93.9827 52.5118 92.9002 53.0832 91.7218 53.3147C90.5434 53.5462 89.3219 53.4274 88.2119 52.9733C87.1018 52.5192 86.153 51.7501 85.4855 50.7634C84.818 49.7767 84.4617 48.6167 84.4617 47.43C84.4564 46.637 84.6102 45.8509 84.9144 45.117C85.2185 44.3831 85.667 43.716 86.2338 43.1544C86.8006 42.5927 87.4745 42.1476 88.2165 41.8448C88.9585 41.5419 89.754 41.3873 90.5569 41.39L90.5366 41.43ZM90.5366 51.43C91.3376 51.43 92.1207 51.1954 92.7867 50.7559C93.4527 50.3164 93.9718 49.6917 94.2783 48.9607C94.5848 48.2298 94.665 47.4256 94.5088 46.6497C94.3525 45.8737 93.9668 45.161 93.4004 44.6016C92.834 44.0422 92.1124 43.6612 91.3267 43.5069C90.5411 43.3525 89.7268 43.4317 88.9868 43.7345C88.2468 44.0372 87.6142 44.5499 87.1692 45.2077C86.7242 45.8655 86.4867 46.6389 86.4867 47.43C86.5027 48.4839 86.9392 49.489 87.7014 50.2268C88.4635 50.9646 89.4897 51.3754 90.5569 51.37L90.5366 51.43ZM86.4867 55.37H94.5866V57.37H86.4867V55.37ZM98.7682 41.39H100.793V57.29H98.7682V41.39ZM103.598 41.39H105.623C105.727 41.3791 105.832 41.3791 105.937 41.39C106.785 41.2991 107.643 41.3857 108.455 41.644C109.266 41.9024 110.014 42.3267 110.649 42.8894C111.284 43.4521 111.792 44.1406 112.139 44.91C112.487 45.6794 112.667 46.5125 112.667 47.355C112.667 48.1975 112.487 49.0306 112.139 49.8C111.792 50.5694 111.284 51.2579 110.649 51.8206C110.014 52.3833 109.266 52.8076 108.455 53.066C107.643 53.3243 106.785 53.4109 105.937 53.32H105.623V57.32H103.598V41.39ZM105.623 43.39V51.3H105.937C106.509 51.3752 107.09 51.3289 107.642 51.1641C108.195 50.9992 108.705 50.7198 109.139 50.3443C109.573 49.9689 109.921 49.5062 110.159 48.9872C110.398 48.4682 110.521 47.9049 110.521 47.335C110.521 46.7651 110.398 46.2018 110.159 45.6828C109.921 45.1638 109.573 44.7011 109.139 44.3257C108.705 43.9503 108.195 43.6708 107.642 43.506C107.09 43.3411 106.509 43.2948 105.937 43.37C105.826 43.3813 105.718 43.4048 105.613 43.44L105.623 43.39ZM120.213 42.54L118.714 43.71C118.456 43.4432 118.125 43.2548 117.762 43.167C117.399 43.0792 117.018 43.0956 116.664 43.2143C116.31 43.3329 115.997 43.549 115.763 43.8369C115.529 44.1249 115.383 44.4729 115.343 44.84V45C115.343 45.88 115.96 46.47 117.165 46.55C121.802 46.83 123.928 48.98 123.928 51.82V52C123.809 53.124 123.365 54.1905 122.649 55.0724C121.933 55.9544 120.976 56.6148 119.892 56.975C118.807 57.3353 117.64 57.3802 116.531 57.1046C115.421 56.8289 114.415 56.2442 113.631 55.42L115.181 54.24C115.541 54.6217 115.981 54.9213 116.471 55.1182C116.961 55.315 117.488 55.4044 118.016 55.38C118.991 55.4308 119.948 55.1075 120.688 54.4777C121.427 53.8478 121.892 52.9602 121.984 52V51.86C121.984 49.19 119.332 48.7 117.033 48.48C114.907 48.28 113.378 46.97 113.378 45.08V45C113.453 44.016 113.908 43.098 114.648 42.4356C115.389 41.7731 116.359 41.4167 117.357 41.44C117.887 41.4246 118.413 41.5189 118.903 41.717C119.394 41.9151 119.836 42.2125 120.203 42.59L120.213 42.54ZM131.856 55.26C134.377 55.26 136.372 52.57 136.372 49.26V41.26H138.397V49.26C138.397 53.66 135.481 57.21 131.897 57.21C128.313 57.21 125.397 53.66 125.397 49.26V41.26H127.422V49.26C127.341 52.62 129.335 55.31 131.846 55.31L131.856 55.26ZM153.939 57.26H151.914V47.36L147.246 53.36L142.578 47.36V57.29H140.554V41.39L147.236 50.08L153.918 41.39L153.939 57.26Z" fill="#8C8C8C"/>
<path d="M37.0874 39.0001C37.0874 37.5573 36.5071 36.1736 35.4742 35.1534C34.4412 34.1332 33.0403 33.5601 31.5795 33.5601C30.1187 33.5601 28.7177 34.1332 27.6848 35.1534C26.6518 36.1736 26.0715 37.5573 26.0715 39.0001V55.4501L30.6075 58.6601V66.4801H32.5515V58.6601L37.0874 55.4501V39.0001ZM35.1434 48.2001L32.5515 50.7601V48.3601L35.1434 45.8001V48.2001ZM28.056 45.8001L30.648 48.3601V50.7601L28.056 48.2001V45.8001ZM35.1434 43.0801L31.5795 46.6001L28.0155 43.0001V40.6001L31.5795 44.1201L35.1434 40.6001V43.0801ZM31.5795 35.4801C32.3633 35.4835 33.1244 35.7406 33.7461 36.212C34.3679 36.6834 34.816 37.3431 35.0219 38.0901L31.5795 41.4801L28.137 38.0901C28.3354 37.3357 28.7803 36.667 29.4027 36.1879C30.0252 35.7087 30.7903 35.4459 31.5795 35.4401V35.4801ZM28.0155 54.4801V50.8801L30.6075 53.4401V56.3001L28.0155 54.4801ZM32.5515 56.3101V53.4401L35.1434 50.8801V54.4701L32.5515 56.3101Z" fill="#8C8C8C"/>
</svg>
