<svg width="268" height="66" viewBox="0 0 268 66" fill="none" xmlns="http://www.w3.org/2000/svg">
<path d="M61.164 33.0639C61.164 28.5519 57.484 24.8719 52.972 24.8719C51.532 24.8719 50.156 25.2559 48.972 25.8959C48.524 25.4159 47.916 25.1279 47.18 25.1279C45.868 25.1279 44.78 26.2159 44.78 27.5279V43.7199C44.78 45.0319 45.836 46.0879 47.116 46.1519H47.34C48.748 46.1519 49.868 44.9999 49.868 43.6239V40.6479C50.828 41.0319 51.884 41.2559 52.972 41.2559C57.484 41.2559 61.164 37.5759 61.164 33.0639ZM56.076 33.0639C56.076 34.7919 54.7 36.1679 52.972 36.1679C51.244 36.1679 49.868 34.7919 49.868 33.0639C49.868 31.3359 51.244 29.9599 52.972 29.9599C54.7 29.9599 56.076 31.3359 56.076 33.0639Z" fill="#CFBDA2"/>
<path d="M70.8083 24.9999C66.2963 24.9999 62.6163 28.6799 62.6163 33.1919C62.6163 37.7039 66.2963 41.3839 70.8083 41.3839C75.3203 41.3839 79.0003 37.7039 79.0003 33.1919C79.0003 28.6799 75.3203 24.9999 70.8083 24.9999ZM70.8083 30.0879C72.5363 30.0879 73.9123 31.4639 73.9123 33.1919C73.9123 34.9199 72.5363 36.2959 70.8083 36.2959C69.0803 36.2959 67.7043 34.9199 67.7043 33.1919C67.7043 31.4639 69.0803 30.0879 70.8083 30.0879Z" fill="#CFBDA2"/>
<path d="M97.3128 24.9679C95.6168 24.9679 94.0168 25.6079 92.8008 26.5999C91.5848 25.6079 89.9848 24.9679 88.2888 24.9679C87.1688 24.9679 86.1128 25.2239 85.1848 25.7039C84.7688 25.3519 84.2568 25.1279 83.6488 25.1279C82.3368 25.1279 81.2488 26.1839 81.2488 27.5599V38.5679C81.2488 39.9759 82.4008 41.1279 83.7768 41.1279C85.1848 41.1279 86.3368 39.9759 86.3368 38.5679V32.0079C86.3368 30.9199 87.2008 30.0559 88.2888 30.0559C89.3448 30.0559 90.2408 30.9199 90.2408 32.0079V38.5679C90.2408 39.9759 91.4248 41.1279 92.8008 41.1279C94.2088 41.1279 95.3608 39.9759 95.3608 38.5679V32.0079C95.3608 30.9199 96.2568 30.0559 97.3128 30.0559C98.4008 30.0559 99.2648 30.9199 99.2648 32.0079V38.5679C99.2648 39.9759 100.449 41.1279 101.825 41.1279C103.201 41.1279 104.385 39.9759 104.385 38.5679V32.0079C104.385 28.1359 101.185 24.9679 97.3128 24.9679Z" fill="#CFBDA2"/>
<path d="M113.696 41.3839C109.792 41.3839 106.624 38.2159 106.624 34.3119V27.6559C106.624 26.2799 107.744 25.1279 109.184 25.1279C110.592 25.1279 111.712 26.2799 111.712 27.6559V34.3119C111.712 35.3999 112.608 36.2959 113.696 36.2959C114.784 36.2959 115.68 35.3999 115.68 34.3119V27.6559C115.68 26.2799 116.8 25.1279 118.208 25.1279C119.648 25.1279 120.768 26.2799 120.768 27.6559V34.3119C120.768 38.2159 117.6 41.3839 113.696 41.3839Z" fill="#CFBDA2"/>
<path d="M134.199 36.0399H130.519L136.151 29.3199C137.047 28.2319 136.919 26.6319 135.831 25.7359C135.351 25.3199 134.775 25.1279 134.167 25.1279H124.919C123.575 25.1279 122.519 26.2159 122.519 27.5279C122.519 28.8399 123.575 29.8959 124.919 29.8959H129.015L123.159 36.9359C122.743 37.4159 122.551 38.0559 122.551 38.6319C122.583 39.9759 123.735 41.1279 125.111 41.1279H134.199C135.607 41.1279 136.759 39.9759 136.759 38.5679C136.759 37.1919 135.607 36.0399 134.199 36.0399Z" fill="#CFBDA2"/>
<path d="M154.154 32.1679C153.642 28.0719 150.186 24.9999 146.058 24.9999C142.442 24.9999 139.658 27.2719 138.538 29.9919C137.674 32.0719 137.642 34.5999 138.634 36.6479C139.914 39.3039 142.794 41.3839 146.474 41.3839C148.106 41.3839 149.674 40.9679 151.05 40.1679C152.074 39.5599 152.426 38.2159 151.818 37.1599C151.21 36.1359 149.866 35.7519 148.842 36.3919C146.794 37.5119 144.138 37.1919 142.73 35.0479H151.242C153.066 35.0479 154.346 34.0879 154.154 32.1679ZM142.762 31.3999C143.05 30.1839 144.426 29.0319 146.026 29.0319C147.658 29.0319 149.002 30.1839 149.29 31.3999H142.762Z" fill="#CFBDA2"/>
<path d="M172.313 24.9679C170.617 24.9679 169.017 25.6079 167.801 26.5999C166.585 25.6079 164.985 24.9679 163.289 24.9679C162.169 24.9679 161.113 25.2239 160.185 25.7039C159.769 25.3519 159.257 25.1279 158.649 25.1279C157.337 25.1279 156.249 26.1839 156.249 27.5599V38.5679C156.249 39.9759 157.401 41.1279 158.777 41.1279C160.185 41.1279 161.337 39.9759 161.337 38.5679V32.0079C161.337 30.9199 162.201 30.0559 163.289 30.0559C164.345 30.0559 165.241 30.9199 165.241 32.0079V38.5679C165.241 39.9759 166.425 41.1279 167.801 41.1279C169.209 41.1279 170.361 39.9759 170.361 38.5679V32.0079C170.361 30.9199 171.257 30.0559 172.313 30.0559C173.401 30.0559 174.265 30.9199 174.265 32.0079V38.5679C174.265 39.9759 175.449 41.1279 176.825 41.1279C178.201 41.1279 179.385 39.9759 179.385 38.5679V32.0079C179.385 28.1359 176.185 24.9679 172.313 24.9679Z" fill="#CFBDA2"/>
<path d="M197.56 32.1679C197.048 28.0719 193.592 24.9999 189.464 24.9999C185.848 24.9999 183.064 27.2719 181.944 29.9919C181.08 32.0719 181.048 34.5999 182.04 36.6479C183.32 39.3039 186.2 41.3839 189.88 41.3839C191.512 41.3839 193.08 40.9679 194.456 40.1679C195.48 39.5599 195.832 38.2159 195.224 37.1599C194.616 36.1359 193.272 35.7519 192.248 36.3919C190.2 37.5119 187.544 37.1919 186.136 35.0479H194.648C196.472 35.0479 197.752 34.0879 197.56 32.1679ZM186.168 31.3999C186.456 30.1839 187.832 29.0319 189.432 29.0319C191.064 29.0319 192.408 30.1839 192.696 31.3999H186.168Z" fill="#CFBDA2"/>
<path d="M203.751 38.8239C203.751 40.1039 202.727 41.1279 201.447 41.1279C200.199 41.1279 199.175 40.1039 199.175 38.8239C199.175 37.5759 200.199 36.5519 201.447 36.5519C202.727 36.5519 203.751 37.5759 203.751 38.8239Z" fill="#CFBDA2"/>
<path d="M211.795 29.3519C211.187 29.1599 210.291 28.9359 210.131 29.6399C209.971 30.2799 211.123 30.5999 211.603 30.6959C212.563 30.8879 213.491 31.4319 214.163 32.1679C215.635 33.7039 215.955 36.1359 215.123 38.0559C214.259 40.0399 212.275 41.2239 210.163 41.3519C208.979 41.4159 206.515 41.0959 205.523 39.7839C204.275 38.1199 205.491 35.7839 207.507 35.8799C208.307 35.9119 209.171 36.5199 209.843 36.5519C210.995 36.6479 211.251 35.2399 210.163 34.9519C208.147 34.3439 206.675 33.5439 205.747 31.6879C205.075 30.2799 205.235 28.5199 206.195 27.2399C207.731 25.1599 210.643 24.4559 213.043 25.3839C214.323 25.8959 215.379 27.2079 214.579 28.6159C214.003 29.5759 213.011 29.7679 211.795 29.3519Z" fill="#CFBDA2"/>
<path d="M222.829 22.0239C222.829 23.2399 221.837 24.2319 220.653 24.2319C219.437 24.2319 218.445 23.2399 218.445 22.0239C218.445 20.8399 219.437 19.8479 220.653 19.8479C221.837 19.8479 222.829 20.8399 222.829 22.0239ZM220.653 41.1279C219.245 41.1279 218.093 39.9759 218.093 38.5679V27.4959C218.093 26.0879 219.245 24.9359 220.653 24.9359C222.061 24.9359 223.213 26.0879 223.213 27.4959V38.5679C223.213 39.9759 222.061 41.1279 220.653 41.1279Z" fill="#CFBDA2"/>
<path fill-rule="evenodd" clip-rule="evenodd" d="M126.192 18.7412C126.973 17.9601 128.239 17.9601 129.02 18.7412L129.759 19.4802L130.498 18.7412C131.279 17.9601 132.545 17.9601 133.326 18.7412C134.107 19.5222 134.107 20.7886 133.326 21.5696L131.173 23.7228C130.392 24.5038 129.126 24.5038 128.345 23.7228L126.192 21.5696C125.411 20.7886 125.411 19.5222 126.192 18.7412Z" fill="#CFBDA2"/>
<path d="M115.993 22.2925C115.993 23.5725 114.969 24.5965 113.689 24.5965C112.441 24.5965 111.417 23.5725 111.417 22.2925C111.417 21.0445 112.441 20.0205 113.689 20.0205C114.969 20.0205 115.993 21.0445 115.993 22.2925Z" fill="#CFBDA2"/>
</svg>
