<svg width="400" height="326" viewBox="0 0 400 326" fill="none" xmlns="http://www.w3.org/2000/svg">
<path d="M4.0705 67.7275L7.93421 68.7627M19.5253 71.8686L15.6616 70.8333M9.72736 77.5254L10.7626 73.6617M13.8685 62.0706L12.8332 65.9343" stroke="#64CCE3" stroke-width="2"/>
<circle cx="281" cy="8" r="7" stroke="#64CCE3" stroke-width="2"/>
<circle cx="108" cy="126" r="7" stroke="#64CCE3" stroke-width="2"/>
<path d="M387.728 79.0706L389.798 86.798L391.869 94.5254" stroke="#64CCE3" stroke-width="2"/>
<path d="M382.071 88.8685L389.798 86.798L397.525 84.7274" stroke="#64CCE3" stroke-width="2"/>
<path d="M328.646 310.633L335.596 314.596L342.545 318.559" stroke="#64CCE3" stroke-width="2"/>
<path d="M331.633 321.545L335.596 314.596L339.559 307.646" stroke="#64CCE3" stroke-width="2"/>
<path d="M14.986 293.935L18.4538 295.928M28.8573 301.909L25.3894 299.915M17.9345 304.857L19.9281 301.39M25.9088 290.986L23.9152 294.454" stroke="#64CCE3" stroke-width="2"/>
<path d="M120.922 10.9935L122.922 14.4576M128.922 24.8499L126.922 21.3858M117.993 21.9217L121.458 19.9217M131.85 13.9217L128.386 15.9217" stroke="#64CCE3" stroke-width="2"/>
</svg>
