<svg width="24" height="24" viewBox="0 0 24 24" fill="none" xmlns="http://www.w3.org/2000/svg">
<path d="M13.059 15.2352C12.7333 15.4088 12.3698 15.4996 12.0007 15.4996C11.6317 15.4996 11.2682 15.4088 10.9425 15.2352L0.000177175 9.40027V18.4999C-0.00414079 18.895 0.0705066 19.2871 0.219739 19.653C0.368972 20.0189 0.589785 20.3514 0.869221 20.6308C1.14866 20.9102 1.48109 21.131 1.84701 21.2803C2.21293 21.4295 2.60497 21.5042 3.00013 21.4998H20.9999C21.395 21.5042 21.7871 21.4295 22.153 21.2803C22.5189 21.131 22.8513 20.9102 23.1308 20.6308C23.4102 20.3514 23.631 20.0189 23.7803 19.653C23.9295 19.2871 24.0041 18.895 23.9998 18.4999V9.40027L13.059 15.2352Z" fill="white"/>
<path d="M20.9999 2.00018H3.00013C2.60497 1.99586 2.21293 2.07051 1.84701 2.21974C1.48109 2.36897 1.14866 2.58978 0.869221 2.86922C0.589785 3.14866 0.368972 3.48109 0.219739 3.84701C0.0705066 4.21293 -0.00414079 4.60497 0.000177175 5.00013V7.2501C5.93347e-05 7.38608 0.0369142 7.51954 0.106799 7.63619C0.176683 7.75284 0.276967 7.84829 0.396921 7.91234L11.6468 13.9123C11.7556 13.9698 11.8769 14 12 14C12.1231 14 12.2444 13.9698 12.3532 13.9123L23.6031 7.91234C23.723 7.84829 23.8233 7.75284 23.8932 7.63619C23.9631 7.51954 23.9999 7.38608 23.9998 7.2501V5.00013C24.0041 4.60497 23.9295 4.21293 23.7803 3.84701C23.631 3.48109 23.4102 3.14866 23.1308 2.86922C22.8513 2.58978 22.5189 2.36897 22.153 2.21974C21.7871 2.07051 21.395 1.99586 20.9999 2.00018Z" fill="white"/>
</svg>
