<svg width="81" height="93" viewBox="0 0 81 93" fill="none" xmlns="http://www.w3.org/2000/svg">
<path fill-rule="evenodd" clip-rule="evenodd" d="M31.5347 18.1886L29.2832 9.78602C29.0535 8.92887 29.5622 8.04783 30.4193 7.81816C31.2765 7.58848 32.1575 8.09715 32.3872 8.9543L34.6648 17.4545C38.5346 16.8629 42.3688 17.4225 45.7761 18.9073L50.1454 11.3394C50.146 11.3385 50.1465 11.3375 50.1471 11.3365C50.5908 10.568 51.5735 10.3047 52.342 10.7484C53.1105 11.1921 53.3738 12.1748 52.9301 12.9433L48.6131 20.4206C51.4831 22.2562 53.8986 24.8159 55.5574 27.9251C55.7534 28.238 55.9431 28.5549 56.1266 28.8756L65.0315 26.4896C65.8887 26.2599 66.7697 26.7686 66.9994 27.6257C67.229 28.4829 66.7204 29.3639 65.8632 29.5936L57.5926 31.8097C58.0192 32.7943 58.3964 33.8041 58.7262 34.8328C59.8391 38.3038 60.4141 41.9909 60.539 45.6585C60.5769 46.7722 60.5734 47.8841 60.5307 48.9876L70.3545 46.3553C71.2117 46.1256 72.0927 46.6343 72.3224 47.4914C72.552 48.3486 72.0434 49.2296 71.1862 49.4593L60.3222 52.3703C60.3065 52.3745 60.2909 52.3784 60.2752 52.3822C59.7704 56.8872 58.629 61.1265 57.0299 64.6195L64.6218 69.0027C64.6228 69.0033 64.6238 69.0038 64.6247 69.0044C65.3932 69.4481 65.6565 70.4308 65.2129 71.1993C64.7692 71.9678 63.7865 72.2311 63.018 71.7874L55.5255 67.4616C53.8385 70.2148 51.814 72.2312 49.5875 73.1466L52.0158 82.2091C52.2454 83.0662 51.7368 83.9472 50.8796 84.1769C50.0225 84.4066 49.1414 83.8979 48.9118 83.0408L46.4678 73.9197C42.202 74.5718 37.9796 73.8252 34.3244 71.9823L28.7518 81.6343C28.3081 82.4028 27.3255 82.6662 26.557 82.2225C25.7885 81.7788 25.5251 80.7961 25.9688 80.0276C25.9694 80.0266 25.97 80.0256 25.9705 80.0247L31.5774 70.3132C28.6689 68.2148 26.3005 65.3367 24.824 61.882L17.7972 63.7649C16.94 63.9945 16.059 63.4859 15.8293 62.6287C15.5996 61.7716 16.1083 60.8905 16.9655 60.6608L23.7967 58.8304C23.195 56.4367 23.0477 54.0321 23.3012 51.7094C20.9763 49.3624 19.196 46.4147 18.2302 43.0222C18.2009 42.9194 18.1723 42.8161 18.1446 42.7125C18.1168 42.6088 18.0899 42.5051 18.0638 42.4014L9.37016 44.7309C8.51301 44.9605 7.63197 44.4519 7.40229 43.5947C7.17262 42.7376 7.68129 41.8565 8.53844 41.6269L17.5267 39.2185C17.1766 35.227 18.0324 31.3203 19.8437 27.9319C20.0529 27.5405 20.2749 27.156 20.5093 26.7791L12.8439 22.3536C12.0754 21.9099 11.8121 20.9272 12.2558 20.1587C12.6995 19.3902 13.6822 19.1269 14.4507 19.5706L22.4296 24.1772C24.7877 21.4639 27.8903 19.3506 31.5347 18.1886ZM23.7038 27.1276C23.6521 27.6016 23.4951 28.0629 23.2383 28.476C21.3311 31.5433 20.4 35.1993 20.728 38.9376C20.7711 39.4299 20.7004 39.9095 20.5356 40.3479C20.8399 40.7142 21.062 41.1472 21.1804 41.6181C21.2024 41.7056 21.2251 41.7932 21.2486 41.8807C22.0441 44.8498 23.5718 47.4163 25.5842 49.4478C26.2659 50.136 26.6008 51.095 26.4957 52.058C26.2829 54.0078 26.406 56.0288 26.9133 58.0471C27.0343 58.5286 27.0397 59.0124 26.9468 59.469C27.2974 59.777 27.5851 60.1654 27.779 60.6191C29.0192 63.5209 31.0086 65.9403 33.4576 67.7072C33.8576 67.9957 34.1728 68.3608 34.3961 68.769C34.8608 68.7791 35.33 68.8904 35.7712 69.1129C38.8497 70.665 42.3985 71.291 45.9821 70.7431C46.4558 70.6707 46.9232 70.7059 47.3581 70.8315C47.6423 70.5577 47.9811 70.3325 48.3656 70.1744C49.724 69.616 51.2915 68.2208 52.7855 65.7827C53.0536 65.3451 53.4101 64.9939 53.8182 64.7384C53.7998 64.2509 53.8924 63.7528 54.108 63.2818C55.5472 60.1382 56.6097 56.2361 57.0817 52.0243C57.1458 51.4522 57.3594 50.9234 57.6849 50.4803C57.4273 49.9891 57.2976 49.4328 57.3196 48.8635C57.5298 43.4237 56.7176 37.8729 54.644 33.0873C54.4358 32.6068 54.3506 32.0887 54.3875 31.578C53.9638 31.3056 53.6004 30.9312 53.3374 30.4715C53.1748 30.1873 53.007 29.9071 52.834 29.6309C52.7945 29.5678 52.7572 29.5034 52.7222 29.4378C51.3294 26.8273 49.2994 24.6742 46.8816 23.1277C46.4651 22.8613 46.1301 22.5142 45.8846 22.1194C45.4193 22.1354 44.9444 22.0503 44.4923 21.8533C41.6238 20.6032 38.4021 20.134 35.1505 20.6311C34.6626 20.7057 34.1813 20.6661 33.7354 20.5311C33.3963 20.8501 32.9826 21.0999 32.5108 21.2503C29.4445 22.228 26.8382 24.0034 24.8551 26.2852C24.5304 26.6589 24.1351 26.9416 23.7038 27.1276Z" fill="#D48D22"/>
<path d="M41.2746 32.1897C42.1014 35.2755 40.2702 38.4472 37.1844 39.274C34.0987 40.1009 30.9269 38.2696 30.1001 35.1839C29.2733 32.0982 31.1045 28.9264 34.1903 28.0996C37.276 27.2728 40.4478 29.104 41.2746 32.1897Z" fill="#D48D22"/>
<path d="M49.6125 45.9247C50.1637 47.9819 48.9429 50.0964 46.8857 50.6476C44.8286 51.1988 42.7141 49.978 42.1629 47.9209C41.6116 45.8637 42.8325 43.7492 44.8896 43.198C46.9468 42.6468 49.0613 43.8676 49.6125 45.9247Z" fill="#D48D22"/>
<path d="M45.656 60.9576C46.0234 62.3291 45.2096 63.7387 43.8381 64.1062C42.4667 64.4737 41.057 63.6598 40.6895 62.2884C40.3221 60.9169 41.1359 59.5073 42.5074 59.1398C43.8788 58.7723 45.2885 59.5862 45.656 60.9576Z" fill="#D48D22"/>
</svg>
