<svg width="96" height="106" viewBox="0 0 96 106" fill="none" xmlns="http://www.w3.org/2000/svg">
<mask id="path-1-inside-1" fill="white">
<path fill-rule="evenodd" clip-rule="evenodd" d="M34.4398 65.6208C28.8357 63.1131 24.2041 58.4422 21.9013 52.2307C17.3528 39.9622 23.6111 26.3293 35.8796 21.7809C47.3671 17.522 60.0507 22.7377 65.353 33.4904C69.3429 40.0917 72.5015 48.6171 74.5776 54.2206C74.6382 54.384 74.6978 54.5451 74.7566 54.7035C78.8267 65.6818 73.2857 77.8591 62.3804 81.9022C51.4751 85.9453 39.3351 80.3231 35.2649 69.3447C34.8671 68.2717 34.5956 67.0163 34.4398 65.6208Z"/>
</mask>
<path d="M34.4398 65.6208L39.4089 65.0658L39.0915 62.2246L36.482 61.0569L34.4398 65.6208ZM65.353 33.4904L60.8686 35.7017L60.9632 35.8936L61.0739 36.0768L65.353 33.4904ZM74.5776 54.2206L79.2662 52.4835L79.2662 52.4834L74.5776 54.2206ZM36.482 61.0569C32.0531 59.075 28.4067 55.3942 26.5894 50.4926L17.2131 53.9688C20.0016 61.4902 25.6182 67.1511 32.3975 70.1847L36.482 61.0569ZM26.5894 50.4926C23.0009 40.8133 27.9384 30.0576 37.6177 26.469L34.1415 17.0927C19.2838 22.6011 11.7047 39.1111 17.2131 53.9688L26.5894 50.4926ZM37.6177 26.469C46.6779 23.1101 56.6877 27.2231 60.8686 35.7017L69.8374 31.2791C63.4138 18.2523 48.0563 11.9339 34.1415 17.0927L37.6177 26.469ZM61.0739 36.0768C64.7753 42.2009 67.7796 50.2641 69.8891 55.9577L79.2662 52.4834C77.2235 46.9701 73.9104 37.9825 69.6322 30.9041L61.0739 36.0768ZM69.8891 55.9576C69.9496 56.121 70.0094 56.2826 70.0684 56.4416L79.4447 52.9653C79.3862 52.8075 79.3268 52.6471 79.2662 52.4835L69.8891 55.9576ZM70.0684 56.4416C73.1896 64.8603 68.929 74.1418 60.6423 77.214L64.1185 86.5904C77.6425 81.5764 84.4639 66.5034 79.4447 52.9653L70.0684 56.4416ZM60.6423 77.214C52.3557 80.2862 43.0743 76.0253 39.9531 67.6066L30.5768 71.0828C35.5959 84.6208 50.5946 91.6043 64.1185 86.5904L60.6423 77.214ZM39.9531 67.6066C39.7323 67.0111 39.5326 66.1734 39.4089 65.0658L29.4707 66.1758C29.6587 67.8593 30.0019 69.5323 30.5768 71.0828L39.9531 67.6066Z" fill="#D48D22" mask="url(#path-1-inside-1)"/>
<path d="M35.83 23.2203L31.3271 12.9788" stroke="#D48D22" stroke-width="5" stroke-linecap="round" stroke-linejoin="round"/>
<path d="M65.7605 91.2966L61.2577 81.0551" stroke="#D48D22" stroke-width="5" stroke-linecap="round" stroke-linejoin="round"/>
<path d="M72.2364 25.9051L61.9949 30.408" stroke="#D48D22" stroke-width="5" stroke-linecap="round" stroke-linejoin="round"/>
<path d="M21.6311 48.1545L11.3895 52.6573" stroke="#D48D22" stroke-width="5" stroke-linecap="round" stroke-linejoin="round"/>
<path d="M84.4206 53.6176L74.1791 58.1205" stroke="#D48D22" stroke-width="5" stroke-linecap="round" stroke-linejoin="round"/>
<path d="M83.3301 75.664L72.9222 71.6132" stroke="#D48D22" stroke-width="5" stroke-linecap="round" stroke-linejoin="round"/>
<path d="M51.2028 22.2127L55.2537 11.8049" stroke="#D48D22" stroke-width="5" stroke-linecap="round" stroke-linejoin="round"/>
<path d="M45.9784 92.0862L50.0293 81.6783" stroke="#D48D22" stroke-width="5" stroke-linecap="round" stroke-linejoin="round"/>
<path d="M22.9605 33.192L12.5527 29.1411" stroke="#D48D22" stroke-width="5" stroke-linecap="round" stroke-linejoin="round"/>
<path d="M38.6349 73.7479L28.3933 78.2507" stroke="#D48D22" stroke-width="5" stroke-linecap="round" stroke-linejoin="round"/>
<circle cx="40.9012" cy="39.2185" r="6.58101" transform="rotate(-23.7333 40.9012 39.2185)" fill="#D48D22"/>
<circle cx="40.9012" cy="39.2185" r="6.58101" transform="rotate(-23.7333 40.9012 39.2185)" fill="#D48D22"/>
<circle cx="54.1498" cy="51.3661" r="4.60671" transform="rotate(-23.7333 54.1498 51.3661)" fill="#D48D22"/>
<circle cx="54.1498" cy="51.3661" r="4.60671" transform="rotate(-23.7333 54.1498 51.3661)" fill="#D48D22"/>
<circle cx="55.1575" cy="66.7388" r="3.29051" transform="rotate(-23.7333 55.1575 66.7388)" fill="#D48D22"/>
<circle cx="55.1575" cy="66.7388" r="3.29051" transform="rotate(-23.7333 55.1575 66.7388)" fill="#D48D22"/>
</svg>
