<svg width="16" height="16" viewBox="0 0 16 16" fill="none" xmlns="http://www.w3.org/2000/svg">
<path d="M15.1384 8.00004C15.1384 11.9424 11.9424 15.1384 8.00001 15.1384C4.05761 15.1384 0.861664 11.9424 0.861664 8.00004M15.1384 8.00004C15.1384 4.05764 11.9424 0.861694 8.00001 0.861694C4.05761 0.861694 0.861664 4.05764 0.861664 8.00004M15.1384 8.00004H0.861664" stroke="#656565" stroke-miterlimit="10" stroke-linecap="round" stroke-linejoin="round"/>
<path d="M8.00002 15.1384C10.0593 15.1384 11.7287 11.9424 11.7287 8.00004C11.7287 4.05764 10.0593 0.861694 8.00002 0.861694M8.00002 15.1384C5.94072 15.1384 4.27133 11.9424 4.27133 8.00004C4.27133 4.05764 5.94072 0.861694 8.00002 0.861694M8.00002 15.1384V0.861694" stroke="#656565" stroke-miterlimit="10" stroke-linecap="round" stroke-linejoin="round"/>
<path d="M13.8649 11.8752C13.8649 11.413 11.2391 11.0383 8.00002 11.0383C4.76095 11.0383 2.13516 11.413 2.13516 11.8752" stroke="#656565" stroke-miterlimit="10" stroke-linecap="round" stroke-linejoin="round"/>
<path d="M13.8649 3.979C13.8649 4.44122 11.2391 4.81592 8.00002 4.81592C4.76095 4.81592 2.13516 4.44122 2.13516 3.979" stroke="#656565" stroke-miterlimit="10" stroke-linecap="round" stroke-linejoin="round"/>
</svg>
