<svg style="padding: 20px 40px" width="268" height="66" viewBox="0 0 268 66" fill="none" xmlns="http://www.w3.org/2000/svg">
<path d="M22.592 5.472C21.312 4.928 19.808 5.536 19.296 6.848L16.8 12.96L14.464 7.264C14.112 6.4 13.28 5.888 12.416 5.888C11.52 5.888 10.688 6.4 10.336 7.264L8 12.96L5.504 6.848C4.992 5.536 3.52 4.928 2.208 5.472C0.927999 6.016 0.288 7.456 0.832 8.768L5.312 19.744C5.92 21.216 7.328 21.312 7.904 21.312C8.768 21.312 9.6 20.8 9.952 19.936L12.416 13.92L14.848 19.936C15.232 20.864 16.256 21.312 17.12 21.312C17.696 21.312 18.88 21.216 19.488 19.744L23.968 8.768C24.512 7.456 23.872 6.016 22.592 5.472Z" fill="#CFBDA2"/>
<path d="M41.216 12.352C40.704 8.256 37.248 5.184 33.12 5.184C29.504 5.184 26.72 7.456 25.6 10.176C24.736 12.256 24.704 14.784 25.696 16.832C26.976 19.488 29.856 21.568 33.536 21.568C35.168 21.568 36.736 21.152 38.112 20.352C39.136 19.744 39.488 18.4 38.88 17.344C38.272 16.32 36.928 15.936 35.904 16.576C33.856 17.696 31.2 17.376 29.792 15.232H38.304C40.128 15.232 41.408 14.272 41.216 12.352ZM29.824 11.584C30.112 10.368 31.488 9.216 33.088 9.216C34.72 9.216 36.064 10.368 36.352 11.584H29.824Z" fill="#CFBDA2"/>
<path d="M50.415 5.12C49.743 5.12 49.103 5.216 48.463 5.376V2.592C48.463 1.152 47.311 0 45.9033 0C44.4633 0 43.3112 1.152 43.3112 2.592V18.752C43.3112 20.16 44.4633 21.312 45.9033 21.312C47.311 21.312 48.463 20.16 48.463 18.752V12.224C48.463 11.136 49.359 10.24 50.415 10.24C51.503 10.24 52.399 11.136 52.399 12.224V18.752C52.399 20.16 53.551 21.312 54.959 21.312C56.367 21.312 57.519 20.16 57.519 18.752V12.224C57.519 8.288 54.351 5.12 50.415 5.12Z" fill="#CFBDA2"/>
<path d="M75.216 12.352C74.704 8.256 71.248 5.184 67.12 5.184C63.504 5.184 60.72 7.456 59.6 10.176C58.736 12.256 58.704 14.784 59.696 16.832C60.976 19.488 63.856 21.568 67.536 21.568C69.168 21.568 70.736 21.152 72.112 20.352C73.136 19.744 73.488 18.4 72.88 17.344C72.272 16.32 70.928 15.936 69.904 16.576C67.856 17.696 65.2 17.376 63.792 15.232H72.304C74.128 15.232 75.408 14.272 75.216 12.352ZM63.824 11.584C64.112 10.368 65.488 9.216 67.088 9.216C68.72 9.216 70.064 10.368 70.352 11.584H63.824Z" fill="#CFBDA2"/>
<path d="M79.871 21.312C78.463 21.312 77.311 20.16 77.311 18.752V2.592C77.311 1.184 78.463 0.0320015 79.871 0.0320015C81.279 0.0320015 82.431 1.184 82.431 2.592V18.752C82.431 20.16 81.279 21.312 79.871 21.312Z" fill="#CFBDA2"/>
<path d="M101.07 13.248C101.07 8.736 97.39 5.056 92.878 5.056C91.438 5.056 90.062 5.44 88.878 6.08C88.43 5.6 87.822 5.312 87.086 5.312C85.774 5.312 84.686 6.4 84.686 7.712V23.904C84.686 25.216 85.742 26.272 87.022 26.336H87.246C88.654 26.336 89.774 25.184 89.774 23.808V20.832C90.734 21.216 91.79 21.44 92.878 21.44C97.39 21.44 101.07 17.76 101.07 13.248ZM95.982 13.248C95.982 14.976 94.606 16.352 92.878 16.352C91.15 16.352 89.774 14.976 89.774 13.248C89.774 11.52 91.15 10.144 92.878 10.144C94.606 10.144 95.982 11.52 95.982 13.248Z" fill="#CFBDA2"/>
<path d="M106.938 19.008C106.938 20.288 105.914 21.312 104.634 21.312C103.386 21.312 102.363 20.288 102.363 19.008C102.363 17.76 103.386 16.736 104.634 16.736C105.914 16.736 106.938 17.76 106.938 19.008Z" fill="#CFBDA2"/>
<path d="M116.102 21.568C112.198 21.568 109.03 18.4 109.03 14.496V7.84C109.03 6.464 110.15 5.312 111.59 5.312C112.998 5.312 114.118 6.464 114.118 7.84V14.496C114.118 15.584 115.014 16.48 116.102 16.48C117.19 16.48 118.086 15.584 118.086 14.496V7.84C118.086 6.464 119.206 5.312 120.614 5.312C122.054 5.312 123.174 6.464 123.174 7.84V14.496C123.174 18.4 120.006 21.568 116.102 21.568Z" fill="#CFBDA2"/>
<path d="M137.437 17.056L133.885 13.312L137.309 9.248C138.237 8.16 138.109 6.528 137.021 5.632C135.933 4.704 134.333 4.832 133.405 5.92L130.525 9.312V2.656C130.525 1.216 129.405 0.0639992 127.965 0.0639992C126.557 0.0639992 125.405 1.216 125.405 2.656V18.752C125.405 20.16 126.557 21.312 127.965 21.312C129.405 21.312 130.525 20.16 130.525 18.752V17.248L133.725 20.576C134.717 21.632 136.349 21.664 137.341 20.672C138.365 19.648 138.429 18.08 137.437 17.056Z" fill="#CFBDA2"/>
<path d="M144.001 19.008C144.001 20.288 142.977 21.312 141.697 21.312C140.449 21.312 139.425 20.288 139.425 19.008C139.425 17.76 140.449 16.736 141.697 16.736C142.977 16.736 144.001 17.76 144.001 19.008Z" fill="#CFBDA2"/>
<path d="M153.965 21.568C149.453 21.568 145.773 17.888 145.773 13.376C145.773 8.864 149.453 5.184 153.965 5.184C155.789 5.184 157.516 5.76 158.956 6.88C160.076 7.744 160.3 9.344 159.436 10.432C158.572 11.552 156.973 11.776 155.853 10.912C155.309 10.496 154.669 10.272 153.965 10.272C152.269 10.272 150.861 11.68 150.861 13.376C150.861 15.072 152.269 16.48 153.965 16.48C154.669 16.48 155.309 16.256 155.853 15.84C156.973 14.976 158.572 15.2 159.436 16.32C160.268 17.44 160.076 19.04 158.956 19.872C157.516 20.992 155.789 21.568 153.965 21.568Z" fill="#CFBDA2"/>
<path d="M169.902 5.184C165.39 5.184 161.71 8.864 161.71 13.376C161.71 17.888 165.39 21.568 169.902 21.568C174.414 21.568 178.094 17.888 178.094 13.376C178.094 8.864 174.414 5.184 169.902 5.184ZM169.902 10.272C171.63 10.272 173.006 11.648 173.006 13.376C173.006 15.104 171.63 16.48 169.902 16.48C168.174 16.48 166.798 15.104 166.798 13.376C166.798 11.648 168.174 10.272 169.902 10.272Z" fill="#CFBDA2"/>
<path d="M196.406 5.152C194.71 5.152 193.111 5.792 191.895 6.784C190.678 5.792 189.079 5.152 187.383 5.152C186.263 5.152 185.206 5.408 184.279 5.888C183.863 5.536 183.35 5.312 182.742 5.312C181.43 5.312 180.342 6.368 180.342 7.744V18.752C180.342 20.16 181.494 21.312 182.87 21.312C184.279 21.312 185.43 20.16 185.43 18.752V12.192C185.43 11.104 186.295 10.24 187.383 10.24C188.439 10.24 189.335 11.104 189.335 12.192V18.752C189.335 20.16 190.518 21.312 191.895 21.312C193.303 21.312 194.454 20.16 194.454 18.752V12.192C194.454 11.104 195.35 10.24 196.406 10.24C197.494 10.24 198.359 11.104 198.359 12.192V18.752C198.359 20.16 199.543 21.312 200.919 21.312C202.294 21.312 203.479 20.16 203.479 18.752V12.192C203.479 8.32 200.278 5.152 196.406 5.152Z" fill="#CFBDA2"/>
</svg>
