<svg width="16" height="16" viewBox="0 0 16 16" fill="none" xmlns="http://www.w3.org/2000/svg">
<circle cx="8" cy="8" r="8" fill="#64CCE3"/>
<path d="M7.83912 10.238H6.85912V10.098C6.85912 9.58467 6.95245 9.14133 7.13912 8.768C7.32578 8.39467 7.54978 8.10067 7.81112 7.886C8.08178 7.67133 8.35245 7.46133 8.62312 7.256C9.26712 6.77067 9.58912 6.16867 9.58912 5.45C9.58912 4.89 9.40245 4.49333 9.02912 4.26C8.87978 4.13867 8.60912 4.078 8.21712 4.078C7.83445 4.078 7.42378 4.14333 6.98512 4.274C6.54645 4.39533 6.20578 4.52133 5.96312 4.652L5.61312 4.834C5.47312 4.51667 5.33312 4.19933 5.19312 3.882C5.55712 3.64867 6.00978 3.44333 6.55112 3.266C7.09245 3.08867 7.58245 3 8.02112 3C8.84245 3 9.50978 3.24267 10.0231 3.728C10.5458 4.204 10.8071 4.81533 10.8071 5.562C10.8071 6.066 10.7044 6.50933 10.4991 6.892C10.2938 7.26533 10.0464 7.56867 9.75712 7.802C9.46778 8.03533 9.17845 8.25467 8.88912 8.46C8.18912 8.97333 7.83912 9.566 7.83912 10.238ZM6.60712 12.912V11.666H8.11912V12.912H6.60712Z" fill="white"/>
</svg>
