<svg width="129" height="39" viewBox="0 0 129 39" fill="none" xmlns="http://www.w3.org/2000/svg">
<g clip-path="url(#clip0)">
<path d="M2.82518 28.6409C3.21951 29.4172 3.70445 30.143 4.26963 30.8029C4.35944 30.9238 4.44177 30.8558 4.50913 30.8029C5.72038 30.0256 6.72298 28.9584 7.42797 27.696C8.32818 26.1031 9.52823 24.7035 10.9605 23.576C11.1626 23.3946 11.3198 23.3341 11.2898 23.1527H7.2708C6.67987 23.6311 6.15837 24.1909 5.72157 24.8158C5.11535 25.6927 4.65881 26.4864 4.0451 27.3029C3.70039 27.7272 3.30866 28.1102 2.87757 28.4443C2.79524 28.5124 2.79524 28.5577 2.83266 28.6484" fill="#CFBDA2"/>
<path d="M6.88178 33.5696C6.19146 33.0599 5.58091 32.4483 5.0706 31.7553C5.00325 31.657 5.0257 31.6041 5.13796 31.5285C6.34745 30.6841 7.36745 29.592 8.13164 28.3233C9.0412 26.8011 10.1714 25.4251 11.4846 24.2412C11.9202 23.8029 12.4263 23.4425 12.9814 23.1753H14.7851C14.9348 23.1753 14.9722 23.2509 14.9722 23.334V25.2617C15.0246 25.5263 13.887 26.0857 13.3481 26.509C12.4022 27.2784 11.6098 28.2225 11.0131 29.2909C10.4879 30.3262 9.82294 31.2828 9.03723 32.1333C8.48352 32.7317 7.8267 33.2235 7.09882 33.5847C7.06345 33.6123 7.02002 33.6272 6.97533 33.6272C6.93065 33.6272 6.88722 33.6123 6.85184 33.5847" fill="#CFBDA2"/>
<path d="M7.94454 34.4616C8.53899 34.9493 9.18094 35.3748 9.8605 35.7316C10.1 35.8903 10.2272 35.7316 10.4742 35.5728C11.9146 34.5756 13.0873 33.2326 13.887 31.6646C14.3735 30.7045 15.0396 30.1527 14.9647 29.9259V26.9021C14.9647 26.7055 14.9647 26.5846 14.7552 26.6753C12.7045 27.5522 11.8288 29.7747 10.4892 31.6797C9.81481 32.6052 8.98679 33.4058 8.04183 34.0458C7.89963 34.1667 7.72749 34.2423 7.95202 34.4691" fill="#CFBDA2"/>
<path d="M28.4512 35.5123C29.2229 35.1163 29.942 34.6236 30.5917 34.0458C30.7189 33.9551 30.6441 33.8644 30.5917 33.8039C29.8285 32.5852 28.7797 31.5752 27.5381 30.8633C25.963 29.9511 24.5799 28.7364 23.4667 27.2876C23.2871 27.076 23.2272 26.9248 23.0476 26.955V31.0296C23.5092 31.6265 24.0508 32.1557 24.6567 32.602C25.5249 33.2067 26.3107 33.6678 27.119 34.2953C27.5366 34.6434 27.9155 35.0363 28.2491 35.467C28.3165 35.5577 28.3614 35.5577 28.4512 35.5199" fill="#CFBDA2"/>
<path d="M33.3385 31.4378C32.8327 32.1362 32.2274 32.7552 31.5423 33.2748C31.4525 33.3428 31.4001 33.2748 31.3253 33.1992C30.4884 31.9783 29.4074 30.9482 28.152 30.1754C26.6437 29.2585 25.2812 28.1167 24.1105 26.7887C23.6781 26.3474 23.3215 25.8365 23.0552 25.2769V23.4399C23.0487 23.4168 23.0481 23.3925 23.0533 23.3691C23.0585 23.3458 23.0694 23.3241 23.085 23.306C23.1006 23.288 23.1204 23.2742 23.1427 23.2659C23.165 23.2576 23.1889 23.255 23.2124 23.2585H25.1283C25.3828 23.2056 25.9441 24.3622 26.3632 24.9064C27.1256 25.8612 28.0602 26.6615 29.1174 27.265C30.1449 27.7913 31.0925 28.4633 31.9315 29.2607C32.516 29.8022 33.0001 30.4447 33.361 31.1581C33.3901 31.1945 33.4061 31.2398 33.4061 31.2866C33.4061 31.3334 33.3901 31.3788 33.361 31.4151" fill="#CFBDA2"/>
<path d="M34.1841 30.3494C34.6664 29.7458 35.0876 29.095 35.4415 28.4066C35.6061 28.1723 35.4415 28.0362 35.2843 27.7867C34.2958 26.3309 32.9667 25.1442 31.415 24.332C30.457 23.8407 29.9181 23.1679 29.6861 23.251H26.6925C26.5053 23.251 26.3781 23.251 26.4679 23.4551C27.3062 25.5718 29.5514 26.4185 31.43 27.7716C32.342 28.4583 33.1316 29.2967 33.765 30.2511C33.8848 30.4023 33.9521 30.5762 34.1841 30.3494" fill="#CFBDA2"/>
<path d="M9.5611 3.07461C8.79058 3.47262 8.07165 3.9652 7.42062 4.54115C7.30087 4.63186 7.37572 4.72258 7.42062 4.78305C8.1854 6.01169 9.23965 7.0298 10.4891 7.74637C12.069 8.65449 13.4593 9.86369 14.583 11.3069C14.7626 11.5185 14.8225 11.6697 15.0021 11.6395V7.56494C14.5415 6.96489 13.9999 6.43306 13.393 5.98501C12.5249 5.38025 11.7465 4.91912 10.9382 4.29169C10.5214 3.94269 10.1426 3.54991 9.80808 3.11997C9.74073 3.02925 9.7033 3.02925 9.61349 3.06705" fill="#CFBDA2"/>
<path d="M4.69625 7.17943C5.19921 6.47858 5.80489 5.85916 6.49246 5.34248C6.57479 5.27445 6.63466 5.30468 6.71699 5.41052C7.553 6.63217 8.6342 7.66242 9.89029 8.43431C11.3978 9.35227 12.7602 10.4939 13.9318 11.821C14.3669 12.2599 14.7239 12.7714 14.987 13.3328V15.1622C14.9935 15.1853 14.9942 15.2096 14.989 15.233C14.9838 15.2564 14.9729 15.2781 14.9573 15.2961C14.9417 15.3141 14.9218 15.3279 14.8996 15.3362C14.8773 15.3446 14.8533 15.3471 14.8299 15.3437H12.9214C12.6669 15.3966 12.1056 14.24 11.6865 13.6957C10.9222 12.7399 9.98498 11.9396 8.92483 11.3371C7.90066 10.8054 6.95376 10.1338 6.11077 9.34144C5.52739 8.7931 5.04359 8.14581 4.68128 7.4289C4.65397 7.39317 4.63916 7.3493 4.63916 7.30416C4.63916 7.25903 4.65397 7.21516 4.68128 7.17943" fill="#CFBDA2"/>
<path d="M3.84297 8.23024C3.36791 8.83709 2.95422 9.49047 2.60807 10.1806C2.4509 10.4225 2.60807 10.551 2.76524 10.8005C3.75113 12.2443 5.07182 13.4226 6.61212 14.2325C7.5701 14.7238 8.10896 15.3966 8.34098 15.3135H11.3347C11.5292 15.3135 11.649 15.3135 11.5592 15.1094C10.691 13.0305 8.49065 12.146 6.60463 10.7929C5.69002 10.1092 4.89993 9.27022 4.26956 8.3134C4.14233 8.16221 4.07498 7.98834 3.84297 8.21512" fill="#CFBDA2"/>
<path d="M35.2394 9.6968C34.8449 8.91828 34.36 8.18997 33.795 7.52723C33.7052 7.40628 33.6229 7.48187 33.5555 7.52723C32.345 8.30545 31.3426 9.37244 30.6367 10.6342C29.7335 12.2249 28.5339 13.624 27.1041 14.7541C26.8946 14.9355 26.7449 14.996 26.7748 15.1774H30.8013C31.3941 14.7103 31.9183 14.1605 32.358 13.5446C32.9642 12.6752 33.4133 11.8815 34.0345 11.0651C34.3779 10.6421 34.767 10.2592 35.1945 9.92358C35.2844 9.84799 35.2844 9.81019 35.2469 9.71948" fill="#CFBDA2"/>
<path d="M31.1905 4.80579C31.8797 5.31675 32.4901 5.92817 33.0017 6.62006C33.069 6.71834 33.0391 6.77125 32.9343 6.84685C31.726 7.69264 30.7062 8.78443 29.9406 10.0521C29.0328 11.5733 27.9052 12.9492 26.5952 14.1342C26.1584 14.571 25.6525 14.9313 25.0983 15.2001H23.2947C23.272 15.2048 23.2486 15.2042 23.2262 15.1982C23.2039 15.1923 23.1832 15.1812 23.1658 15.1658C23.1484 15.1504 23.1347 15.1312 23.1259 15.1096C23.1171 15.088 23.1134 15.0646 23.115 15.0413V13.1137C23.0626 12.8566 24.2002 12.2897 24.7391 11.8663C25.6844 11.0963 26.4767 10.1523 27.0742 9.08445C27.599 8.04898 28.264 7.09234 29.05 6.24209C29.5843 5.65486 30.2179 5.16849 30.9211 4.80579C30.957 4.77633 31.002 4.76025 31.0483 4.76025C31.0946 4.76025 31.1395 4.77633 31.1755 4.80579" fill="#CFBDA2"/>
<path d="M30.1276 3.92889C29.5345 3.43934 28.8924 3.0137 28.2117 2.6589C27.9722 2.50015 27.845 2.6589 27.5905 2.81764C26.1568 3.81818 24.9897 5.16061 24.1927 6.72589C23.7062 7.68595 23.0401 8.23779 23.1224 8.46457V11.4884C23.1224 11.6773 23.1224 11.8059 23.3245 11.7076C25.3827 10.8382 26.2508 8.61576 27.5905 6.71077C28.2608 5.78424 29.0865 4.98343 30.0304 4.34466C30.18 4.22371 30.3522 4.14811 30.1276 3.92133" fill="#CFBDA2"/>
<path d="M15.5186 1.25288V37.1604C15.522 37.2226 15.541 37.2829 15.5737 37.3358C15.6064 37.3887 15.6518 37.4323 15.7057 37.4628L15.8778 37.5157H22.1196C22.1812 37.5157 22.2418 37.4997 22.2956 37.4693C22.3493 37.4388 22.3944 37.3949 22.4265 37.3418L22.4789 37.1604V1.25288C22.4776 1.19105 22.4603 1.13063 22.4288 1.07759C22.3973 1.02456 22.3527 0.980751 22.2992 0.950499L22.1196 0.897583H15.8778C15.8167 0.89962 15.7572 0.917349 15.7048 0.949095C15.6524 0.980841 15.6089 1.02555 15.5784 1.07901L15.526 1.25288" fill="#CFBDA2"/>
<path d="M0.677274 16.0393V22.3514C0.676502 22.4138 0.692006 22.4753 0.722223 22.5297C0.75244 22.5841 0.796307 22.6295 0.849413 22.6614L1.02155 22.7143H36.9906C37.0511 22.7137 37.1105 22.6975 37.1629 22.667C37.2153 22.6365 37.2591 22.5929 37.29 22.5404L37.3424 22.359V16.0393C37.3432 15.976 37.3269 15.9137 37.2953 15.8591C37.2636 15.8044 37.2178 15.7596 37.1628 15.7293L36.9906 15.684H1.02155C0.961206 15.6852 0.902146 15.7018 0.849824 15.7322C0.797502 15.7626 0.753602 15.8058 0.72218 15.8578L0.677274 16.0393Z" fill="#CFBDA2"/>
<path d="M15.5635 15.6385H15.5186V15.6839H15.5635V15.6385Z" fill="#CFBDA2"/>
<path d="M15.5635 22.7218H15.5186V22.8654H15.5635V22.7218Z" fill="#CFBDA2"/>
<path d="M49.8369 17.21L49.8289 13.498L47.9889 16.57H47.5249L45.6849 13.546V17.21H44.6929V11.61H45.5489L47.7729 15.322L49.9569 11.61H50.8129L50.8209 17.21H49.8369ZM56.5335 16.338V17.21H52.3335V11.61H56.4215V12.482H53.3735V13.938H56.0775V14.794H53.3735V16.338H56.5335ZM55.9175 10.058L54.8455 11.154H53.9335L52.8615 10.058H53.6855L54.3895 10.65L55.0935 10.058H55.9175ZM59.4289 17.29C58.9969 17.29 58.5783 17.2286 58.1729 17.106C57.7729 16.9833 57.4556 16.8206 57.2209 16.618L57.5809 15.81C57.8103 15.9913 58.0903 16.1406 58.4209 16.258C58.7569 16.37 59.0929 16.426 59.4289 16.426C59.8449 16.426 60.1543 16.3593 60.3569 16.226C60.5649 16.0926 60.6689 15.9166 60.6689 15.698C60.6689 15.538 60.6103 15.4073 60.4929 15.306C60.3809 15.1993 60.2369 15.1166 60.0609 15.058C59.8849 14.9993 59.6449 14.9326 59.3409 14.858C58.9143 14.7566 58.5676 14.6553 58.3009 14.554C58.0396 14.4526 57.8129 14.2953 57.6209 14.082C57.4343 13.8633 57.3409 13.57 57.3409 13.202C57.3409 12.8926 57.4236 12.6126 57.5889 12.362C57.7596 12.106 58.0129 11.9033 58.3489 11.754C58.6903 11.6046 59.1063 11.53 59.5969 11.53C59.9383 11.53 60.2743 11.5726 60.6049 11.658C60.9356 11.7433 61.2209 11.866 61.4609 12.026L61.1329 12.834C60.8876 12.69 60.6316 12.5806 60.3649 12.506C60.0983 12.4313 59.8396 12.394 59.5889 12.394C59.1783 12.394 58.8716 12.4633 58.6689 12.602C58.4716 12.7406 58.3729 12.9246 58.3729 13.154C58.3729 13.314 58.4289 13.4446 58.5409 13.546C58.6583 13.6473 58.8049 13.7273 58.9809 13.786C59.1569 13.8446 59.3969 13.9113 59.7009 13.986C60.1169 14.082 60.4583 14.1833 60.7249 14.29C60.9916 14.3913 61.2183 14.5486 61.4049 14.762C61.5969 14.9753 61.6929 15.2633 61.6929 15.626C61.6929 15.9353 61.6076 16.2153 61.4369 16.466C61.2716 16.7166 61.0183 16.9166 60.6769 17.066C60.3356 17.2153 59.9196 17.29 59.4289 17.29ZM63.782 12.49H61.926V11.61H66.678V12.49H64.822V17.21H63.782V12.49ZM69.1399 17.29C68.7079 17.29 68.2892 17.2286 67.8839 17.106C67.4839 16.9833 67.1665 16.8206 66.9319 16.618L67.2919 15.81C67.5212 15.9913 67.8012 16.1406 68.1319 16.258C68.4679 16.37 68.8039 16.426 69.1399 16.426C69.5559 16.426 69.8652 16.3593 70.0679 16.226C70.2759 16.0926 70.3799 15.9166 70.3799 15.698C70.3799 15.538 70.3212 15.4073 70.2039 15.306C70.0919 15.1993 69.9479 15.1166 69.7719 15.058C69.5959 14.9993 69.3559 14.9326 69.0519 14.858C68.6252 14.7566 68.2785 14.6553 68.0119 14.554C67.7505 14.4526 67.5239 14.2953 67.3319 14.082C67.1452 13.8633 67.0519 13.57 67.0519 13.202C67.0519 12.8926 67.1345 12.6126 67.2999 12.362C67.4705 12.106 67.7239 11.9033 68.0599 11.754C68.4012 11.6046 68.8172 11.53 69.3079 11.53C69.6492 11.53 69.9852 11.5726 70.3159 11.658C70.6465 11.7433 70.9319 11.866 71.1719 12.026L70.8439 12.834C70.5985 12.69 70.3425 12.5806 70.0759 12.506C69.8092 12.4313 69.5505 12.394 69.2999 12.394C68.8892 12.394 68.5825 12.4633 68.3799 12.602C68.1825 12.7406 68.0839 12.9246 68.0839 13.154C68.0839 13.314 68.1399 13.4446 68.2519 13.546C68.3692 13.6473 68.5159 13.7273 68.6919 13.786C68.8679 13.8446 69.1079 13.9113 69.4119 13.986C69.8279 14.082 70.1692 14.1833 70.4359 14.29C70.7025 14.3913 70.9292 14.5486 71.1159 14.762C71.3079 14.9753 71.4039 15.2633 71.4039 15.626C71.4039 15.9353 71.3185 16.2153 71.1479 16.466C70.9825 16.7166 70.7292 16.9166 70.3879 17.066C70.0465 17.2153 69.6305 17.29 69.1399 17.29ZM74.3631 14.866L73.4751 15.778V17.21H72.4351V11.61H73.4751V14.482L76.2431 11.61H77.4111L75.0591 14.114L77.5551 17.21H76.3391L74.3631 14.866ZM81.653 15.914H78.853L78.301 17.21H77.229L79.749 11.61H80.773L83.301 17.21H82.213L81.653 15.914ZM81.309 15.098L80.253 12.65L79.205 15.098H81.309ZM80.669 10.058H81.845L80.453 11.154H79.589L80.669 10.058ZM88.8162 17.29C88.2508 17.29 87.7388 17.1673 87.2802 16.922C86.8268 16.6713 86.4695 16.3273 86.2082 15.89C85.9522 15.4526 85.8242 14.9593 85.8242 14.41C85.8242 13.8606 85.9548 13.3673 86.2162 12.93C86.4775 12.4926 86.8348 12.1513 87.2882 11.906C87.7468 11.6553 88.2588 11.53 88.8242 11.53C89.2828 11.53 89.7015 11.61 90.0802 11.77C90.4588 11.93 90.7788 12.162 91.0402 12.466L90.3682 13.098C89.9628 12.6606 89.4642 12.442 88.8722 12.442C88.4882 12.442 88.1442 12.5273 87.8402 12.698C87.5362 12.8633 87.2988 13.0953 87.1282 13.394C86.9575 13.6926 86.8722 14.0313 86.8722 14.41C86.8722 14.7886 86.9575 15.1273 87.1282 15.426C87.2988 15.7246 87.5362 15.9593 87.8402 16.13C88.1442 16.2953 88.4882 16.378 88.8722 16.378C89.4642 16.378 89.9628 16.1566 90.3682 15.714L91.0402 16.354C90.7788 16.658 90.4562 16.89 90.0722 17.05C89.6935 17.21 89.2748 17.29 88.8162 17.29ZM97.0127 11.61V17.21H95.9727V14.81H93.0767V17.21H92.0367V11.61H93.0767V13.922H95.9727V11.61H97.0127ZM102.145 15.914H99.3452L98.7932 17.21H97.7212L100.241 11.61H101.265L103.793 17.21H102.705L102.145 15.914ZM101.801 15.098L100.745 12.65L99.6972 15.098H101.801ZM108.169 17.21L107.025 15.57C106.977 15.5753 106.905 15.578 106.809 15.578H105.545V17.21H104.505V11.61H106.809C107.295 11.61 107.716 11.69 108.073 11.85C108.436 12.01 108.713 12.2393 108.905 12.538C109.097 12.8366 109.193 13.1913 109.193 13.602C109.193 14.0233 109.089 14.386 108.881 14.69C108.679 14.994 108.385 15.2206 108.001 15.37L109.289 17.21H108.169ZM108.145 13.602C108.145 13.2446 108.028 12.97 107.793 12.778C107.559 12.586 107.215 12.49 106.761 12.49H105.545V14.722H106.761C107.215 14.722 107.559 14.626 107.793 14.434C108.028 14.2366 108.145 13.9593 108.145 13.602ZM110.357 11.61H111.397V17.21H110.357V11.61ZM114.048 12.49H112.192V11.61H116.944V12.49H115.088V17.21H114.048V12.49ZM121.075 15.914H118.275L117.723 17.21H116.651L119.171 11.61H120.195L122.723 17.21H121.635L121.075 15.914ZM120.731 15.098L119.675 12.65L118.627 15.098H120.731ZM47.2849 27.29C46.7196 27.29 46.2076 27.1673 45.7489 26.922C45.2956 26.6713 44.9383 26.3273 44.6769 25.89C44.4209 25.4526 44.2929 24.9593 44.2929 24.41C44.2929 23.8606 44.4236 23.3673 44.6849 22.93C44.9463 22.4926 45.3036 22.1513 45.7569 21.906C46.2156 21.6553 46.7276 21.53 47.2929 21.53C47.7516 21.53 48.1703 21.61 48.5489 21.77C48.9276 21.93 49.2476 22.162 49.5089 22.466L48.8369 23.098C48.4316 22.6606 47.9329 22.442 47.3409 22.442C46.9569 22.442 46.6129 22.5273 46.3089 22.698C46.0049 22.8633 45.7676 23.0953 45.5969 23.394C45.4263 23.6926 45.3409 24.0313 45.3409 24.41C45.3409 24.7886 45.4263 25.1273 45.5969 25.426C45.7676 25.7246 46.0049 25.9593 46.3089 26.13C46.6129 26.2953 46.9569 26.378 47.3409 26.378C47.9329 26.378 48.4316 26.1566 48.8369 25.714L49.5089 26.354C49.2476 26.658 48.9249 26.89 48.5409 27.05C48.1623 27.21 47.7436 27.29 47.2849 27.29ZM48.7729 20.058L47.7009 21.154H46.7889L45.7169 20.058H46.5409L47.2449 20.65L47.9489 20.058H48.7729ZM54.7054 26.338V27.21H50.5054V21.61H54.5934V22.482H51.5454V23.938H54.2494V24.794H51.5454V26.338H54.7054ZM57.6008 27.29C57.1688 27.29 56.7501 27.2286 56.3448 27.106C55.9448 26.9833 55.6275 26.8206 55.3928 26.618L55.7528 25.81C55.9821 25.9913 56.2621 26.1406 56.5928 26.258C56.9288 26.37 57.2648 26.426 57.6008 26.426C58.0168 26.426 58.3261 26.3593 58.5288 26.226C58.7368 26.0926 58.8408 25.9166 58.8408 25.698C58.8408 25.538 58.7821 25.4073 58.6648 25.306C58.5528 25.1993 58.4088 25.1166 58.2328 25.058C58.0568 24.9993 57.8168 24.9326 57.5128 24.858C57.0861 24.7566 56.7395 24.6553 56.4728 24.554C56.2115 24.4526 55.9848 24.2953 55.7928 24.082C55.6061 23.8633 55.5128 23.57 55.5128 23.202C55.5128 22.8926 55.5955 22.6126 55.7608 22.362C55.9315 22.106 56.1848 21.9033 56.5208 21.754C56.8621 21.6046 57.2781 21.53 57.7688 21.53C58.1101 21.53 58.4461 21.5726 58.7768 21.658C59.1075 21.7433 59.3928 21.866 59.6328 22.026L59.3048 22.834C59.0595 22.69 58.8035 22.5806 58.5368 22.506C58.2701 22.4313 58.0115 22.394 57.7608 22.394C57.3501 22.394 57.0435 22.4633 56.8408 22.602C56.6435 22.7406 56.5448 22.9246 56.5448 23.154C56.5448 23.314 56.6008 23.4446 56.7128 23.546C56.8301 23.6473 56.9768 23.7273 57.1528 23.786C57.3288 23.8446 57.5688 23.9113 57.8728 23.986C58.2888 24.082 58.6301 24.1833 58.8968 24.29C59.1635 24.3913 59.3901 24.5486 59.5768 24.762C59.7688 24.9753 59.8648 25.2633 59.8648 25.626C59.8648 25.9353 59.7795 26.2153 59.6088 26.466C59.4435 26.7166 59.1901 26.9166 58.8488 27.066C58.5075 27.2153 58.0915 27.29 57.6008 27.29ZM62.824 24.866L61.936 25.778V27.21H60.896V21.61H61.936V24.482L64.704 21.61H65.872L63.52 24.114L66.016 27.21H64.8L62.824 24.866ZM70.9242 26.338V27.21H66.7242V21.61H70.8122V22.482H67.7642V23.938H70.4682V24.794H67.7642V26.338H70.9242ZM69.1882 20.058H70.3642L68.9722 21.154H68.1082L69.1882 20.058ZM78.2625 24.298C78.5718 24.3993 78.8171 24.57 78.9985 24.81C79.1798 25.0446 79.2705 25.338 79.2705 25.69C79.2705 26.1753 79.0838 26.5513 78.7105 26.818C78.3371 27.0793 77.7931 27.21 77.0785 27.21H74.2945V21.61H76.9185C77.5798 21.61 78.0891 21.7406 78.4465 22.002C78.8038 22.258 78.9825 22.6126 78.9825 23.066C78.9825 23.3433 78.9185 23.5886 78.7905 23.802C78.6625 24.0153 78.4865 24.1806 78.2625 24.298ZM75.3345 22.426V23.97H76.8065C77.1691 23.97 77.4465 23.906 77.6385 23.778C77.8358 23.6446 77.9345 23.4526 77.9345 23.202C77.9345 22.946 77.8358 22.754 77.6385 22.626C77.4465 22.4926 77.1691 22.426 76.8065 22.426H75.3345ZM77.0145 26.394C77.8198 26.394 78.2225 26.1246 78.2225 25.586C78.2225 25.0473 77.8198 24.778 77.0145 24.778H75.3345V26.394H77.0145ZM82.7884 27.29C82.0151 27.29 81.4124 27.074 80.9804 26.642C80.5484 26.2046 80.3324 25.5806 80.3324 24.77V21.61H81.3724V24.73C81.3724 25.8286 81.8471 26.378 82.7964 26.378C83.7404 26.378 84.2124 25.8286 84.2124 24.73V21.61H85.2364V24.77C85.2364 25.5806 85.0204 26.2046 84.5884 26.642C84.1618 27.074 83.5618 27.29 82.7884 27.29ZM86.6929 21.61H89.1409C89.7383 21.61 90.2689 21.7273 90.7329 21.962C91.1969 22.1913 91.5569 22.5193 91.8129 22.946C92.0689 23.3673 92.1969 23.8553 92.1969 24.41C92.1969 24.9646 92.0689 25.4553 91.8129 25.882C91.5569 26.3033 91.1969 26.6313 90.7329 26.866C90.2689 27.0953 89.7383 27.21 89.1409 27.21H86.6929V21.61ZM89.0929 26.33C89.5036 26.33 89.8636 26.2526 90.1729 26.098C90.4876 25.938 90.7276 25.714 90.8929 25.426C91.0636 25.1326 91.1489 24.794 91.1489 24.41C91.1489 24.026 91.0636 23.69 90.8929 23.402C90.7276 23.1086 90.4876 22.8846 90.1729 22.73C89.8636 22.57 89.5036 22.49 89.0929 22.49H87.7329V26.33H89.0929ZM97.5023 26.338V27.21H93.3023V21.61H97.3903V22.482H94.3423V23.938H97.0463V24.794H94.3423V26.338H97.5023ZM96.8863 20.058L95.8143 21.154H94.9023L93.8303 20.058H94.6543L95.3583 20.65L96.0623 20.058H96.8863ZM99.5337 27.29C99.1763 27.29 98.8457 27.2206 98.5417 27.082C98.243 26.938 97.9977 26.738 97.8057 26.482L98.3977 25.77C98.707 26.1966 99.0777 26.41 99.5097 26.41C100.091 26.41 100.382 26.066 100.382 25.378V22.482H98.3897V21.61H101.422V25.322C101.422 25.978 101.262 26.4713 100.942 26.802C100.622 27.1273 100.152 27.29 99.5337 27.29ZM105.496 27.29C104.926 27.29 104.411 27.1673 103.952 26.922C103.494 26.6713 103.134 26.3273 102.872 25.89C102.611 25.4473 102.48 24.954 102.48 24.41C102.48 23.866 102.611 23.3753 102.872 22.938C103.134 22.4953 103.494 22.1513 103.952 21.906C104.411 21.6553 104.926 21.53 105.496 21.53C106.067 21.53 106.582 21.6553 107.04 21.906C107.499 22.1513 107.859 22.4926 108.12 22.93C108.382 23.3673 108.512 23.8606 108.512 24.41C108.512 24.9593 108.382 25.4526 108.12 25.89C107.859 26.3273 107.499 26.6713 107.04 26.922C106.582 27.1673 106.067 27.29 105.496 27.29ZM105.496 26.378C105.87 26.378 106.206 26.2953 106.504 26.13C106.803 25.9593 107.038 25.7246 107.208 25.426C107.379 25.122 107.464 24.7833 107.464 24.41C107.464 24.0366 107.379 23.7006 107.208 23.402C107.038 23.098 106.803 22.8633 106.504 22.698C106.206 22.5273 105.87 22.442 105.496 22.442C105.123 22.442 104.787 22.5273 104.488 22.698C104.19 22.8633 103.955 23.098 103.784 23.402C103.614 23.7006 103.528 24.0366 103.528 24.41C103.528 24.7833 103.614 25.122 103.784 25.426C103.955 25.7246 104.19 25.9593 104.488 26.13C104.787 26.2953 105.123 26.378 105.496 26.378ZM114.555 21.61L112.115 27.21H111.091L108.643 21.61H109.771L111.635 25.93L113.515 21.61H114.555ZM115.146 21.61H116.186V27.21H115.146V21.61ZM120.293 27.29C119.727 27.29 119.215 27.1673 118.757 26.922C118.303 26.6713 117.946 26.3273 117.685 25.89C117.429 25.4526 117.301 24.9593 117.301 24.41C117.301 23.8606 117.431 23.3673 117.693 22.93C117.954 22.4926 118.311 22.1513 118.765 21.906C119.223 21.6553 119.735 21.53 120.301 21.53C120.759 21.53 121.178 21.61 121.557 21.77C121.935 21.93 122.255 22.162 122.517 22.466L121.845 23.098C121.439 22.6606 120.941 22.442 120.349 22.442C119.965 22.442 119.621 22.5273 119.317 22.698C119.013 22.8633 118.775 23.0953 118.605 23.394C118.434 23.6926 118.349 24.0313 118.349 24.41C118.349 24.7886 118.434 25.1273 118.605 25.426C118.775 25.7246 119.013 25.9593 119.317 26.13C119.621 26.2953 119.965 26.378 120.349 26.378C120.941 26.378 121.439 26.1566 121.845 25.714L122.517 26.354C122.255 26.658 121.933 26.89 121.549 27.05C121.17 27.21 120.751 27.29 120.293 27.29ZM127.713 26.338V27.21H123.513V21.61H127.601V22.482H124.553V23.938H127.257V24.794H124.553V26.338H127.713Z" fill="#CFBDA2"/>
</g>
<defs>
<clipPath id="clip0">
<rect x="0.059082" y="0.10498" width="128.882" height="38" fill="white"/>
</clipPath>
</defs>
</svg>
