<svg width="228" height="25" viewBox="0 0 228 25" fill="none" xmlns="http://www.w3.org/2000/svg">
<g clip-path="url(#clip0)">
<path d="M227.484 0.278762H225.287C225.217 0.274718 225.148 0.285545 225.083 0.310517C225.018 0.335492 224.959 0.374039 224.911 0.423584C224.862 0.473132 224.824 0.532539 224.8 0.597846C224.776 0.663149 224.766 0.732846 224.771 0.802287V19.7172L213.626 0.625511C213.564 0.515312 213.473 0.424494 213.363 0.363247C213.253 0.302 213.127 0.272744 213.002 0.278762H210.18C210.051 0.289183 209.932 0.350053 209.848 0.448115C209.764 0.546174 209.723 0.673478 209.732 0.802287V24.0278C209.728 24.0972 209.739 24.1668 209.764 24.2318C209.789 24.2968 209.827 24.3557 209.877 24.4046C209.926 24.4535 209.985 24.4913 210.05 24.5154C210.116 24.5395 210.185 24.5494 210.254 24.5445H212.452C212.521 24.5494 212.591 24.5395 212.656 24.5154C212.721 24.4913 212.781 24.4535 212.83 24.4046C212.88 24.3557 212.918 24.2968 212.943 24.2318C212.968 24.1668 212.979 24.0972 212.975 24.0278V5.06528L224.106 24.2045C224.168 24.3147 224.259 24.4055 224.369 24.4668C224.479 24.528 224.604 24.5573 224.73 24.5513H227.566C227.69 24.536 227.804 24.4742 227.884 24.3783C227.965 24.2825 228.006 24.1597 228 24.0346V0.795489C228.005 0.725438 227.995 0.655121 227.971 0.589309C227.946 0.523497 227.908 0.463733 227.858 0.41407C227.809 0.36441 227.749 0.326017 227.683 0.301497C227.618 0.276976 227.548 0.266904 227.478 0.271963L227.484 0.278762ZM187.224 16.61L191.722 4.33778L196.219 16.61H187.224ZM202.223 23.9597L193.438 0.679905C193.392 0.553037 193.306 0.444326 193.194 0.369694C193.082 0.295062 192.949 0.258431 192.814 0.265164H190.616C190.481 0.258431 190.348 0.295062 190.236 0.369694C190.124 0.444326 190.038 0.553037 189.992 0.679905L181.174 23.9462C181.038 24.2929 181.208 24.5377 181.587 24.5377H183.819C183.95 24.5486 184.081 24.5131 184.189 24.4374C184.297 24.3616 184.375 24.2503 184.409 24.1229L186.125 19.4588H197.23L198.939 24.1229C198.974 24.2503 199.052 24.3616 199.16 24.4374C199.267 24.5131 199.398 24.5486 199.53 24.5377H201.761C202.141 24.5377 202.318 24.2929 202.175 23.9462L202.223 23.9597ZM175.041 21.5869H163.204V0.795489C163.209 0.726048 163.199 0.656348 163.175 0.591045C163.151 0.525742 163.113 0.466334 163.065 0.416787C163.016 0.367239 162.957 0.328694 162.892 0.303719C162.827 0.278746 162.758 0.267919 162.688 0.271963H160.491C160.421 0.266904 160.351 0.276976 160.285 0.301497C160.219 0.326017 160.16 0.36441 160.11 0.41407C160.06 0.463733 160.022 0.523497 159.998 0.589309C159.973 0.655121 159.963 0.725438 159.968 0.795489V24.0278C159.964 24.0972 159.975 24.1668 160 24.2318C160.025 24.2968 160.063 24.3557 160.113 24.4046C160.162 24.4535 160.221 24.4913 160.287 24.5154C160.352 24.5395 160.421 24.5494 160.491 24.5445H175.109C175.178 24.5484 175.247 24.5378 175.311 24.5132C175.375 24.4886 175.434 24.4507 175.482 24.4019C175.531 24.3531 175.569 24.2946 175.593 24.2301C175.618 24.1656 175.629 24.0966 175.625 24.0278V22.124C175.629 22.0551 175.618 21.9862 175.593 21.9217C175.569 21.8572 175.531 21.7987 175.482 21.7499C175.434 21.7011 175.375 21.6631 175.311 21.6386C175.247 21.614 175.178 21.6033 175.109 21.6073L175.041 21.5869ZM150.275 19.4928C150.23 19.4399 150.175 19.3973 150.112 19.3681C150.049 19.3389 149.981 19.3238 149.912 19.3238C149.843 19.3238 149.774 19.3389 149.712 19.3681C149.649 19.3973 149.593 19.4399 149.549 19.4928C147.865 21.0276 145.666 21.8701 143.39 21.8521C138.424 21.8521 134.449 17.8474 134.449 12.5442C134.449 7.24096 138.424 3.18194 143.39 3.18194C145.664 3.17191 147.861 4.01323 149.549 5.54121C149.593 5.59416 149.649 5.63671 149.712 5.6659C149.774 5.69508 149.843 5.71023 149.912 5.71023C149.981 5.71023 150.049 5.69508 150.112 5.6659C150.175 5.63671 150.23 5.59416 150.275 5.54121L151.631 4.06582C151.688 4.02337 151.733 3.9684 151.765 3.90528C151.796 3.84216 151.812 3.77258 151.812 3.70208C151.812 3.63155 151.796 3.56197 151.765 3.49885C151.733 3.43573 151.688 3.38079 151.631 3.33831C149.421 1.1952 146.465 -0.00198418 143.39 2.46858e-06C141.761 -0.000322242 140.148 0.325034 138.647 0.95702C137.145 1.58901 135.784 2.51492 134.644 3.68056C133.504 4.84618 132.607 6.22812 132.006 7.74542C131.405 9.26273 131.113 10.8849 131.145 12.517C131.118 14.146 131.415 15.7641 132.018 17.2771C132.621 18.79 133.519 20.1675 134.658 21.3293C135.798 22.4911 137.157 23.414 138.656 24.0442C140.155 24.6744 141.764 24.9993 143.39 25C144.916 25.0196 146.431 24.7352 147.847 24.1633C149.263 23.5914 150.552 22.7434 151.638 21.6685C151.694 21.626 151.74 21.5711 151.771 21.508C151.803 21.4448 151.819 21.3753 151.819 21.3047C151.819 21.2342 151.803 21.1646 151.771 21.1015C151.74 21.0384 151.694 20.9835 151.638 20.941L150.275 19.4928ZM93.6732 21.9405C92.4477 21.9389 91.2345 21.6926 90.1048 21.2162C88.9749 20.7398 87.9513 20.0427 87.0932 19.1655C86.235 18.2883 85.5597 17.2487 85.1068 16.1072C84.6536 14.9657 84.432 13.7453 84.4545 12.517C84.4545 10.0682 85.4251 7.71978 87.1526 5.98823C88.8801 4.25669 91.2232 3.28393 93.6665 3.28393C96.1097 3.28393 98.4528 4.25669 100.18 5.98823C101.908 7.71978 102.878 10.0682 102.878 12.517C102.9 13.7436 102.678 14.9622 102.226 16.102C101.773 17.2418 101.099 18.28 100.242 19.1562C99.3855 20.0325 98.3636 20.7293 97.2359 21.2061C96.1083 21.6829 94.897 21.9302 93.6732 21.9337V21.9405ZM93.6732 25C95.3051 24.9982 96.9204 24.6737 98.427 24.0448C99.9335 23.416 101.301 22.4954 102.452 21.3357C103.603 20.176 104.514 18.8001 105.133 17.2868C105.752 15.7735 106.067 14.1526 106.06 12.517C106.06 10.8857 105.739 9.27045 105.116 7.76337C104.494 6.25629 103.581 4.88694 102.43 3.73346C101.279 2.57998 99.9128 1.665 98.4093 1.04074C96.9056 0.416489 95.2939 0.0951885 93.6665 0.0951885C92.0388 0.0951885 90.4273 0.416489 88.9236 1.04074C87.4202 1.665 86.0538 2.57998 84.9029 3.73346C83.7522 4.88694 82.8391 6.25629 82.2162 7.76337C81.5937 9.27045 81.2728 10.8857 81.2728 12.517C81.2658 14.1537 81.5813 15.7757 82.2014 17.2899C82.8212 18.8041 83.7334 20.1807 84.8858 21.3405C86.0378 22.5004 87.4073 23.4208 88.9152 24.0488C90.4234 24.6767 92.0402 25 93.6732 25ZM59.3419 3.24315H65.4472C68.6625 3.24315 70.8062 4.1066 70.8062 7.90728C70.8062 11.7079 68.6625 12.585 65.4472 12.585H59.3419V3.24315ZM68.8049 15.155C72.4883 14.2508 73.9264 11.7555 73.9264 7.90728C73.9401 2.98478 71.5861 0.278762 65.2029 0.278762H56.6287C56.5591 0.274718 56.4898 0.285545 56.4251 0.310517C56.3603 0.335492 56.3014 0.374039 56.2526 0.423584C56.2038 0.473132 56.1662 0.532539 56.1421 0.597846C56.118 0.663149 56.1082 0.732846 56.1129 0.802287V24.0278C56.109 24.0966 56.1197 24.1656 56.1443 24.2301C56.1687 24.2946 56.2066 24.3531 56.2554 24.4019C56.3039 24.4507 56.3622 24.4886 56.4267 24.5132C56.491 24.5378 56.5599 24.5484 56.6287 24.5445H58.8265C58.8958 24.5494 58.9653 24.5395 59.0304 24.5154C59.0954 24.4913 59.1549 24.4535 59.2042 24.4046C59.2536 24.3557 59.292 24.2968 59.317 24.2318C59.3419 24.1668 59.3529 24.0972 59.3487 24.0278V15.5154H65.7116L70.1752 24.1637C70.2265 24.2803 70.3115 24.3788 70.4189 24.4466C70.5266 24.5145 70.6519 24.5485 70.779 24.5445H73.0648C73.4653 24.5445 73.6347 24.2997 73.4448 23.9394L68.8049 15.155ZM46.9553 21.6005H34.8806V13.3669H46.0055C46.0756 13.3719 46.1457 13.3619 46.2113 13.3373C46.277 13.3128 46.3367 13.2744 46.386 13.2248C46.4357 13.1751 46.4741 13.1153 46.4985 13.0495C46.5229 12.9837 46.533 12.9134 46.5279 12.8433V10.9396C46.5319 10.8701 46.5212 10.8006 46.4963 10.7356C46.4713 10.6706 46.4329 10.6117 46.3835 10.5628C46.3339 10.5139 46.2747 10.4761 46.2096 10.452C46.1443 10.4279 46.0748 10.418 46.0055 10.4229H34.8806V3.22273H46.9214C46.9896 3.22753 47.0577 3.21795 47.1219 3.19464C47.1861 3.17132 47.2448 3.13478 47.2938 3.08736C47.3432 3.03994 47.3819 2.98272 47.4077 2.91938C47.4335 2.85604 47.4458 2.78799 47.4436 2.71961V0.795489C47.4486 0.726048 47.4388 0.656348 47.4147 0.591045C47.3906 0.525742 47.353 0.466334 47.3042 0.416787C47.2554 0.367239 47.1965 0.328694 47.1317 0.303719C47.067 0.278746 46.9974 0.267919 46.9281 0.271963H32.1673C32.098 0.267919 32.0285 0.278746 31.9637 0.303719C31.8989 0.328694 31.84 0.367239 31.7912 0.416787C31.7424 0.466334 31.7049 0.525742 31.6807 0.591045C31.6566 0.656348 31.6468 0.726048 31.6519 0.795489V24.0278C31.6477 24.0966 31.6583 24.1656 31.683 24.2301C31.7074 24.2946 31.7452 24.3531 31.794 24.4019C31.8426 24.4507 31.9012 24.4886 31.9654 24.5132C32.0296 24.5378 32.0986 24.5484 32.1673 24.5445H46.9553C47.0246 24.5494 47.0942 24.5395 47.1592 24.5154C47.2243 24.4913 47.2837 24.4535 47.3331 24.4046C47.3825 24.3557 47.4209 24.2968 47.4458 24.2318C47.4708 24.1668 47.4817 24.0972 47.4775 24.0278V22.124C47.4817 22.0545 47.4708 21.9849 47.4458 21.92C47.4209 21.855 47.3825 21.7961 47.3331 21.7472C47.2837 21.6983 47.2243 21.6605 47.1592 21.6364C47.0942 21.6122 47.0246 21.6023 46.9553 21.6073V21.6005ZM21.2458 0.278762H19.048C18.9781 0.273703 18.908 0.283775 18.8423 0.308295C18.7766 0.332815 18.717 0.371208 18.6674 0.420871C18.6179 0.470531 18.5796 0.530298 18.5551 0.59611C18.5307 0.661921 18.5206 0.732239 18.5257 0.802287V6.02393H3.23566V0.795489C3.2397 0.725989 3.2289 0.656427 3.204 0.591444C3.17907 0.526461 3.14062 0.467551 3.09118 0.418646C3.04173 0.369744 2.98248 0.331969 2.91733 0.307848C2.85215 0.283728 2.78262 0.27381 2.71334 0.278762H0.515491C0.446757 0.274816 0.377968 0.285478 0.313637 0.310051C0.249303 0.334621 0.190879 0.372548 0.142198 0.42134C0.0935167 0.470135 0.0556771 0.528691 0.0311613 0.593171C0.00664558 0.657652 -0.00399246 0.726598 -5.50135e-05 0.795489V24.0278C-0.00399246 24.0966 0.00664558 24.1656 0.0311613 24.2301C0.0556771 24.2946 0.0935167 24.3531 0.142198 24.4019C0.190879 24.4507 0.249303 24.4886 0.313637 24.5132C0.377968 24.5378 0.446757 24.5484 0.515491 24.5445H2.71334C2.78207 24.5484 2.85086 24.5378 2.9152 24.5132C2.97953 24.4886 3.03795 24.4507 3.08663 24.4019C3.13532 24.3531 3.17315 24.2946 3.19766 24.2301C3.2222 24.1656 3.23283 24.0966 3.2289 24.0278V8.96792H18.5257V24.0278C18.5216 24.0972 18.5324 24.1668 18.5573 24.2318C18.5823 24.2968 18.6207 24.3557 18.6702 24.4046C18.7196 24.4535 18.7789 24.4913 18.844 24.5154C18.9092 24.5395 18.9787 24.5494 19.048 24.5445H21.2458C21.3146 24.5484 21.3834 24.5378 21.4477 24.5132C21.512 24.4886 21.5704 24.4507 21.6191 24.4019C21.6678 24.3531 21.7056 24.2946 21.7302 24.2301C21.7547 24.1656 21.7653 24.0966 21.7614 24.0278V0.795489C21.7663 0.726048 21.7564 0.656348 21.7324 0.591045C21.7083 0.525742 21.6706 0.466334 21.6218 0.416787C21.573 0.367239 21.5143 0.328694 21.4494 0.303719C21.3846 0.278746 21.3152 0.267919 21.2458 0.271963" fill="#CFBDA2"/>
<path d="M7.5501 17.9086C7.79024 17.9105 8.02834 17.8644 8.25053 17.7731C8.47273 17.6818 8.67462 17.5472 8.84443 17.377C9.01423 17.2068 9.14857 17.0045 9.23963 16.7818C9.33069 16.559 9.37665 16.3204 9.37486 16.0797C9.37486 15.5938 9.18225 15.1277 8.83941 14.7841C8.49657 14.4404 8.03156 14.2474 7.54671 14.2474C7.06185 14.2474 6.59685 14.4404 6.25401 14.7841C5.91116 15.1277 5.71856 15.5938 5.71856 16.0797C5.71676 16.3204 5.76273 16.559 5.85379 16.7818C5.94485 17.0045 6.07918 17.2068 6.24899 17.377C6.41879 17.5472 6.62068 17.6818 6.84288 17.7731C7.06507 17.8644 7.30317 17.9105 7.54331 17.9086" fill="#CFBDA2"/>
<path d="M14.1843 17.9086C14.4244 17.9105 14.6625 17.8644 14.8847 17.7731C15.1069 17.6818 15.3088 17.5472 15.4786 17.377C15.6484 17.2068 15.7827 17.0045 15.8738 16.7818C15.9648 16.559 16.0108 16.3204 16.009 16.0797C16.009 15.5938 15.8164 15.1277 15.4736 14.7841C15.1307 14.4404 14.6657 14.2474 14.1809 14.2474C13.696 14.2474 13.231 14.4404 12.8882 14.7841C12.5453 15.1277 12.3527 15.5938 12.3527 16.0797C12.3509 16.3204 12.3969 16.559 12.4879 16.7818C12.579 17.0045 12.7133 17.2068 12.8831 17.377C13.053 17.5472 13.2548 17.6818 13.477 17.7731C13.6992 17.8644 13.9373 17.9105 14.1775 17.9086" fill="#CFBDA2"/>
</g>
<defs>
<clipPath id="clip0">
<rect width="228" height="25" fill="white"/>
</clipPath>
</defs>
</svg>
