<svg width="110" height="48" viewBox="0 0 110 48" fill="none" xmlns="http://www.w3.org/2000/svg">
<g clip-path="url(#clip0)">
<path d="M106.121 32.7774C106.121 31.6726 106.997 30.8132 108.123 30.8132C109.249 30.8132 110.125 31.6726 110.125 32.7774C110.125 33.8823 109.249 34.7416 108.123 34.7416C106.997 34.6189 106.121 33.7595 106.121 32.7774ZM109.625 32.7774C109.625 31.9181 108.874 31.1815 107.998 31.1815C107.122 31.1815 106.371 31.9181 106.371 32.7774C106.371 33.6368 107.122 34.3733 107.998 34.3733C108.874 34.3733 109.625 33.6368 109.625 32.7774ZM107.622 32.9002V33.8823H107.247V31.6726H107.998C108.373 31.6726 108.874 31.7953 108.874 32.2864C108.874 32.5319 108.749 32.7774 108.373 32.7774C108.749 32.9002 108.749 33.023 108.749 33.2685C108.749 33.514 108.749 33.7595 108.874 33.8823H108.373C108.373 33.7595 108.373 33.6368 108.248 33.514C108.248 33.2685 108.248 33.1457 108.123 33.023C107.998 32.9002 107.873 32.9002 107.747 32.9002H107.622V32.9002ZM107.998 32.5319C108.373 32.5319 108.373 32.4091 108.373 32.1636C108.373 32.0409 108.248 31.9181 107.998 31.9181H107.622V32.5319H107.998Z" fill="#CFBDA2"/>
<path d="M33.5381 0.490998L22.2753 11.5396C21.6496 12.1534 21.6496 13.2583 22.2753 13.9948L33.5381 25.0434C34.1638 25.6572 35.2901 25.6572 36.041 25.0434C36.4164 24.6751 36.5415 24.3069 36.5415 23.8158C36.5415 23.3248 36.4164 22.9565 36.041 22.5882C36.041 22.5882 28.0319 14.7314 26.0296 12.7672C28.0319 10.803 36.041 2.94624 36.041 2.94624C36.4164 2.57795 36.5415 2.20967 36.5415 1.71862C36.5415 1.22757 36.4164 0.859284 36.041 0.490998C35.2901 -0.122813 34.1638 -0.122813 33.5381 0.490998Z" fill="#CFBDA2"/>
<path d="M69.2037 0.490998C68.8283 0.859284 68.7031 1.22757 68.7031 1.71862C68.7031 2.20967 68.8283 2.57795 69.2037 2.94624C69.2037 2.94624 77.2128 10.803 79.2151 12.7672C77.2128 14.7314 69.2037 22.5882 69.2037 22.5882C68.8283 22.9565 68.7031 23.3248 68.7031 23.8158C68.7031 24.3069 68.8283 24.6751 69.2037 25.0434C69.8294 25.6572 70.9557 25.6572 71.7065 25.0434L82.9693 13.9948C83.3448 13.6265 83.4699 13.2583 83.4699 12.7672C83.4699 12.2762 83.3448 11.9079 82.9693 11.5396L71.7065 0.490998C70.9557 -0.122813 69.8294 -0.122813 69.2037 0.490998Z" fill="#CFBDA2"/>
<path d="M40.1707 16.6956C42.4515 16.6956 44.3004 14.8818 44.3004 12.6444C44.3004 10.407 42.4515 8.59326 40.1707 8.59326C37.8899 8.59326 36.041 10.407 36.041 12.6444C36.041 14.8818 37.8899 16.6956 40.1707 16.6956Z" fill="#CFBDA2"/>
<path d="M52.6849 16.6956C54.9656 16.6956 56.8146 14.8818 56.8146 12.6444C56.8146 10.407 54.9656 8.59326 52.6849 8.59326C50.4041 8.59326 48.5552 10.407 48.5552 12.6444C48.5552 14.8818 50.4041 16.6956 52.6849 16.6956Z" fill="#CFBDA2"/>
<path d="M65.199 16.6956C67.4798 16.6956 69.3287 14.8818 69.3287 12.6444C69.3287 10.407 67.4798 8.59326 65.199 8.59326C62.9183 8.59326 61.0693 10.407 61.0693 12.6444C61.0693 14.8818 62.9183 16.6956 65.199 16.6956Z" fill="#CFBDA2"/>
<path d="M5.25593 35.9692C6.38221 34.6189 7.75878 34.1278 9.38563 34.1278C12.2639 34.1278 14.3913 35.9692 14.3913 38.7928V47.5089H9.38563V39.7749C9.38563 38.5472 9.0102 37.0741 7.50849 37.0741C5.00565 37.0741 5.38108 39.7749 5.38108 39.8976V47.3861H0.375386V37.6879C0.375386 36.4603 0.375386 35.7237 0.250244 34.3733H5.38108L5.25593 35.9692Z" fill="#CFBDA2"/>
<path d="M21.7747 42.1073C21.7747 43.8259 22.1501 45.2991 24.0273 45.2991C25.4038 45.2991 26.2798 44.6853 26.5301 43.4577H31.1604C31.0352 45.1763 29.909 46.4039 28.6575 47.1405C27.5313 47.8771 26.0295 48.1226 24.4027 48.1226C19.0216 48.1226 16.8942 45.9129 16.8942 40.7569C16.8942 36.583 20.0227 34.2505 24.0273 34.2505C29.4084 34.2505 31.1604 37.3195 31.1604 42.1073H21.7747ZM26.5301 39.4065C26.5301 38.6699 26.2798 38.0561 25.9044 37.4423C25.529 36.9513 24.9033 36.583 24.1524 36.583C22.4004 36.7057 22.025 37.9334 21.8999 39.4065H26.5301Z" fill="#CFBDA2"/>
<path d="M35.2901 34.4961V32.5319L40.2958 30.6904V34.4961H43.1741V37.5651H40.2958V42.7211C40.2958 43.0894 40.0455 44.8081 41.2969 44.8081C41.9227 44.8081 42.6735 44.8081 43.1741 44.6853V47.6316C42.0478 47.8771 41.1718 47.8771 40.4209 47.8771C37.0421 47.8771 34.9147 47.3861 35.165 43.4577V37.5651H32.537V34.4961H35.2901V34.4961Z" fill="#CFBDA2"/>
<path d="M45.9271 47.6316V28.849H50.9328V35.9692C52.0591 34.6188 53.4357 34.1278 55.0625 34.1278C57.9408 34.1278 60.0682 35.9692 60.0682 38.7927V47.5088H55.0625V39.7748C55.0625 38.5472 54.6871 37.0741 53.1854 37.0741C50.6825 37.0741 51.058 39.7748 51.058 39.8976V47.3861H45.9271V47.6316Z" fill="#CFBDA2"/>
<path d="M78.4642 41.0025C78.4642 45.7902 74.835 47.8772 70.7053 47.8772C66.5757 47.8772 62.9465 45.7902 62.9465 41.0025C62.9465 36.2148 66.5757 34.1278 70.7053 34.1278C74.835 34.1278 78.4642 36.2148 78.4642 41.0025ZM70.7053 45.1764C72.8328 45.1764 73.3333 42.9667 73.3333 41.1253C73.3333 39.2838 72.8328 37.0741 70.7053 37.0741C68.5779 37.0741 68.0774 39.2838 68.0774 41.1253C68.0774 42.9667 68.5779 45.1764 70.7053 45.1764Z" fill="#CFBDA2"/>
<path d="M88.3504 38.5472C88.3504 38.0562 88.2252 37.6879 87.9749 37.4423C87.7246 37.1968 87.2241 36.9513 86.5984 36.9513C85.8475 36.9513 85.3469 37.3196 85.3469 38.1789C85.3469 39.161 87.3492 39.0382 90.6029 40.0203C92.2298 40.5114 93.2309 41.4935 93.2309 43.5805C93.2309 47.0178 89.8521 47.8771 86.8486 47.8771C83.5949 47.8771 80.3412 47.2633 80.4664 43.2122H85.2218C85.0966 43.5805 85.2218 44.0715 85.5972 44.4398C85.8475 44.8081 86.3481 45.0536 86.8486 45.0536C87.8498 45.0536 88.6006 44.6853 88.6006 43.826C88.6006 41.4935 80.7167 42.8439 80.7167 38.1789C80.7167 34.9871 84.2207 34.005 86.8486 34.005C89.9772 34.005 92.9806 34.8643 93.1058 38.4244H88.3504V38.5472Z" fill="#CFBDA2"/>
<path d="M97.2354 34.4961V32.5319L102.241 30.6904V34.4961H105.119V37.5651H102.241V42.7211C102.241 43.0894 101.991 44.8081 103.242 44.8081C103.868 44.8081 104.619 44.8081 105.119 44.6853V47.6316C103.993 47.8771 103.117 47.8771 102.366 47.8771C98.9874 47.8771 96.86 47.3861 97.1103 43.4577V37.5651H94.4823V34.4961H97.2354V34.4961Z" fill="#CFBDA2"/>
</g>
<defs>
<clipPath id="clip0">
<rect width="110" height="48" fill="white"/>
</clipPath>
</defs>
</svg>
