<svg width="172" height="39" viewBox="0 0 172 39" fill="none" xmlns="http://www.w3.org/2000/svg">
<g clip-path="url(#clip0)">
<path d="M51.3468 33.0748H0.201416V34.2942H51.3468V33.0748Z" fill="#CFBDA2"/>
<path d="M171.634 33.0748H119.16V34.2942H171.634V33.0748Z" fill="#CFBDA2"/>
<path d="M15.9088 15.4632C15.921 16.2709 15.7613 17.0718 15.4402 17.8126C15.1118 18.5395 14.6163 19.1779 13.9943 19.6757C13.2661 20.2402 12.4363 20.659 11.5502 20.9091C10.4311 21.2376 9.26918 21.396 8.10322 21.379C5.73957 21.379 3.88601 20.9365 2.54251 20.0516C1.88534 19.6254 1.3212 19.0701 0.884193 18.4192C0.447186 17.7682 0.146392 17.0352 0 16.2643L2.06447 15.8086C2.19831 16.3497 2.40903 16.8687 2.69014 17.3498C2.98207 17.8286 3.37083 18.2408 3.83134 18.5597C4.37215 18.9329 4.97535 19.2059 5.61226 19.3655C6.432 19.5704 7.27494 19.6667 8.11962 19.6522C8.87815 19.6575 9.63495 19.5787 10.3762 19.4172C11.0168 19.2862 11.6292 19.0428 12.1853 18.6983C12.6847 18.3794 13.0965 17.94 13.3827 17.4202C13.6861 16.8416 13.8354 16.1942 13.8162 15.5407C13.8447 14.8661 13.6494 14.201 13.2609 13.6495C12.8721 13.1479 12.3776 12.7388 11.8127 12.4513C11.1763 12.1207 10.5051 11.8622 9.8115 11.6807C9.07101 11.4802 8.3352 11.2899 7.60409 11.1098C7.07293 10.9766 6.54099 10.8365 6.00828 10.6892C5.48764 10.5454 4.97656 10.3689 4.47809 10.1606C4.00479 9.96237 3.54796 9.72667 3.11193 9.45581C2.69365 9.19787 2.31875 8.87513 2.0012 8.49961C1.67436 8.10848 1.42108 7.66108 1.25368 7.17922C1.06473 6.61877 0.973574 6.02985 0.984196 5.43832C0.959678 4.58344 1.14474 3.73559 1.52316 2.9691C1.87819 2.2902 2.39696 1.71112 3.03226 1.28459C3.72474 0.826793 4.49398 0.498089 5.30294 0.314293C6.23477 0.097537 7.18885 -0.00813454 8.14539 -0.000526312C9.15115 -0.0174502 10.1554 0.0834747 11.1378 0.300197C11.8861 0.469057 12.5996 0.766327 13.2468 1.17887C13.8153 1.5506 14.2952 2.04306 14.6528 2.62139C15.0256 3.23956 15.3015 3.91149 15.4706 4.61368L13.378 5.05537C13.2681 4.54658 13.0757 4.05927 12.8086 3.61284C12.549 3.1907 12.2013 2.83002 11.7893 2.55561C11.3202 2.24921 10.8028 2.02442 10.2591 1.89074C9.55479 1.72171 8.83197 1.64277 8.1079 1.6558C7.31108 1.64057 6.51604 1.73705 5.74583 1.94243C5.17713 2.09119 4.64613 2.35859 4.18752 2.72711C3.81093 3.04268 3.51724 3.44603 3.33221 3.90181C3.15001 4.36063 3.05848 4.85055 3.06272 5.34434C3.04206 5.92824 3.19986 6.50452 3.51499 6.99597C3.83096 7.4494 4.24512 7.82528 4.72649 8.09549C5.28638 8.41254 5.88184 8.66176 6.50038 8.8379C7.16589 9.03839 7.87591 9.2287 8.63046 9.4088L10.3669 9.86696C10.9358 10.0162 11.4966 10.195 12.047 10.4026C12.5699 10.5988 13.0748 10.8401 13.5561 11.1239C14.0143 11.394 14.4258 11.7367 14.7747 12.1388C15.1315 12.5559 15.4116 13.0332 15.6019 13.5484C15.8185 14.1629 15.9225 14.8116 15.9088 15.4632ZM20.6072 21.0759V0.314293H34.2641V2.06929H22.7162V9.53802H33.3689V11.2507H22.7162V19.3186H34.864V21.0759H20.6072ZM56.6944 10.4801C56.7249 12.0381 56.464 13.5879 55.9258 15.0497C55.4571 16.2944 54.7312 17.4257 53.7957 18.3694C52.8935 19.2667 51.8088 19.9583 50.6158 20.3969C49.349 20.8576 48.0103 21.0875 46.6626 21.0759H39.1218V0.314293H45.73C47.2229 0.299713 48.7104 0.499076 50.1471 0.906341C51.4217 1.26505 52.6062 1.89041 53.6223 2.74121C54.6168 3.59987 55.3929 4.68395 55.8859 5.9035C56.4265 7.18472 56.6967 8.71025 56.6967 10.4801H56.6944ZM54.5432 10.4801C54.5763 9.17222 54.3567 7.8702 53.8965 6.64591C53.5056 5.64358 52.8804 4.75001 52.0734 4.04043C51.2558 3.34658 50.2957 2.84202 49.2614 2.56266C48.0874 2.24051 46.8745 2.08239 45.6573 2.09279H41.2284V19.2904H46.3416C47.46 19.302 48.5715 19.111 49.6222 18.7265C50.5994 18.3662 51.4864 17.7961 52.221 17.0561C52.9812 16.2712 53.5639 15.3312 53.9293 14.3002C54.3597 13.0738 54.5685 11.7801 54.5456 10.4801H54.5432ZM55.8555 38.6189V28.2392H56.91V37.7285H61.988V38.6212L55.8555 38.6189ZM61.4232 21.0759V0.314293H63.5322V19.2904H73.6858V21.0759H61.4232ZM67.8252 38.6189V28.2392H74.6536V29.1179H68.8797V32.8511H74.2061V33.7086H68.8797V37.7426H74.9536V38.6212L67.8252 38.6189ZM91.0241 21.0759L88.5777 14.6503H79.2981L76.8774 21.0759H74.67L82.7193 0.314293H85.2126L93.2409 21.0759H91.0241ZM85.2361 5.63802C85.0798 5.21982 84.9237 4.79851 84.7674 4.37404C84.6111 3.9496 84.4752 3.56977 84.3597 3.23458C84.2409 2.89627 84.1481 2.61749 84.0808 2.3982C84.0412 2.2715 83.9934 2.14751 83.9379 2.027C83.9285 2.07399 83.888 2.21182 83.816 2.44049C83.7441 2.66918 83.6504 2.95188 83.5348 3.28862C83.416 3.62693 83.2834 4.00049 83.1365 4.40928C82.9895 4.81808 82.8335 5.22767 82.6678 5.63802L79.9074 12.9376H87.9965L85.2361 5.63802ZM85.3275 38.7645C84.6038 38.781 83.8852 38.6433 83.2185 38.3605C82.6423 38.1081 82.1328 37.7242 81.7305 37.2398C81.3241 36.7375 81.0251 36.157 80.8517 35.5341C80.6537 34.8319 80.5567 34.1048 80.5635 33.375C80.5543 32.6336 80.6514 31.8944 80.8517 31.1807C81.0216 30.5682 81.3204 29.9994 81.7281 29.5126C82.127 29.0505 82.6277 28.6877 83.1904 28.453C84.3384 28.0226 85.5916 27.962 86.7756 28.2792C87.1768 28.3967 87.5581 28.5731 87.9075 28.8031C88.2137 29.0073 88.4851 29.2594 88.7112 29.5502C88.9198 29.8202 89.1019 30.1096 89.2549 30.4148L88.2941 30.7508C88.1732 30.509 88.0263 30.2813 87.8559 30.0718C87.6771 29.8516 87.4662 29.6602 87.2302 29.5032C86.9669 29.3301 86.6784 29.1985 86.3749 29.1132C86.0094 29.0124 85.6314 28.9643 85.2525 28.9699C84.6894 28.9546 84.1298 29.062 83.6122 29.2847C83.17 29.4835 82.7836 29.7884 82.4874 30.1728C82.178 30.5879 81.9564 31.062 81.8359 31.566C81.6902 32.1578 81.6192 32.7656 81.625 33.375C81.6199 33.9882 81.6986 34.5993 81.8593 35.1911C81.9967 35.7056 82.2315 36.1889 82.5506 36.6149C82.8541 37.0164 83.2496 37.3387 83.7035 37.5546C84.2095 37.7846 84.7604 37.8979 85.3157 37.8859C85.6799 37.8889 86.0431 37.8502 86.3984 37.7708C86.7042 37.7019 87.0025 37.6028 87.2888 37.4747C87.5365 37.365 87.7723 37.2295 87.9918 37.0706C88.1713 36.9417 88.3363 36.7936 88.4839 36.6289V34.3876H85.379V33.5606H89.4798V37.0377C89.2584 37.2825 89.0145 37.506 88.7511 37.705C88.4605 37.9246 88.146 38.1107 87.8137 38.2594C87.4465 38.4237 87.0632 38.5498 86.6702 38.6353C86.2294 38.7274 85.78 38.7707 85.3298 38.7645H85.3275ZM102.774 38.6142L101.548 35.4026H96.9152L95.7037 38.6142H94.6L98.6235 28.2345H99.8701L103.887 38.6142H102.774ZM109.175 21.0712L100.447 10.3509L98.2251 12.6345V21.0759H96.1161V0.314293H98.2251V10.2382L107.938 0.314293H110.46L101.815 9.00708L111.727 21.0736L109.175 21.0712ZM99.8819 30.8964C99.8005 30.6866 99.7225 30.4759 99.6475 30.2644L99.4437 29.6935C99.3844 29.5244 99.3382 29.385 99.3054 29.2753C99.2859 29.2119 99.2625 29.1501 99.2351 29.0897C99.2351 29.1132 99.2147 29.1821 99.1742 29.2965C99.1336 29.4109 99.0858 29.5526 99.0312 29.7217L98.832 30.2832C98.7587 30.4883 98.6804 30.6927 98.5977 30.8964L97.2151 34.545H101.26L99.8819 30.8964ZM109.283 38.6142V28.2392H110.338V37.7285H115.416V38.6212L109.283 38.6142ZM133.305 10.5952C133.322 12.0952 133.095 13.5879 132.632 15.0145C132.228 16.2686 131.571 17.4258 130.701 18.414C129.85 19.3594 128.802 20.1054 127.631 20.599C126.333 21.1359 124.939 21.4014 123.535 21.379C122.075 21.4098 120.623 21.1337 119.275 20.5684C118.103 20.0618 117.061 19.2945 116.229 18.3248C115.389 17.3255 114.764 16.1634 114.392 14.9111C113.972 13.5101 113.766 12.0534 113.78 10.5906C113.761 9.10204 113.978 7.61995 114.422 6.19952C114.805 4.96773 115.444 3.8314 116.297 2.86573C117.141 1.94089 118.183 1.21825 119.343 0.751281C122.037 -0.25275 125.001 -0.25275 127.695 0.751281C128.866 1.22492 129.915 1.95732 130.765 2.89392C131.62 3.8603 132.262 4.99616 132.651 6.22772C133.1 7.63928 133.321 9.11376 133.305 10.5952ZM131.111 10.5952C131.125 9.3713 130.961 8.15187 130.626 6.97482C130.341 5.95685 129.849 5.00901 129.18 4.19079C128.536 3.42136 127.721 2.81256 126.802 2.41229C125.769 1.97655 124.656 1.76286 123.535 1.78502C122.396 1.75983 121.264 1.97349 120.213 2.41229C119.292 2.80998 118.477 3.41922 117.834 4.19079C117.17 5.00983 116.683 5.95772 116.402 6.97482C116.075 8.15316 115.917 9.37224 115.934 10.5952C115.921 11.8243 116.087 13.0487 116.426 14.2298C116.716 15.2646 117.207 16.2321 117.869 17.0772C118.509 17.8725 119.323 18.5098 120.248 18.9403C121.279 19.4027 122.399 19.6298 123.528 19.6052C124.696 19.6339 125.855 19.4045 126.924 18.9333C127.849 18.5069 128.658 17.862 129.281 17.0537C129.923 16.2021 130.39 15.231 130.654 14.1969C130.965 13.0219 131.118 11.8108 131.111 10.5952ZM145.406 21.0759H143.128L135.339 0.314293H137.616L142.943 15.2494C143.099 15.6974 143.255 16.1571 143.411 16.6285C143.568 17.1 143.705 17.5307 143.824 17.9207C143.957 18.378 144.089 18.8299 144.222 19.2763C144.355 18.8581 144.497 18.4203 144.649 17.963C144.782 17.573 144.924 17.1399 145.075 16.6637C145.227 16.1876 145.389 15.7177 145.56 15.2541L150.849 0.314293H153.127L145.406 21.0759ZM169.757 21.0759L167.297 14.6503H158.027L155.597 21.0759H153.389L161.455 0.314293H163.948L171.981 21.0759H169.757ZM163.965 5.63802C163.808 5.21982 163.652 4.79851 163.496 4.37404C163.34 3.9496 163.206 3.56977 163.095 3.23458C162.977 2.89627 162.884 2.61749 162.817 2.3982C162.777 2.27151 162.729 2.14751 162.674 2.027C162.664 2.07399 162.624 2.21182 162.552 2.44049C162.48 2.66918 162.384 2.95188 162.263 3.28862C162.145 3.62693 162.012 4.00049 161.865 4.40928C161.718 4.81808 161.562 5.22767 161.396 5.63802L158.643 12.9376H166.728L163.965 5.63802Z" fill="#CFBDA2"/>
</g>
<defs>
<clipPath id="clip0">
<rect width="172" height="39" fill="white"/>
</clipPath>
</defs>
</svg>
