<svg width="100" height="37" viewBox="0 0 100 37" fill="none" xmlns="http://www.w3.org/2000/svg">
<g clip-path="url(#clip0)">
<path d="M40.4464 7.1806H43.3879C43.3631 4.80986 41.4703 3.20667 38.5164 3.20667C35.612 3.20667 33.5208 4.7851 33.5394 7.14346C33.5332 9.06854 34.886 10.1518 37.0829 10.6532L38.4109 10.9627C39.8071 11.2845 40.4339 11.6621 40.4464 12.3739C40.4339 13.1477 39.7079 13.6862 38.4729 13.6862C37.1139 13.6862 36.2203 13.0548 36.152 11.8354H33.2104C33.2477 14.8004 35.3143 16.218 38.5102 16.218C41.6751 16.218 43.5493 14.788 43.5617 12.3802C43.5493 10.356 42.1777 9.11806 39.6707 8.56715L38.5785 8.31955C37.4242 8.07196 36.6919 7.68818 36.7167 6.93301C36.7229 6.23974 37.3187 5.73835 38.5102 5.73835C39.7079 5.73835 40.3657 6.27688 40.4464 7.1806Z" fill="#CFBDA2"/>
<path d="M49.132 16.2365C51.6329 16.2365 53.2775 15.0294 53.6249 13.16L50.8386 13.0796C50.6027 13.711 49.9821 14.0515 49.1878 14.0515C48.0211 14.0515 47.3012 13.2777 47.3012 12.114V12.0335H53.6559V11.2784C53.6559 8.14625 51.7446 6.42545 49.0388 6.42545C46.1594 6.42545 44.3101 8.39385 44.3101 11.3403C44.3101 14.3857 46.1345 16.2365 49.132 16.2365ZM47.3012 10.2756C47.3447 9.32853 48.0955 8.61049 49.101 8.61049C50.1001 8.61049 50.8199 9.30377 50.8323 10.2756H47.3012Z" fill="#CFBDA2"/>
<path d="M63.0908 9.45233C62.9295 7.57058 61.3843 6.42545 58.8026 6.42545C56.2211 6.42545 54.5766 7.54583 54.589 9.45233C54.5766 10.9132 55.5136 11.854 57.4187 12.2068L59.082 12.5225C59.87 12.6773 60.2301 12.9249 60.2424 13.3458C60.2301 13.8225 59.6964 14.1381 58.9206 14.1381C58.058 14.1381 57.4746 13.7667 57.3443 13.0735L54.3469 13.1477C54.5641 15.0294 56.1838 16.2365 58.9082 16.2365C61.4587 16.2365 63.3143 14.9675 63.3267 13.0116C63.3143 11.625 62.3958 10.8017 60.4968 10.4365L58.6599 10.0899C57.8532 9.92895 57.5925 9.64421 57.5988 9.27901C57.5925 8.7962 58.1572 8.49907 58.8585 8.49907C59.6591 8.49907 60.2176 8.92618 60.3045 9.5266L63.0908 9.45233Z" fill="#CFBDA2"/>
<path d="M69.7641 6.54922H68.0451V4.27133H65.0105V6.54922H63.7507V8.7776H65.0105V13.4015C64.9919 15.3265 66.2454 16.2922 68.3864 16.1932C69.1188 16.156 69.6462 16.0074 69.9379 15.9208L69.4787 13.7357C69.3484 13.7667 69.0442 13.8286 68.8147 13.8286C68.3244 13.8286 68.0451 13.6305 68.0451 13.0673V8.7776H69.7641V6.54922Z" fill="#CFBDA2"/>
<path d="M70.8757 16.057H73.9104V10.8946C73.9104 9.76182 74.7171 9.00046 75.8032 9.00046C76.1631 9.00046 76.7029 9.06236 76.9947 9.16139V6.53067C76.7402 6.46258 76.4237 6.41925 76.1445 6.41925C75.1018 6.41925 74.2703 7.02587 73.9227 8.28242H73.8235V6.54924H70.8757V16.057Z" fill="#CFBDA2"/>
<path d="M79.9397 19.61C82.1241 19.61 83.2101 18.5081 83.7376 16.9668L87.3308 6.55542L84.1348 6.54922L82.3538 13.3334H82.2545L80.4982 6.54922H77.3208L80.7092 16.4036L80.5913 16.6884C80.2624 17.3693 79.6418 17.4002 78.7482 17.1093L78.078 19.3067C78.5372 19.4862 79.2137 19.61 79.9397 19.61Z" fill="#CFBDA2"/>
<path d="M42.8833 24.1031H39.6771L37.909 30.6541H37.8093L36.0475 24.1031H32.8413L36.116 33.6138H39.6023L42.8833 24.1031Z" fill="#CFBDA2"/>
<path d="M46.9653 33.6138H55.1769V31.2609H50.9186V31.199L55.0274 25.9979V24.1031H47.1209V26.4561H51.3979V26.518L46.9653 31.8862V33.6138Z" fill="#CFBDA2"/>
<path d="M59.4017 33.7747C60.7341 33.7747 61.6555 33.2608 62.1783 32.2888H62.253V33.6138H65.1168V27.1496C65.1168 25.1372 63.3177 23.9793 60.8834 23.9793C58.3123 23.9793 56.8555 25.2673 56.6127 27.001L59.4204 27.1C59.5512 26.4932 60.0555 26.1218 60.8585 26.1218C61.6056 26.1218 62.0787 26.4809 62.0787 27.1187V27.1496C62.0787 27.7316 61.4438 27.8555 59.8127 27.9978C57.8765 28.1589 56.2578 28.8709 56.2578 30.976C56.2578 32.8583 57.5713 33.7747 59.4017 33.7747ZM59.9371 22.8958H62.0103L63.8904 20.1033H61.1947L59.9371 22.8958ZM60.3418 31.7934C59.6382 31.7934 59.1402 31.459 59.1402 30.8275C59.1402 30.2144 59.6258 29.843 60.4913 29.713C61.0578 29.6324 61.755 29.5086 62.0974 29.329V30.2331C62.0974 31.1619 61.313 31.7934 60.3418 31.7934Z" fill="#CFBDA2"/>
<path d="M69.5846 20.933H66.5403V33.6138H69.5846V20.933Z" fill="#CFBDA2"/>
<path d="M75.5477 33.7933C78.5547 33.7933 80.3788 31.8182 80.3788 28.8895C80.3788 25.9545 78.5547 23.9793 75.5477 23.9793C72.5407 23.9793 70.7166 25.9545 70.7166 28.8895C70.7166 31.8182 72.5407 33.7933 75.5477 33.7933ZM75.5664 31.5086C74.4396 31.5086 73.8169 30.4436 73.8169 28.8709C73.8169 27.2919 74.4396 26.2208 75.5664 26.2208C76.6558 26.2208 77.2784 27.2919 77.2784 28.8709C77.2784 30.4436 76.6558 31.5086 75.5664 31.5086Z" fill="#CFBDA2"/>
<path d="M81.5249 33.6138H89.7365V31.2609H85.4782V31.199L89.587 25.9979V24.1031H81.6805V26.4561H85.9575V26.518L81.5249 31.8862V33.6138Z" fill="#CFBDA2"/>
<path d="M95.4615 33.7933C97.9705 33.7933 99.6203 32.5859 99.9689 30.7161L97.1736 30.6355C96.9371 31.2671 96.3144 31.6076 95.5176 31.6076C94.3471 31.6076 93.625 30.8337 93.625 29.6696V29.5892H100V28.8337C100 25.7007 98.0826 23.9793 95.3682 23.9793C92.4795 23.9793 90.6243 25.9484 90.6243 28.8957C90.6243 31.942 92.4545 33.7933 95.4615 33.7933ZM93.625 27.8307C93.6685 26.8833 94.4219 26.1651 95.4304 26.1651C96.4327 26.1651 97.1549 26.8586 97.1673 27.8307H93.625Z" fill="#CFBDA2"/>
<path d="M1.77887 25.3054L0.00797731 36.2799C-0.0211246 36.4592 0.0302681 36.6423 0.147914 36.7815C0.265561 36.9206 0.437695 37 0.619118 37H24.1483C24.3298 37 24.502 36.9206 24.6202 36.7815C24.7373 36.643 24.7886 36.4592 24.7601 36.2799L22.993 25.339C22.9137 24.5902 22.3979 23.9669 21.6791 23.7502L21.5701 23.7172C22.3447 23.2255 23.0004 22.5469 23.4604 21.7286C24.2271 20.3639 24.3861 18.7882 23.8957 17.2553L21.0338 9.87451C20.9477 8.14665 20.3459 6.47591 19.3093 5.09077L20.401 1.80702C20.4585 1.63443 20.4381 1.44568 20.344 1.29046C20.2512 1.13463 20.0945 1.02784 19.9156 0.998037L15.4852 0.257969C13.4283 -0.0859896 11.3398 -0.0859896 9.28221 0.257969L4.85191 0.998037C4.67296 1.02784 4.51631 1.13463 4.42343 1.29046C4.32993 1.44568 4.30888 1.63443 4.36646 1.80702L5.45809 5.09077C4.42157 6.47591 3.81972 8.14665 3.73365 9.87451L0.859364 17.2913C0.381968 18.7882 0.540481 20.3646 1.30766 21.7286C1.7671 22.5469 2.42344 23.2255 3.19804 23.7172L3.08907 23.7502C2.36957 23.9669 1.85379 24.5902 1.77887 25.3054ZM5.67048 11.3956C5.91073 11.2398 6.15406 11.0883 6.39865 10.9411C6.55716 10.8455 6.71814 10.753 6.87914 10.6611C7.08347 10.5438 7.28657 10.4246 7.494 10.3135C7.50018 10.3104 7.50637 10.3066 7.51319 10.3035C7.57945 10.2681 7.64694 10.2365 7.71319 10.2017C8.01659 10.0428 8.32123 9.88755 8.63082 9.74103C8.78811 9.6659 8.94785 9.59574 9.10637 9.52373C9.41844 9.38341 9.73236 9.24868 10.05 9.1214C10.1992 9.06118 10.3472 8.99786 10.4971 8.94011C10.59 8.90473 10.6847 8.87306 10.7782 8.83891C11.1429 8.70481 11.5101 8.58002 11.881 8.46329C12.1435 8.38071 12.4066 8.29752 12.6723 8.22363C12.8109 8.18452 12.9515 8.15162 13.0915 8.11499C13.2903 8.06283 13.4897 8.01316 13.6903 7.96598C13.6934 7.98523 13.6989 8.00324 13.7026 8.02248C13.7132 8.07587 13.7256 8.12802 13.7379 8.1808C13.7565 8.26151 13.7763 8.34222 13.7999 8.42108C13.8153 8.47447 13.8326 8.52661 13.8499 8.57877C13.876 8.65576 13.9032 8.73151 13.9336 8.80663C13.954 8.85691 13.9744 8.90721 13.9961 8.95687C14.0295 9.032 14.0648 9.10464 14.102 9.17728C14.1262 9.22384 14.1491 9.27041 14.175 9.31635C14.2166 9.39086 14.2617 9.46287 14.3076 9.53427C14.3336 9.57464 14.3577 9.61561 14.385 9.65535C14.4209 9.70812 14.4599 9.7584 14.4983 9.80995C14.5095 9.82422 14.5199 9.8385 14.5311 9.85278C14.5397 9.86395 14.5485 9.87576 14.5571 9.88693C14.5793 9.91548 14.5999 9.94529 14.6234 9.97323C14.7082 10.0757 14.7967 10.1738 14.8909 10.2681C14.902 10.2799 14.915 10.2899 14.9268 10.301C14.9324 10.306 14.9379 10.311 14.9434 10.3166C14.9522 10.3253 14.9614 10.3333 14.9707 10.3414C15.0401 10.4078 15.1101 10.4736 15.1838 10.5351C15.2172 10.563 15.2524 10.5885 15.2871 10.6158C15.3565 10.6705 15.4264 10.7245 15.4995 10.7748C15.5416 10.8039 15.5856 10.8306 15.6289 10.8586C15.697 10.9027 15.7664 10.9455 15.837 10.9852C15.8846 11.0119 15.933 11.0374 15.9812 11.0622C15.9905 11.0672 15.9999 11.0722 16.0097 11.0771C16.0165 11.0808 16.0234 11.0846 16.0308 11.0883C16.0852 11.1156 16.1403 11.1411 16.1955 11.1659C16.2462 11.1883 16.297 11.21 16.3485 11.2311C16.4228 11.2609 16.4977 11.2882 16.5738 11.3143C16.5924 11.3205 16.6097 11.3286 16.6283 11.3342C16.6308 11.3348 16.6326 11.336 16.6351 11.3366C16.6667 11.3466 16.6989 11.3559 16.7305 11.3652C16.8097 11.3888 16.8908 11.4087 16.9726 11.4279C17.024 11.4397 17.0754 11.4534 17.1273 11.4633C17.1695 11.4714 17.2116 11.4782 17.2536 11.485C17.2791 11.4894 17.305 11.4919 17.3305 11.4956C17.354 11.4993 17.3781 11.5024 17.4023 11.5055C17.4475 11.5111 17.4914 11.5198 17.5367 11.5241C17.6748 11.5366 17.8146 11.5446 17.9565 11.5446H19.18C19.032 14.3155 17.8036 18.0798 16.0877 19.5128C15.975 19.6065 15.8587 19.6929 15.7416 19.7772C15.741 19.7779 15.7403 19.7779 15.7397 19.7785C15.4964 19.953 15.2413 20.1044 14.98 20.236C14.9664 20.2429 14.9534 20.2503 14.9397 20.2573C14.6828 20.3844 14.4185 20.4906 14.1491 20.5776C14.1323 20.5831 14.1156 20.5875 14.0995 20.5931C13.8264 20.6782 13.5491 20.7439 13.2685 20.7875C13.2642 20.7881 13.2599 20.7887 13.2556 20.7893C12.6785 20.8775 12.0909 20.8775 11.5138 20.7893C11.5094 20.7887 11.5051 20.7881 11.5014 20.7875C11.2209 20.7439 10.9435 20.6782 10.6704 20.5931C10.6537 20.5882 10.637 20.5831 10.6209 20.5776C10.3516 20.4912 10.0872 20.3844 9.8302 20.2573C9.81658 20.2503 9.80358 20.2436 9.78995 20.2367C9.52803 20.1044 9.27354 19.9536 9.03021 19.7791C9.02958 19.7785 9.02897 19.7785 9.02835 19.7779C8.9107 19.6941 8.79429 19.6078 8.68223 19.5134C6.79741 17.9382 5.7132 13.9505 5.59183 11.4503C5.61661 11.4322 5.64324 11.4136 5.67048 11.3956ZM10.7683 21.9062C10.7999 21.9136 10.8314 21.9199 10.8636 21.9267C11.0847 21.9758 11.307 22.0143 11.5305 22.0415C11.5621 22.0453 11.5937 22.0503 11.6259 22.054C11.8779 22.0812 12.1305 22.1 12.3844 22.1C12.6376 22.1 12.8903 22.0812 13.1423 22.054C13.1744 22.0503 13.206 22.0453 13.2383 22.0415C13.4611 22.0143 13.6834 21.9758 13.9032 21.9273C13.9354 21.9199 13.9683 21.9136 14.0005 21.9062C14.497 21.7888 14.9825 21.6163 15.4493 21.3891C15.4593 21.384 15.4704 21.3809 15.4803 21.376V22.7202V23.5783L12.3844 25.1304L9.28841 23.5783V22.7202V21.3754C9.2977 21.3803 9.30822 21.3828 9.31752 21.3877C9.78438 21.6156 10.2711 21.7882 10.7683 21.9062ZM15.4797 24.9665V26.205L13.998 25.7096L15.4797 24.9665ZM9.28779 24.9665L10.7695 25.7096L9.28779 26.205V24.9665ZM21.7657 25.5035L23.4208 35.7583H20.4704L21.0512 25.8612L19.8153 25.7885L19.2301 35.7583H13.003V26.6863L15.9032 27.6554C15.967 27.6765 16.0332 27.6871 16.0989 27.6871C16.2271 27.6871 16.354 27.6473 16.4611 27.5697C16.6228 27.453 16.7181 27.2655 16.7181 27.0662V23.9619V23.5546L21.3236 24.9397C21.5632 25.0118 21.7354 25.2203 21.7657 25.5035ZM22.3812 21.1196C21.8146 22.1272 20.8716 22.8711 19.7769 23.1784L16.7181 22.2582V20.5906C16.772 20.5483 16.8277 20.5105 16.8809 20.4664C19.1069 18.6063 20.2381 14.3913 20.4079 11.6843L22.7292 17.6695C23.1007 18.8349 22.9769 20.0598 22.3812 21.1196ZM18.8165 6.57649C19.4654 7.70335 19.814 8.99226 19.814 10.3029H19.8103H17.9565C17.7645 10.3029 17.5787 10.2799 17.3961 10.2464C17.3446 10.2371 17.2952 10.2222 17.2444 10.2098C17.2246 10.2048 17.2048 10.1986 17.185 10.1936C17.076 10.1651 16.9689 10.1334 16.8648 10.0937C16.8209 10.0769 16.7775 10.0589 16.7348 10.0403C16.6958 10.0235 16.6574 10.0049 16.6191 9.98626C16.5274 9.94157 16.4383 9.89375 16.3515 9.84036C16.3311 9.82794 16.3095 9.81615 16.2895 9.80311C16.2338 9.7671 16.18 9.72922 16.1274 9.69011C16.0364 9.62244 15.9491 9.55104 15.8661 9.47405C15.8171 9.42873 15.7689 9.38216 15.723 9.33374C15.7063 9.31635 15.6915 9.29773 15.6748 9.27972C15.6079 9.20646 15.5454 9.12948 15.4852 9.05C15.4611 9.01771 15.4376 8.98605 15.4146 8.95315C15.3825 8.90659 15.3522 8.85877 15.3224 8.81035C15.2697 8.72406 15.2221 8.63527 15.1781 8.544C15.1769 8.54152 15.1756 8.53903 15.1744 8.53592C15.1391 8.46143 15.1038 8.38693 15.0736 8.30931C15.0172 8.16218 14.9664 8.01192 14.9323 7.85547C14.9299 7.84428 14.9248 7.83374 14.9224 7.82256C14.9224 7.82194 14.9224 7.82132 14.9224 7.8207H17.9565C18.2234 7.8207 18.4599 7.64996 18.5434 7.39603L18.8165 6.57649ZM9.48531 1.48294C11.4079 1.16132 13.3589 1.16132 15.2815 1.48294L18.9973 2.1038L17.51 6.57772H14.2413H7.25747L5.77016 2.1038L9.48531 1.48294ZM6.81102 7.81946H9.93918C9.6915 7.91445 9.44878 8.02186 9.20419 8.12492C9.11813 8.16155 9.03082 8.19508 8.94476 8.23294C8.62217 8.37203 8.3039 8.52041 7.98686 8.67252C7.92743 8.70108 7.86737 8.72902 7.80792 8.7582C7.47356 8.92149 7.14292 9.09347 6.81536 9.27103C6.78069 9.28965 6.74602 9.3089 6.71071 9.32816C6.3652 9.51751 6.02279 9.71495 5.68472 9.92045C5.67605 9.92542 5.668 9.93101 5.65934 9.93598C5.42342 10.08 5.18503 10.2191 4.95283 10.3706V10.3029C4.95283 8.99226 5.30144 7.70335 5.95034 6.57649L6.22279 7.39478C6.30824 7.64871 6.54416 7.81946 6.81102 7.81946ZM2.38629 21.1196C1.79063 20.0592 1.6674 18.8342 2.02592 17.7055L4.18133 12.1456C4.20919 12.1525 4.23829 12.1456 4.26739 12.1487C4.28968 12.1518 4.31135 12.1655 4.33427 12.1655C4.3578 12.1655 4.38009 12.1574 4.40299 12.1549C4.67111 14.8371 5.81042 18.7317 7.88656 20.467C7.93919 20.5111 7.99554 20.5491 8.04941 20.5912V22.2582L4.98999 23.1784C3.89588 22.8711 2.95285 22.1279 2.38629 21.1196ZM3.44449 24.9403L8.04941 23.5546V23.9619V27.0662C8.04941 27.2655 8.14476 27.453 8.30637 27.5697C8.4686 27.6865 8.67478 27.7174 8.86427 27.6554L11.7646 26.6863V35.7583H5.53736L4.95221 25.7879L3.71631 25.8605L4.29711 35.7583H1.34667L3.0061 25.4699C3.0321 25.2203 3.20424 25.0118 3.44449 24.9403Z" fill="#CFBDA2"/>
<path d="M18.5756 28.9288H16.0989V30.1705H18.5756V28.9288Z" fill="#CFBDA2"/>
<path d="M11.7645 5.95687H13.0029V4.71514H14.2413V3.47342H13.0029V2.23169H11.7645V3.47342H10.5261V4.71514H11.7645V5.95687Z" fill="#CFBDA2"/>
</g>
<defs>
<clipPath id="clip0">
<rect width="100" height="37" fill="white"/>
</clipPath>
</defs>
</svg>
